<svg width="500" height="500" viewBox="0 0 500 500" fill="none" xmlns="http://www.w3.org/2000/svg">
    <g clip-path="url(#clip0_1_358)">
        <path d="M302.489 52.7402V116.55H210.839L207.529 53.1802L302.489 52.7402Z" fill="#E0E0E0" />
        <path d="M207.532 53.1875V116.417H299.182V53.1875L207.532 53.1875Z" fill="white" />
        <path
            d="M299.62 116.85H207.1V52.75H299.62V116.85ZM207.97 115.98H298.75V53.62H207.97V115.98Z"
            fill="#E0E0E0" />
        <path d="M289.26 61.04H217.46V108.56H289.26V61.04Z" fill="white" />
        <path
            d="M289.26 61.0401C289.26 61.0401 289.14 61.0501 288.91 61.0501C288.67 61.0501 288.33 61.0601 287.89 61.0601C286.98 61.0701 285.66 61.0701 283.95 61.0901C280.5 61.1001 275.49 61.1201 269.15 61.1501C256.49 61.1701 238.57 61.2101 217.46 61.2501L217.67 61.0401C217.68 75.5601 217.68 91.6501 217.69 108.55V108.56L217.46 108.33C244.54 108.35 269.52 108.36 289.26 108.38L289.08 108.56C289.12 94.1001 289.15 82.2401 289.17 73.9901C289.19 69.8601 289.21 66.6401 289.22 64.4301C289.23 63.3401 289.24 62.5001 289.24 61.9201C289.25 61.3401 289.26 61.0401 289.26 61.0401C289.26 61.0401 289.27 61.3201 289.28 61.8701C289.28 62.4401 289.29 63.2701 289.3 64.3501C289.31 66.5501 289.33 69.7601 289.35 73.8701C289.37 82.1501 289.41 94.0501 289.44 108.56V108.74H289.26C269.52 108.75 244.55 108.77 217.46 108.79H217.23V108.56V108.55C217.24 91.6401 217.24 75.5501 217.25 61.0401V60.8301H217.46C238.62 60.8701 256.59 60.9101 269.28 60.9301C275.59 60.9501 280.59 60.9701 284.03 60.9901C285.72 61.0001 287.03 61.0101 287.93 61.0201C288.36 61.0301 288.69 61.0301 288.93 61.0301C289.15 61.0301 289.26 61.0401 289.26 61.0401Z"
            fill="#E0E0E0" />
        <path
            d="M207.53 53.0004C207.57 52.9504 208.17 53.3404 209.11 54.0204C210.05 54.7004 211.32 55.6604 212.7 56.7604C214.08 57.8604 215.29 58.9104 216.15 59.6904C217 60.4704 217.5 60.9904 217.46 61.0304C217.37 61.1304 215.17 59.3104 212.42 57.1104C209.67 54.9204 207.45 53.1104 207.53 53.0004Z"
            fill="#E0E0E0" />
        <path
            d="M299.19 53.18C299.27 53.28 297.11 55.12 294.37 57.29C291.63 59.46 289.34 61.14 289.27 61.04C289.19 60.94 291.35 59.1 294.09 56.93C296.82 54.76 299.11 53.08 299.19 53.18Z"
            fill="#E0E0E0" />
        <path d="M299.11 116.42C295.7 113.66 292.3 110.9 288.89 108.14L299.11 116.42Z" fill="white" />
        <path
            d="M288.889 108.14C288.969 108.04 291.319 109.82 294.139 112.11C296.959 114.4 299.189 116.33 299.109 116.43C299.029 116.53 296.679 114.75 293.859 112.46C291.039 110.17 288.819 108.24 288.889 108.14Z"
            fill="#E0E0E0" />
        <path
            d="M207.53 116.41C207.45 116.31 209.59 114.49 212.3 112.35C215.01 110.2 217.28 108.54 217.35 108.64C217.43 108.74 215.29 110.56 212.58 112.7C209.87 114.85 207.61 116.51 207.53 116.41Z"
            fill="#E0E0E0" />
        <path d="M232.039 75.8464V91.7563H277.219V75.8464H232.039Z" fill="#C6D2FF" />
        <path
            d="M77.3196 466.16C75.6296 464.71 71.8596 460.12 74.7696 454.78C75.8396 452.82 78.0996 451.85 80.1496 450.99C82.1996 450.13 84.3496 449.38 86.0496 447.94C89.2496 445.22 90.1296 440.7 92.2496 437.07C94.6896 432.91 99.2296 429.78 104.04 430C109.54 430.25 114.13 434.74 116.21 439.87C118.29 444.99 118.36 450.68 118.41 456.21C118.43 459.27 118.3 462.72 116.05 464.78C113.98 466.68 110.86 466.71 108.06 466.62C98.0396 466.31 88.0196 466 77.9996 465.7"
            fill="#F5F5F5" />
        <path
            d="M134.81 383.49H55.76L70 468.41C70.62 472.12 73.31 474.98 76.75 475.97C76.84 476 76.93 476.02 77.03 476.05C77.27 476.11 77.49 476.19 77.73 476.23C78.25 476.34 78.79 476.39 79.34 476.41C79.34 476.44 79.35 476.47 79.35 476.49L79.74 476.43H114.98C115.64 476.43 116.29 476.36 116.92 476.24C121.08 475.6 124.41 472.26 124.92 467.94L131.79 409.43L132.1 407.1H132.06L134.78 383.93L134.81 383.49ZM119.9 437.66H111.79L112.61 413.01H122.01L119.9 437.66ZM122.79 413.01H130.56L127.67 437.66H120.69L122.79 413.01ZM99.61 464.98L99.12 443.57H110.8L110.09 464.98H99.61ZM86.98 443.57H98.33L98.82 464.98H88.65L86.98 443.57ZM87.86 464.98H78.34C77.44 459.2 76.26 451.69 74.98 443.57H86.2L87.86 464.98ZM86.52 437.66L84.6 413.01H97.62L98.19 437.66H86.52ZM98.98 437.66L98.41 413.01H111.81L111 437.66H98.98ZM98.28 407.1L97.75 384.28H112.77L112.01 407.1H98.28ZM97.5 407.1H84.15L82.38 384.28H96.98L97.5 407.1ZM83.36 407.1H69.24C68.74 403.95 68.27 400.96 67.84 398.28C66.37 389.05 65.81 385.58 65.51 384.28H81.59L83.36 407.1ZM83.82 413.01L85.74 437.66H74.06C73.67 435.16 73.27 432.63 72.87 430.1C71.95 424.28 71.04 418.47 70.18 413.02H83.82V413.01ZM73.26 437.66H65.63L61.5 413.01H69.38C70.59 420.63 71.92 429.1 73.26 437.66ZM74.19 443.57C75.35 450.98 76.5 458.28 77.55 464.98H70.22L66.63 443.57H74.19ZM110.88 464.98L111.59 443.57H119.39L117.56 464.98H110.88ZM112.8 407.1L113.56 384.28H124.46L122.51 407.1H112.8ZM64.76 384.28C65.07 385.93 66.52 394.91 68.45 407.1H60.51L56.68 384.28H64.76ZM124.46 464.98H118.35L120.18 443.57H126.97L124.46 464.98ZM131.25 407.1H123.29L125.24 384.28H133.92L131.25 407.1Z"
            fill="#E0E0E0" />
        <path
            d="M367.38 258.83C367.38 259.22 367.38 280.23 367.38 280.23H363.81V282.55H367.38V296.87H434.15V283.84H429.2V281H434.15V276.74H436.35V274.8H433.74V258.82H367.38V258.83Z"
            fill="#F5F5F5" />
        <path
            d="M416.42 258.9V296.63H434.15V283.6H429.2V281L434.15 281.09V276.83L436.39 276.84L436.35 274.64L433.74 274.57V258.83L416.42 258.9Z"
            fill="#E0E0E0" />
        <path
            d="M417.68 282.24C417.68 282.37 405.6 282.48 390.7 282.48C375.79 282.48 363.71 282.37 363.71 282.24C363.71 282.11 375.79 282 390.7 282C405.6 282.01 417.68 282.11 417.68 282.24Z"
            fill="#E0E0E0" />
        <path
            d="M417.68 280.07C417.68 280.2 405.6 280.31 390.7 280.31C375.79 280.31 363.71 280.2 363.71 280.07C363.71 279.94 375.79 279.83 390.7 279.83C405.6 279.83 417.68 279.94 417.68 280.07Z"
            fill="#E0E0E0" />
        <path
            d="M421.15 274.22C421.15 274.35 409.07 274.46 394.17 274.46C379.26 274.46 367.18 274.35 367.18 274.22C367.18 274.09 379.26 273.98 394.17 273.98C409.06 273.99 421.15 274.09 421.15 274.22Z"
            fill="#E0E0E0" />
        <path
            d="M421.48 290.16C421.48 290.29 409.4 290.4 394.5 290.4C379.59 290.4 367.51 290.29 367.51 290.16C367.51 290.03 379.59 289.92 394.5 289.92C409.4 289.92 421.48 290.03 421.48 290.16Z"
            fill="#E0E0E0" />
        <path d="M277.909 460.271H286.549V356.73H277.909V460.271Z" fill="#E0E0E0" />
        <path
            d="M221.08 361.42H344.67C344.67 354.01 338.66 348 331.25 348H234.5C227.09 348.01 221.08 354.01 221.08 361.42Z"
            fill="#EBEBEB" />
        <path
            d="M345.18 361.92H220.58V361.42C220.58 353.75 226.82 347.5 234.5 347.5H331.26C338.93 347.5 345.18 353.74 345.18 361.42V361.92ZM221.59 360.92H344.16C343.9 354.03 338.21 348.5 331.25 348.5H234.5C227.54 348.51 221.85 354.03 221.59 360.92Z"
            fill="#E0E0E0" />
        <path
            d="M273.83 361.69C273.83 361.87 277.22 362.01 281.41 362.01C285.6 362.01 288.99 361.87 288.99 361.69C288.99 361.51 285.6 361.37 281.41 361.37C277.22 361.37 273.83 361.51 273.83 361.69Z"
            fill="#E0E0E0" />
        <path
            d="M244.42 469.65H245.64C245.64 449.37 262.13 432.88 282.41 432.88C302.68 432.88 319.18 449.38 319.18 469.65H320.4C320.4 448.7 303.36 431.66 282.41 431.66C261.47 431.66 244.42 448.7 244.42 469.65Z"
            fill="#EBEBEB" />
        <path
            d="M314.1 471.54C314.1 474.69 316.65 477.24 319.8 477.24C322.95 477.24 325.5 474.69 325.5 471.54C325.5 468.39 322.95 465.84 319.8 465.84C316.65 465.84 314.1 468.39 314.1 471.54Z"
            fill="#E0E0E0" />
        <path
            d="M239.05 470.75C239.05 473.9 241.6 476.45 244.75 476.45C247.9 476.45 250.45 473.9 250.45 470.75C250.45 467.6 247.9 465.05 244.75 465.05C241.61 465.06 239.05 467.61 239.05 470.75Z"
            fill="#E0E0E0" />
        <path
            d="M244.79 460.27C244.79 460.45 261.32 460.59 281.71 460.59C302.11 460.59 318.63 460.45 318.63 460.27C318.63 460.09 302.1 459.95 281.71 459.95C261.32 459.95 244.79 460.1 244.79 460.27Z"
            fill="#EBEBEB" />
        <path
            d="M348.31 254.24V330.46C348.31 340.46 340.21 348.56 330.21 348.56H271.48L279.46 254.24C279.46 249.79 283.07 246.17 287.53 246.17H340.25C344.69 246.17 348.31 249.78 348.31 254.24Z"
            fill="#EBEBEB" />
        <path
            d="M327.55 348.01C327.54 348 327.59 347.93 327.68 347.79C327.8 347.62 327.94 347.41 328.11 347.17C328.5 346.63 329.06 345.82 329.73 344.75C331.05 342.61 332.82 339.37 334.11 335.04C334.76 332.88 335.29 330.46 335.57 327.83C335.88 325.2 335.8 322.37 335.8 319.37C335.79 313.38 335.78 306.8 335.78 299.89C335.82 286.09 335.85 273.6 335.87 264.49C335.91 260 335.94 256.36 335.97 253.76C335.99 252.54 336.01 251.57 336.03 250.84C336.05 250.17 336.07 249.82 336.09 249.82C336.11 249.82 336.13 250.17 336.15 250.84C336.16 251.56 336.18 252.53 336.21 253.76C336.23 256.35 336.27 260 336.31 264.49C336.33 273.6 336.36 286.09 336.4 299.89C336.39 306.8 336.38 313.38 336.38 319.37C336.37 322.35 336.43 325.22 336.09 327.89C335.79 330.55 335.22 333 334.54 335.17C333.18 339.53 331.34 342.76 329.95 344.88C329.25 345.94 328.66 346.73 328.23 347.25C327.8 347.76 327.56 348.02 327.55 348.01Z"
            fill="#E0E0E0" />
        <path
            d="M295.57 348.05C295.57 348.01 296.23 347.97 297.44 347.94C298.75 347.92 300.46 347.9 302.53 347.88C306.83 347.85 312.77 347.86 319.32 347.91C322.6 347.94 325.73 347.95 328.56 348.02C331.39 348.07 334 348.23 336.1 348.84C338.21 349.42 339.72 350.42 340.63 351.21C341.09 351.6 341.41 351.95 341.62 352.2C341.83 352.44 341.93 352.57 341.91 352.59C341.86 352.64 341.43 352.12 340.48 351.4C339.54 350.68 338.05 349.77 335.98 349.26C333.93 348.71 331.38 348.6 328.54 348.58C325.69 348.56 322.57 348.54 319.3 348.52C312.75 348.47 306.81 348.4 302.52 348.31C300.46 348.26 298.74 348.21 297.43 348.18C296.23 348.14 295.57 348.09 295.57 348.05Z"
            fill="#E0E0E0" />
        <path
            d="M469.71 476.49C469.71 476.63 371.34 476.75 250.02 476.75C128.66 476.75 30.3 476.63 30.3 476.49C30.3 476.35 128.65 476.23 250.02 476.23C371.33 476.23 469.71 476.35 469.71 476.49Z"
            fill="#263238" />
        <path d="M104.43 247.96V255.28H159.24V247.96H104.43Z" fill="#4CD685" />
        <path
            d="M111.9 248.26C112.09 248.26 112.24 249.8 112.24 251.69C112.24 253.58 112.09 255.12 111.9 255.12C111.71 255.12 111.56 253.58 111.56 251.69C111.56 249.8 111.71 248.26 111.9 248.26Z"
            fill="#FAFAFA" />
        <path
            d="M110.71 248.11C110.9 248.11 111.05 249.65 111.05 251.54C111.05 253.43 110.9 254.97 110.71 254.97C110.52 254.97 110.37 253.43 110.37 251.54C110.36 249.65 110.52 248.11 110.71 248.11Z"
            fill="#FAFAFA" />
        <path
            d="M155.011 248.26C155.201 248.26 155.351 249.8 155.351 251.69C155.351 253.58 155.201 255.12 155.011 255.12C154.821 255.12 154.671 253.58 154.671 251.69C154.661 249.8 154.821 248.26 155.011 248.26Z"
            fill="#FAFAFA" />
        <path
            d="M153.81 248.11C154 248.11 154.15 249.65 154.15 251.54C154.15 253.43 154 254.97 153.81 254.97C153.62 254.97 153.47 253.43 153.47 251.54C153.47 249.65 153.62 248.11 153.81 248.11Z"
            fill="#FAFAFA" />
        <path
            d="M146.651 251.84C146.651 252.03 140.371 252.18 132.631 252.18C124.891 252.18 118.611 252.03 118.611 251.84C118.611 251.65 124.891 251.5 132.631 251.5C140.381 251.5 146.651 251.65 146.651 251.84Z"
            fill="#FAFAFA" />
        <path d="M104.194 280.933V295.573H159.004V280.933H104.194Z" fill="#4CD685" />
        <path
            d="M159.71 291.45C159.72 291.46 159.61 291.52 159.41 291.62C159.21 291.72 158.9 291.87 158.5 292.04C157.69 292.37 156.46 292.84 154.78 293.1C153.14 293.33 150.93 293.4 148.75 292.24C147.68 291.67 146.66 290.8 145.89 289.64C145.13 288.49 144.65 286.99 144.89 285.42C145.02 284.64 145.35 283.87 145.9 283.24C146.44 282.6 147.3 282.14 148.21 282.19C149.13 282.23 149.96 282.76 150.53 283.44C151.11 284.13 151.51 285.01 151.59 285.94C151.81 287.8 151.02 289.72 149.7 291.13C148.4 292.59 146.45 293.48 144.43 293.7C142.4 293.94 140.31 293.62 138.32 292.94C136.33 292.25 134.37 291.14 132.98 289.35C132.3 288.46 131.81 287.36 131.73 286.19C131.63 285.02 132 283.77 132.9 282.9C133.35 282.47 133.97 282.18 134.61 282.15C135.26 282.12 135.88 282.33 136.4 282.65C137.46 283.31 138.13 284.43 138.42 285.6C138.94 287.99 137.99 290.49 136.26 292.05C134.53 293.63 132.26 294.33 130.09 294.56C127.91 294.78 125.71 294.62 123.69 293.93C121.68 293.26 119.87 291.94 118.82 290.15C117.76 288.4 117.41 286.19 118.21 284.33C118.58 283.41 119.43 282.59 120.45 282.44C121.44 282.26 122.45 282.53 123.21 283.11C124.76 284.34 125.02 286.44 124.52 288.04C124.01 289.69 122.9 290.95 121.76 291.93C119.42 293.91 116.64 294.76 114.24 294.85C111.82 294.94 109.78 294.27 108.28 293.5C106.78 292.72 105.79 291.83 105.17 291.2C104.87 290.88 104.65 290.62 104.51 290.44C104.37 290.26 104.31 290.16 104.32 290.16C104.39 290.06 105.42 291.76 108.4 293.27C109.88 293.99 111.87 294.6 114.22 294.48C116.54 294.36 119.21 293.5 121.44 291.58C122.54 290.63 123.57 289.41 124.01 287.91C124.46 286.46 124.17 284.58 122.87 283.58C122.24 283.1 121.36 282.88 120.57 283.04C119.76 283.18 119.11 283.79 118.78 284.6C118.09 286.23 118.39 288.24 119.38 289.85C120.35 291.49 122.01 292.71 123.92 293.34C125.82 293.98 127.94 294.14 130.03 293.92C132.1 293.69 134.23 293.02 135.81 291.57C137.37 290.17 138.22 287.88 137.76 285.78C137.51 284.75 136.92 283.79 136.05 283.25C135.19 282.68 134.08 282.7 133.38 283.41C132.67 284.09 132.33 285.15 132.42 286.15C132.48 287.17 132.91 288.14 133.52 288.95C134.78 290.58 136.64 291.67 138.54 292.32C140.46 292.98 142.46 293.29 144.37 293.07C146.27 292.86 148.05 292.05 149.27 290.71C150.51 289.41 151.22 287.65 151.03 286C150.9 284.39 149.67 282.82 148.19 282.72C147.46 282.67 146.76 283.03 146.29 283.58C145.81 284.12 145.5 284.81 145.38 285.5C145.14 286.91 145.57 288.31 146.26 289.4C146.97 290.49 147.93 291.34 148.94 291.9C150.99 293.03 153.13 293.02 154.75 292.83C156.39 292.62 157.63 292.19 158.45 291.9C159.27 291.61 159.7 291.43 159.71 291.45Z"
            fill="#FAFAFA" />
        <path d="M109.093 255.488V280.898H159.013V255.488H109.093Z" fill="#263238" />
        <path
            d="M117.39 256.37C117.58 256.37 117.73 261.88 117.73 268.67C117.73 275.46 117.58 280.97 117.39 280.97C117.2 280.97 117.05 275.46 117.05 268.67C117.04 261.87 117.2 256.37 117.39 256.37Z"
            fill="#E0E0E0" />
        <path
            d="M121.17 256.05C121.36 256.05 121.51 261.49 121.51 268.19C121.51 274.9 121.36 280.33 121.17 280.33C120.98 280.33 120.83 274.9 120.83 268.19C120.83 261.49 120.98 256.05 121.17 256.05Z"
            fill="#E0E0E0" />
        <path
            d="M153.37 255.23C153.56 255.23 153.71 260.95 153.71 268.01C153.71 275.07 153.56 280.8 153.37 280.8C153.18 280.8 153.03 275.08 153.03 268.01C153.02 260.96 153.18 255.23 153.37 255.23Z"
            fill="#E0E0E0" />
        <path
            d="M148.921 255.58C149.111 255.58 149.261 261.16 149.261 268.03C149.261 274.91 149.111 280.49 148.921 280.49C148.731 280.49 148.581 274.91 148.581 268.03C148.571 261.15 148.731 255.58 148.921 255.58Z"
            fill="#E0E0E0" />
        <path
            d="M419.501 416.16L417.901 445.63C417.841 446.68 416.981 447.5 415.931 447.51L362.901 447.9C361.801 447.91 360.901 447.02 360.901 445.92L360.731 422.98C360.721 421.88 361.611 420.98 362.721 420.98L395.341 420.95C395.871 420.95 396.371 420.74 396.741 420.37L402.371 414.75C402.741 414.38 403.241 414.17 403.761 414.17L417.511 414.07C418.651 414.06 419.571 415.02 419.501 416.16Z"
            fill="#4CD685" />
        <g opacity="0.3">
            <path
                d="M419.501 416.16L417.901 445.63C417.841 446.68 416.981 447.5 415.931 447.51L362.901 447.9C361.801 447.91 360.901 447.02 360.901 445.92L360.731 422.98C360.721 421.88 361.611 420.98 362.721 420.98L395.341 420.95C395.871 420.95 396.371 420.74 396.741 420.37L402.371 414.75C402.741 414.38 403.241 414.17 403.761 414.17L417.511 414.07C418.651 414.06 419.571 415.02 419.501 416.16Z"
                fill="black" />
        </g>
        <path d="M360.934 452.135L418.874 451.711L418.62 417.081L360.68 417.505L360.934 452.135Z"
            fill="#F5F5F5" />
        <path
            d="M423.261 420.17L419.101 456.31C419.031 456.95 418.481 457.44 417.841 457.44L361.371 457.85C360.701 457.85 360.141 457.35 360.091 456.68L356.981 420.59C356.921 419.85 357.501 419.21 358.251 419.2L421.991 418.73C422.751 418.73 423.351 419.4 423.261 420.17Z"
            fill="#4CD685" />
        <path
            d="M435.111 410.6L433.511 440.07C433.451 441.12 432.591 441.94 431.541 441.95L378.511 442.34C377.411 442.35 376.511 441.46 376.511 440.36L376.341 417.42C376.331 416.32 377.221 415.42 378.331 415.42L410.951 415.39C411.481 415.39 411.981 415.18 412.351 414.81L417.981 409.19C418.351 408.82 418.851 408.61 419.371 408.61L433.121 408.51C434.251 408.5 435.171 409.46 435.111 410.6Z"
            fill="#4CD685" />
        <g opacity="0.3">
            <path
                d="M435.111 410.6L433.511 440.07C433.451 441.12 432.591 441.94 431.541 441.95L378.511 442.34C377.411 442.35 376.511 441.46 376.511 440.36L376.341 417.42C376.331 416.32 377.221 415.42 378.331 415.42L410.951 415.39C411.481 415.39 411.981 415.18 412.351 414.81L417.981 409.19C418.351 408.82 418.851 408.61 419.371 408.61L433.121 408.51C434.251 408.5 435.171 409.46 435.111 410.6Z"
                fill="black" />
        </g>
        <path d="M376.538 446.566L434.478 446.142L434.224 411.522L376.284 411.946L376.538 446.566Z"
            fill="#F5F5F5" />
        <path
            d="M438.86 414.61L434.7 450.75C434.63 451.39 434.08 451.88 433.44 451.88L376.97 452.29C376.3 452.29 375.74 451.79 375.69 451.12L372.58 415.03C372.52 414.29 373.1 413.65 373.85 413.64L437.59 413.17C438.35 413.18 438.95 413.84 438.86 414.61Z"
            fill="#4CD685" />
        <g opacity="0.3">
            <path
                d="M438.86 414.61L434.7 450.75C434.63 451.39 434.08 451.88 433.44 451.88L376.97 452.29C376.3 452.29 375.74 451.79 375.69 451.12L372.58 415.03C372.52 414.29 373.1 413.65 373.85 413.64L437.59 413.17C438.35 413.18 438.95 413.84 438.86 414.61Z"
                fill="black" />
        </g>
        <path
            d="M452.691 417.5L451.091 446.97C451.031 448.02 450.171 448.84 449.121 448.85L396.091 449.24C394.991 449.25 394.091 448.36 394.091 447.26L393.921 424.32C393.911 423.22 394.801 422.32 395.911 422.32L428.531 422.29C429.061 422.29 429.561 422.08 429.931 421.71L435.561 416.09C435.931 415.72 436.431 415.51 436.951 415.51L450.701 415.41C451.831 415.4 452.751 416.36 452.691 417.5Z"
            fill="#4CD685" />
        <path d="M394.114 453.467L452.054 453.043L451.8 418.423L393.86 418.847L394.114 453.467Z"
            fill="#F5F5F5" />
        <path
            d="M456.451 421.51L452.291 457.65C452.221 458.29 451.671 458.78 451.031 458.78L394.561 459.19C393.891 459.2 393.331 458.69 393.281 458.02L390.171 421.93C390.111 421.19 390.691 420.55 391.441 420.54L455.181 420.07C455.931 420.08 456.531 420.74 456.451 421.51Z"
            fill="#4CD685" />
        <path
            d="M390.161 426.42V476.55H462.481V426.42H390.161ZM413.771 435.44C413.771 433.4 415.431 431.74 417.471 431.74H435.171C437.211 431.74 438.871 433.4 438.871 435.44C438.871 437.48 437.211 439.14 435.171 439.14H417.471C415.421 439.14 413.771 437.49 413.771 435.44Z"
            fill="#455A64" />
        <path d="M351.171 426.42V476.55H390.161V426.42H351.171Z" fill="#263238" />
        <path d="M448.521 295.57H70.2109V307.7H448.521V295.57Z" fill="#263238" />
        <path d="M88.9005 306.21L51.4805 476.61H57.8105L102.11 307.7L88.9005 306.21Z" fill="#263238" />
        <path d="M403.851 305.85L441.261 476.61H434.931L390.631 307.7L403.851 305.85Z"
            fill="#263238" />
        <path d="M441.67 107.73H335.36V202.84H441.67V107.73Z" fill="#FAFAFA" />
        <path
            d="M441.67 202.85C441.67 202.85 441.65 202.24 441.64 201.08C441.63 199.91 441.62 198.21 441.61 195.98C441.59 191.51 441.57 184.99 441.54 176.67C441.51 160.05 441.46 136.31 441.41 107.73L441.66 107.98C411.04 107.99 374.5 108.01 335.36 108.02H335.35L335.65 107.72C335.64 142.32 335.62 174.89 335.61 202.83L335.35 202.57C367.06 202.62 393.61 202.67 412.24 202.7C421.56 202.73 428.9 202.75 433.93 202.77C436.43 202.78 438.36 202.79 439.67 202.8C440.31 202.81 440.8 202.81 441.15 202.81C441.49 202.84 441.67 202.85 441.67 202.85C441.67 202.85 441.51 202.86 441.19 202.86C440.85 202.86 440.37 202.87 439.74 202.87C438.44 202.88 436.53 202.89 434.05 202.9C429.04 202.92 421.72 202.94 412.42 202.97C393.75 203 367.14 203.05 335.36 203.1H335.1V202.84C335.09 174.89 335.08 142.33 335.06 107.73V107.43H335.36H335.37C374.52 107.45 411.06 107.46 441.67 107.47H441.92V107.72C441.87 136.36 441.82 160.16 441.79 176.82C441.76 185.11 441.74 191.62 441.72 196.07C441.71 198.27 441.7 199.96 441.69 201.12C441.69 202.28 441.67 202.85 441.67 202.85Z"
            fill="#263238" />
        <path
            d="M441.67 202.85C441.67 202.85 441.65 202.24 441.64 201.08C441.63 199.91 441.62 198.21 441.61 195.98C441.6 191.51 441.57 184.99 441.55 176.67C441.52 160.05 441.48 136.3 441.43 107.72L441.67 107.96C411.05 107.97 374.51 107.99 335.37 108H335.36L335.64 107.72C335.63 142.32 335.62 174.89 335.61 202.83L335.36 202.58C367.08 202.63 393.62 202.68 412.25 202.71C421.57 202.74 428.91 202.76 433.94 202.78C436.44 202.79 438.37 202.8 439.68 202.81C440.32 202.82 440.81 202.82 441.16 202.82C441.49 202.84 441.67 202.85 441.67 202.85C441.67 202.85 441.51 202.86 441.19 202.86C440.85 202.86 440.37 202.87 439.74 202.87C438.44 202.88 436.53 202.89 434.05 202.9C429.04 202.92 421.72 202.94 412.42 202.97C393.75 203 367.15 203.04 335.37 203.1H335.12V202.85C335.11 174.9 335.1 142.34 335.09 107.74V107.46H335.37H335.38C374.53 107.48 411.07 107.49 441.68 107.5H441.92V107.74C441.87 136.38 441.83 160.18 441.8 176.84C441.77 185.13 441.75 191.64 441.74 196.09C441.73 198.29 441.72 199.98 441.71 201.14C441.69 202.27 441.67 202.85 441.67 202.85Z"
            fill="#263238" />
        <path
            d="M376.119 124.63C376.119 124.79 370.519 124.91 363.619 124.91C356.719 124.91 351.119 124.78 351.119 124.63C351.119 124.47 356.709 124.35 363.619 124.35C370.529 124.35 376.119 124.48 376.119 124.63Z"
            fill="#263238" />
        <path
            d="M421.17 131.78C421.17 131.94 405.8 132.06 386.84 132.06C367.87 132.06 352.5 131.93 352.5 131.78C352.5 131.62 367.87 131.5 386.84 131.5C405.79 131.49 421.17 131.62 421.17 131.78Z"
            fill="#263238" />
        <path d="M355.79 143.87H351.31V148.35H355.79V143.87Z" fill="#263238" />
        <path d="M366.809 143.87H362.329V148.35H366.809V143.87Z" fill="#263238" />
        <path d="M378.04 143.67H373.56V148.15H378.04V143.67Z" fill="#C6D2FF" />
        <path d="M388.86 143.87H384.38V148.35H388.86V143.87Z" fill="#263238" />
        <path d="M399.889 143.87H395.409V148.35H399.889V143.87Z" fill="#263238" />
        <path d="M410.91 143.87H406.43V148.35H410.91V143.87Z" fill="#263238" />
        <path d="M421.94 143.87H417.46V148.35H421.94V143.87Z" fill="#263238" />
        <path d="M355.79 153.4H351.31V157.88H355.79V153.4Z" fill="#263238" />
        <path d="M366.809 153.4H362.329V157.88H366.809V153.4Z" fill="#263238" />
        <path d="M377.84 153.4H373.36V157.88H377.84V153.4Z" fill="#263238" />
        <path d="M388.86 153.4H384.38V157.88H388.86V153.4Z" fill="#263238" />
        <path d="M399.889 153.4H395.409V157.88H399.889V153.4Z" fill="#263238" />
        <path d="M411.12 153.19H406.64V157.67H411.12V153.19Z" fill="#C6D2FF" />
        <path d="M421.94 153.4H417.46V157.88H421.94V153.4Z" fill="#263238" />
        <path d="M355.79 162.92H351.31V167.4H355.79V162.92Z" fill="#263238" />
        <path d="M367.02 162.71H362.54V167.19H367.02V162.71Z" fill="#C6D2FF" />
        <path d="M377.84 162.92H373.36V167.4H377.84V162.92Z" fill="#263238" />
        <path d="M388.86 162.92H384.38V167.4H388.86V162.92Z" fill="#263238" />
        <path d="M399.889 162.92H395.409V167.4H399.889V162.92Z" fill="#263238" />
        <path d="M410.91 162.92H406.43V167.4H410.91V162.92Z" fill="#263238" />
        <path d="M421.94 162.92H417.46V167.4H421.94V162.92Z" fill="#263238" />
        <path d="M355.79 172.44H351.31V176.92H355.79V172.44Z" fill="#263238" />
        <path d="M366.809 172.44H362.329V176.92H366.809V172.44Z" fill="#263238" />
        <path d="M377.84 172.44H373.36V176.92H377.84V172.44Z" fill="#263238" />
        <path d="M389.07 172.24H384.59V176.72H389.07V172.24Z" fill="#C6D2FF" />
        <path d="M399.889 172.44H395.409V176.92H399.889V172.44Z" fill="#263238" />
        <path d="M410.91 172.44H406.43V176.92H410.91V172.44Z" fill="#263238" />
        <path d="M421.94 172.44H417.46V176.92H421.94V172.44Z" fill="#263238" />
        <path d="M355.79 181.96H351.31V186.44H355.79V181.96Z" fill="#263238" />
        <path d="M366.809 181.96H362.329V186.44H366.809V181.96Z" fill="#263238" />
        <path d="M377.84 181.96H373.36V186.44H377.84V181.96Z" fill="#263238" />
        <path d="M388.86 181.96H384.38V186.44H388.86V181.96Z" fill="#263238" />
        <path d="M399.889 181.96H395.409V186.44H399.889V181.96Z" fill="#263238" />
        <path d="M411.12 181.76H406.64V186.24H411.12V181.76Z" fill="#C6D2FF" />
        <path d="M421.94 181.96H417.46V186.44H421.94V181.96Z" fill="#263238" />
        <path
            d="M210.13 296.99C210.68 304.12 221.71 376.95 221.71 376.95L218.04 405.02L222.36 469.4L244.03 467.19L252.11 377.27L259.62 290.89L210.13 296.99Z"
            fill="#FFBE9D" />
        <path
            d="M245.06 462.47C245.06 462.47 269.8 471.75 270.06 476.33L222.17 476.14L222.16 463.62L223.92 464.03C230.95 465.67 238.33 465.13 245.06 462.47Z"
            fill="#263238" />
        <path
            d="M269.2 475C269.2 475.14 258.68 475.26 245.71 475.26C232.73 475.26 222.22 475.14 222.22 475C222.22 474.86 232.74 474.74 245.71 474.74C258.68 474.74 269.2 474.86 269.2 475Z"
            fill="#455A64" />
        <path
            d="M196.08 295.54C196.63 302.67 204.36 323.66 204.36 323.66L207.75 413.81L208.3 467.95L229.97 465.74L234.87 392.13L238.05 290.9L196.08 295.54Z"
            fill="#FFBE9D" />
        <path
            d="M238.24 329.5C238.25 329.5 238.25 329.62 238.24 329.85C238.23 330.11 238.21 330.44 238.2 330.87C238.15 331.8 238.07 333.11 237.98 334.79C237.76 338.23 237.45 343.15 237.07 349.21C236.32 361.39 235.02 378.19 234.13 396.79C233.1 415.37 232.17 432.18 231.49 444.39C231.13 450.46 230.84 455.37 230.63 458.81C230.52 460.49 230.43 461.8 230.37 462.73C230.34 463.16 230.31 463.49 230.29 463.75C230.27 463.98 230.25 464.1 230.24 464.1C230.23 464.1 230.23 463.98 230.23 463.75C230.24 463.49 230.25 463.16 230.26 462.73C230.3 461.8 230.35 460.48 230.42 458.81C230.59 455.37 230.82 450.45 231.11 444.38C231.75 432.17 232.62 415.35 233.59 396.77C234.47 378.18 235.83 361.37 236.68 349.2C237.13 343.14 237.5 338.23 237.75 334.79C237.89 333.11 237.99 331.8 238.07 330.87C238.11 330.44 238.14 330.11 238.17 329.85C238.22 329.61 238.23 329.5 238.24 329.5Z"
            fill="#AA6550" />
        <path
            d="M253.64 144.18L262.88 162.09L276.32 188.13L288.99 182.29L290.49 178.73C295.67 190.56 310.8 197.64 299.5 203.9L260.55 222.12L245.14 194.55L253.64 144.18Z"
            fill="#4CD685" />
        <path
            d="M199.01 81.2798C197.53 83.4798 197.2 86.4098 198.15 88.8898C198.68 90.2798 199.59 91.8198 198.87 93.1198C198.14 94.4498 196.31 94.4898 194.88 94.9798C192.39 95.8398 190.78 98.6898 191.33 101.27C191.53 102.19 191.97 103.11 191.78 104.04C191.58 105 190.76 105.68 190.12 106.43C188.55 108.3 188.06 111.02 188.89 113.31C189.72 115.61 191.83 117.39 194.23 117.83C195.32 118.03 196.51 117.98 197.45 118.56C198.53 119.23 199.01 120.53 199.77 121.55C201.24 123.5 204 124.37 206.32 123.6C208.64 122.83 210.34 120.49 210.36 118.05"
            fill="#263238" />
        <path
            d="M217.33 73.2799C214.75 71.6399 214.12 67.8299 215.52 65.1099C216.92 62.3899 219.89 60.7399 222.91 60.2499C227.28 59.5399 231.96 61.0899 235.05 64.2699C236.72 65.9899 238.07 68.2299 240.33 69.0099C242.32 69.6999 244.52 69.0799 246.6 69.3499C249.4 69.7099 251.8 71.6999 253.23 74.1299C254.66 76.5599 255.26 79.3899 255.59 82.1899C255.89 84.7599 256.09 87.5799 257.88 89.4599C259.62 91.2899 262.37 91.6799 264.53 92.9799C268.6 95.4299 269.92 101.5 267.23 105.41C266.37 106.66 265.139 107.8 265.049 109.32C264.959 110.7 265.85 111.93 266.27 113.25C267.35 116.64 264.57 120.68 261.01 120.88C259.22 120.98 257.29 120.28 255.68 121.09C254.08 121.89 253.49 123.81 252.47 125.28C250.46 128.16 246.25 129.25 243.1 127.7C241.78 127.05 240.53 125.98 239.07 126.08C237.61 126.18 236.45 127.43 235.01 127.71C233.12 128.07 231.33 126.69 230.21 125.13C229.09 123.57 228.31 121.73 226.87 120.46C224.99 118.79 222.35 118.38 219.97 117.56C214.72 115.75 210.34 111.59 208.26 106.44C206.18 101.29 206.46 95.2499 208.98 90.3099"
            fill="#263238" />
        <path
            d="M211.859 77.3898C209.639 77.6298 207.969 79.5298 208.009 81.7698L210.579 139.96C210.689 146.83 220.729 150.69 228.089 150.52C235.519 150.35 235.76 146.7 235.85 140.17C236.01 129.25 235.989 125.15 235.999 125.21C235.999 125.21 245.389 123.63 247.299 111.38C248.25 105.29 247.929 95.2998 247.389 87.1398C246.909 79.7898 242.019 70.7898 234.699 71.5798L211.859 77.3898Z"
            fill="#FFBE9D" />
        <path
            d="M243.729 94.1198C243.759 94.9498 243.079 95.6598 242.219 95.7098C241.359 95.7598 240.629 95.1298 240.599 94.2998C240.569 93.4698 241.249 92.7598 242.109 92.7098C242.969 92.6598 243.699 93.2898 243.729 94.1198Z"
            fill="#263238" />
        <path
            d="M245.239 92.3199C245.049 92.5299 243.849 91.6499 242.159 91.6599C240.469 91.6399 239.229 92.5199 239.049 92.3099C238.959 92.2199 239.159 91.8499 239.699 91.4499C240.229 91.0599 241.139 90.6699 242.189 90.6799C243.239 90.6799 244.129 91.0699 244.639 91.4599C245.159 91.8599 245.339 92.2299 245.239 92.3199Z"
            fill="#263238" />
        <path
            d="M227.099 94.1198C227.129 94.9498 226.449 95.6598 225.589 95.7098C224.729 95.7598 223.999 95.1298 223.969 94.2998C223.939 93.4698 224.619 92.7598 225.479 92.7098C226.339 92.6598 227.069 93.2898 227.099 94.1198Z"
            fill="#263238" />
        <path
            d="M228.629 92.6797C228.439 92.8897 227.239 92.0097 225.549 92.0197C223.859 91.9997 222.619 92.8797 222.439 92.6697C222.349 92.5797 222.549 92.2097 223.089 91.8097C223.619 91.4197 224.529 91.0297 225.579 91.0397C226.629 91.0397 227.519 91.4297 228.029 91.8197C228.539 92.2097 228.719 92.5797 228.629 92.6797Z"
            fill="#263238" />
        <path
            d="M234.789 105.2C234.779 105.1 235.829 104.92 237.529 104.7C237.959 104.65 238.369 104.57 238.439 104.27C238.539 103.96 238.359 103.49 238.149 102.99C237.739 101.95 237.309 100.85 236.869 99.7096C235.089 95.0296 233.799 91.1896 233.979 91.1196C234.169 91.0496 235.769 94.7796 237.549 99.4596C237.979 100.61 238.389 101.71 238.779 102.76C238.939 103.25 239.229 103.81 239.009 104.45C238.889 104.77 238.579 105.01 238.299 105.08C238.019 105.16 237.779 105.17 237.569 105.18C235.859 105.29 234.799 105.3 234.789 105.2Z"
            fill="#263238" />
        <path
            d="M236 125.2C236 125.2 227.76 125.75 219.59 120.86C219.59 120.86 223.75 129.5 236 128.32V125.2Z"
            fill="#EB996E" />
        <path
            d="M234.08 110.9C233.47 110.1 232.4 109.66 231.35 109.77C230.62 109.85 229.88 110.21 229.43 110.8C228.99 111.4 228.89 112.25 229.3 112.82C229.76 113.46 230.71 113.61 231.52 113.38C232.33 113.15 233.02 112.62 233.68 112.09C233.86 111.94 234.05 111.79 234.16 111.59C234.27 111.39 234.3 111.13 234.16 110.96"
            fill="#AA6550" />
        <path
            d="M229.819 108C230.089 107.98 230.099 109.82 231.679 111.12C233.249 112.42 235.209 112.21 235.219 112.47C235.249 112.58 234.789 112.83 233.959 112.85C233.149 112.88 231.969 112.62 230.999 111.83C230.039 111.03 229.629 109.97 229.559 109.22C229.489 108.44 229.689 107.99 229.819 108Z"
            fill="#263238" />
        <path
            d="M229.379 89.7096C229.209 90.1696 227.529 89.9596 225.539 90.1996C223.549 90.3996 221.949 90.9896 221.689 90.5796C221.569 90.3796 221.849 89.9496 222.499 89.4996C223.139 89.0496 224.159 88.6296 225.349 88.4896C226.539 88.3596 227.629 88.5396 228.349 88.8396C229.089 89.1396 229.449 89.4996 229.379 89.7096Z"
            fill="#263238" />
        <path
            d="M244.609 89.2396C244.309 89.6196 243.149 89.2296 241.749 89.2096C240.349 89.1496 239.159 89.4696 238.889 89.0696C238.769 88.8796 238.959 88.4896 239.469 88.1296C239.979 87.7696 240.829 87.4696 241.799 87.4996C242.759 87.5296 243.599 87.8696 244.079 88.2696C244.579 88.6596 244.739 89.0596 244.609 89.2396Z"
            fill="#263238" />
        <path
            d="M218.58 70.6397C218.57 73.0897 219.7 75.5197 221.58 77.0997C223.46 78.6797 226.05 79.3597 228.47 78.9197C230.34 78.5797 232.39 77.6297 234.01 78.6297C235.71 79.6797 235.78 82.2497 237.3 83.5597C239.46 85.4297 242.89 83.6797 245.63 84.4897C247.75 85.1197 249.07 87.1397 250.48 88.8397C251.89 90.5397 253.99 92.1597 256.11 91.5297C255.98 89.6297 255.84 87.6997 255.27 85.8797C254.7 84.0597 253.66 82.3197 252.06 81.2797C251.18 80.7097 250.17 80.3597 249.35 79.6997C247.59 78.2797 247.19 75.8097 246.1 73.8297C244.7 71.2797 242 69.4797 239.1 69.1897C236.69 68.9397 234.21 69.6697 231.86 69.0697C230.12 68.6297 228.61 67.5097 226.85 67.1697C223.42 66.5197 220.24 68.9797 217.76 71.4297"
            fill="#263238" />
        <path
            d="M208.73 124.9L236.27 128.43L236 137.95L264.43 173.55L256.32 222.13L233.51 213.77L206.2 167.11L206.9 131.11L208.73 124.9Z"
            fill="#263238" />
        <path
            d="M188.63 271.37L202.04 367.87C202.04 367.87 229.6 375.62 254.96 364.42L265.41 271.12L237.66 251.94L188.63 271.37Z"
            fill="#4CD685" />
        <path
            d="M206.45 129.85L201.74 137.63C201.74 137.63 188.63 143.16 185.77 149.92C182.9 156.68 206.46 222.83 206.46 222.83C206.46 222.83 188.44 244.54 188.64 271.37C188.64 271.37 224.48 282.84 258.27 275.26L252.74 199.07C252.74 199.07 251.92 181.46 246.6 174.7C241.27 167.95 206.45 129.85 206.45 129.85Z"
            fill="#4CD685" />
        <path
            d="M236.15 132.65L236 137.95C236 137.95 255.07 168.67 256.32 174.97C259.37 190.4 254.09 215.9 254.09 215.9L256.32 275.39L267.24 271.61L260.56 212.31L263.04 198.78C263.04 198.78 268.08 176.57 265.5 171.41C263.59 167.58 258.24 152.28 253.64 144.18C251.98 141.26 249 139.35 245.65 139.07L241.41 138.71L236.15 132.65Z"
            fill="#4CD685" />
        <path
            d="M252.53 194.55C252.51 194.55 252.43 194.28 252.28 193.76C252.15 193.24 251.93 192.47 251.62 191.49C250.99 189.54 250 186.73 248.23 183.52C246.5 180.3 243.98 176.69 240.54 173.28C237.14 169.83 232.57 166.99 228.18 163.47L228.12 163.42L228.1 163.34L228.09 163.31C227.36 160.79 226.64 158.32 225.95 155.94L226.24 156.12C224.37 156.45 222.56 156.77 220.82 157.08L220.69 157.1L220.6 157C217.84 154.1 215.26 151.41 213.04 148.93C210.84 146.45 208.9 144.26 207.27 142.42C205.68 140.64 204.4 139.2 203.48 138.18C203.06 137.71 202.73 137.34 202.47 137.05C202.24 136.79 202.13 136.65 202.14 136.64C202.15 136.63 202.28 136.75 202.53 136.99C202.8 137.27 203.16 137.62 203.6 138.07C204.53 139.02 205.85 140.42 207.5 142.22C209.15 144.03 211.12 146.2 213.35 148.65C215.59 151.11 218.18 153.77 220.96 156.66L220.74 156.59C222.48 156.27 224.29 155.95 226.16 155.61L226.39 155.57L226.45 155.79C227.14 158.17 227.86 160.63 228.6 163.16L228.61 163.19L228.52 163.06C232.87 166.56 237.45 169.42 240.89 172.93C244.35 176.39 246.86 180.06 248.57 183.33C250.31 186.59 251.26 189.44 251.83 191.42C252.11 192.41 252.3 193.19 252.4 193.72C252.5 194.27 252.55 194.55 252.53 194.55Z"
            fill="#263238" />
        <path
            d="M256.96 194.55C256.94 194.55 256.97 194.32 257.04 193.88C257.12 193.4 257.23 192.77 257.36 191.99C257.66 190.29 258.06 187.93 258.57 185.05C259.05 182.12 259.62 178.62 260.02 174.72C260.12 173.74 260.2 172.74 260.25 171.72C260.3 170.69 260.34 169.67 260.18 168.62C259.91 166.51 259.48 164.34 259.02 162.12C258.46 159.46 257.87 156.88 257.28 154.43L257.46 154.61C255.43 154.02 253.49 153.45 251.64 152.91L251.42 152.84L251.48 152.62C251.8 151.44 252.1 150.31 252.4 149.23L252.47 149.45C248.92 146.45 246.27 143.63 244.36 141.74C243.45 140.81 242.71 140.07 242.17 139.51C241.67 138.99 241.41 138.71 241.43 138.69C241.45 138.67 241.74 138.93 242.27 139.41C242.84 139.94 243.6 140.66 244.54 141.55C246.51 143.39 249.19 146.16 252.77 149.12L252.87 149.21L252.83 149.35C252.55 150.44 252.25 151.57 251.94 152.75L251.78 152.46C253.63 152.99 255.57 153.55 257.6 154.13L257.74 154.17L257.77 154.31C258.37 156.76 258.97 159.35 259.53 162.02C259.99 164.25 260.42 166.42 260.68 168.57C260.84 169.64 260.8 170.73 260.74 171.76C260.68 172.79 260.6 173.8 260.49 174.78C260.06 178.7 259.45 182.2 258.92 185.13C258.39 188.06 257.9 190.42 257.55 192.05C257.38 192.82 257.24 193.44 257.13 193.92C257.04 194.34 256.98 194.56 256.96 194.55Z"
            fill="#263238" />
        <path
            d="M256.32 275.39C256.18 275.4 255.38 259.22 254.53 239.27C253.69 219.31 253.12 203.13 253.26 203.12C253.4 203.11 254.2 219.28 255.05 239.24C255.9 259.2 256.46 275.39 256.32 275.39Z"
            fill="#263238" />
        <path
            d="M267.24 271.61C267.25 271.63 266.99 271.74 266.49 271.94C265.94 272.15 265.21 272.43 264.3 272.78C263.35 273.15 262.18 273.59 260.78 273.99C259.39 274.4 257.83 274.96 256.05 275.37C255.16 275.59 254.24 275.83 253.27 276.07C252.3 276.32 251.28 276.48 250.23 276.7C248.13 277.16 245.85 277.47 243.46 277.81C238.66 278.39 233.35 278.72 227.77 278.62C222.19 278.48 216.9 277.92 212.12 277.2C209.74 276.8 207.47 276.43 205.38 275.95C203.27 275.54 201.34 275.04 199.56 274.59C197.78 274.17 196.21 273.67 194.81 273.27C193.41 272.88 192.23 272.49 191.26 272.16C190.33 271.84 189.59 271.59 189.04 271.4C188.53 271.22 188.27 271.12 188.28 271.1C188.29 271.08 188.56 271.15 189.08 271.3C189.64 271.47 190.39 271.69 191.33 271.96C192.3 272.26 193.5 272.62 194.9 272.98C196.3 273.35 197.88 273.83 199.66 274.22C201.43 274.64 203.37 275.12 205.47 275.51C207.56 275.97 209.82 276.32 212.2 276.71C216.96 277.4 222.23 277.95 227.78 278.08C233.33 278.19 238.62 277.87 243.4 277.32C245.78 276.99 248.05 276.7 250.14 276.26C251.19 276.05 252.21 275.9 253.18 275.66C254.14 275.43 255.07 275.21 255.96 274.99C257.74 274.6 259.3 274.07 260.7 273.69C262.1 273.31 263.27 272.9 264.23 272.56C265.16 272.25 265.9 272 266.45 271.81C266.96 271.67 267.23 271.59 267.24 271.61Z"
            fill="#263238" />
        <path
            d="M185.77 149.92C185.77 149.92 178.57 162.26 187.82 178.75C197.07 195.24 223.86 232.65 223.86 232.65C223.86 232.65 229.22 234.92 234.58 235.25C239.08 235.52 260.87 223.5 267.89 219.58L269.3 215.14L265.05 207.4L260.56 199.22L235.59 206.49L208.93 153.58C208.93 153.59 200.92 142.2 185.77 149.92Z"
            fill="#4CD685" />
        <path
            d="M196.08 192.17C196.08 192.17 196.19 192.3 196.38 192.57C196.58 192.86 196.87 193.26 197.23 193.77C197.98 194.85 199.07 196.41 200.46 198.41C203.26 202.47 207.29 208.31 212.27 215.53C214.76 219.15 217.48 223.12 220.41 227.37C220.78 227.9 221.14 228.44 221.52 228.98C221.93 229.49 222.31 230.02 222.74 230.52C223.63 231.49 224.6 232.43 225.74 233.16C227.99 234.66 230.81 235.41 233.67 235.22C234.37 235.17 235.12 235.11 235.82 234.97C236.09 234.89 236.46 234.72 236.79 234.58C237.13 234.44 237.46 234.28 237.8 234.13C239.15 233.51 240.51 232.86 241.88 232.2C244.61 230.86 247.4 229.5 250.24 228.11C255.9 225.29 261.77 222.36 267.77 219.37L267.64 219.52C267.71 219.3 267.78 219.06 267.86 218.83C268.26 217.57 268.66 216.32 269.05 215.08L269.07 215.28C266.07 209.81 263.15 204.48 260.34 199.36L260.63 199.48C251.69 202.07 243.29 204.51 235.65 206.73L235.47 206.78L235.39 206.61C228.7 193.3 223.12 182.19 219.2 174.39C217.27 170.51 215.74 167.45 214.69 165.33C214.18 164.3 213.79 163.5 213.52 162.93C213.4 162.67 213.3 162.47 213.23 162.31C213.17 162.17 213.14 162.1 213.14 162.1C213.15 162.1 213.19 162.16 213.26 162.3C213.34 162.45 213.45 162.65 213.58 162.9C213.87 163.46 214.28 164.24 214.81 165.26C215.89 167.36 217.45 170.4 219.43 174.26C223.39 182.04 229.03 193.13 235.79 206.4L235.52 206.28C243.16 204.05 251.55 201.59 260.49 198.98L260.69 198.92L260.79 199.1C263.61 204.23 266.53 209.55 269.53 215.02L269.58 215.12L269.55 215.23C269.16 216.47 268.76 217.72 268.36 218.98C268.28 219.22 268.21 219.46 268.14 219.67L268.11 219.78L268.01 219.83C262 222.82 256.13 225.74 250.47 228.56C247.63 229.95 244.83 231.31 242.09 232.64C240.72 233.3 239.36 233.95 238 234.56C237.66 234.72 237.32 234.87 236.98 235.02C236.63 235.16 236.33 235.32 235.89 235.44C235.16 235.58 234.44 235.64 233.7 235.69C230.75 235.88 227.82 235.1 225.49 233.54C224.31 232.78 223.32 231.81 222.41 230.81C221.97 230.3 221.58 229.75 221.17 229.23C220.8 228.69 220.43 228.15 220.07 227.62C217.16 223.35 214.46 219.37 211.98 215.74C207.06 208.48 203.07 202.61 200.31 198.53C198.95 196.51 197.89 194.93 197.16 193.84C196.81 193.31 196.55 192.91 196.35 192.61C196.16 192.32 196.08 192.17 196.08 192.17Z"
            fill="#263238" />
        <path
            d="M231.65 218.13C231.51 218.06 232.66 215.56 233.73 212.35C234.82 209.15 235.43 206.46 235.58 206.49C235.71 206.51 235.32 209.27 234.22 212.51C233.14 215.76 231.77 218.19 231.65 218.13Z"
            fill="#263238" />
        <path
            d="M217.36 232.74C217.33 232.79 216.53 232.44 215.36 231.64C214.19 230.86 212.67 229.61 211.15 228.1C209.63 226.58 208.37 225.1 207.5 224C206.63 222.9 206.15 222.17 206.2 222.13C206.33 222.03 208.51 224.73 211.51 227.73C213.02 229.23 214.47 230.49 215.57 231.34C216.67 232.2 217.4 232.67 217.36 232.74Z"
            fill="#263238" />
        <path
            d="M212.13 97.1897C211.77 97.0897 210.3 99.2497 212.65 99.7797C216.77 100.71 217.31 92.6697 216.39 90.3697C217.88 89.0497 219.38 87.7097 220.52 86.0297C221.66 84.3497 222.66 79.7697 222.41 77.7097C223.89 77.7997 230.21 75.7097 229.54 75.5197C228 75.0797 224.86 74.0897 224.04 72.7497C222.25 69.8597 219.1 67.8797 215.87 68.0597C212.65 68.2397 209.55 70.7797 208.89 74.1797C204.99 74.2097 201.19 76.6597 199.32 80.3397C197.45 84.0297 197.59 88.7997 199.67 92.3497C200.21 93.2797 200.91 94.2097 200.92 95.3097C200.94 96.6697 199.93 97.7497 199.22 98.8797C197.28 101.95 197.42 106.18 198.93 109.52C200.43 112.87 201.49 114.04 203.62 114.71C207.8 116.02 202.95 124.63 209.9 124.63"
            fill="#263238" />
        <path
            d="M212.3 100.55C212.17 97.94 209.33 96.2 207.07 97.51C205.83 98.23 204.88 99.67 205 102.44C205.3 109.82 212.65 107.99 212.65 107.78C212.66 107.65 212.46 103.61 212.3 100.55Z"
            fill="#FFBE9D" />
        <path
            d="M210.28 105.08C210.25 105.06 210.16 105.18 209.94 105.28C209.73 105.39 209.37 105.47 208.98 105.34C208.19 105.09 207.48 103.88 207.39 102.55C207.34 101.88 207.46 101.23 207.67 100.69C207.87 100.14 208.21 99.7503 208.6 99.6603C208.99 99.5503 209.27 99.7803 209.37 99.9803C209.48 100.18 209.44 100.33 209.48 100.34C209.5 100.36 209.63 100.21 209.56 99.9103C209.52 99.7603 209.43 99.5902 209.25 99.4602C209.07 99.3202 208.8 99.2603 208.53 99.3003C207.96 99.3603 207.47 99.9102 207.23 100.5C206.96 101.1 206.82 101.82 206.87 102.58C206.98 104.07 207.8 105.43 208.88 105.69C209.4 105.8 209.83 105.63 210.05 105.45C210.28 105.26 210.31 105.09 210.28 105.08Z"
            fill="#AA6550" />
        <path
            d="M266.78 105.31C266.75 105.29 266.95 105.08 267.2 104.61C267.44 104.15 267.78 103.42 267.86 102.42C267.95 101.44 267.81 100.15 267.08 98.9499C266.34 97.7399 264.93 96.8299 263.25 96.2099C261.59 95.5399 259.57 95.1299 257.78 93.7899C255.98 92.4499 254.98 90.1399 254.59 87.7599C254.19 85.3399 254.39 82.7999 254.2 80.2199C254.11 78.9299 253.88 77.6299 253.42 76.3999C252.96 75.1699 252.25 73.9999 251.22 73.1499C250.19 72.2999 248.9 71.8399 247.6 71.6699C246.29 71.4999 244.97 71.5899 243.7 71.7899C242.43 71.9999 241.15 72.2999 239.86 72.3199C238.58 72.3699 237.2 71.9799 236.3 71.0599C235.39 70.1699 234.88 69.0699 234.3 68.1199C233.74 67.1499 233.02 66.3399 232.15 65.7699C230.42 64.5999 228.35 64.3299 226.61 64.5699C224.84 64.8299 223.39 65.6799 222.33 66.6199C221.27 67.5699 220.56 68.5999 220.08 69.4799C219.13 71.2699 219.01 72.4199 218.94 72.3999C218.93 72.3999 218.94 72.3299 218.96 72.1899C218.99 72.0599 219.01 71.8499 219.08 71.5899C219.2 71.0699 219.44 70.2999 219.9 69.3799C220.37 68.4699 221.06 67.3999 222.14 66.3999C223.21 65.4199 224.71 64.4999 226.56 64.2099C228.38 63.9299 230.54 64.1899 232.39 65.4099C233.32 65.9999 234.11 66.8899 234.69 67.8799C235.3 68.8499 235.81 69.9199 236.64 70.7199C237.45 71.5299 238.64 71.8699 239.86 71.8299C241.08 71.8099 242.33 71.5099 243.63 71.2899C244.94 71.0799 246.3 70.9799 247.68 71.1599C249.05 71.3299 250.45 71.8199 251.56 72.7499C252.68 73.6699 253.43 74.9299 253.91 76.2199C254.39 77.5199 254.62 78.8699 254.71 80.1899C254.9 82.8199 254.69 85.3499 255.06 87.6899C255.42 90.0099 256.37 92.1999 258.04 93.4599C259.7 94.7299 261.7 95.1799 263.38 95.8799C265.08 96.5299 266.57 97.5099 267.33 98.8099C268.08 100.1 268.19 101.44 268.07 102.45C267.96 103.48 267.58 104.22 267.3 104.68C267 105.12 266.78 105.31 266.78 105.31Z"
            fill="#455A64" />
        <path
            d="M247.56 86.5098C247.61 86.5098 247.56 87.1098 247.66 88.1698C247.77 89.2198 248.07 90.7698 248.96 92.4498C249.4 93.2898 249.99 94.1498 250.76 94.9498C251.52 95.7698 252.48 96.4398 253.56 97.1498C254.09 97.5098 254.64 97.9098 255.11 98.4198C255.59 98.9298 255.96 99.5798 256.14 100.29C256.5 101.72 256.24 103.2 256.15 104.64C256.04 106.07 256.19 107.52 257.08 108.51C257.93 109.52 259.16 110.09 260.29 110.64C261.43 111.19 262.55 111.76 263.41 112.57C263.83 112.98 264.18 113.45 264.41 113.96C264.62 114.47 264.77 114.98 264.8 115.48C264.97 117.5 264.02 119.01 263.25 119.74C262.84 120.11 262.47 120.33 262.21 120.45C261.94 120.56 261.8 120.61 261.8 120.59C261.77 120.53 262.37 120.35 263.11 119.6C263.81 118.85 264.64 117.39 264.44 115.52C264.35 114.59 263.93 113.63 263.12 112.89C262.31 112.15 261.24 111.61 260.09 111.07C258.96 110.52 257.66 109.95 256.69 108.83C256.21 108.27 255.88 107.57 255.73 106.83C255.58 106.09 255.59 105.34 255.63 104.6C255.72 103.12 255.97 101.7 255.64 100.41C255.35 99.1098 254.31 98.2298 253.28 97.5298C252.23 96.8298 251.21 96.0998 250.44 95.2298C249.65 94.3798 249.07 93.4698 248.63 92.5998C247.75 90.8398 247.51 89.2498 247.45 88.1698C247.43 87.6298 247.44 87.2098 247.48 86.9198C247.52 86.6598 247.54 86.5098 247.56 86.5098Z"
            fill="#455A64" />
        <path
            d="M195.15 117.41C195.15 117.42 195.06 117.39 194.88 117.32C194.71 117.26 194.46 117.14 194.15 116.95C193.54 116.58 192.68 115.89 192 114.7C191.33 113.54 190.84 111.79 191.41 109.92C191.95 108.1 193.49 106.21 195.82 105.54L195.71 105.89C194.89 104.85 194.12 103.64 193.75 102.19C193.36 100.77 193.52 99.0599 194.48 97.7299C194.94 97.0699 195.62 96.5099 196.43 96.2299C197.25 95.9599 198.11 96.0199 198.92 96.0999C199.73 96.1899 200.54 96.3199 201.3 96.1999C202.06 96.0899 202.73 95.6299 203.09 94.9399C203.64 93.9199 203.62 92.6799 203.32 91.5699C203.03 90.4299 202.54 89.3399 202.28 88.1799C201.75 85.8499 202.14 83.4599 203.12 81.5399C204.09 79.5999 205.7 78.1799 207.37 77.3499C209.06 76.5099 210.82 76.2199 212.35 76.3299L212.17 76.4899C212.35 75.0599 213.13 73.9499 213.95 73.2399C214.78 72.5099 215.68 72.1399 216.42 71.9699C217.17 71.7999 217.77 71.8399 218.16 71.8899C218.55 71.9699 218.75 72.0299 218.74 72.0399C218.74 72.1099 217.91 71.7799 216.46 72.1499C215.75 72.3399 214.9 72.7199 214.12 73.4399C213.35 74.1399 212.64 75.1999 212.5 76.5199L212.48 76.6799L212.31 76.6699C210.83 76.5899 209.14 76.8899 207.54 77.7099C205.94 78.5299 204.43 79.8899 203.52 81.7399C202.6 83.5699 202.24 85.8499 202.75 88.0499C203 89.1499 203.49 90.2299 203.8 91.4299C204.12 92.6099 204.16 93.9899 203.52 95.1799C203.11 95.9999 202.24 96.5799 201.36 96.7099C200.47 96.8499 199.64 96.6899 198.84 96.6099C198.05 96.5199 197.26 96.4799 196.57 96.7099C195.88 96.9499 195.28 97.4199 194.87 98.0199C194 99.2099 193.84 100.74 194.19 102.07C194.52 103.42 195.25 104.59 196.03 105.61L196.23 105.87L195.91 105.96C193.75 106.55 192.25 108.31 191.72 110.02C191.16 111.76 191.58 113.44 192.19 114.57C192.81 115.73 193.62 116.43 194.2 116.83C194.8 117.24 195.16 117.38 195.15 117.41Z"
            fill="#455A64" />
        <path
            d="M219.389 73.5297C219.439 73.6097 218.649 73.7397 217.919 74.7597C217.189 75.7697 216.909 77.6897 217.379 79.8597L217.419 80.0497L217.239 80.0997C215.419 80.5497 213.399 82.0097 212.489 84.2897C212.269 84.8497 212.129 85.4797 212.109 86.0897C212.109 86.7097 212.219 87.3697 212.339 88.0397C212.459 88.7097 212.599 89.3997 212.619 90.1397C212.669 90.8597 212.479 91.6997 212.039 92.3197C211.119 93.7197 209.649 94.3997 208.379 95.0697C207.079 95.7197 205.869 96.3797 204.949 97.3097C203.079 99.1497 202.249 101.53 202.189 103.49C202.119 105.48 202.679 107.05 203.159 108.05C203.649 109.06 204.059 109.54 204.019 109.57C204.009 109.58 203.899 109.47 203.699 109.24C203.519 109 203.249 108.65 202.979 108.15C202.429 107.16 201.789 105.56 201.819 103.49C201.829 101.44 202.659 98.9297 204.609 96.9797C205.559 95.9797 206.849 95.2697 208.139 94.6197C209.409 93.9497 210.799 93.2697 211.599 92.0397C212.419 90.9197 212.049 89.4597 211.839 88.1397C211.719 87.4697 211.609 86.7897 211.609 86.0897C211.639 85.3897 211.799 84.7297 212.039 84.1197C213.059 81.6697 215.209 80.1797 217.149 79.7397L216.999 79.9497C216.559 77.6697 216.909 75.6797 217.739 74.6297C218.139 74.1097 218.589 73.8297 218.889 73.6897C219.209 73.5697 219.379 73.5097 219.389 73.5297Z"
            fill="#455A64" />
        <path
            d="M264.7 165.61C264.73 165.6 264.93 166.04 265.27 166.87C265.43 167.28 265.65 167.78 265.85 168.38C266.04 169 266.25 169.69 266.48 170.43C266.67 171.2 266.85 172.06 267.05 172.98C267.15 173.91 267.37 174.9 267.39 175.96C267.55 178.07 267.4 180.41 266.94 182.8C266 187.6 264.25 191.65 263.16 194.62C262.63 196.03 262.18 197.2 261.83 198.13C261.52 198.96 261.33 199.41 261.29 199.4C261.26 199.39 261.38 198.91 261.64 198.06C261.89 197.21 262.3 195.99 262.82 194.49C263.83 191.49 265.51 187.42 266.44 182.7C266.89 180.35 267.06 178.05 266.92 175.98C266.92 174.94 266.72 173.97 266.64 173.04C266.46 172.13 266.31 171.28 266.14 170.51C265.94 169.76 265.76 169.08 265.59 168.45C265.42 167.85 265.23 167.34 265.1 166.92C264.8 166.09 264.67 165.62 264.7 165.61Z"
            fill="#263238" />
        <g opacity="0.3">
            <path
                d="M204.95 205.18C206.21 209.94 209.48 216.01 211.78 221.35C214.08 226.69 217.12 231.68 221.14 235.89C225.16 240.1 230.98 242.99 236.74 242.14C240.85 241.53 244.44 239.14 247.88 236.81C251.25 234.53 254.61 232.25 257.98 229.97C259.18 229.16 260.41 228.32 261.24 227.13C262.07 225.94 262.44 224.31 261.76 223.02C256.78 225.44 251.8 227.87 246.82 230.29C243.31 232 239.74 233.72 235.91 234.43C232.07 235.14 227.85 234.71 224.7 232.41C222.72 230.97 221.3 228.92 219.91 226.9C214.91 219.67 209.93 212.43 204.95 205.18Z"
                fill="black" />
        </g>
        <path
            d="M209.77 157.36C209.69 157.41 209.09 156.39 207.89 154.94C206.7 153.48 204.83 151.64 202.43 150.07C200.02 148.51 197.57 147.56 195.76 147.06C193.94 146.56 192.77 146.42 192.78 146.33C192.78 146.29 193.08 146.3 193.61 146.34C194.14 146.37 194.91 146.49 195.84 146.7C197.71 147.11 200.24 148.03 202.7 149.63C205.16 151.24 207.03 153.17 208.17 154.71C208.74 155.48 209.16 156.13 209.41 156.6C209.68 157.07 209.81 157.34 209.77 157.36Z"
            fill="#263238" />
        <g opacity="0.3">
            <path
                d="M188.82 271.3C199.74 279.02 212.01 283.88 225.34 284.94C238.67 286 250.64 281.29 262.64 275.4V273.14C262.64 273.14 244.31 279.46 223.51 277.86C202.48 276.24 188.82 271.3 188.82 271.3Z"
                fill="black" />
        </g>
        <path
            d="M295.21 200.61C295.21 200.61 304.58 197.79 310.66 177.33L298.81 191.41L295.21 200.61Z"
            fill="#FFBE9D" />
        <path
            d="M268.97 215.43C268.97 215.43 288.95 162.9 289.45 162.81C289.96 162.72 314.03 146.72 314.03 146.72L316.89 147.37L292.83 164.96L271.53 216.73L268.97 215.43Z"
            fill="#E0E0E0" />
        <path
            d="M270.85 218.28L292.84 164.96L316.9 147.37C317.26 147.37 294.91 201.35 294.91 201.35L270.85 218.28Z"
            fill="#263238" />
        <path
            d="M268.72 195.29C268.72 195.29 271.93 187.99 273.61 186.95C275.49 185.79 279.48 182.73 280.77 179.94C281.63 178.07 283.06 178.69 283.06 178.69L280.43 186.03L295 177.34C295 177.34 295.82 179.49 294.2 181.7C292.58 183.91 293.12 183.71 293.12 183.71C293.12 183.71 294.87 184.76 293.99 186.33C293.11 187.89 291.63 189.81 291.63 189.81C291.63 189.81 293.24 191.78 292.59 193.62C292.59 193.62 293.2 195.23 292.82 197.46C292.44 199.69 288.41 203.93 288.41 203.93L268.28 213.52L260.71 199.46L268.72 195.29Z"
            fill="#FFBE9D" />
        <path
            d="M285.33 183.11C285.4 183.23 283.52 184.53 281.13 186C278.73 187.48 276.73 188.58 276.66 188.46C276.59 188.34 278.47 187.04 280.86 185.57C283.26 184.09 285.26 182.99 285.33 183.11Z"
            fill="#AA6550" />
        <path
            d="M293.4 182.86C293.5 182.96 291.81 184.78 289.64 186.92C287.47 189.06 285.63 190.71 285.52 190.61C285.42 190.51 287.1 188.7 289.28 186.55C291.46 184.41 293.3 182.76 293.4 182.86Z"
            fill="#AA6550" />
        <path
            d="M292.32 189.07C292.43 189.16 291.64 190.26 290.56 191.53C289.48 192.8 288.52 193.75 288.41 193.66C288.3 193.57 289.09 192.47 290.17 191.2C291.25 189.93 292.21 188.98 292.32 189.07Z"
            fill="#AA6550" />
        <path
            d="M292.69 193.25C292.8 193.34 292.35 194.02 291.79 194.84C291.22 195.65 290.74 196.3 290.61 196.23C290.49 196.16 290.78 195.38 291.37 194.55C291.95 193.71 292.58 193.16 292.69 193.25Z"
            fill="#AA6550" />
        <path
            d="M298.51 192.69C298.51 192.69 305.99 186.84 307.02 184.22C307.22 183.7 311.81 176.38 311.83 173.51V168.2L309.98 160.36C307.42 160.66 306.97 162.46 307.13 164.74C307.2 165.73 307.97 169.32 307.97 169.32L307.17 173.51C307.17 173.51 306.91 169.66 305.63 167.46C305.06 166.48 303.73 167.08 303.2 167.59C302.17 168.58 302.73 169.79 303.08 172.85C303.76 178.77 303.49 179.71 303.49 179.71C303.49 179.71 303.42 176.02 301.87 173.32C301.26 172.26 300.57 171.67 299.84 172.05C299.06 172.46 298.27 173.86 298.94 176.06C300.21 180.23 300.5 182.86 300.39 184.05C300.39 184.05 299.52 183.05 298.31 180.53C297.83 179.54 296.59 179.59 296.22 180.53C295.67 181.95 295.91 182.45 297.02 186.52C297.59 188.65 298.51 192.69 298.51 192.69Z"
            fill="#FFBE9D" />
        <path
            d="M306.55 185.06C306.49 185.01 306.87 184.44 307.38 183.48C307.64 183 307.93 182.42 308.13 181.75C308.22 181.41 308.29 181.08 308.25 180.72C308.22 180.34 308.15 179.94 308.08 179.53C307.51 176.23 306.99 173.54 307.15 173.51C307.28 173.48 308.02 176.11 308.6 179.44C308.67 179.86 308.73 180.27 308.76 180.68C308.8 181.11 308.7 181.54 308.59 181.9C308.34 182.62 308 183.2 307.7 183.67C307.09 184.6 306.61 185.1 306.55 185.06Z"
            fill="#AA6550" />
        <path
            d="M301.62 172.95C301.75 172.89 303.04 175.76 304.16 179.45C304.72 181.3 305.15 182.99 305.39 184.24C305.64 185.48 305.65 186.29 305.58 186.29C305.51 186.29 305.37 185.54 305.04 184.32C304.72 183.11 304.23 181.44 303.67 179.6C302.55 175.93 301.49 173 301.62 172.95Z"
            fill="#AA6550" />
        <path
            d="M302 190.2C301.92 190.19 301.97 189.61 301.81 188.7C301.66 187.79 301.23 186.59 300.56 185.34C299.89 184.09 299.2 182.98 298.8 182.11C298.39 181.25 298.24 180.67 298.31 180.65C298.38 180.62 298.64 181.14 299.13 181.94C299.6 182.75 300.33 183.82 301.02 185.1C301.71 186.38 302.12 187.68 302.18 188.65C302.25 189.63 302.05 190.21 302 190.2Z"
            fill="#AA6550" />
        <path
            d="M230.32 463.7C230.32 463.7 254.7 472.85 254.96 477.36L207.76 477.17L207.75 464.83L209.48 465.23C216.42 466.86 223.69 466.32 230.32 463.7Z"
            fill="#263238" />
        <path
            d="M254.12 476.06C254.12 476.2 243.75 476.32 230.97 476.32C218.18 476.32 207.82 476.2 207.82 476.06C207.82 475.92 218.18 475.8 230.97 475.8C243.75 475.8 254.12 475.91 254.12 476.06Z"
            fill="#455A64" />
        <path
            d="M254.96 477.36C254.86 477.42 254.23 475.91 252.39 474.12C250.57 472.33 247.54 470.37 243.82 469.16C240.08 467.87 236.79 466.49 234.41 465.48C233.22 464.97 232.27 464.54 231.61 464.24C230.96 463.93 230.6 463.75 230.62 463.71C230.63 463.68 231.01 463.8 231.69 464.05C232.47 464.35 233.42 464.71 234.55 465.14C236.96 466.06 240.27 467.4 243.99 468.67C247.78 469.9 250.86 471.97 252.65 473.86C253.55 474.81 254.15 475.69 254.5 476.33C254.86 476.97 254.99 477.35 254.96 477.36Z"
            fill="#455A64" />
        <path
            d="M70.7322 120.788C77.2613 118.281 83.2643 114.557 88.3836 109.837C93.5028 105.117 97.6336 99.4982 100.53 93.3148C103.426 87.1315 105.028 80.5103 105.241 73.8458C105.455 67.1813 104.274 60.6097 101.77 54.5226C99.2662 48.4355 95.4902 42.9575 90.6671 38.4148C85.844 33.8721 80.0724 30.3577 73.6963 28.0811C67.3201 25.8044 60.4697 24.812 53.5534 25.163C46.637 25.514 39.7961 27.2012 33.4381 30.1241L33.9146 31.1724C40.1232 28.3182 46.8035 26.6706 53.5575 26.3278C60.3114 25.9851 67.0009 26.9542 73.2273 29.1774C79.4538 31.4006 85.0898 34.8324 89.7996 39.2684C94.5095 43.7044 98.1968 49.0538 100.642 54.998C103.087 60.9421 104.24 67.3593 104.032 73.8674C103.824 80.3754 102.259 86.8411 99.4307 92.8792C96.6025 98.9173 92.5688 104.404 87.5697 109.013C82.5707 113.622 76.7087 117.259 70.3329 119.707L70.7322 120.788Z"
            fill="url(#paint0_linear_1_358)" />
        <path
            d="M72.513 125.928C80.7678 123.135 88.2484 118.438 94.3528 112.214C100.457 105.991 105.015 98.4158 107.659 90.0979L96.8038 86.6123C94.7006 93.229 91.0752 99.255 86.2194 104.205C81.3636 109.156 75.413 112.892 68.8466 115.114L72.513 125.928Z"
            fill="url(#paint1_linear_1_358)" />
        <path
            d="M35.9592 20.8636C25.4924 24.9776 16.4853 32.1117 10.0769 41.3636C3.66846 50.6156 0.14657 61.5699 -0.0434358 72.8413C-0.233443 84.1128 2.91697 95.1951 9.00942 104.687C15.1019 114.179 23.8627 121.653 34.1841 126.166L40.9333 110.606C33.6867 107.437 27.5357 102.189 23.2582 95.525C18.9807 88.8609 16.7688 81.08 16.9022 73.1664C17.0356 65.2527 19.5083 57.5617 24.0077 51.0659C28.507 44.5701 34.8309 39.5613 42.1796 36.6728L35.9592 20.8636Z"
            fill="url(#paint2_linear_1_358)" />
        <path
            d="M34.9436 18.2837C20.2258 24.0686 8.4176 35.4795 2.11677 50.0063C-4.18405 64.533 -4.4614 80.9855 1.34574 95.7444C7.15289 110.503 18.5688 122.36 33.0822 128.705C47.5956 135.051 64.0175 135.366 78.7354 129.581L78.639 129.336C63.9859 135.096 47.6363 134.782 33.1868 128.464C18.7373 122.147 7.37164 110.342 1.59006 95.6484C-4.19151 80.9544 -3.91539 64.5744 2.3577 50.1116C8.63078 35.6488 20.387 24.2881 35.04 18.5287L34.9436 18.2837Z"
            fill="url(#paint3_linear_1_358)" />
        <path
            d="M34.9436 18.2837C20.2258 24.0686 8.4176 35.4795 2.11677 50.0063C-4.18405 64.533 -4.4614 80.9855 1.34574 95.7444C7.15289 110.503 18.5688 122.36 33.0822 128.705C47.5956 135.051 64.0175 135.366 78.7354 129.581L78.639 129.336C63.9859 135.096 47.6363 134.782 33.1868 128.464C18.7373 122.147 7.37164 110.342 1.59006 95.6484C-4.19151 80.9544 -3.91539 64.5744 2.3577 50.1116C8.63078 35.6488 20.387 24.2881 35.04 18.5287L34.9436 18.2837Z"
            fill="url(#paint4_radial_1_358)" />
        <path d="M157.221 38.7798H48.9707V195.68H157.221V38.7798Z" fill="#E0E0E0" />
        <path d="M151.79 38.7798H43.54V195.68H151.79V38.7798Z" fill="#F5F5F5" />
        <path d="M138.34 55.7798H56.9904V178.69H138.34V55.7798Z" fill="white" />
        <path
            d="M138.34 178.69C138.34 178.69 138.33 178.48 138.32 178.09C138.32 177.68 138.31 177.11 138.3 176.35C138.29 174.81 138.28 172.54 138.27 169.61C138.25 163.72 138.23 155.13 138.2 144.29C138.17 122.62 138.12 91.9297 138.07 55.7797L138.34 56.0497C113.49 56.0597 85.9504 56.0697 57.0004 56.0697H56.9904L57.2804 55.7797C57.2604 102.15 57.2404 144.9 57.2204 178.69L56.9904 178.46C81.7604 178.51 102.07 178.55 116.2 178.58C123.27 178.61 128.79 178.63 132.56 178.64C134.43 178.65 135.87 178.66 136.85 178.67C137.83 178.67 138.34 178.69 138.34 178.69C138.34 178.69 137.86 178.71 136.9 178.72C135.93 178.73 134.5 178.73 132.65 178.75C128.89 178.76 123.39 178.78 116.34 178.81C102.17 178.84 81.8204 178.88 56.9804 178.93H56.7504V178.69C56.7304 144.9 56.7104 102.15 56.6904 55.7797V55.4897H56.9804H57.0004C85.9504 55.4997 113.49 55.5097 138.34 55.5097H138.61V55.7797C138.56 91.9897 138.51 122.75 138.48 144.46C138.45 155.28 138.42 163.84 138.41 169.72C138.4 172.63 138.38 174.88 138.38 176.41C138.37 177.15 138.37 177.72 138.36 178.12C138.35 178.5 138.34 178.69 138.34 178.69Z"
            fill="#E0E0E0" />
        <path
            d="M152.091 38.7796C152.151 38.8296 151.421 39.8996 150.161 41.5796C148.901 43.2596 147.121 45.5496 145.081 48.0196C143.041 50.4896 141.141 52.6796 139.731 54.2396C138.321 55.7996 137.411 56.7196 137.351 56.6696C137.291 56.6196 138.091 55.5896 139.421 53.9696C140.871 52.2096 142.661 50.0396 144.631 47.6496C146.601 45.2496 148.391 43.0896 149.841 41.3196C151.181 39.7196 152.031 38.7296 152.091 38.7796Z"
            fill="#E0E0E0" />
        <path d="M138.761 178.29C142.801 184.71 147.571 190.68 152.951 196.03L138.761 178.29Z"
            fill="white" />
        <path
            d="M152.94 196.04C152.89 196.09 151.92 195.26 150.47 193.79C149.02 192.32 147.09 190.22 145.12 187.75C143.15 185.29 141.52 182.94 140.41 181.2C139.3 179.46 138.69 178.33 138.76 178.29C138.83 178.24 139.56 179.29 140.76 180.96C141.95 182.63 143.63 184.93 145.59 187.38C147.55 189.83 149.41 191.97 150.79 193.5C152.14 195.04 153.01 195.98 152.94 196.04Z"
            fill="#E0E0E0" />
        <path d="M43.5303 195.56C48.2603 189.73 52.9803 183.9 57.7103 178.07L43.5303 195.56Z"
            fill="white" />
        <path
            d="M57.7103 178.06C57.8403 178.16 54.7603 182.16 50.8503 186.99C46.9303 191.82 43.6603 195.65 43.5303 195.55C43.4003 195.45 46.4703 191.45 50.3903 186.62C54.3003 181.8 57.5803 177.96 57.7103 178.06Z"
            fill="#E0E0E0" />
        <path
            d="M43.5407 38.7798C43.6707 38.6798 46.7507 42.3598 50.4207 47.0098C54.0907 51.6598 56.9707 55.4998 56.8407 55.5998C56.7107 55.6998 53.6307 52.0198 49.9607 47.3698C46.2907 42.7298 43.4207 38.8898 43.5407 38.7798Z"
            fill="#E0E0E0" />
        <path d="M113.001 80.73H85.7607V158.07H113.001V80.73Z" fill="#C6D2FF" />
        <path
            d="M129.51 228.12C129.56 228.2 128.5 228.93 126.85 230.18C125.2 231.43 122.98 233.25 120.73 235.46C118.48 237.68 116.63 239.86 115.35 241.49C114.07 243.12 113.32 244.17 113.24 244.12C113.18 244.08 113.8 242.94 115 241.23C116.2 239.52 118.02 237.26 120.3 235.02C122.58 232.78 124.87 231 126.6 229.83C128.33 228.65 129.48 228.05 129.51 228.12Z"
            fill="#263238" />
        <path
            d="M127.339 219.18C127.509 219.22 126.939 222.11 126.069 225.64C125.199 229.17 124.369 231.98 124.209 231.93C124.049 231.88 124.609 228.99 125.479 225.47C126.339 221.96 127.169 219.14 127.339 219.18Z"
            fill="#263238" />
        <path
            d="M126.39 218.69C125.96 218.88 125.83 219.93 126.19 220.44C126.55 220.95 127.32 221.03 127.86 220.73C128.5 220.37 128.81 219.47 128.42 218.85C128.03 218.23 126.86 218.1 126.34 218.72"
            fill="#455A64" />
        <path
            d="M130.92 222.75C130.99 222.91 129.95 223.53 128.6 224.15C127.25 224.77 126.1 225.14 126.03 224.98C125.96 224.82 127 224.2 128.35 223.59C129.7 222.97 130.85 222.6 130.92 222.75Z"
            fill="#263238" />
        <path
            d="M130.82 221.74C130.46 222.01 130.12 222.35 130 222.78C129.88 223.21 130.06 223.76 130.49 223.9C130.76 224 131.08 223.91 131.31 223.72C131.54 223.54 131.68 223.27 131.78 223C131.89 222.71 131.94 222.37 131.83 222.08C131.71 221.79 131.38 221.57 131.08 221.67"
            fill="#455A64" />
        <path
            d="M130.79 226.94C130.14 226.92 129.53 227.52 129.55 228.17C129.57 228.82 130.2 229.39 130.85 229.33C131.5 229.27 132.03 228.61 131.94 227.96C131.85 227.31 131.15 226.82 130.52 226.95"
            fill="#455A64" />
        <path
            d="M103.2 191.84C103.24 191.84 103.29 192.59 103.35 193.93C103.4 195.38 103.46 197.3 103.53 199.63C103.66 204.44 103.79 211.09 103.91 218.43C104.02 225.78 104.09 232.42 104.11 237.24C104.11 239.57 104.1 241.49 104.1 242.94C104.08 244.29 104.05 245.03 104.01 245.03C103.97 245.03 103.92 244.29 103.86 242.94C103.81 241.49 103.75 239.57 103.68 237.24C103.55 232.43 103.42 225.78 103.3 218.43C103.19 211.08 103.12 204.43 103.1 199.62C103.1 197.29 103.11 195.37 103.11 193.92C103.13 192.59 103.16 191.84 103.2 191.84Z"
            fill="#263238" />
        <path
            d="M112.57 187.83C112.98 192.94 109.16 197.41 104.05 197.81C98.94 198.21 94.47 194.4 94.07 189.29C93.67 184.18 97.48 179.71 102.59 179.31C107.69 178.91 112.16 182.72 112.57 187.83Z"
            fill="#4CD685" />
        <g opacity="0.3">
            <path
                d="M102.94 197.87C102.85 197.86 102.97 196.83 103.02 195.18C103.06 193.55 103.01 191.23 102.07 188.94C101.12 186.66 99.34 185.1 97.88 184.45C96.41 183.77 95.34 183.86 95.35 183.74C95.35 183.7 95.61 183.64 96.08 183.64C96.56 183.63 97.25 183.74 98.05 184.04C99.65 184.63 101.62 186.25 102.64 188.69C103.64 191.13 103.61 193.55 103.45 195.2C103.28 196.88 103.01 197.88 102.94 197.87Z"
                fill="black" />
        </g>
        <g opacity="0.3">
            <path
                d="M111.59 184.94C111.61 185.13 108.99 184.95 106.44 186.61C103.88 188.25 102.97 190.72 102.81 190.62C102.74 190.6 102.86 189.96 103.35 189.04C103.84 188.13 104.75 186.96 106.1 186.09C107.45 185.22 108.89 184.86 109.92 184.79C110.97 184.71 111.6 184.86 111.59 184.94Z"
                fill="black" />
        </g>
        <g opacity="0.3">
            <path
                d="M107.44 185.67C107.34 185.69 107.22 185.06 106.64 184.27C106.09 183.49 104.97 182.57 103.52 182.44C102.07 182.33 100.81 183.05 100.14 183.73C99.4397 184.41 99.2197 185.02 99.1197 184.98C99.0597 184.97 99.1297 184.28 99.8197 183.43C100.47 182.61 101.86 181.69 103.58 181.82C105.29 181.98 106.51 183.11 107.02 184.03C107.54 184.98 107.5 185.68 107.44 185.67Z"
                fill="black" />
        </g>
        <g opacity="0.3">
            <path
                d="M104.88 187.45C104.7 187.47 104.5 186.19 103.72 184.86C102.96 183.52 101.95 182.71 102.06 182.56C102.13 182.42 103.41 183.07 104.26 184.55C105.12 186.03 105.04 187.47 104.88 187.45Z"
                fill="black" />
        </g>
        <g opacity="0.3">
            <path
                d="M103.97 184.69C104.01 184.87 103.25 185.12 102.61 185.74C101.98 186.37 101.54 187.08 101.37 186.98C101.24 186.92 101.41 186.08 102.18 185.29C103.02 184.51 103.97 184.54 103.97 184.69Z"
                fill="black" />
        </g>
        <path
            d="M83.44 220.32C83.6 220.27 86.15 227.78 89.14 237.1C92.13 246.42 94.41 254.02 94.25 254.07C94.09 254.12 91.54 246.61 88.55 237.29C85.56 227.97 83.27 220.38 83.44 220.32Z"
            fill="#263238" />
        <path
            d="M89.3704 238.86C89.2704 238.97 86.6604 236.91 83.4004 234.41C80.1504 231.89 77.5904 229.74 77.7104 229.6C77.8104 229.48 80.5304 231.41 83.7804 233.93C87.0504 236.43 89.5004 238.72 89.3704 238.86Z"
            fill="#263238" />
        <path
            d="M76.26 228.82C75.76 229.28 75.94 230.3 76.51 230.87C77.08 231.44 78.4 231.16 78.82 230.49C79.25 229.81 78.95 228.81 78.25 228.43C77.55 228.05 76.58 228.32 76.14 228.99"
            fill="#455A64" />
        <path
            d="M89.38 216.66C89.57 216.7 89.01 219.37 87.9 222.51C86.8 225.64 86.12 228.22 85.96 228.2C85.78 228.17 86.21 225.46 87.31 222.31C88.42 219.17 89.23 216.63 89.38 216.66Z"
            fill="#263238" />
        <path
            d="M89.0803 214.34C88.4603 214.78 88.4403 215.05 88.2003 215.77C87.9603 216.49 88.3003 217.45 89.0503 217.6C89.7403 217.74 90.3903 217.15 90.6803 216.5C90.9503 215.91 91.0303 215.18 90.6603 214.64C90.3003 214.1 89.4003 213.94 89.0003 214.46"
            fill="#455A64" />
        <path
            d="M78.45 236.55C78.39 236.39 79.48 235.78 80.9 235.18C82.31 234.58 83.52 234.23 83.59 234.38C83.66 234.54 82.56 235.15 81.14 235.75C79.72 236.35 78.51 236.71 78.45 236.55Z"
            fill="#263238" />
        <path
            d="M76.24 235.52C75.81 235.74 75.64 236.77 75.66 237.2C75.68 237.63 75.95 238.02 76.32 238.26C76.99 238.69 77.97 238.54 78.48 237.92C78.99 237.31 78.96 236.32 78.42 235.73C77.87 235.15 76.88 235.05 76.24 235.52Z"
            fill="#455A64" />
        <path
            d="M80.7004 218.58C80.4804 219.53 80.9804 220.59 81.8504 221.03C82.7204 221.47 83.8704 221.25 84.5104 220.52C84.8104 220.18 85.0004 219.71 84.9404 219.26C84.8204 218.44 83.7704 217.49 82.9504 217.43C81.7604 217.35 81.0604 217.97 80.7004 218.58Z"
            fill="#455A64" />
        <path
            d="M112.49 227.82C112.57 227.85 112.27 228.78 111.75 230.28C111.14 232 110.46 233.95 109.7 236.1C108.93 238.24 108.23 240.18 107.6 241.9C107.05 243.38 106.7 244.29 106.62 244.27C106.44 244.22 107.49 240.44 109.12 235.89C110.74 231.34 112.32 227.75 112.49 227.82Z"
            fill="#263238" />
        <path
            d="M122.34 223.56C121.43 227.85 117.21 230.59 112.92 229.68C108.63 228.77 105.89 224.55 106.8 220.26C107.71 215.97 111.93 213.23 116.22 214.14C120.51 215.06 123.25 219.27 122.34 223.56Z"
            fill="#4CD685" />
        <g opacity="0.3">
            <path
                d="M112 229.45C111.91 229.41 112.25 228.59 112.69 227.26C113.11 225.93 113.63 224.02 113.42 221.92C113.2 219.83 112.13 218.13 111.1 217.24C110.07 216.32 109.17 216.13 109.21 216.02C109.2 215.96 110.18 216 111.38 216.9C112.56 217.77 113.8 219.59 114.04 221.86C114.27 224.11 113.65 226.1 113.11 227.41C112.54 228.74 112.06 229.49 112 229.45Z"
                fill="black" />
        </g>
        <g opacity="0.3">
            <path
                d="M122.24 220.95C122.2 221.13 120.1 220.37 117.62 221.11C115.14 221.83 113.78 223.61 113.65 223.48C113.59 223.44 113.83 222.93 114.46 222.29C115.08 221.65 116.12 220.91 117.45 220.52C118.78 220.13 120.06 220.19 120.92 220.39C121.79 220.59 122.27 220.88 122.24 220.95Z"
                fill="black" />
        </g>
        <g opacity="0.3">
            <path
                d="M118.66 220.55C118.56 220.54 118.6 219.99 118.32 219.21C118.05 218.45 117.36 217.43 116.22 216.98C115.07 216.54 113.88 216.82 113.16 217.2C112.42 217.58 112.08 218.01 112 217.95C111.94 217.92 112.16 217.36 112.93 216.82C113.67 216.29 115.04 215.87 116.44 216.4C117.82 216.95 118.55 218.2 118.73 219.08C118.94 220 118.72 220.57 118.66 220.55Z"
                fill="black" />
        </g>
        <g opacity="0.3">
            <path
                d="M116.13 221.38C115.95 221.34 116.08 220.25 115.76 218.99C115.47 217.72 114.86 216.8 115 216.69C115.11 216.57 116.02 217.41 116.36 218.84C116.71 220.28 116.28 221.44 116.13 221.38Z"
                fill="black" />
        </g>
        <g opacity="0.3">
            <path
                d="M116.06 218.9C116.05 219.08 115.37 219.12 114.71 219.47C114.05 219.83 113.5 220.28 113.37 220.15C113.26 220.05 113.59 219.39 114.43 218.92C115.31 218.47 116.09 218.75 116.06 218.9Z"
                fill="black" />
        </g>
        <path
            d="M94.2097 211.17C94.2497 211.17 94.3597 211.64 94.5197 212.49C94.6897 213.48 94.8897 214.68 95.1297 216.11C95.6197 219.17 96.2497 223.4 96.9097 228.07C97.5697 232.75 98.1297 236.98 98.5097 240.05C98.6697 241.48 98.8097 242.7 98.9197 243.69C98.9997 244.55 99.0297 245.03 98.9897 245.04C98.9497 245.05 98.8397 244.58 98.6797 243.73C98.5097 242.75 98.3097 241.54 98.0697 240.11C97.5797 237.05 96.9497 232.82 96.2897 228.14C95.6297 223.46 95.0697 219.22 94.6897 216.15C94.5297 214.72 94.3897 213.5 94.2797 212.51C94.1897 211.65 94.1597 211.17 94.2097 211.17Z"
            fill="#263238" />
        <path
            d="M100.96 202.82C102.14 207.04 99.6797 211.43 95.4597 212.61C91.2397 213.79 86.8497 211.33 85.6697 207.11C84.4897 202.89 86.9497 198.5 91.1697 197.32C95.3897 196.13 99.7697 198.6 100.96 202.82Z"
            fill="#4CD685" />
        <g opacity="0.3">
            <path
                d="M94.5197 212.84C94.4297 212.84 94.3497 211.96 94.1097 210.58C93.8697 209.2 93.4397 207.27 92.2797 205.51C91.1097 203.76 89.3697 202.75 88.0497 202.44C86.7097 202.11 85.8297 202.35 85.8097 202.23C85.7797 202.18 86.6597 201.76 88.1397 202.01C89.5897 202.23 91.5297 203.27 92.7897 205.17C94.0397 207.06 94.4097 209.11 94.5397 210.52C94.6797 211.95 94.5997 212.84 94.5197 212.84Z"
                fill="black" />
        </g>
        <g opacity="0.3">
            <path
                d="M99.6597 200.55C99.7097 200.73 97.4897 201.03 95.6397 202.83C93.7797 204.62 93.3997 206.82 93.2197 206.77C93.1397 206.76 93.1297 206.2 93.3797 205.34C93.6297 204.49 94.2097 203.35 95.1997 202.38C96.1897 201.42 97.3597 200.88 98.2197 200.66C99.0897 200.44 99.6497 200.48 99.6597 200.55Z"
                fill="black" />
        </g>
        <g opacity="0.3">
            <path
                d="M96.2902 201.86C96.2002 201.9 95.9802 201.39 95.3702 200.84C94.7802 200.29 93.6902 199.71 92.4702 199.84C91.2502 199.98 90.3202 200.79 89.8602 201.45C89.3802 202.13 89.2802 202.67 89.1902 202.65C89.1202 202.65 89.0602 202.05 89.4902 201.22C89.9002 200.41 90.9202 199.4 92.4002 199.22C93.8802 199.07 95.1002 199.83 95.6802 200.53C96.2902 201.25 96.3602 201.85 96.2902 201.86Z"
                fill="black" />
        </g>
        <g opacity="0.3">
            <path
                d="M94.4397 203.78C94.2697 203.83 93.8697 202.81 93.0097 201.83C92.1597 200.84 91.1997 200.31 91.2697 200.15C91.3097 199.99 92.5097 200.31 93.4797 201.43C94.4397 202.52 94.5997 203.75 94.4397 203.78Z"
                fill="black" />
        </g>
        <g opacity="0.3">
            <path
                d="M93.2197 201.61C93.2997 201.78 92.7097 202.13 92.2897 202.74C91.8697 203.36 91.5897 204.02 91.4197 203.96C91.2797 203.92 91.2597 203.19 91.7897 202.38C92.3597 201.57 93.1797 201.46 93.2197 201.61Z"
                fill="black" />
        </g>
        <path d="M95.34 295.64L88.13 243.63H119.16L112.82 295.64H95.34Z" fill="#455A64" />
        <path
            d="M116.92 263.97C116.92 264.11 111.11 264.23 103.94 264.23C96.77 264.23 90.96 264.11 90.96 263.97C90.96 263.83 96.77 263.71 103.94 263.71C111.1 263.71 116.92 263.83 116.92 263.97Z"
            fill="#FAFAFA" />
        <path
            d="M116.27 267.32C116.27 267.46 110.7 267.58 103.84 267.58C96.9704 267.58 91.4104 267.46 91.4104 267.32C91.4104 267.18 96.9704 267.06 103.84 267.06C110.71 267.05 116.27 267.17 116.27 267.32Z"
            fill="#FAFAFA" />
        <path
            d="M115.88 270.51C115.88 270.65 110.5 270.77 103.87 270.77C97.2296 270.77 91.8596 270.65 91.8596 270.51C91.8596 270.37 97.2396 270.25 103.87 270.25C110.5 270.25 115.88 270.37 115.88 270.51Z"
            fill="#FAFAFA" />
        <path
            d="M115.46 273.99C115.46 274.13 110.28 274.25 103.9 274.25C97.51 274.25 92.34 274.13 92.34 273.99C92.34 273.85 97.51 273.73 103.9 273.73C110.28 273.73 115.46 273.85 115.46 273.99Z"
            fill="#FAFAFA" />
        <path
            d="M115.07 277.17C115.07 277.31 110.13 277.43 104.04 277.43C97.95 277.43 93.01 277.31 93.01 277.17C93.01 277.03 97.95 276.91 104.04 276.91C110.13 276.91 115.07 277.02 115.07 277.17Z"
            fill="#FAFAFA" />
        <path
            d="M114.45 280.34C114.45 280.48 109.7 280.6 103.83 280.6C97.97 280.6 93.21 280.48 93.21 280.34C93.21 280.2 97.96 280.08 103.83 280.08C109.7 280.08 114.45 280.2 114.45 280.34Z"
            fill="#FAFAFA" />
        <path
            d="M114.3 283.52C114.3 283.66 109.68 283.78 103.98 283.78C98.2804 283.78 93.6604 283.66 93.6604 283.52C93.6604 283.38 98.2804 283.26 103.98 283.26C109.68 283.26 114.3 283.37 114.3 283.52Z"
            fill="#FAFAFA" />
        <path
            d="M113.91 286.69C113.91 286.83 109.48 286.95 104.01 286.95C98.54 286.95 94.1 286.83 94.1 286.69C94.1 286.55 98.53 286.43 104.01 286.43C109.48 286.43 113.91 286.55 113.91 286.69Z"
            fill="#FAFAFA" />
    </g>
    <defs>
        <linearGradient id="paint0_linear_1_358" x1="35.7134" y1="28.8198" x2="71.1034" y2="5.66345"
            gradientUnits="userSpaceOnUse">
            <stop stop-color="#567BFF" />
            <stop offset="1" stop-color="#BFE8FF" />
        </linearGradient>
        <linearGradient id="paint1_linear_1_358" x1="105.359" y1="96.1063" x2="33.8266" y2="66.9041"
            gradientUnits="userSpaceOnUse">
            <stop stop-color="#4CD184" />
            <stop offset="1" stop-color="#B9FFD6" />
        </linearGradient>
        <linearGradient id="paint2_linear_1_358" x1="76.5492" y1="127.813" x2="37.0493" y2="151.686"
            gradientUnits="userSpaceOnUse">
            <stop stop-color="#B5C5FE" />
            <stop offset="1" stop-color="#BAE5FD" />
        </linearGradient>
        <linearGradient id="paint3_linear_1_358" x1="77.5068" y1="130.433" x2="36.0867" y2="155.466"
            gradientUnits="userSpaceOnUse">
            <stop stop-color="#B5C5FE" />
            <stop offset="1" stop-color="#BAE5FD" />
        </linearGradient>
        <radialGradient id="paint4_radial_1_358" cx="0" cy="0" r="1" gradientUnits="userSpaceOnUse"
            gradientTransform="translate(58.2522 104.92) rotate(-146.871) scale(45.4184 193.867)">
            <stop stop-color="#27AE60" />
            <stop offset="1" stop-color="#BFE8FF" />
        </radialGradient>
        <clipPath id="clip0_1_358">
            <rect width="500" height="500" fill="white" />
        </clipPath>
    </defs>
</svg>