
<svg width="584" height="468" viewBox="0 0 584 468" fill="none" xmlns="http://www.w3.org/2000/svg">
<path d="M443.32 98.6576C443.32 98.6576 458.66 95.9599 467.56 109.687C476.46 123.413 501.547 157.651 501.547 157.651L533.113 136.849L546.496 152.732C546.496 152.732 526.779 182.751 511.624 189.442C496.469 196.134 476.804 179.55 476.804 179.55L456.69 156.21L443.32 98.6576Z" fill="#FFBF9D"/>
<path d="M478.659 154.702C478.011 155.575 463.981 206.951 452.383 212.981C448.244 215.137 399.816 200.484 399.816 200.484C399.816 200.484 401.774 184.589 402.435 184.364C403.083 184.152 441.526 186.758 441.526 186.758L456.773 143.673L478.659 154.702Z" fill="#AE7461"/>
<path d="M404.5 184.377C404.5 184.377 400.731 177.21 399.078 175.53C397.438 173.851 391.342 169.434 389.795 166.538C389.795 166.538 387.15 166.749 388.076 169.54C389.001 172.33 391.342 175.861 392.797 177.196C394.251 178.532 393.14 179.564 391.739 179.444C390.324 179.325 381.027 176.813 381.027 176.813C381.027 176.813 370.924 172.29 369.628 172.991C368.332 173.679 368.371 175.464 369.046 176.165C369.535 176.667 377.853 181.349 377.853 181.349L382.521 182.883C382.521 182.883 367.604 179.074 366.282 179.934C364.96 180.793 365.264 181.957 365.766 182.737C366.269 183.518 372.868 185.131 372.868 185.131L381.582 187.961L364.576 185.422C364.576 185.422 362.936 185.395 362.698 186.731C362.46 188.067 364.193 189.204 364.193 189.204L381.503 193.449C381.503 193.449 371.823 191.545 371.215 192.166C370.408 192.999 370.514 193.885 371.215 194.295C372.656 195.115 381.318 197.178 381.318 197.178L397.928 200.233L405.862 202.203L409.155 185.752L404.5 184.377Z" fill="#AE7461"/>
<path d="M412.27 194.679C412.27 194.679 416.357 187.696 418.089 186.083C419.808 184.483 426.09 180.344 427.782 177.514C427.782 177.514 430.414 177.844 429.356 180.582C428.311 183.319 425.799 186.744 424.291 188.014C422.784 189.27 423.828 190.368 425.243 190.315C426.658 190.262 436.061 188.172 436.061 188.172C436.061 188.172 446.362 184.113 447.619 184.866C448.888 185.62 448.769 187.392 448.055 188.053C447.539 188.529 439.023 192.827 439.023 192.827L434.289 194.15C434.289 194.15 449.364 191.016 450.647 191.941C451.93 192.867 451.573 194.004 451.031 194.771C450.488 195.525 443.823 196.834 443.823 196.834L434.99 199.254L452.102 197.496C452.102 197.496 453.742 197.548 453.927 198.897C454.112 200.246 452.313 201.304 452.313 201.304L434.831 204.756C434.831 204.756 444.59 203.288 445.172 203.949C445.939 204.822 445.794 205.695 445.067 206.065C443.585 206.819 434.844 208.485 434.844 208.485L418.115 210.773L410.102 212.373L407.562 195.79L412.27 194.679Z" fill="#FFBF9D"/>
<path d="M338.359 198.078C339.007 198.95 348.595 219.21 352.298 222.04C356.001 224.87 424.383 210.059 424.383 210.059C424.383 210.059 422.426 194.163 421.765 193.938C421.117 193.727 360.999 198.95 360.999 198.95L354.123 179.22L338.359 198.078Z" fill="#FFBF9D"/>
<path d="M319.384 153.366L268.233 137.047L262.309 156.447C262.309 156.447 300.685 175.861 314.24 180.859C325.375 184.972 329.58 185.99 334.288 180.992C336.854 178.281 344.603 167.873 351.678 158.18L332.199 138.251L319.384 153.366Z" fill="#FFBF9D"/>
<path d="M150.736 107.267C150.736 107.267 129.947 111.525 123.375 125.212C116.3 139.957 91.7027 169.672 91.7027 169.672L37.2584 168.244L29.7734 182.473C29.7734 182.473 65.3203 202.812 81.7051 205.232C103.631 208.472 116.458 191.571 116.458 191.571L136.573 168.23L150.736 107.267Z" fill="#F5F5F5"/>
<path d="M317.823 154.768C317.823 154.768 320.468 147.111 321.843 145.207C323.219 143.303 328.575 138.013 329.672 134.918C329.672 134.918 332.317 134.733 331.814 137.629C331.325 140.525 329.527 144.374 328.297 145.908C327.067 147.442 328.31 148.301 329.685 147.971C331.061 147.64 339.868 143.752 339.868 143.752C339.868 143.752 349.178 137.762 350.566 138.251C351.955 138.74 352.18 140.512 351.611 141.292C351.201 141.861 343.677 147.746 343.677 147.746L339.299 149.968C339.299 149.968 353.476 143.951 354.917 144.612C356.359 145.26 356.226 146.463 355.843 147.31C355.459 148.156 349.178 150.748 349.178 150.748L340.979 154.847L357.417 149.782C357.417 149.782 359.03 149.518 359.48 150.801C359.916 152.083 358.369 153.472 358.369 153.472L341.891 160.269C341.891 160.269 351.175 156.924 351.876 157.453C352.801 158.167 352.828 159.039 352.193 159.555C350.897 160.587 342.645 163.919 342.645 163.919L326.683 169.434L319.132 172.568L313.406 156.805L317.823 154.768Z" fill="#AE7461"/>
<path d="M219.609 105.428C219.609 105.428 235.201 103.762 244.087 117.476C252.987 131.203 273.961 163.602 273.961 163.602L315.327 154.874L324.187 171.946C324.187 171.946 296.985 189.389 281.83 196.081C266.675 202.772 252.749 189.35 252.749 189.35L233.191 163.999L219.609 105.428Z" fill="#F5F5F5"/>
<path d="M260.76 190.474C260.112 191.346 250.524 211.606 246.821 214.436C243.119 217.266 196.477 204.571 196.477 204.571C196.477 204.571 198.381 189.178 199.029 188.953C199.677 188.741 238.12 191.346 238.12 191.346L244.441 179.233L260.76 190.474Z" fill="#FFBF9D"/>
<path d="M199.536 189.363C199.536 189.363 196.111 182.804 194.617 181.256C193.122 179.722 187.568 175.662 186.153 173.004C186.153 173.004 183.746 173.19 184.58 175.742C185.413 178.294 187.555 181.534 188.877 182.751C190.2 183.967 189.195 184.919 187.899 184.8C186.616 184.695 178.126 182.354 178.126 182.354C178.126 182.354 168.909 178.188 167.719 178.823C166.528 179.458 166.555 181.084 167.176 181.719C167.626 182.182 175.217 186.48 175.217 186.48L179.475 187.895C179.475 187.895 165.854 184.364 164.637 185.144C163.421 185.925 163.698 186.982 164.161 187.71C164.624 188.424 170.654 189.918 170.654 189.918L178.615 192.523L163.077 190.156C163.077 190.156 161.583 190.13 161.358 191.346C161.133 192.563 162.72 193.621 162.72 193.621L178.523 197.562C178.523 197.562 169.676 195.79 169.12 196.358C168.38 197.125 168.472 197.932 169.12 198.302C170.43 199.056 178.338 200.974 178.338 200.974L193.506 203.817L200.753 205.642L203.808 190.619L199.536 189.363Z" fill="#FFBF9D"/>
<path d="M98.7461 157.082C98.7461 157.082 112.05 154.742 119.746 166.63C127.456 178.519 149.197 208.194 149.197 208.194L176.544 190.169L188.142 203.936C188.142 203.936 171.056 229.948 157.925 235.74C144.793 241.532 127.747 227.171 127.747 227.171L110.317 206.951L98.7461 157.082Z" fill="#4CD685"/>
<path d="M178.064 189.244C178.064 189.244 178.699 181.917 179.479 179.947C180.273 177.963 183.804 172.132 184.081 169.156C184.081 169.156 186.369 168.402 186.567 171.06C186.779 173.718 186.052 177.501 185.311 179.127C184.571 180.754 185.853 181.23 186.991 180.635C188.128 180.04 195.018 174.671 195.018 174.671C195.018 174.671 201.881 167.344 203.204 167.463C204.526 167.582 205.121 169.09 204.804 169.91C204.566 170.505 199.263 177.342 199.263 177.342L195.904 180.264C195.904 180.264 207.039 171.827 208.454 172.092C209.869 172.343 210.014 173.427 209.869 174.261C209.723 175.094 204.764 178.757 204.764 178.757L198.469 184.192L211.813 176.086C211.813 176.086 213.175 175.49 213.849 176.522C214.523 177.553 213.466 179.127 213.466 179.127L200.479 188.768C200.479 188.768 207.911 183.769 208.639 184.073C209.617 184.496 209.829 185.263 209.379 185.845C208.467 187.035 201.947 191.809 201.947 191.809L189.133 200.207L183.182 204.65L174.652 192.047L178.064 189.244Z" fill="#FFBF9D"/>
<path d="M167.511 68.6908C164.986 62.9382 162.486 57.146 160.992 51.0364C159.498 44.94 159.035 38.4733 160.635 32.3902C160.873 31.4645 163.095 25.2358 164.047 25.2358C164.721 25.2358 163.544 30.9619 163.941 31.5174C167.749 36.7806 169.297 43.406 169.429 49.8991C169.548 56.3922 168.781 62.3167 167.511 68.6908Z" fill="#263238"/>
<path d="M206.014 99.8342C205.617 95.4173 205.326 91.9261 205.352 91.9261C205.352 91.9261 220.349 88.8845 219.846 73.7824C219.608 66.4826 217.876 51.4995 216.157 37.9579C214.305 23.3979 201.597 12.6863 186.931 13.3607L185.476 13.4269C169.806 15.0667 162.44 29.2827 164.516 44.9006L170.017 99.7548L181.919 111.379C191.401 120.636 207.283 113.032 206.014 99.8342Z" fill="#FFBF9D"/>
<path d="M205.378 91.9263C205.378 91.9263 195.883 92.9181 185.449 87.0068C185.449 87.0068 190.739 97.7714 205.748 95.7216L205.378 91.9263Z" fill="#FF9A6C"/>
<path d="M210.14 51.6319C210.233 52.7692 209.347 53.7874 208.157 53.9064C206.98 54.0255 205.935 53.2056 205.843 52.0683C205.75 50.931 206.636 49.9127 207.813 49.7937C209.016 49.6747 210.048 50.4946 210.14 51.6319Z" fill="#263238"/>
<path d="M213.274 44.3581C213.023 44.6491 211.33 43.5118 209.016 43.6308C206.701 43.7101 205.048 44.9797 204.784 44.702C204.652 44.5829 204.903 44.0672 205.617 43.4853C206.318 42.9167 207.548 42.3348 208.989 42.2687C210.431 42.2158 211.674 42.6919 212.401 43.1944C213.128 43.7366 213.393 44.2259 213.274 44.3581Z" fill="#263238"/>
<path d="M190.523 52.6762C190.616 53.8135 189.73 54.8318 188.54 54.9508C187.363 55.0698 186.318 54.2499 186.225 53.1126C186.133 51.9753 187.019 50.957 188.209 50.838C189.399 50.7058 190.431 51.5389 190.523 52.6762Z" fill="#263238"/>
<path d="M191.625 46.1701C191.374 46.4611 189.681 45.3238 187.367 45.4428C185.053 45.5221 183.4 46.7917 183.135 46.514C183.003 46.3949 183.254 45.8792 183.969 45.2973C184.669 44.7287 185.899 44.1468 187.341 44.0807C188.782 44.0278 190.025 44.5039 190.753 45.0064C191.48 45.5354 191.744 46.0379 191.625 46.1701Z" fill="#263238"/>
<path d="M199.677 63.7845C199.664 63.6523 201.092 63.3349 203.419 62.9382C204.014 62.8456 204.57 62.7134 204.649 62.3034C204.768 61.867 204.49 61.2455 204.173 60.571C203.551 59.1693 202.904 57.6881 202.216 56.1409C199.492 49.8329 197.482 44.6226 197.746 44.5168C197.997 44.411 200.417 49.4362 203.142 55.7442C203.803 57.3046 204.424 58.7858 205.033 60.2008C205.284 60.862 205.707 61.6158 205.443 62.515C205.297 62.9646 204.887 63.3085 204.504 63.4275C204.133 63.5597 203.79 63.5862 203.499 63.6126C201.158 63.8374 199.69 63.9168 199.677 63.7845Z" fill="#263238"/>
<path d="M191.127 38.3679C190.823 38.963 188.562 38.3811 185.811 38.3811C183.06 38.315 180.786 38.844 180.495 38.2357C180.363 37.9447 180.825 37.4025 181.778 36.9C182.73 36.3975 184.198 36.0008 185.837 36.014C187.477 36.0404 188.932 36.4768 189.871 37.0058C190.823 37.5216 191.259 38.077 191.127 38.3679Z" fill="#263238"/>
<path d="M212.176 36.2781C211.793 36.8203 210.166 36.3442 208.248 36.4104C206.318 36.4104 204.718 36.9261 204.321 36.3971C204.149 36.1327 204.374 35.6037 205.061 35.0615C205.736 34.5325 206.9 34.0697 208.222 34.0565C209.544 34.0432 210.708 34.4664 211.409 34.9689C212.097 35.4847 212.348 36.0136 212.176 36.2781Z" fill="#263238"/>
<path d="M166.256 56.022C165.991 55.9163 155.743 53.4301 156.536 63.7318C157.343 74.0335 167.525 71.1109 167.512 70.8068C167.525 70.5291 166.256 56.022 166.256 56.022Z" fill="#FFBF9D"/>
<path d="M164.064 67.1569C164.011 67.1305 163.892 67.3024 163.601 67.4611C163.311 67.6198 162.808 67.752 162.266 67.5933C161.142 67.2759 160.097 65.6229 159.899 63.7715C159.806 62.8326 159.925 61.9333 160.203 61.1663C160.454 60.3861 160.904 59.8175 161.446 59.6852C161.988 59.5133 162.398 59.8175 162.543 60.0952C162.702 60.3729 162.649 60.5844 162.715 60.5977C162.742 60.6241 162.927 60.4125 162.808 59.9894C162.755 59.791 162.61 59.553 162.358 59.381C162.094 59.1959 161.724 59.1298 161.34 59.1959C160.547 59.3149 159.885 60.0952 159.594 60.9415C159.251 61.7879 159.079 62.8061 159.198 63.8641C159.423 65.9403 160.639 67.7917 162.16 68.1091C162.901 68.2413 163.482 67.9768 163.787 67.7123C164.064 67.4082 164.104 67.1834 164.064 67.1569Z" fill="#FF9A6C"/>
<path d="M208.01 21.4671C209.597 20.4092 204.122 15.4369 199.864 13.9293C193.424 11.6547 183.823 10.7422 178.255 12.8581C171.551 15.3972 166.142 19.3116 163.233 25.8708C160.323 32.43 159.662 39.8224 160.482 46.9503C160.733 49.1191 161.156 51.3804 162.479 53.1128C164.119 55.2683 167.001 56.4585 167.147 59.6059C167.2 60.7564 167.636 61.8937 168.496 62.6607C170.559 64.4989 172.701 62.4227 173.587 60.439C175.505 56.2073 175.333 51.3672 175.134 46.7255C174.989 43.4326 174.83 40.0604 173.64 36.9924C172.992 35.3129 172.04 33.7657 171.485 32.0598C170.929 30.3538 170.81 28.3702 171.762 26.8494C171.921 26.5981 172.185 26.2808 172.529 25.9369C175.227 23.1334 179.247 22.0093 183.016 22.9879C188.993 24.5351 199.163 26.7436 201.583 24.5484C205.061 21.3878 205.788 19.4703 205.788 19.4703L208.01 21.4671Z" fill="#263238"/>
<path d="M203.349 70.4236C203.428 70.5955 203.018 70.9922 202.172 71.2831C201.338 71.5741 200.042 71.6799 198.72 71.3096C197.398 70.9261 196.353 70.1591 195.797 69.4714C195.229 68.7837 195.097 68.2283 195.242 68.1225C195.573 67.8977 196.895 69.3524 199.104 69.9343C201.299 70.5955 203.19 70.0533 203.349 70.4236Z" fill="#263238"/>
<path d="M217.468 461.016L216.74 487.332C216.74 487.332 244.485 496.814 244.842 501.68L191.403 502.289L190.781 461.24L217.468 461.016Z" fill="#263238"/>
<path d="M152.761 460.341L150.804 492.145L156.848 517.708C157.284 519.546 155.988 521.358 154.044 521.662C152.947 521.82 151.849 521.477 151.082 520.723C146.176 515.896 128.217 498.083 128.495 495.769C128.826 493.084 128.23 462.1 128.23 462.1L152.761 460.341Z" fill="#263238"/>
<path d="M229.857 249.057C229.857 249.057 234.829 263.101 234.314 280.584C234.115 287.341 219.092 475.02 219.092 475.02L184.498 476.99L184.26 301.412L181.456 302.113C181.456 302.113 166.817 377.835 165.971 390.001C165.204 400.938 153.778 480.773 153.778 480.773L122.172 482.888L126.338 377.927L132.394 277.092L135.158 247.682L229.857 249.057Z" fill="#455A64"/>
<path d="M182.356 283.85C182.343 283.889 182.819 284.141 183.718 284.537C184.617 284.908 185.953 285.49 187.738 285.754C188.637 285.886 189.642 285.9 190.7 285.688C191.745 285.476 192.869 285.013 193.755 284.18C194.641 283.334 195.196 282.183 195.54 280.993C195.884 279.79 196.069 278.547 196.294 277.277C197.167 272.186 197.736 267.557 198.04 264.185C198.198 262.506 198.291 261.144 198.331 260.192C198.37 259.253 198.37 258.724 198.331 258.724C198.278 258.724 198.198 259.239 198.066 260.178C197.934 261.249 197.762 262.572 197.564 264.146C197.14 267.491 196.506 272.107 195.633 277.171C195.183 279.684 194.906 282.223 193.319 283.77C191.732 285.278 189.47 285.503 187.804 285.318C186.085 285.119 184.736 284.63 183.81 284.326C182.885 283.982 182.369 283.81 182.356 283.85Z" fill="#263238"/>
<path d="M191.347 259.795C191.36 259.768 191.135 259.636 190.686 259.623C190.236 259.61 189.562 259.755 188.9 260.231C188.266 260.707 187.605 261.54 187.618 262.638C187.591 263.762 188.543 264.833 189.76 265.217C190.963 265.627 192.405 265.323 193.106 264.423C193.82 263.55 193.833 262.506 193.635 261.765C193.423 261.011 192.987 260.496 192.616 260.244C192.246 259.993 191.995 259.967 191.982 259.993C191.902 260.086 192.907 260.482 193.172 261.871C193.291 262.519 193.198 263.392 192.63 264.04C192.074 264.701 190.977 264.926 189.985 264.595C188.993 264.278 188.266 263.458 188.253 262.612C188.213 261.765 188.702 261.025 189.218 260.575C190.302 259.649 191.347 259.914 191.347 259.795Z" fill="#263238"/>
<path d="M227.77 131.638L222.229 105.15L207.471 103.484L205.725 95.7344L197.857 103.18L167.269 88.8843L164.452 100.323L137.514 112.238L136.641 185.778L136.496 216.287L132.992 247.417C132.555 251.358 132.873 254.042 134.235 257.771L211.808 259.041C219.042 258.631 224.318 257.904 227.942 257.216C231.711 256.502 234.527 253.46 234.713 249.81C235.969 225.398 236.181 151.911 236.181 151.911L227.77 131.638Z" fill="#F5F5F5"/>
<path d="M213.454 256.198C213.468 256.198 213.481 256.065 213.494 255.827C213.507 255.523 213.521 255.166 213.547 254.73C213.574 253.698 213.613 252.296 213.666 250.524C213.719 246.795 213.798 241.519 213.891 235.039C213.997 221.96 214.076 203.896 213.283 183.94C212.873 173.956 212.251 164.448 211.048 155.852C209.805 147.269 208.099 139.652 206.565 133.291C205.017 126.93 203.629 121.826 202.663 118.308C202.187 116.602 201.804 115.253 201.513 114.262C201.381 113.838 201.275 113.495 201.196 113.217C201.116 112.979 201.077 112.86 201.063 112.873C201.05 112.873 201.063 113.005 201.116 113.243C201.182 113.534 201.262 113.891 201.354 114.315C201.606 115.32 201.936 116.682 202.346 118.401C203.219 121.945 204.528 127.076 205.996 133.437C207.451 139.798 209.09 147.415 210.294 155.958C211.458 164.501 212.053 173.996 212.463 183.967C213.256 203.896 213.256 221.96 213.309 235.039C213.322 241.519 213.335 246.782 213.335 250.524C213.349 252.296 213.362 253.698 213.375 254.73C213.388 255.166 213.402 255.523 213.402 255.827C213.428 256.079 213.441 256.198 213.454 256.198Z" fill="#263238"/>
<path d="M190.383 144.479C190.41 144.453 189.788 144.492 188.611 144.585C187.328 144.704 185.596 144.85 183.427 145.048C178.799 145.497 172.332 146.132 164.556 146.899L164.199 146.939L164.239 147.296C165.151 155.945 166.236 166.286 167.413 177.474L167.439 177.672L167.598 177.791C168.497 178.413 169.476 179.034 170.481 179.643C172.253 180.714 174.051 181.706 175.889 182.565C177.741 183.372 179.632 184.192 181.708 184.245C183.758 184.311 185.702 183.65 187.381 182.75C189.061 181.838 190.555 180.714 191.917 179.524C192.592 178.928 193.253 178.32 193.874 177.712C194.165 177.434 194.549 177.024 194.734 176.601C194.972 176.178 195.078 175.741 195.197 175.318C195.58 173.586 195.567 171.92 195.514 170.319C195.356 167.119 194.919 164.183 194.456 161.512C193.517 156.183 192.459 151.924 191.706 149.002C191.322 147.534 191.005 146.41 190.78 145.643C190.555 144.863 190.41 144.466 190.383 144.479C190.357 144.492 190.436 144.889 190.608 145.669C190.806 146.529 191.058 147.653 191.375 149.055C192.023 152.004 192.988 156.262 193.848 161.591C194.271 164.25 194.668 167.185 194.787 170.319C194.827 171.88 194.813 173.533 194.443 175.107C194.232 175.913 193.954 176.561 193.306 177.13C192.684 177.738 192.05 178.32 191.375 178.902C190.039 180.066 188.585 181.137 186.985 181.996C185.371 182.843 183.573 183.438 181.721 183.372C179.883 183.319 178.032 182.552 176.247 181.758C174.448 180.925 172.676 179.933 170.93 178.876C169.939 178.28 168.973 177.659 168.087 177.051L168.272 177.368C167.042 166.193 165.905 155.852 164.953 147.217L164.636 147.613C172.319 146.714 178.706 145.96 183.269 145.418C185.451 145.14 187.209 144.929 188.505 144.757C189.061 144.678 189.524 144.611 189.894 144.559C190.198 144.519 190.37 144.492 190.383 144.479Z" fill="#263238"/>
<path d="M179.467 95.0203C170.527 90.577 167.062 89.6909 167.062 89.6909L164.695 101.738L198.179 117.33L198.153 103.285C198.166 103.285 188.234 99.3711 179.467 95.0203Z" fill="#F5F5F5"/>
<path d="M165.027 155.085C165.054 155.323 171.177 154.86 178.715 154.053C186.252 153.247 192.336 152.387 192.309 152.149C192.283 151.911 186.16 152.374 178.622 153.18C171.084 154 165.001 154.847 165.027 155.085Z" fill="#263238"/>
<g opacity="0.3">
<path d="M194.356 176.521C192.954 178.994 191.672 182.38 189.714 184.443C187.757 186.506 185.178 188.132 182.348 188.384C179.849 188.608 177.363 187.749 175.194 186.479C171.703 184.43 169.494 181.11 167.855 177.421C167.63 177.156 172.853 180.423 175.683 181.824C178.513 183.226 180.471 183.623 183.605 183.279C187.704 182.816 191.301 179.312 194.356 176.521Z" fill="black"/>
</g>
<g opacity="0.3">
<path d="M198.164 104.767L200.915 121.879L168.039 102.862L198.204 117.33L198.164 104.767Z" fill="black"/>
</g>
<path d="M204.417 121.151C204.417 121.151 213.33 153.009 217.469 192.258C219.228 208.908 220.815 230.992 220.815 230.992L213.648 240.434L201.944 230.675C201.944 230.675 201.058 183.676 199.987 167.965C199.114 155.032 200.185 121.958 200.185 121.958L204.417 121.151Z" fill="#4CD685"/>
<path d="M198.258 109.911L200.982 108.192L204.05 113.349L204.407 121.152L200.162 121.958L198.271 117.449L198.258 109.911Z" fill="#4CD685"/>
<path d="M197.874 103.167C197.821 103.206 198.535 104.238 199.619 105.944C200.704 107.65 202.145 110.043 203.534 112.794C203.653 113.019 203.759 113.243 203.864 113.455L204.076 113.891L204.274 113.455C205.451 110.77 206.298 108.271 206.8 106.459C207.051 105.547 207.237 104.806 207.342 104.304C207.448 103.788 207.488 103.51 207.461 103.497C207.395 103.484 207.078 104.595 206.496 106.38C205.914 108.165 205.028 110.625 203.851 113.283L204.261 113.27C204.155 113.058 204.036 112.833 203.931 112.609C202.529 109.845 201.034 107.451 199.871 105.785C199.289 104.952 198.8 104.291 198.443 103.854C198.112 103.391 197.9 103.153 197.874 103.167Z" fill="#263238"/>
<path d="M164.48 101.103C164.48 101.116 164.626 101.209 164.943 101.355C165.3 101.526 165.737 101.738 166.292 102.002C167.522 102.598 169.188 103.404 171.238 104.383C175.417 106.406 181.143 109.289 187.477 112.436C191.339 114.354 195.002 116.126 198.176 117.594L198.467 117.726V117.409C198.387 113.349 198.321 109.924 198.268 107.438C198.229 106.274 198.202 105.335 198.176 104.634C198.149 103.986 198.123 103.642 198.097 103.642C198.07 103.642 198.057 103.986 198.044 104.634C198.044 105.335 198.03 106.274 198.017 107.438C198.03 109.911 198.03 113.336 198.044 117.409L198.335 117.224C195.174 115.716 191.524 113.931 187.663 112.026C181.328 108.879 175.576 106.036 171.357 104.092C169.254 103.113 167.535 102.346 166.345 101.844C165.776 101.606 165.327 101.421 164.97 101.262C164.652 101.156 164.48 101.09 164.48 101.103Z" fill="#263238"/>
<path d="M200.942 122.857C201.008 122.963 201.749 122.593 202.582 122.037C203.415 121.482 204.037 120.94 203.957 120.834C203.891 120.728 203.151 121.098 202.318 121.654C201.498 122.209 200.876 122.751 200.942 122.857Z" fill="#263238"/>
<path d="M200.194 120.503C200.313 120.556 201.146 118.758 202.058 116.496C202.971 114.235 203.619 112.357 203.5 112.318C203.381 112.265 202.548 114.063 201.635 116.325C200.723 118.586 200.075 120.45 200.194 120.503Z" fill="#263238"/>
<path d="M236.768 126.415C236.794 126.415 236.82 126.679 236.86 127.168C236.887 127.75 236.926 128.464 236.966 129.337C237.045 131.215 237.111 133.939 237.138 137.311C237.217 144.043 237.085 153.339 236.807 163.601C236.53 173.863 236.318 183.16 236.265 189.878C236.239 193.157 236.225 195.855 236.212 197.839C236.199 198.712 236.186 199.426 236.186 200.008C236.173 200.497 236.146 200.761 236.12 200.761C236.093 200.761 236.067 200.497 236.027 200.008C236.001 199.426 235.961 198.712 235.921 197.839C235.842 195.961 235.776 193.237 235.749 189.865C235.67 183.133 235.802 173.837 236.08 163.562C236.358 153.299 236.569 144.016 236.622 137.285C236.649 134.005 236.662 131.308 236.675 129.324C236.688 128.451 236.701 127.737 236.701 127.155C236.715 126.679 236.741 126.415 236.768 126.415Z" fill="#263238"/>
<path d="M159.842 44.6228L175.076 42.2821C175.076 42.2821 174.693 39.5182 174.336 38.4471C173.979 37.3759 159.617 40.2588 159.617 40.2588C159.617 40.2588 159.816 44.0806 159.842 44.6228Z" fill="#F5F5F5"/>
<path d="M130.341 136.069C130.526 136.029 132.192 143.395 134.07 152.506C135.948 161.618 137.31 169.037 137.125 169.076C136.94 169.116 135.274 161.763 133.396 152.639C131.518 143.527 130.156 136.108 130.341 136.069Z" fill="#263238"/>
<path d="M452.321 161.431C452.308 161.352 452.282 161.234 452.242 161.049C452.242 161.049 452.295 161.273 452.321 161.431Z" fill="#455A64"/>
<path d="M452.348 161.525C452.361 161.578 452.361 161.591 452.348 161.525V161.525Z" fill="#455A64"/>
<path d="M47.8019 455.924L40.2773 496.166L59.0558 498.467L70.8122 460.143L47.8019 455.924Z" fill="#FFBF9D"/>
<path d="M81.3696 452.949L88.8942 493.19L70.1157 495.504L58.3594 457.167L81.3696 452.949Z" fill="#FFBF9D"/>
<path d="M38.2222 168.389L29.7852 172.237C29.7852 172.237 37.2569 125.661 39.0554 113.998C41.9647 95.2456 49.9389 73.7958 76.7577 75.991C76.7577 75.991 96.9512 77.5647 102.77 92.2304C105.917 100.165 106.129 121.456 106.671 145.908L107.147 150.1C109.567 160.692 109.885 168.191 112.913 178.611C116.84 192.166 116.84 218.562 114.209 234.14L91.6747 236.322L38.2222 168.389Z" fill="#263238"/>
<path d="M80.0625 82.3914L78.3565 80.7251L59.5913 88.0646C56.8803 88.1836 54.7248 90.3524 54.619 93.0633L54.1561 153.948C54.09 158.074 54.8835 161.658 57.3432 164.977L59.9351 168.468C65.8331 176.429 78.1449 175.9 82.9718 167.251C83.3156 166.643 83.5404 166.114 83.6462 165.678C83.752 165.136 83.8975 164.779 83.9372 164.316C84.5455 159.423 84.6248 155.178 84.6248 155.178C85.0083 149.809 85.1406 147.6 85.1406 147.653C85.1406 147.653 96.5928 146.45 99.846 131.797C101.459 124.511 101.274 114.46 100.944 104.555C100.467 90.8549 91.065 82.4972 80.0625 82.3914Z" fill="#FFBF9D"/>
<path d="M76.7257 114.077C76.6992 115.082 75.8264 115.889 74.7817 115.875C73.737 115.862 72.9039 115.056 72.9303 114.051C72.9567 113.045 73.8296 112.239 74.8743 112.239C75.919 112.252 76.7521 113.072 76.7257 114.077Z" fill="#263238"/>
<path d="M95.6905 114.262C95.6641 115.267 94.7913 116.074 93.7465 116.061C92.7018 116.047 91.8687 115.241 91.8951 114.236C91.9216 113.231 92.7944 112.424 93.8391 112.424C94.8838 112.45 95.717 113.27 95.6905 114.262Z" fill="#263238"/>
<path d="M98.9317 108.443C98.6805 108.681 97.3051 107.531 95.2686 107.412C93.2321 107.266 91.6716 108.218 91.46 107.967C91.3542 107.848 91.6187 107.412 92.3064 106.975C92.9808 106.539 94.1049 106.142 95.3744 106.235C96.6439 106.314 97.6886 106.856 98.2705 107.372C98.8656 107.888 99.0507 108.337 98.9317 108.443Z" fill="#263238"/>
<path d="M78.2127 108.443C77.935 108.655 76.692 107.359 74.6686 107.041C72.6586 106.684 71.0055 107.478 70.8204 107.2C70.7278 107.068 71.0452 106.671 71.7593 106.301C72.4734 105.944 73.6239 105.666 74.8802 105.878C76.1365 106.089 77.1151 106.724 77.6441 107.306C78.1995 107.875 78.345 108.351 78.2127 108.443Z" fill="#263238"/>
<path d="M85.1562 123.4C85.1562 123.281 86.439 123.135 88.5152 123.003C89.0442 122.977 89.5335 122.911 89.6525 122.553C89.798 122.183 89.6128 121.615 89.4012 120.993C88.9913 119.697 88.5549 118.348 88.1053 116.933C86.3068 111.154 85.0372 106.407 85.2753 106.341C85.5133 106.274 87.1531 110.903 88.9516 116.682C89.388 118.11 89.798 119.472 90.1815 120.768C90.3402 121.377 90.6443 122.064 90.3269 122.831C90.1683 123.215 89.7583 123.466 89.4277 123.545C89.0839 123.625 88.7929 123.611 88.5284 123.611C86.439 123.585 85.1562 123.506 85.1562 123.4Z" fill="#263238"/>
<path d="M85.1503 147.653C85.1503 147.653 75.1528 147.693 65.6445 141.173C65.6445 141.173 70.0085 151.726 84.8991 151.237L85.1503 147.653Z" fill="#FF9A6C"/>
<path d="M84.0334 128.267C83.359 127.248 82.1027 126.64 80.82 126.706C79.9339 126.746 79.0082 127.116 78.4264 127.817C77.8445 128.505 77.6726 129.523 78.1222 130.237C78.6247 131.044 79.762 131.295 80.7538 131.07C81.7457 130.858 82.6185 130.263 83.4648 129.668C83.6896 129.51 83.9277 129.338 84.0863 129.1C84.245 128.862 84.2847 128.544 84.126 128.346" fill="#FF9A6C"/>
<path d="M79.101 124.445C79.4316 124.445 79.2994 126.666 81.1111 128.346C82.9096 130.039 85.29 129.933 85.29 130.25C85.3164 130.396 84.7346 130.647 83.7428 130.621C82.7642 130.594 81.3492 130.197 80.2515 129.166C79.1539 128.134 78.7308 126.812 78.7175 125.899C78.6646 124.961 78.9424 124.418 79.101 124.445Z" fill="#263238"/>
<path d="M80.2327 100.496C79.9418 101.011 77.9714 100.416 75.5513 100.324C73.1313 100.178 71.108 100.549 70.8832 100.006C70.7774 99.7418 71.2005 99.2922 72.0601 98.8823C72.9065 98.4723 74.2157 98.1682 75.6703 98.2475C77.1118 98.3268 78.3813 98.7633 79.188 99.2526C79.9947 99.7551 80.3517 100.258 80.2327 100.496Z" fill="#263238"/>
<path d="M98.7325 99.6622C98.349 100.099 96.9737 99.5431 95.281 99.4109C93.6015 99.2258 92.1336 99.5299 91.8427 99.0274C91.7104 98.7894 91.9617 98.3265 92.6229 97.9298C93.2709 97.5331 94.3156 97.2289 95.4793 97.3347C96.6431 97.4405 97.6217 97.9165 98.1771 98.4323C98.7325 98.9613 98.9044 99.4506 98.7325 99.6622Z" fill="#263238"/>
<path d="M54.7221 119.049C54.7221 119.049 65.156 122.421 71.345 96.6472C73.4609 87.8399 81.726 80.7649 81.726 80.7649L78.42 79.7334C78.42 79.7334 57.724 85.3405 57.3669 85.5918C57.0231 85.843 52.0508 96.2108 52.0508 96.2108L54.7221 119.049Z" fill="#263238"/>
<path d="M22.3281 326.617L48.5518 443.004L63.3101 486.975L86.4923 480.429L75.0533 327.688L22.3281 326.617Z" fill="#263238"/>
<path d="M40.3391 242.233C40.3391 242.233 25.4221 278.52 23.9542 290.674C22.4863 302.827 20.582 326.525 20.582 326.525L115.942 328.945C115.942 328.945 120.293 310.761 115.942 276.286C113.84 259.623 107.32 247.179 106.341 244.375C105.363 241.572 112.425 193.184 112.425 193.184L111.671 163.43L100.761 156.897H84.9974C76.3355 167.609 65.4123 162.372 54.013 156.434C49.6622 154.173 32.8542 166.484 32.8542 166.484C32.8542 166.484 32.6293 192.232 35.2081 209.318C37.6546 225.504 40.3391 242.233 40.3391 242.233Z" fill="#4CD685"/>
<path d="M13.037 296.545C12.9708 296.928 13.3279 299.296 15.5231 301.874C17.7316 304.44 18.9085 309.201 18.9085 309.201C18.9085 309.201 20.6938 319.344 21.117 322.636C21.5402 325.929 21.5534 328.931 18.935 328.31C16.3298 327.688 15.5496 325.704 15.1396 319.661L13.6321 316.461L12.2038 318.894L11.8468 328.561C11.8468 328.561 18.3664 334.948 17.8903 336.76C17.4142 338.572 16.1711 338.267 16.1711 338.267L15.0867 339.273L5.07596 331.973L1.49219 319.145L2.77494 302.707L2.92041 289.893L13.6982 288.597L13.037 296.545Z" fill="#FFBF9D"/>
<path d="M39.6674 162.61C39.6674 162.61 20.955 168.627 18.416 179.868C15.8769 191.108 12.1345 225.2 11.3807 229.895C10.6137 234.576 7.13569 242.114 4.91401 256.092C2.33528 272.279 0.0078125 294.535 0.0078125 294.535L14.8058 295.527C14.8058 295.527 22.8593 276.127 27.0514 261.131C31.151 246.505 33.2139 240.99 35.2769 233.095C38.3582 221.339 38.5036 211.103 38.5036 211.103L39.6674 162.61Z" fill="#4CD685"/>
<path d="M30.9747 176.654C30.9747 176.654 33.4212 174.314 32.112 173.123C30.8028 171.933 25.9363 171.801 25.9363 171.801C25.9363 171.801 30.8292 169.738 31.226 166.815C31.6227 163.893 30.287 163.047 29.3746 163.509C28.4621 163.972 25.8834 166.71 23.9791 167.913C22.0748 169.117 18.9935 172.092 18.9935 172.092C18.9935 172.092 16.309 174.102 18.4513 176.403C18.4513 176.403 14.8146 179.286 16.7718 181.362C16.7718 181.362 13.7038 183.253 15.0262 185.713L15.9387 187.366C15.9387 187.366 13.2277 188.94 16.0842 192.153L20.7391 187.644C20.7391 187.644 24.9841 187.657 25.3676 185.925C25.7643 184.192 25.6189 183.042 25.6189 183.042C25.6189 183.042 30.8028 182.169 31.3979 180.331C31.993 178.493 30.9747 176.654 30.9747 176.654Z" fill="#AE7461"/>
<path d="M14.6932 216.935C14.9312 217.319 15.1957 217.702 15.4734 218.072C14.9048 218.086 14.6271 217.477 14.6932 216.935Z" fill="#263238"/>
<path d="M61.7316 191.056C63.702 183.624 66.7304 176.284 66.5849 168.601C66.4394 161.222 63.3714 154.279 61.0175 147.283C58.6636 140.288 57.0105 132.538 59.6289 125.648C61.0572 121.906 63.6359 118.719 65.5798 115.214C67.5238 111.697 81.8986 84.5076 80.4704 80.752L42.6622 97.9038C38.285 121.787 36.0368 160.957 37.9015 182.473C38.4701 189.072 43.3895 219.726 46.7749 225.425C47.78 227.118 57.275 229.075 57.275 229.075C57.275 229.075 57.8966 222.979 57.9759 223.415C58.042 223.838 59.6025 231.257 59.986 231.575C62.6705 233.862 66.7832 236.838 69.6529 236.349C65.5005 229.882 59.7612 198.488 61.7316 191.056Z" fill="#263238"/>
<path d="M66.2506 327.688C65.0075 333.494 54.6132 375.719 55.1951 392.064C55.777 408.409 47.0754 453.848 45.9381 460.606C44.4967 469.162 42.0898 486.525 42.0898 486.525L62.032 488.8C62.032 488.8 87.0127 426.844 89.3269 409.19C91.6412 391.522 94.5373 380.982 98.5839 374.119C102.631 367.269 115.934 328.932 115.934 328.932" fill="#263238"/>
<path d="M115.935 328.958C115.935 328.958 115.855 329.249 115.684 329.791C115.498 330.36 115.221 331.153 114.877 332.211C114.136 334.353 113.052 337.461 111.65 341.468C110.222 345.475 108.463 350.381 106.347 356.068C105.289 358.911 104.139 361.939 102.856 365.126C102.221 366.726 101.547 368.366 100.833 370.032C100.462 370.866 100.079 371.699 99.6954 372.558C99.259 373.391 98.8226 374.251 98.3598 375.071C96.5216 378.39 95.1331 382.159 94.009 386.153C92.8717 390.16 91.9725 394.392 91.2055 398.822C90.8087 401.03 90.4649 403.291 90.1343 405.593C89.9756 406.743 89.8169 407.907 89.6582 409.071C89.4466 410.234 89.2483 411.424 89.0367 412.601C87.992 417.296 86.6695 422.07 85.1223 426.897C82.0939 436.577 78.5234 446.614 74.6883 456.982C70.8401 467.35 66.7406 478.048 62.3633 488.958L62.2708 489.196L62.0063 489.17C60.1549 488.958 58.158 488.733 56.1612 488.495C51.3343 487.94 46.5471 487.398 42.0641 486.882L41.707 486.842L41.7599 486.499C42.5931 480.918 43.413 475.417 44.2196 470.008C44.6296 467.297 45.0263 464.612 45.423 461.954C45.8066 459.296 46.3355 456.665 46.7851 454.073C48.663 443.678 50.3689 433.668 51.8104 424.12C53.1989 414.572 54.4684 405.5 54.8652 396.984C55.0106 394.854 54.9049 392.778 54.9445 390.702C54.9049 388.626 55.1032 386.616 55.2354 384.632C55.619 380.691 56.095 376.909 56.6901 373.339C58.9911 359.03 61.6095 347.67 63.3816 339.828C64.2941 335.927 65.0082 332.912 65.4975 330.836C65.7487 329.831 65.9339 329.05 66.0661 328.508C66.1984 327.979 66.2777 327.715 66.2777 327.715C66.2777 327.715 66.238 327.993 66.1322 328.522C66.0132 329.077 65.8545 329.857 65.6297 330.862C65.1669 332.938 64.4924 335.98 63.6329 339.881C61.9402 347.736 59.4011 359.122 57.153 373.405C56.5843 376.975 56.1215 380.744 55.7512 384.672C55.6322 386.642 55.447 388.652 55.4867 390.702C55.447 392.739 55.5661 394.881 55.4206 397.01C55.0371 405.579 53.794 414.651 52.4187 424.212C51.0037 433.773 49.2978 443.784 47.4464 454.192C46.9967 456.797 46.4678 459.415 46.0843 462.073C45.6875 464.731 45.2908 467.416 44.8941 470.127C44.0874 475.536 43.2807 481.037 42.4476 486.618L42.1434 486.234C46.6265 486.75 51.4136 487.292 56.2405 487.847C58.2374 488.072 60.2342 488.31 62.0856 488.522L61.7286 488.733C66.0926 477.823 70.2053 467.138 74.0536 456.77C77.9018 446.416 81.4724 436.379 84.514 426.725C86.0612 421.911 87.3969 417.151 88.4416 412.496C88.6532 411.319 88.8648 410.155 89.0631 409.004C89.2218 407.827 89.3937 406.677 89.5524 405.513C89.8963 403.212 90.2401 400.951 90.6368 398.729C91.417 394.299 92.3295 390.041 93.4932 386.007C94.6438 381.987 96.0588 378.192 97.9366 374.833C98.4259 374 98.8359 373.18 99.2723 372.36C99.6558 371.514 100.039 370.68 100.423 369.861C101.15 368.194 101.825 366.568 102.473 364.981C103.755 361.794 104.932 358.779 106.003 355.949C108.159 350.289 109.944 345.396 111.412 341.402C112.854 337.421 113.978 334.314 114.758 332.198C115.141 331.166 115.432 330.373 115.631 329.804C115.816 329.222 115.935 328.958 115.935 328.958Z" fill="#455A64"/>
<path d="M107.995 174.644C108.035 174.631 108.207 175.08 108.471 175.9C108.749 176.72 109.08 177.937 109.45 179.431C110.19 182.446 110.957 186.665 111.315 191.399C111.658 196.12 111.513 200.418 111.235 203.512C111.09 205.06 110.931 206.303 110.786 207.149C110.64 208.009 110.548 208.472 110.495 208.472C110.389 208.458 110.587 206.554 110.746 203.473C110.905 200.391 110.971 196.133 110.627 191.452C110.27 186.77 109.582 182.565 108.974 179.537C108.366 176.522 107.889 174.67 107.995 174.644Z" fill="#263238"/>
<path d="M31.151 186.043C31.2039 186.043 31.3097 186.758 31.4948 188.054C31.7064 189.469 31.9841 191.32 32.3279 193.542C33.0949 198.289 34.1 204.61 35.2241 211.619C36.4142 218.602 37.4854 224.923 38.2921 229.67C38.6888 231.879 39.0194 233.717 39.2707 235.132C39.5219 236.415 39.641 237.129 39.5881 237.142C39.5484 237.155 39.3368 236.454 39.0062 235.185C38.6888 233.915 38.2789 232.064 37.816 229.763C36.8771 225.174 35.7266 218.8 34.5496 211.738C33.3859 204.676 32.4337 198.276 31.8519 193.621C31.5609 191.294 31.3493 189.402 31.2435 188.093C31.1245 186.771 31.0981 186.043 31.151 186.043Z" fill="#263238"/>
<path d="M81.0368 247.324C81.05 247.417 79.635 247.748 77.3208 248.158C75.0065 248.581 71.793 249.07 68.2357 249.506C64.6784 249.943 61.4384 250.22 59.0977 250.366C56.7571 250.511 55.3024 250.525 55.2892 250.432C55.2759 250.34 56.7174 250.141 59.0581 249.877C61.6103 249.586 64.7181 249.215 68.1564 248.819C71.5947 248.382 74.7024 247.999 77.2414 247.668C79.5821 247.377 81.0236 247.219 81.0368 247.324Z" fill="#263238"/>
<path d="M93.7084 246.28C93.7878 246.452 86.5409 249.626 77.5219 253.355C68.5162 257.084 61.1503 259.967 61.071 259.795C60.9916 259.623 68.2385 256.449 77.2575 252.72C86.2764 248.978 93.6423 246.095 93.7084 246.28Z" fill="#263238"/>
<path d="M427.349 96.3299L428.063 37.8125C428.711 23.2658 420.79 10.7557 406.23 10.5044L404.881 10.5573C391.326 11.1127 380.456 21.9963 379.927 35.5511C379.438 48.1671 379.041 62.1187 379.411 68.8498C380.165 82.8014 394.222 84.4016 394.222 84.4016C394.249 84.4016 394.315 92.9048 394.302 97.0043L405.542 112.596V113.429L427.349 96.3299Z" fill="#FFBF9D"/>
<path d="M394.199 84.4148C394.199 84.4148 403.02 84.5735 412.158 78.292C412.158 78.292 408.217 88.9772 394.226 88.2895L394.199 84.4148Z" fill="#FF9A6C"/>
<path d="M385.629 47.5982C385.629 48.6562 386.528 49.5157 387.639 49.529C388.737 49.5422 389.623 48.6958 389.623 47.6511C389.623 46.5932 388.724 45.7336 387.613 45.7204C386.502 45.7071 385.616 46.5403 385.629 47.5982Z" fill="#263238"/>
<path d="M383.138 41.5949C383.389 41.8461 384.857 40.6692 387.013 40.5766C389.155 40.4576 390.782 41.5023 390.993 41.2246C391.099 41.1056 390.835 40.6427 390.121 40.1666C389.42 39.7038 388.256 39.2674 386.92 39.3203C385.585 39.3864 384.474 39.9154 383.852 40.4576C383.218 40.9998 383.019 41.4891 383.138 41.5949Z" fill="#263238"/>
<path d="M404.945 47.5982C404.945 48.6562 405.845 49.5157 406.955 49.529C408.053 49.5422 408.939 48.6958 408.939 47.6511C408.939 46.5932 408.04 45.7336 406.929 45.7204C405.831 45.7071 404.945 46.5403 404.945 47.5982Z" fill="#263238"/>
<path d="M404.182 41.2243C404.447 41.4756 405.901 40.2986 408.057 40.2061C410.199 40.087 411.826 41.1318 412.037 40.854C412.143 40.735 411.879 40.2722 411.165 39.8093C410.464 39.3333 409.3 38.9101 407.964 38.963C406.629 39.0291 405.518 39.5713 404.896 40.1003C404.261 40.6292 404.05 41.1185 404.182 41.2243Z" fill="#263238"/>
<path d="M397.152 58.0322C397.152 57.9132 395.817 57.728 393.635 57.5429C393.079 57.5032 392.563 57.4239 392.458 57.0536C392.312 56.6569 392.51 56.0618 392.762 55.4138C393.225 54.0649 393.701 52.6499 394.203 51.1688C396.213 45.1385 397.641 40.1794 397.39 40.1001C397.152 40.0207 395.327 44.8476 393.317 50.8779C392.841 52.3722 392.378 53.7872 391.942 55.1361C391.757 55.7708 391.439 56.485 391.743 57.3049C391.902 57.7148 392.325 57.9925 392.682 58.0719C393.039 58.1644 393.344 58.1644 393.621 58.1644C395.803 58.2041 397.152 58.1512 397.152 58.0322Z" fill="#263238"/>
<path d="M403.171 34.546C403.488 35.0882 405.538 34.4138 408.077 34.2551C410.603 34.0435 412.745 34.4006 412.97 33.8319C413.076 33.5542 412.626 33.0781 411.714 32.6814C410.814 32.2715 409.439 31.9805 407.918 32.0863C406.397 32.1921 405.088 32.6814 404.242 33.2236C403.409 33.7526 403.038 34.2815 403.171 34.546Z" fill="#263238"/>
<path d="M382.799 35.2867C383.262 35.7627 384.994 35.2073 387.097 35.128C389.2 34.9825 390.985 35.3528 391.382 34.837C391.554 34.5858 391.263 34.1097 390.469 33.6601C389.689 33.2237 388.393 32.8799 386.952 32.9592C385.51 33.0385 384.267 33.5146 383.553 34.0304C382.826 34.5461 382.601 35.0619 382.799 35.2867Z" fill="#263238"/>
<path d="M427.32 48.1933C427.558 48.0743 436.802 44.9533 436.895 54.5145C436.987 64.0756 427.373 62.1978 427.347 61.92C427.32 61.6556 427.32 48.1933 427.32 48.1933Z" fill="#FFBF9D"/>
<path d="M430.273 58.2836C430.313 58.2571 430.445 58.4026 430.723 58.5216C431.001 58.6406 431.477 58.7332 431.966 58.5348C432.971 58.1513 433.804 56.538 433.844 54.8188C433.857 53.946 433.672 53.1261 433.354 52.4385C433.05 51.7376 432.601 51.2615 432.085 51.1689C431.582 51.0631 431.225 51.3673 431.106 51.6318C430.987 51.8963 431.04 52.0946 430.987 52.1079C430.961 52.1343 430.776 51.9492 430.855 51.5524C430.895 51.3673 431.001 51.1293 431.225 50.9441C431.45 50.759 431.794 50.6532 432.138 50.6929C432.878 50.7325 433.54 51.407 433.897 52.1608C434.28 52.9145 434.518 53.8402 434.505 54.8188C434.465 56.7496 433.487 58.5613 432.111 58.9712C431.437 59.1564 430.882 58.958 430.591 58.7332C430.286 58.5084 430.234 58.2968 430.273 58.2836Z" fill="#FF9A6C"/>
<path d="M403.879 59.3679C403.549 59.3415 403.535 61.5367 401.644 63.0972C399.766 64.6576 397.426 64.3931 397.399 64.6973C397.373 64.8295 397.915 65.1205 398.907 65.1601C399.872 65.1998 401.287 64.8957 402.451 63.9435C403.602 62.9914 404.104 61.7218 404.183 60.8226C404.276 59.8969 404.025 59.3547 403.879 59.3679Z" fill="#263238"/>
<path d="M360.596 22.975C360.742 22.4063 361.152 21.9435 361.641 21.6393C362.725 20.9781 363.995 21.0574 365.211 21.0178C368.24 20.9384 371.242 20.1185 373.939 18.7167C372.987 18.2539 372.101 17.6852 371.347 16.9447C369.787 15.4239 368.874 13.07 369.549 10.9938C369.681 10.6103 369.893 10.2003 370.289 10.0681C370.911 9.8697 371.453 10.478 371.903 10.9541C373.344 12.5278 374.667 13.2022 376.783 12.9642C378.105 12.8187 379.375 12.5013 380.406 11.8533C380.446 11.8137 380.485 11.7608 380.525 11.7211C381.014 11.2054 381.49 10.7028 381.967 10.2268C385.524 6.61653 388.592 4.11715 391.752 2.79472C396.394 0.863979 404.197 0.0176261 409.076 1.23426C413.956 2.45089 418.373 6.35205 419.1 11.3376C421.798 8.9969 425.898 8.97046 429.243 10.2664L429.323 10.2268C433.039 11.5095 435.181 15.3974 436.318 19.1531C436.384 19.3647 436.437 19.5631 436.49 19.7747C437.76 21.7451 439.479 23.4246 441.529 24.5883C441.886 24.7867 442.296 25.0379 442.349 25.4479C442.401 25.8578 442.058 26.2017 441.727 26.4397C440.841 27.0877 439.823 27.5109 438.752 27.7225C439.095 28.6217 439.505 29.4813 440.008 30.3144C440.431 31.0153 440.934 31.8617 440.59 32.6022C440.312 33.1709 439.598 33.4221 438.963 33.3295C438.328 33.2502 437.773 32.9064 437.231 32.5758C437.654 33.5544 438.077 34.5462 438.5 35.5248C437.165 35.776 435.776 35.6835 434.467 35.3C433.726 38.8441 433.197 45.3901 432.325 47.7837C429.785 47.863 429.164 47.5853 427.894 48.0217C426.241 48.5903 426.916 51.5129 424.747 50.7062C423.649 50.2963 421.917 46.1571 421.534 45.0462C419.008 37.6671 418.122 29.7325 418.902 21.9699C417.355 20.3565 415.49 19.0341 413.44 18.1216L413.612 18.2671C409.685 16.9579 405.254 15.6752 401.565 17.5398C398.708 18.9944 397.042 21.9963 394.926 24.4032C390.906 28.9655 386.317 31.4253 380.234 31.7559C379.732 35.9876 379.652 42.8907 379.494 46.8315L376.042 38.9895V39.016C375.764 38.5531 375.54 38.0903 375.315 37.6274L375.235 37.482V37.4687C374.878 36.7282 374.548 35.9744 374.098 35.2471C374.085 35.2603 374.072 35.2735 374.058 35.2867C371.943 37.191 368.769 34.3478 370.422 32.0336C370.752 31.5707 371.149 31.1608 371.599 30.8302C370.633 31.7559 369.179 32.2187 367.896 31.8352C366.613 31.4517 365.608 30.169 365.701 28.8333C365.767 27.9208 366.402 27.1009 367.221 26.7306C365.502 26.8761 363.73 26.5323 362.223 25.6859C361.257 25.1305 360.279 24.218 360.596 22.975Z" fill="#263238"/>
<path d="M414.723 12.9775C414.697 13.0172 415.319 13.3346 416.138 14.2471C416.958 15.1463 417.884 16.72 418.334 18.8623C418.572 19.9335 418.717 21.1237 418.73 22.4197C418.757 23.7024 418.664 25.091 418.585 26.5456C418.506 28.0003 418.426 29.5343 418.532 31.1345C418.585 31.9279 418.691 32.7478 418.876 33.5545C419.061 34.348 419.286 35.2075 419.894 35.8952C420.383 36.4506 421.19 36.6887 421.878 36.53C422.579 36.3977 423.187 36.0142 423.637 35.5117C424.523 34.4537 424.734 33.1181 424.946 31.9411L424.655 31.9808C425.144 33.0255 425.647 34.0702 426.387 34.8901C427.115 35.7233 428.12 36.2655 429.125 36.3448C429.627 36.3845 430.13 36.2919 430.566 36.0803C431.003 35.8555 431.32 35.4852 431.531 35.1017C431.73 34.705 431.836 34.2686 431.809 33.8587C431.783 33.4487 431.611 33.052 431.346 32.7743L431.201 32.9065C432.299 34.1231 433.436 34.7711 434.229 35.1282C434.626 35.3133 434.943 35.4191 435.168 35.4852C435.38 35.5514 435.499 35.5778 435.499 35.5646C435.499 35.5514 435.393 35.5117 435.181 35.4323C434.97 35.353 434.666 35.234 434.269 35.0356C433.502 34.6521 432.391 33.9909 431.346 32.7743L431.201 32.9065C431.677 33.3958 431.717 34.2818 431.32 34.9827C431.122 35.3265 430.831 35.6572 430.447 35.8423C430.064 36.0407 429.601 36.1068 429.138 36.0671C428.212 35.9878 427.273 35.472 426.599 34.6918C425.898 33.8983 425.409 32.8933 424.933 31.8486L424.721 31.3989L424.628 31.8882C424.417 33.0652 424.192 34.348 423.385 35.3001C422.989 35.763 422.42 36.1068 421.812 36.2126C421.203 36.3448 420.555 36.1465 420.132 35.6704C419.603 35.0885 419.378 34.2686 419.193 33.4884C419.021 32.6949 418.916 31.9015 418.849 31.1212C418.73 29.5475 418.81 28.0268 418.889 26.5721C418.968 25.1174 419.035 23.7289 419.008 22.4197C418.982 21.1105 418.81 19.9071 418.558 18.8227C418.069 16.6407 417.091 15.0538 416.231 14.1677C415.358 13.2685 414.723 12.9775 414.723 12.9775Z" fill="#455A64"/>
<path d="M371.594 27.0877C371.594 27.0877 371.633 27.1274 371.713 27.1802C371.805 27.2464 371.924 27.3257 372.07 27.4315C372.229 27.5505 372.414 27.6695 372.665 27.8018C372.903 27.934 373.181 28.1059 373.525 28.2382C374.834 28.8465 376.923 29.4284 379.528 29.2432C382.107 29.0713 385.188 28.1192 387.939 26.0297C390.716 23.9932 393.136 21.0045 395.093 17.5794C396.098 15.8735 396.905 14.1279 397.791 12.5145C398.677 10.9012 399.669 9.40683 400.872 8.21665C402.062 7.02647 403.438 6.14044 404.879 5.73049C405.593 5.50568 406.307 5.45278 407.008 5.466C407.696 5.49245 408.357 5.6247 408.966 5.82306C410.182 6.21979 411.161 6.86777 411.901 7.54221C412.655 8.22987 413.158 8.94398 413.501 9.57875C414.149 10.8615 414.202 11.6814 414.242 11.6682C414.242 11.6682 414.242 11.6153 414.229 11.5227C414.216 11.4037 414.189 11.2715 414.163 11.0995C414.083 10.7293 413.925 10.1871 413.607 9.52585C413.277 8.87786 412.774 8.13731 412.02 7.4232C411.267 6.72231 410.275 6.03464 409.032 5.61147C408.41 5.4131 407.736 5.26764 407.022 5.22796C406.307 5.21474 405.554 5.26764 404.813 5.49245C403.319 5.91563 401.891 6.81488 400.674 8.03151C399.431 9.23492 398.426 10.7557 397.527 12.3823C396.614 14.0089 395.807 15.7545 394.816 17.434C392.858 20.8194 390.478 23.7816 387.754 25.8049C385.056 27.8811 382.054 28.82 379.502 29.0316C376.936 29.2432 374.873 28.701 373.564 28.1324C372.242 27.5505 371.62 27.048 371.594 27.0877Z" fill="#455A64"/>
<path d="M370.262 20.9516C370.249 20.9648 370.434 21.0971 370.765 21.2955C371.096 21.507 371.611 21.7583 372.259 22.036C372.907 22.3137 373.714 22.565 374.626 22.7766C375.539 22.9749 376.557 23.1072 377.642 23.1469C378.726 23.1601 379.744 23.0675 380.67 22.9088C381.582 22.7369 382.402 22.5121 383.063 22.2608C383.725 22.0096 384.24 21.7848 384.584 21.5864C384.928 21.4013 385.113 21.2822 385.1 21.269C385.074 21.2161 384.307 21.6261 382.984 22.0492C382.323 22.2741 381.516 22.4592 380.617 22.6179C379.718 22.7501 378.699 22.8427 377.655 22.8295C376.597 22.803 375.592 22.6708 374.693 22.4989C373.793 22.3005 373 22.0757 372.352 21.8377C371.043 21.3351 370.289 20.8987 370.262 20.9516Z" fill="#455A64"/>
<path d="M491.486 147.892C491.486 147.892 477.138 122.012 471.121 111.697C466.678 104.08 460.171 100.641 457.064 99.3454C448.627 94.9152 429.346 88.8321 427.865 88.3692C427.798 88.356 427.772 88.3428 427.772 88.3428C427.772 88.3428 421.001 99.3189 408.2 99.0412C398.216 98.8164 394.129 92.8258 393.402 91.6092C393.323 91.4769 393.27 91.3844 393.27 91.3844L361.439 101.131C357.829 102.387 330.613 136.611 330.613 136.611L332.2 138.238L351.68 158.167L356.652 163.258L356.467 176.813L353.505 228.573C353.505 228.573 353.835 228.983 352.037 233.492C350.238 238.002 349.458 254.532 349.458 254.532C349.603 254.572 349.736 254.611 349.881 254.664C353.306 255.736 356.758 256.582 360.236 257.23C360.513 257.283 360.791 257.336 361.069 257.389C370.339 259.015 379.821 259.213 389.448 258.433C389.66 258.42 389.871 258.394 390.07 258.38C409.165 256.741 430.43 251.729 450.161 245.778L448.336 236.256C448.018 231.76 445.625 227.793 445.625 227.793L447.278 199.757L451.271 156.421C451.271 156.395 451.258 156.382 451.258 156.355C451.655 158.193 451.999 159.86 452.263 161.05L491.486 147.892Z" fill="#455A64"/>
<path d="M463.98 488.826L458.73 377.451L451.497 268.126L448.548 245.314C428.804 251.265 409.166 256.753 390.07 258.393L389.448 258.446C380.019 259.213 370.736 259.028 361.638 257.494C358.16 256.833 353.187 255.722 349.881 254.677C349.458 257.772 349.114 262.004 348.942 265.759C348.929 265.759 348.916 265.772 348.903 265.772C348.797 268.351 348.784 271.049 348.889 273.826C349.167 281.165 366.398 484.581 366.398 484.581L373.659 484.885L373.579 482.703C373.5 482.69 373.434 482.677 373.407 482.624C373.368 482.571 373.434 482.478 373.566 482.359L372.759 460.923L400.398 460.804L400.319 486.009L401.271 486.049L399.538 295.474L402.368 296.188C402.368 296.188 417.96 378.099 418.952 391.297C419.851 403.159 432.255 489.58 432.255 489.58L435.905 489.487L435.813 487.424C435.601 487.517 435.469 487.557 435.442 487.517C435.403 487.477 435.535 487.305 435.799 487.067L435.588 482.412C435.257 482.068 434.953 481.685 434.728 481.275C434.503 480.786 434.345 480.191 434.596 479.609C434.755 479.238 435.085 479.014 435.429 478.908L434.702 462.51L460.079 464.692C460.079 464.692 459.735 478.194 459.458 488.905L463.98 488.826Z" fill="#263238"/>
<path d="M372.762 460.936L373.568 482.372C373.952 482.042 374.997 481.579 376.345 481.672C378.144 481.764 379.308 482.769 379.149 482.954C379.004 483.192 377.813 482.677 376.293 482.61C375.036 482.531 373.978 482.769 373.582 482.716L373.661 484.898L400.308 486.022L400.387 460.817L372.762 460.936Z" fill="#263238"/>
<path d="M451.904 487.887L451.745 488.019C452.433 487.226 454.02 487.464 454.694 488.27C454.879 488.482 454.972 488.76 455.025 489.051L459.455 488.945C459.733 478.233 460.077 464.731 460.077 464.731L434.699 462.549L435.427 478.947C435.638 478.881 435.85 478.842 436.035 478.881C437.066 479.014 437.728 479.582 438.336 480.019C439.116 480.614 439.685 481.235 440.134 481.791C440.28 481.143 440.505 480.429 440.901 479.648C441.258 479 441.629 478.167 442.581 477.691C443.057 477.453 443.771 477.519 444.194 477.969C444.604 478.405 444.75 478.974 444.776 479.516C444.789 481.711 442.951 483.867 440.505 484.237C440.359 484.25 440.227 484.25 440.082 484.264C440.068 484.343 440.055 484.409 440.029 484.396C440.015 484.396 440.002 484.343 439.989 484.264C438.27 484.33 436.683 483.602 435.612 482.478L435.823 487.133C436.008 486.975 436.246 486.789 436.564 486.591C437.344 486.115 438.561 485.652 439.976 485.573C441.391 485.493 442.647 485.811 443.48 486.194C444.313 486.578 444.723 486.975 444.684 487.054C444.578 487.252 442.634 486.141 440.029 486.327C438.032 486.419 436.511 487.199 435.85 487.49L435.942 489.553L451.177 489.183C451.23 488.641 451.494 488.178 451.904 487.887Z" fill="#263238"/>
<path d="M353.186 115.65C353.239 115.65 353.279 116.338 353.358 117.581C353.451 118.943 353.57 120.715 353.715 122.831C354.033 127.261 354.469 133.384 354.839 140.155C355.21 146.926 355.368 153.075 355.329 157.518C355.302 159.74 355.249 161.539 355.157 162.782C355.064 164.025 354.998 164.712 354.945 164.699C354.892 164.699 354.879 164.012 354.879 162.768C354.892 161.525 354.879 159.727 354.839 157.518C354.76 153.088 354.522 146.952 354.152 140.181C353.795 133.411 353.424 127.288 353.239 122.844C353.147 120.623 353.094 118.824 353.094 117.581C353.107 116.338 353.147 115.65 353.186 115.65Z" fill="#263238"/>
<path d="M455.47 121.02C455.523 121.033 455.457 121.641 455.298 122.739C455.113 123.969 454.888 125.516 454.624 127.367C454.042 131.282 453.301 136.69 452.614 142.668C451.939 148.658 451.476 154.093 451.159 158.034C451.014 159.899 450.881 161.459 450.789 162.702C450.696 163.8 450.617 164.408 450.577 164.408C450.524 164.408 450.511 163.8 450.524 162.689C450.538 161.578 450.577 159.978 450.683 158.008C450.868 154.054 451.265 148.592 451.939 142.588C452.614 136.584 453.447 131.176 454.148 127.275C454.492 125.331 454.809 123.757 455.047 122.673C455.272 121.615 455.43 121.02 455.47 121.02Z" fill="#263238"/>
<path d="M260.707 239.496C260.707 239.496 245.538 262.229 247.932 291.018C250.326 319.82 261.884 374.952 261.884 374.952C261.884 374.952 262.28 422.004 267.464 446.244C272.648 470.471 271.722 478.207 271.722 478.207H294.574C294.574 478.207 296.174 416.397 294.574 403.411C292.974 390.411 292.802 385.849 295.288 374.608L297.364 295.95L299.348 241.876L260.707 239.496Z" fill="#263238"/>
<path d="M332.037 241.758C332.037 241.758 347.827 260.377 346.571 289.246C345.314 318.115 335.925 373.656 335.925 373.656C335.925 373.656 337.38 420.695 333.148 445.107C328.916 469.519 328.546 480.72 328.546 480.72L307.308 478.102C307.308 478.102 303.288 416.397 304.372 403.358C305.457 390.306 305.457 385.743 302.534 374.609L297.363 296.083L298.064 241.348L332.037 241.758Z" fill="#263238"/>
<path d="M268.853 69.3525C268.853 69.3525 262.77 92.085 262.254 108.166L262.082 113.522C262.082 113.522 275.491 124.656 286.745 125.344L296.174 102.149L268.853 69.3525Z" fill="#263238"/>
<path d="M328.447 83.2909C325.881 72.209 324.902 59.3021 315.672 52.0684C308.835 46.6994 301.033 45.205 292.344 45.5753C288.073 45.7604 283.233 47.7309 279.517 49.8335C274.412 52.7296 272.243 58.588 269.784 63.9174C264.851 74.5893 265.473 89.0435 268.818 93.0504L313.411 116.603C322.31 111.974 327.891 110.123 329.319 98.2475C329.914 93.262 329.571 88.1971 328.447 83.2909Z" fill="#263238"/>
<path d="M315.189 60.889L287.128 52.6107C278.082 51.2882 271.615 62.2379 270.677 71.323C269.645 81.4263 268.772 93.791 269.672 101.382C271.483 116.669 283.054 119.049 283.054 119.049C283.054 118.996 283.081 119.274 282.988 123.797L282.949 133.094C282.83 136.056 283.345 137.048 285.157 139.388C289.296 144.757 296.834 145.471 305.734 142.179C310.892 140.274 314.475 136.439 314.872 131.202L319.752 66.4829C319.924 63.7191 317.94 61.2858 315.189 60.889Z" fill="#FFBF9D"/>
<path d="M275.287 85.4466C275.207 86.4781 276.014 87.3905 277.085 87.4831C278.156 87.5889 279.082 86.8351 279.161 85.8036C279.241 84.7721 278.434 83.8597 277.363 83.7671C276.292 83.6745 275.366 84.4151 275.287 85.4466Z" fill="#263238"/>
<path d="M272.526 80.4742C272.764 80.7387 274.271 79.7072 276.374 79.7865C278.463 79.8394 279.958 80.9899 280.196 80.7387C280.315 80.6329 280.09 80.1568 279.429 79.6411C278.794 79.1253 277.683 78.6096 276.374 78.5699C275.065 78.5302 273.954 78.9666 273.306 79.4295C272.645 79.9055 272.407 80.3552 272.526 80.4742Z" fill="#263238"/>
<path d="M293.712 85.7243C293.633 86.7558 294.44 87.6682 295.511 87.7608C296.582 87.8666 297.508 87.1128 297.587 86.0813C297.666 85.0498 296.86 84.1374 295.789 84.0448C294.731 83.9522 293.792 84.706 293.712 85.7243Z" fill="#263238"/>
<path d="M293.178 80.7256C293.416 80.9901 294.937 79.9586 297.026 80.038C299.116 80.0909 300.623 81.2281 300.848 80.9901C300.967 80.8843 300.742 80.4082 300.081 79.9057C299.446 79.39 298.335 78.8742 297.026 78.8345C295.717 78.7949 294.606 79.2313 293.958 79.6941C293.297 80.157 293.059 80.6066 293.178 80.7256Z" fill="#263238"/>
<path d="M285.022 94.3069C285.035 94.1879 283.739 93.9102 281.636 93.5531C281.107 93.4738 280.605 93.3548 280.525 92.9845C280.42 92.5877 280.658 92.0191 280.949 91.4108C281.504 90.1413 282.086 88.7924 282.694 87.4038C285.114 81.691 286.899 76.9831 286.675 76.8905C286.45 76.798 284.294 81.3471 281.861 87.06C281.279 88.475 280.711 89.8107 280.182 91.0934C279.957 91.6885 279.573 92.3762 279.824 93.1829C279.957 93.5928 280.34 93.897 280.671 94.0028C281.015 94.1218 281.306 94.135 281.57 94.1614C283.699 94.373 285.008 94.4259 285.022 94.3069Z" fill="#263238"/>
<path d="M283.001 119.049C283.001 119.049 293.197 120.107 303.551 114.421C303.551 114.421 298.103 124.855 282.961 122.832L283.001 119.049Z" fill="#FF9A6C"/>
<path d="M291.761 98.9618C291.258 98.0626 290.293 97.56 289.288 97.4807C287.847 97.3749 286.603 97.8245 285.612 99.1205C285.281 99.4908 285.255 100.588 285.387 100.893C285.506 101.197 285.413 101.051 285.638 101.263C286.458 102.043 287.318 102.823 288.402 103.127C289.473 103.432 290.822 103.127 291.576 102.096C292.25 101.183 292.277 99.8743 291.761 98.9618Z" fill="#FF9A6C"/>
<path d="M291.481 96.0918C291.137 96.0521 291.031 98.3267 289.021 99.8607C287.011 101.395 284.591 101.024 284.564 101.342C284.525 101.487 285.08 101.805 286.112 101.884C287.117 101.963 288.598 101.712 289.828 100.773C291.058 99.8343 291.626 98.5383 291.745 97.6126C291.864 96.6605 291.639 96.0918 291.481 96.0918Z" fill="#263238"/>
<path d="M292.342 73.0553C292.487 73.6371 294.603 73.571 297.023 74.1132C299.457 74.6025 301.361 75.5017 301.731 75.0257C301.903 74.8009 301.612 74.2322 300.858 73.5975C300.118 72.9759 298.901 72.3279 297.46 72.0238C296.005 71.7196 294.643 71.8254 293.704 72.1031C292.765 72.3676 292.276 72.7776 292.342 73.0553Z" fill="#263238"/>
<path d="M272.701 74.8276C273.177 75.2375 274.697 74.5234 276.615 74.2193C278.519 73.8622 280.212 74.0209 280.516 73.4787C280.648 73.2142 280.318 72.7778 279.551 72.434C278.784 72.0902 277.567 71.8918 276.245 72.1166C274.935 72.3414 273.851 72.9365 273.256 73.5184C272.634 74.1135 272.489 74.6292 272.701 74.8276Z" fill="#263238"/>
<path d="M287.05 50.9707C287.024 51.0761 286.998 51.1947 286.984 51.3001L287.037 51.3264C287.037 51.2078 287.037 51.0893 287.05 50.9707Z" fill="#263238"/>
<path d="M306.664 125.186C307.087 121.205 305.487 117.198 305.95 113.231C306.439 109.012 309.177 105.402 310.301 101.303C312.099 94.7433 309.626 87.7741 308.727 80.99C304.932 80.5272 301.388 78.2394 298.848 75.2904C295.807 71.733 293.956 67.3426 292.17 63.0183C292.276 67.25 293.744 71.4421 296.296 74.8275C294.604 75.1846 292.831 74.4572 291.562 73.2935C290.292 72.1298 289.459 70.5561 288.785 68.9824C287.132 65.1474 286.233 61.0082 286.1 56.8293C285.545 62.7935 286.206 68.8766 288.084 74.5763C287.026 74.2457 285.875 74.5366 284.778 74.7085C283.68 74.8672 282.411 74.8408 281.631 74.0473C281.115 73.5183 280.916 72.7513 280.771 72.024C279.726 66.9459 279.554 61.6958 280.268 56.5648C278.92 59.3419 277.571 62.1455 276.79 65.1341C276.01 68.1228 275.799 71.3231 276.724 74.2721C276.288 74.8275 275.362 74.735 274.833 74.2589C274.317 73.7828 274.119 73.0555 274.013 72.3546C273.617 69.8023 274.066 67.1971 274.516 64.6581C272.995 67.3558 272.493 70.4767 271.659 73.4522C270.813 76.4277 269.477 79.4825 266.899 81.1752C266.449 76.7186 266.608 73.6902 267.282 69.5246C267.798 66.3375 269.305 63.1769 270.694 60.2676C272.254 57.0144 274.423 53.8142 276.857 51.6983C281.326 47.7839 283.204 49.4634 286.061 50.9577L286.404 51.1032C286.418 51.0371 286.418 50.9577 286.431 50.8916L286.563 50.2833C293.995 48.6038 301.89 48.9741 309.137 51.3412C314.519 53.1001 315.022 64.6977 316.331 59.1832C317.124 55.8507 321.449 58.8923 321.502 58.9849C327.849 70.4503 334.594 88.6204 334.898 117.357L306.664 125.186Z" fill="#263238"/>
<path d="M320.941 116.048C320.875 116.008 321.537 115.082 322.436 113.244C323.335 111.419 324.419 108.655 325.001 105.071C325.57 101.501 325.543 97.0707 324.155 92.4818C322.78 87.893 319.844 83.3703 316.181 79.2179C312.504 75.0523 308.564 71.4685 305.218 67.9509C301.872 64.4332 299.161 60.9684 297.323 57.7549C295.498 54.5547 294.546 51.685 294.162 49.6617C293.977 48.6434 293.858 47.8632 293.845 47.321C293.805 46.7788 293.792 46.5011 293.818 46.5011C293.898 46.4879 293.951 47.6252 294.427 49.6088C294.89 51.5924 295.895 54.3828 297.746 57.5169C299.597 60.6378 302.322 64.0497 305.681 67.5145C309.026 70.9924 312.994 74.563 316.696 78.7683C320.399 82.9604 323.388 87.5756 324.763 92.2967C326.152 97.0046 326.125 101.527 325.491 105.137C324.829 108.774 323.666 111.551 322.674 113.363C322.171 114.262 321.761 114.95 321.444 115.386C321.127 115.836 320.968 116.061 320.941 116.048Z" fill="#E0E0E0"/>
<path d="M271.895 129.206L284.088 128.346L313.71 128.769L338.691 137.167L323.681 159.714L299.375 168.31L280.478 163.853L269.66 150.801L271.895 129.206Z" fill="#FFBF9D"/>
<path d="M337.327 198.223L343.952 139.163L323.283 131.361H323.137C317.385 147.706 310.521 151.766 304.782 153.909C298.844 156.117 291.915 158.524 281.362 149.544C271.959 141.557 276.165 128.901 276.165 128.901C276.165 128.901 261.552 128.042 255.601 129.906C249.65 131.771 247.349 140.697 246 144.585L246.079 154.927L254.635 191.28C254.635 191.28 255.64 224.156 255.138 227.197C254.635 230.239 255.627 237.618 260.705 239.483C264.792 240.977 313.682 242.842 332.037 241.744C335.925 241.519 342.881 238.187 340.13 231.204L337.327 198.223Z" fill="#4CD685"/>
<path d="M357.069 189.627L352.375 152.599C351.237 146.516 349.029 141.253 343.951 139.177L335.051 195.552L337.51 201.899L357.069 189.627Z" fill="#4CD685"/>
<path d="M245.999 144.585L236.98 180.304L260.93 194.057L251.368 144.585H245.999Z" fill="#4CD685"/>
<path d="M247.62 156.646C247.726 156.646 247.832 158.405 248.123 161.248C248.414 164.091 248.956 167.992 249.881 172.251C250.82 176.496 251.958 180.278 252.883 182.976C253.796 185.673 254.444 187.326 254.351 187.366C254.312 187.379 254.1 186.996 253.756 186.268C253.412 185.541 252.949 184.47 252.434 183.134C251.389 180.463 250.159 176.681 249.22 172.396C248.281 168.111 247.818 164.157 247.66 161.288C247.567 159.86 247.541 158.696 247.554 157.889C247.554 157.096 247.58 156.646 247.62 156.646Z" fill="#263238"/>
<path d="M342.885 150.497C342.938 150.51 342.858 151.224 342.687 152.533C342.488 153.962 342.237 155.813 341.933 158.035C341.298 162.676 340.465 169.103 339.698 176.218C338.944 183.333 338.402 189.786 338.045 194.454C337.873 196.702 337.728 198.554 337.622 199.995C337.516 201.304 337.437 202.018 337.384 202.018C337.331 202.018 337.331 201.291 337.357 199.982C337.384 198.673 337.45 196.768 337.569 194.428C337.807 189.746 338.27 183.266 339.023 176.139C339.79 169.011 340.703 162.597 341.457 157.955C341.84 155.641 342.171 153.763 342.422 152.48C342.673 151.198 342.832 150.484 342.885 150.497Z" fill="#263238"/>
<path d="M318.47 222.305C318.457 222.344 317.756 222.133 316.513 221.71C315.257 221.287 313.485 220.612 311.303 219.726C306.939 217.941 301.027 215.164 294.838 211.487C288.65 207.811 283.373 203.95 279.71 200.974C277.885 199.493 276.43 198.25 275.465 197.351C274.5 196.465 273.971 195.949 273.997 195.909C274.023 195.869 274.605 196.319 275.637 197.139C276.655 197.972 278.149 199.149 280.001 200.591C283.717 203.46 289.007 207.229 295.169 210.892C301.332 214.542 307.177 217.385 311.475 219.276C313.617 220.229 315.376 220.969 316.592 221.458C317.822 221.961 318.497 222.265 318.47 222.305Z" fill="#263238"/>
<path d="M275.611 128.941C275.611 128.941 271.34 124.127 268.219 123.585C265.098 123.043 253.5 125.252 250.009 125.952C245.155 126.918 245.38 130.528 248.607 130.806C252.482 131.123 257.547 130.594 257.547 130.594C257.547 130.594 260.139 135.011 265.309 134.905C270.48 134.799 275.611 128.941 275.611 128.941Z" fill="#FFBF9D"/>
<path d="M268.219 123.599C268.219 123.599 264.08 121.88 260.126 120.861C256.172 119.843 253.593 119.843 252.522 121.218C251.437 122.594 248.382 129.986 249.268 131.454C250.154 132.922 260.126 139.997 261.673 140.195C263.207 140.394 264.384 139.706 263.696 137.735C263.008 135.778 257.56 130.608 257.56 130.608L258.684 126.058L268.219 123.599Z" fill="#FFBF9D"/>
<path d="M252.004 122.17C252.004 122.17 246.397 134.509 246.251 135.527C246.106 136.532 248.989 138.992 251.237 140.208C253.498 141.438 260.494 143.686 261.274 142.523C262.054 141.359 261.975 140.208 261.975 140.208L251.462 133.49L252.004 122.17Z" fill="#FFBF9D"/>
<path d="M246.972 135.765C246.972 135.765 247.051 141.452 246.972 142.298C246.893 143.158 248.215 145.723 249.776 145.101C251.336 144.48 251.177 144.427 251.336 142.853C251.495 141.28 251.336 138.952 251.336 138.952L247.369 136.307" fill="#FFBF9D"/>
<path d="M266.13 134.879C266.143 134.932 265.098 135.249 263.392 134.879C261.726 134.548 259.385 133.345 258.01 130.925L258.354 131.097C258.076 131.137 257.785 131.176 257.481 131.229C254.691 131.652 252.085 131.877 250.221 131.586C248.356 131.335 247.298 130.806 247.325 130.74C247.364 130.634 248.449 130.978 250.274 131.11C252.085 131.256 254.598 130.978 257.388 130.555C257.693 130.515 257.983 130.475 258.261 130.436L258.499 130.396L258.618 130.608C259.848 132.816 261.964 134.019 263.511 134.443C265.085 134.892 266.13 134.76 266.13 134.879Z" fill="#FF9A6C"/>
<path d="M265.531 123.44C265.557 123.625 261.815 124.405 257.146 125.172C252.491 125.939 248.683 126.402 248.656 126.217C248.63 126.032 252.372 125.252 257.041 124.485C261.696 123.731 265.491 123.255 265.531 123.44Z" fill="#FF9A6C"/>
<path d="M249.893 131.361C250.012 131.335 250.157 132.234 250.937 133.398C251.691 134.575 253.146 135.924 254.971 137.074C258.647 139.428 262.204 140.076 262.151 140.275C262.165 140.46 258.409 140.103 254.6 137.656C252.709 136.466 251.215 134.972 250.527 133.649C249.8 132.327 249.84 131.361 249.893 131.361Z" fill="#FF9A6C"/>
<path d="M251.888 140.817C251.822 140.989 250.116 140.407 248.529 138.912C246.929 137.431 246.215 135.778 246.373 135.699C246.545 135.593 247.484 137.008 248.992 138.41C250.486 139.812 251.967 140.645 251.888 140.817Z" fill="#FF9A6C"/>
<path d="M484.895 116.55C485.847 116.008 499.891 110.758 499.891 110.758L529.421 109.66L542.499 112.411L529.738 133.755L510.483 135.315L493.649 128.306L486.891 120.385L484.895 116.55Z" fill="#FFBF9D"/>
<path d="M522.026 29.3358C525.756 25.1701 535.052 25.7256 537.274 28.4365C540.488 26.7438 544.971 28.1985 546.571 31.4517C549.864 32.1525 553.17 32.8402 556.462 33.5411C558.155 33.8982 559.914 34.2949 561.223 35.4189C562.532 36.543 563.154 38.6721 562.083 40.021C565.574 40.907 566.976 46.0777 564.41 48.5903C565.839 50.0714 565.574 52.8221 563.895 54.0123C566.645 57.2654 568.84 60.9814 570.335 64.9752C570.97 66.6414 571.472 68.506 570.864 70.1723C570.255 71.8518 568.06 73.0155 566.619 71.984C567.611 73.3329 567.716 75.2769 566.857 76.7183C568.523 76.7448 569.039 79.3235 567.901 80.5534C566.764 81.77 564.9 81.9154 563.22 81.889C561.554 81.8626 559.742 81.7832 558.367 82.7486C558.433 83.2511 558.631 83.5685 558.922 83.8065C561.805 86.1208 562.651 90.1409 560.522 93.1561C560.324 93.4338 560.139 93.6983 559.98 93.9231C559.015 95.2984 556.634 96.5812 555.153 97.3746C551.384 99.3715 549.136 99.0144 544.918 99.6492C546.095 102.36 539.284 108.443 531.389 102.572C515.771 106.883 504.504 108.562 488.291 108.721C485.977 108.747 483.2 108.457 482.155 106.38C480.291 106.896 478.254 106.037 476.866 104.688C475.477 103.339 474.591 101.567 473.731 99.8211C469.725 98.7764 466.604 94.9414 466.418 90.8022C463.694 88.6995 461.922 85.4199 461.658 81.9816C457.757 80.8178 455.575 75.7926 457.4 72.1427C458.206 67.3688 459.806 62.7271 462.107 58.4688C459.449 57.9134 458.431 54.3429 459.502 51.8567C460.573 49.3705 462.98 47.7572 465.255 46.2761C463.271 46.8183 461.539 44.3453 461.988 42.3352C462.451 40.3384 464.236 38.9498 465.982 37.8787C468.548 36.3182 471.298 35.0619 474.168 34.1626C475.08 30.6714 479.51 26.6645 482.777 25.0908C495.922 18.8093 505.139 17.1562 522.026 29.3358Z" fill="#263238"/>
<path d="M525.209 43.7638L502.053 36.107C493.021 34.7317 486.488 45.6284 485.497 54.7135C484.399 64.8036 483.46 77.1551 484.32 84.759C486.039 100.046 499.514 104.146 499.514 104.146C499.514 104.133 499.17 113.416 499.17 113.416C500.334 120.544 507.898 120.676 507.898 120.676C528.621 121.139 530.009 109.449 530.009 109.449L529.917 52.0819C530.102 49.318 527.96 44.187 525.209 43.7638Z" fill="#FFBF9D"/>
<path d="M500.175 77.7898C500.188 77.6708 498.892 77.3931 496.802 77.0228C496.274 76.9435 495.771 76.8112 495.692 76.441C495.586 76.0442 495.837 75.4888 496.115 74.8673C496.67 73.5977 497.265 72.2621 497.887 70.8603C500.347 65.1607 502.158 60.466 501.92 60.3735C501.695 60.2809 499.513 64.8168 497.054 70.5165C496.459 71.9182 495.89 73.2671 495.348 74.5499C495.123 75.145 494.739 75.8194 494.978 76.6393C495.11 77.0493 495.48 77.3534 495.824 77.4592C496.168 77.5782 496.459 77.6047 496.723 77.6311C498.852 77.8295 500.161 77.9088 500.175 77.7898Z" fill="#263238"/>
<path d="M499.535 104.146C499.535 104.146 507.787 103.617 518.181 97.9966C518.181 97.9966 514.663 107.571 499.402 108.748L499.535 104.146Z" fill="#FF9A6C"/>
<path d="M509.1 54.449C509.285 55.0308 511.388 54.8589 513.834 55.2556C516.281 55.6127 518.238 56.4194 518.582 55.9301C518.74 55.692 518.423 55.1366 517.643 54.5548C516.876 53.9729 515.633 53.391 514.165 53.153C512.697 52.9282 511.335 53.1001 510.422 53.4175C509.51 53.7481 509.034 54.1713 509.1 54.449Z" fill="#263238"/>
<path d="M488.97 54.092C489.314 54.5813 490.781 54.1581 492.514 54.211C494.246 54.211 495.701 54.6738 496.058 54.1978C496.217 53.9597 496.005 53.4704 495.383 52.9944C494.775 52.5183 493.73 52.1083 492.54 52.0819C491.35 52.0687 490.292 52.4522 489.671 52.915C489.036 53.3779 488.824 53.8539 488.97 54.092Z" fill="#263238"/>
<path d="M478.686 62C478.832 59.6196 479.586 57.1996 481.212 55.4672C482.111 54.515 483.235 53.7877 484.029 52.7562C485.735 50.5081 485.497 47.4004 486.224 44.6762C487.163 41.1585 489.9 38.1831 493.326 36.9664C496.169 35.9482 499.395 36.0936 502.08 34.6786C504.05 33.6339 505.558 31.809 507.595 30.8833C511.562 29.0715 516.151 31.1081 519.893 33.343C520.634 36.3184 518.756 38.8839 516.944 41.3569C515.132 43.8298 512.183 45.43 509.129 45.6019C506.761 45.7473 503.984 45.2051 502.318 46.8979C500.559 48.6699 501.247 51.8173 499.792 53.8538C497.729 56.7632 493.048 55.6523 489.953 57.464C487.573 58.8526 486.568 61.709 485.365 64.182C484.161 66.6681 482.085 69.2601 479.334 69.1278C478.951 66.7607 478.541 64.3803 478.686 62Z" fill="#263238"/>
<path d="M513.969 38.7386C520.898 38.6328 527.841 39.8891 534.294 42.4149C536.212 43.1687 538.209 44.1209 539.306 45.8797C540.272 47.4137 540.391 49.3312 540.364 51.1429C540.298 56.8294 537.997 63.7854 535.828 69.0486L528.727 73.2936C523.265 71.9976 525.778 62.5555 526.043 57.8212C522.221 56.1417 519.563 52.1215 519.523 47.9427C516.402 45.9458 514.286 42.4282 513.969 38.7386Z" fill="#263238"/>
<path d="M528.817 71.2438C529.028 67.9906 533.022 67.3691 535.826 69.0353C537.36 69.961 538.51 71.7728 538.312 75.2243C537.783 84.4284 528.645 81.9951 528.645 81.7306C528.645 81.5719 528.565 75.0524 528.817 71.2438Z" fill="#FFBF9D"/>
<path d="M531.626 78.4114C531.666 78.385 531.785 78.5304 532.05 78.6759C532.301 78.8081 532.75 78.9272 533.253 78.7685C534.245 78.4643 535.157 76.97 535.29 75.3169C535.356 74.4838 535.237 73.6771 534.972 72.9895C534.734 72.3018 534.324 71.7993 533.835 71.6935C533.359 71.548 532.989 71.8257 532.856 72.077C532.724 72.3283 532.764 72.5134 532.711 72.5266C532.684 72.5531 532.526 72.3547 532.618 71.9844C532.671 71.7993 532.79 71.5877 533.015 71.429C533.253 71.2571 533.57 71.191 533.914 71.2439C534.615 71.3364 535.223 72.0241 535.501 72.7647C535.819 73.5184 535.99 74.4177 535.911 75.3698C535.739 77.2212 534.694 78.9007 533.346 79.2049C532.684 79.3371 532.155 79.1123 531.891 78.8743C531.626 78.6362 531.587 78.4379 531.626 78.4114Z" fill="#FF9A6C"/>
<path d="M532.673 82.2859C532.673 82.2859 532.673 82.3255 532.7 82.4049C532.726 82.4842 532.726 82.6165 532.819 82.7619C532.951 83.0661 533.308 83.4364 533.89 83.7141C534.458 83.9918 535.252 84.1637 536.164 84.1902C536.627 84.2034 537.116 84.1769 537.645 84.0976C538.161 84.0182 538.717 83.886 539.259 83.6083L539.153 83.5554C539.351 84.8117 540.171 86.1606 541.586 86.9011C542.975 87.6417 544.945 87.5888 546.44 86.478L546.281 86.4515C546.545 86.8614 546.995 87.1656 547.484 87.2582C547.974 87.3772 548.503 87.3111 548.979 87.1392C549.455 86.954 549.904 86.6234 550.182 86.1606C550.46 85.7109 550.618 85.182 550.645 84.6398C550.711 83.5554 550.314 82.4578 549.64 81.5717C548.979 80.6725 548.093 79.9319 547.22 79.2046L547.207 79.4162C547.987 78.9666 548.489 78.1202 548.674 77.2342C548.86 76.3482 548.767 75.3828 548.41 74.5232C548.053 73.6636 547.471 72.8966 546.797 72.2222C546.122 71.5478 545.382 70.9659 544.615 70.3708L544.628 70.5824C545.316 69.9079 545.606 68.8765 545.54 67.9111C545.474 66.9325 545.117 65.9671 544.496 65.1737C543.319 63.6661 541.599 62.8197 540.013 62.0395L540.092 62.1982C540.594 60.1881 539.986 58.0061 538.65 56.5647C537.302 55.1232 535.305 54.4356 533.467 54.6471L533.612 54.8058C533.982 53.1528 533.361 51.4866 532.369 50.3228C531.377 49.1459 529.922 48.4053 528.481 48.4053L528.6 48.5243C528.6 46.8316 527.661 45.3902 526.511 44.5041C525.36 43.6049 523.919 43.2346 522.662 43.433L522.768 43.5255C522.742 42.6263 522.411 41.8328 522.028 41.1584C521.631 40.484 521.155 39.9153 520.626 39.4657C519.608 38.54 518.417 38.1697 517.478 38.1036C517.359 38.0904 517.24 38.0904 517.135 38.0771C517.029 38.0771 516.91 38.0904 516.804 38.1036C516.592 38.13 516.394 38.13 516.222 38.1697C515.878 38.2623 515.561 38.3152 515.336 38.421C515.124 38.5136 514.953 38.5797 514.82 38.6458C514.701 38.6987 514.648 38.7251 514.648 38.7251C514.648 38.7251 514.715 38.7119 514.834 38.6722C514.966 38.6193 515.138 38.5532 515.349 38.4739C515.574 38.3681 515.878 38.3416 516.222 38.2491C516.394 38.2094 516.592 38.2094 516.791 38.1962C516.897 38.1962 517.002 38.1829 517.108 38.1829C517.214 38.1962 517.333 38.1962 517.452 38.2094C518.378 38.2887 519.515 38.6722 520.507 39.5847C521.009 40.0211 521.472 40.5898 521.856 41.251C522.226 41.9122 522.543 42.6924 522.557 43.5255V43.6313L522.662 43.6181C523.866 43.433 525.241 43.79 526.352 44.6628C527.45 45.5224 528.349 46.911 528.336 48.5111V48.6301H528.455C529.817 48.6301 531.205 49.3442 532.157 50.4683C533.109 51.5923 533.678 53.1793 533.334 54.7397L533.295 54.9249L533.48 54.8984C535.239 54.7 537.156 55.3613 538.439 56.7366C539.722 58.1119 540.29 60.2013 539.814 62.1189L539.788 62.2247L539.894 62.2775C541.48 63.071 543.16 63.8909 544.284 65.3323C544.866 66.0729 545.21 66.9986 545.263 67.9111C545.329 68.8236 545.051 69.7493 544.429 70.3708L544.324 70.4766L544.456 70.5692C545.95 71.7197 547.471 72.9363 548.159 74.6026C548.489 75.4225 548.582 76.3217 548.41 77.1548C548.251 77.988 547.775 78.755 547.074 79.1649L546.916 79.2575L547.061 79.3765C547.947 80.1039 548.807 80.818 549.455 81.6908C550.103 82.5504 550.473 83.5818 550.42 84.6001C550.38 85.6052 549.825 86.5837 548.913 86.8879C548.053 87.2317 546.955 87.0466 546.479 86.306L546.413 86.2135L546.321 86.2796C544.906 87.3508 543.014 87.4169 541.679 86.716C540.317 86.0151 539.51 84.7191 539.312 83.5157L539.298 83.4099L539.206 83.4628C538.69 83.7273 538.148 83.8595 537.645 83.9521C537.13 84.0447 536.64 84.0711 536.191 84.0579C535.278 84.0447 534.511 83.886 533.943 83.6215C533.374 83.357 533.017 83.0132 532.885 82.7223C532.713 82.4578 532.686 82.2859 532.673 82.2859Z" fill="#455A64"/>
<path d="M567.763 72.4473C567.763 72.4473 567.908 72.2754 568.107 71.8919C568.305 71.5084 568.543 70.9001 568.596 70.0669C568.649 69.247 568.517 68.1759 567.842 67.1841C567.194 66.1922 566.031 65.2798 564.51 65.055L564.589 65.1608C564.88 63.7458 564.655 62.0795 563.756 60.6116C563.32 59.8843 562.711 59.2098 561.957 58.6941C561.204 58.1651 560.291 57.8874 559.445 57.5039C559.022 57.3188 558.598 57.094 558.241 56.7898C557.884 56.4856 557.607 56.1021 557.395 55.6525C556.985 54.7665 556.853 53.7218 556.337 52.7696C555.306 50.905 553.031 49.6355 550.73 49.9925L550.889 50.1512C551.193 48.0486 550.518 45.7211 548.958 44.0681C547.345 42.3489 544.925 41.529 542.716 41.7935L542.875 41.9389C543.153 39.2412 541.632 36.6228 539.437 35.4987C537.228 34.3614 534.596 34.6524 532.798 35.869L532.943 35.8822C531.991 34.9433 530.841 34.335 529.73 33.9118C528.606 33.5019 527.482 33.2506 526.424 33.158C524.308 32.92 522.43 33.158 520.962 33.5283C519.494 33.9118 518.397 34.4276 517.722 34.8772C517.365 35.0756 517.14 35.3004 516.968 35.4194C516.81 35.5516 516.73 35.6177 516.73 35.6177C516.744 35.6442 517.074 35.3533 517.762 34.9301C518.45 34.5069 519.534 34.0176 521.002 33.6605C522.47 33.3167 524.321 33.0919 526.411 33.3564C527.455 33.4622 528.553 33.7267 529.664 34.1234C530.761 34.5334 531.885 35.1417 532.785 36.0541L532.851 36.1203L532.93 36.0674C534.663 34.9036 537.202 34.6392 539.317 35.7235C541.407 36.7947 542.862 39.3205 542.597 41.8993L542.584 42.0712L542.756 42.0447C544.885 41.7935 547.212 42.5869 548.76 44.24C550.254 45.8269 550.902 48.075 550.611 50.0983L550.585 50.2835L550.77 50.257C552.938 49.9264 555.12 51.1298 556.099 52.8886C556.588 53.7747 556.721 54.8194 557.157 55.7451C557.369 56.2079 557.673 56.6443 558.069 56.9617C558.453 57.2923 558.903 57.5171 559.339 57.7155C560.212 58.099 561.111 58.3635 561.825 58.866C562.553 59.3553 563.148 60.0033 563.571 60.7042C564.444 62.1059 564.682 63.7325 564.404 65.0946L564.391 65.1872L564.483 65.2004C565.938 65.3988 567.088 66.2716 567.723 67.2237C568.384 68.1891 568.53 69.2206 568.49 70.0273C568.451 70.8472 568.226 71.4423 568.054 71.839C567.882 72.2489 567.75 72.4341 567.763 72.4473Z" fill="#455A64"/>
<path d="M479.678 74.9335C479.665 74.9467 479.877 74.6822 479.718 74.1797C479.639 73.9416 479.467 73.6639 479.176 73.4127C478.898 73.1614 478.488 72.9895 478.038 72.844C477.589 72.6853 477.06 72.5663 476.597 72.2489C476.134 71.9316 475.764 71.4026 475.566 70.7678C475.354 70.133 475.288 69.4189 475.327 68.6652C475.354 67.9114 475.473 67.1047 475.486 66.2451C475.499 64.4995 474.759 62.7275 474.309 60.7967C474.098 59.8314 474.005 58.7999 474.19 57.7684C474.375 56.7501 474.904 55.7318 475.856 55.1764C476.795 54.5945 477.946 54.4226 479.083 54.0788C479.652 53.9069 480.22 53.6821 480.736 53.3118C481.252 52.9547 481.635 52.4125 481.9 51.8571C482.442 50.7198 482.574 49.4503 482.865 48.2337C483.011 47.6254 483.196 47.017 483.5 46.4881C483.804 45.9459 484.294 45.5359 484.862 45.2979C485.656 44.9937 486.542 45.0466 487.414 44.9541C487.851 44.9144 488.3 44.8218 488.71 44.6367C489.12 44.4515 489.477 44.1474 489.729 43.7771C490.244 43.0365 490.43 42.1902 490.694 41.4232C490.932 40.6429 491.329 39.9421 491.845 39.347C492.876 38.1568 494.384 37.4559 495.852 37.4295C497.333 37.3898 498.748 37.932 499.766 38.8444L499.885 38.9502L499.951 38.8048C501.088 36.3054 503.31 34.692 505.426 34.0837C506.497 33.7795 507.542 33.7134 508.507 33.8192C509.459 33.9118 510.319 34.1631 511.033 34.5201C512.474 35.2342 513.281 36.2657 513.717 36.9931C513.942 37.3501 514.088 37.6543 514.18 37.8526C514.22 37.9452 514.26 38.0245 514.286 38.0774C514.313 38.1303 514.326 38.1568 514.326 38.1568C514.326 38.1568 514.326 38.1303 514.299 38.0774C514.273 38.0113 514.246 37.932 514.207 37.8394C514.127 37.6278 513.995 37.3237 513.784 36.9534C513.36 36.2128 512.554 35.1417 511.099 34.3879C510.372 34.0176 509.499 33.7531 508.52 33.6341C507.542 33.5283 506.471 33.568 505.373 33.8854C503.204 34.4937 500.93 36.1203 499.739 38.699L499.925 38.6593C498.867 37.7072 497.399 37.1385 495.852 37.165C494.304 37.1914 492.731 37.9187 491.646 39.1618C491.104 39.7701 490.681 40.5372 490.43 41.3306C490.165 42.1108 489.967 42.944 489.504 43.6052C489.054 44.2928 488.234 44.597 487.388 44.6763C486.542 44.7689 485.642 44.716 484.77 45.0466C484.135 45.3111 483.606 45.774 483.275 46.3558C482.931 46.9245 482.746 47.5592 482.601 48.1808C482.31 49.4106 482.164 50.6669 481.662 51.7513C481.411 52.2803 481.054 52.7696 480.591 53.1134C480.128 53.4573 479.572 53.6689 479.017 53.8408C477.906 54.1846 476.729 54.3565 475.737 54.9648C475.248 55.269 474.812 55.6789 474.534 56.1682C474.243 56.6575 474.058 57.1865 473.965 57.7287C473.78 58.7999 473.873 59.871 474.111 60.8496C474.574 62.8068 475.314 64.5524 475.314 66.2451C475.314 67.0915 475.208 67.8849 475.182 68.6652C475.142 69.4322 475.208 70.1859 475.446 70.8339C475.671 71.4819 476.055 72.0373 476.557 72.368C477.06 72.6986 477.589 72.8176 478.038 72.963C478.488 73.0953 478.885 73.254 479.149 73.492C479.427 73.7168 479.599 73.9813 479.691 74.2061C479.837 74.669 479.652 74.9335 479.678 74.9335Z" fill="#455A64"/>
<path d="M461.816 60.6641C461.816 60.6641 461.856 60.6112 461.909 60.4922C461.975 60.3599 462.054 60.188 462.16 59.9764C462.385 59.5003 462.702 58.8391 463.112 57.9795C463.536 57.12 463.998 56.0356 464.66 54.8586C465.334 53.6949 466.247 52.3724 467.741 51.5525C468.481 51.1426 469.341 50.8781 470.214 50.4946C470.65 50.2962 471.073 50.0714 471.47 49.7541C471.867 49.4499 472.197 49.0267 472.409 48.5506C472.845 47.5985 472.859 46.5141 473.203 45.5223C473.374 45.033 473.652 44.5701 474.089 44.266C474.512 43.9486 475.041 43.7502 475.57 43.5783C476.099 43.4064 476.667 43.2477 477.196 42.9568C477.738 42.6791 478.175 42.203 478.453 41.6608C479.008 40.5367 479.008 39.2804 479.246 38.0903C479.352 37.4952 479.524 36.9001 479.854 36.3975C480.185 35.895 480.727 35.5644 481.322 35.4322C482.539 35.1809 483.835 35.6041 485.184 35.3925C485.858 35.2735 486.493 34.9297 486.956 34.4536C487.419 33.9775 487.776 33.4221 488.106 32.8667C488.437 32.3245 488.741 31.7691 489.111 31.2798C489.482 30.7905 489.931 30.3673 490.46 30.116C491.558 29.6135 492.801 29.878 493.938 30.1425C495.089 30.407 496.279 30.6979 497.429 30.4466C498.58 30.2218 499.558 29.6267 500.471 29.0581C501.383 28.4894 502.256 27.8943 503.182 27.5505C505.06 26.8761 507.004 26.9686 508.644 27.3786C510.297 27.7885 511.659 28.5952 512.69 29.468C513.735 30.3408 514.409 31.3194 514.925 32.1129C515.388 32.946 515.719 33.6204 515.877 34.0965C515.97 34.3213 516.036 34.4933 516.089 34.6255C516.142 34.7445 516.168 34.8106 516.168 34.8106C516.168 34.8106 516.155 34.7445 516.115 34.6255C516.062 34.4933 516.009 34.3081 515.93 34.0833C515.785 33.594 515.467 32.9196 515.018 32.0732C514.515 31.2533 513.841 30.2615 512.796 29.3622C511.751 28.4762 510.376 27.6431 508.696 27.2067C507.03 26.7835 505.047 26.6777 503.103 27.3521C502.124 27.7092 501.264 28.3043 500.339 28.8597C499.426 29.4151 498.461 29.9838 497.376 30.1954C496.279 30.4202 495.142 30.1557 493.991 29.878C493.409 29.7457 492.814 29.6135 492.193 29.5606C491.571 29.5209 490.923 29.587 490.328 29.8515C489.733 30.116 489.257 30.5789 488.873 31.0946C488.49 31.6104 488.172 32.1658 487.842 32.708C487.511 33.2502 487.181 33.7924 486.731 34.242C486.295 34.6916 485.726 34.9958 485.104 35.1016C483.848 35.3132 482.552 34.89 481.23 35.1412C480.582 35.2735 479.96 35.657 479.603 36.2124C479.233 36.7678 479.061 37.4026 478.955 38.0109C478.73 39.2275 478.717 40.4706 478.201 41.5153C477.937 42.0179 477.553 42.4543 477.051 42.7055C476.561 42.9832 476.006 43.1287 475.464 43.3138C474.922 43.499 474.379 43.6841 473.917 44.0412C473.441 44.385 473.136 44.9007 472.951 45.4165C472.594 46.4612 472.581 47.5324 472.171 48.4316C471.788 49.3441 470.928 49.8995 470.095 50.2698C469.248 50.6533 468.389 50.931 467.622 51.341C466.075 52.2005 465.162 53.5626 464.501 54.7396C463.84 55.943 463.39 57.0274 462.98 57.9002C462.597 58.7598 462.292 59.4474 462.081 59.9235C461.988 60.1483 461.909 60.3202 461.856 60.4525C461.83 60.598 461.816 60.6641 461.816 60.6641Z" fill="#455A64"/>
<path d="M471.618 51.0372C471.618 51.0372 471.565 51.024 471.446 51.0107C471.34 51.0107 471.155 51.0107 470.957 51.1165C470.56 51.3149 470.111 51.8968 470.044 52.7431C470.018 53.1663 470.124 53.6291 470.243 54.1184C470.362 54.6077 470.507 55.1367 470.481 55.7186C470.454 56.2872 470.19 56.8691 469.833 57.4245C469.476 57.9799 469.026 58.5221 468.656 59.1833C468.272 59.8181 468.101 60.7174 468.431 61.4976C468.722 62.2778 469.291 62.939 469.568 63.7325C469.859 64.5259 469.687 65.4384 469.317 66.2715C468.96 67.1179 468.444 67.9246 468.101 68.8635C467.915 69.3263 467.796 69.8421 467.81 70.3578C467.81 70.8868 467.942 71.4026 468.153 71.8786C468.603 72.844 469.304 73.6375 469.899 74.5103C470.507 75.3566 471.01 76.3617 470.864 77.4328C470.745 78.4908 470.15 79.4693 469.754 80.5405C469.555 81.0827 469.41 81.6514 469.41 82.2332C469.423 82.8151 469.582 83.3837 469.846 83.8862C470.362 84.9045 471.142 85.6848 471.83 86.4914C472.517 87.2981 473.139 88.1312 473.443 89.0966C473.774 90.0488 473.946 91.0538 474.395 91.9663C474.62 92.4159 474.937 92.8259 475.334 93.13C475.731 93.4342 476.194 93.6061 476.63 93.7648C477.08 93.9102 477.516 94.0293 477.913 94.2144C478.31 94.4128 478.667 94.6508 478.971 94.9417C479.592 95.5236 480.055 96.2245 480.478 96.9122C480.902 97.5998 481.298 98.2743 481.735 98.8826C482.608 100.112 483.811 100.893 484.948 101.25C486.086 101.62 487.13 101.66 487.95 101.541C488.783 101.422 489.392 101.197 489.788 100.998C490.185 100.8 490.37 100.668 490.37 100.668C490.357 100.615 489.59 101.223 487.95 101.422C487.143 101.514 486.112 101.461 485.001 101.091C483.89 100.734 482.753 99.967 481.907 98.7635C481.483 98.1685 481.1 97.494 480.677 96.8064C480.254 96.1187 479.791 95.3914 479.143 94.7831C478.812 94.4789 478.442 94.2144 478.019 94.016C477.596 93.8177 477.159 93.6854 476.723 93.54C476.286 93.3945 475.85 93.2226 475.493 92.9449C475.136 92.6672 474.845 92.2837 474.633 91.8605C474.197 91.0009 474.038 90.0091 473.708 89.0173C473.403 88.0122 472.742 87.1262 472.055 86.3195C471.367 85.5129 470.6 84.7194 470.111 83.7672C469.873 83.2912 469.714 82.7622 469.714 82.2332C469.714 81.7042 469.846 81.1621 470.044 80.6463C470.428 79.6016 471.036 78.623 471.169 77.4725C471.235 76.9039 471.142 76.322 470.944 75.8062C470.745 75.2773 470.454 74.8144 470.15 74.378C469.529 73.5052 468.841 72.7118 468.418 71.7993C468.206 71.3497 468.087 70.8604 468.087 70.3843C468.087 69.9082 468.193 69.4321 468.365 68.9825C468.696 68.0833 469.211 67.2634 469.568 66.3906C469.952 65.5442 470.137 64.5524 469.806 63.6796C469.502 62.8332 468.92 62.172 468.643 61.4447C468.339 60.7174 468.484 59.9239 468.841 59.3024C469.185 58.6676 469.635 58.1122 469.992 57.5435C470.349 56.9749 470.626 56.3666 470.653 55.7583C470.679 55.1499 470.507 54.6077 470.388 54.1184C470.269 53.6291 470.15 53.1795 470.177 52.7828C470.23 51.9629 470.64 51.3942 471.01 51.1959C471.38 50.9578 471.631 51.0636 471.618 51.0372Z" fill="#455A64"/>
<path d="M538.124 80.7783C538.124 80.7783 538.679 80.937 539.499 81.5718C540.306 82.1933 541.363 83.41 541.734 85.2481C541.932 86.1606 541.932 87.2053 541.654 88.2633C541.363 89.3212 540.808 90.3924 539.962 91.2916C539.142 92.2041 538.044 92.9711 536.761 93.3943C535.492 93.8307 534.024 93.8703 532.649 93.4868C531.273 93.1033 530.043 92.3495 529.144 91.3445C528.232 90.3527 527.676 89.1096 527.465 87.893C527.068 85.4333 527.981 83.1587 529.276 81.8363C529.938 81.1618 530.705 80.7651 531.366 80.4874C532.04 80.2097 532.675 80.0642 533.178 80.0113C533.693 79.9584 534.103 79.9981 534.368 80.051C534.632 80.1171 534.765 80.17 534.765 80.1832C534.765 80.2229 534.209 80.0113 533.204 80.1568C532.702 80.2361 532.106 80.3816 531.445 80.6725C530.797 80.9635 530.07 81.3734 529.448 82.0214C528.219 83.3042 527.385 85.4994 527.782 87.8533C527.981 89.017 528.523 90.1808 529.396 91.1197C530.255 92.0718 531.432 92.7859 532.741 93.1562C534.05 93.5265 535.426 93.4868 536.642 93.0769C537.859 92.6802 538.917 91.9528 539.71 91.08C540.517 90.2204 541.059 89.2022 541.35 88.1971C541.628 87.1789 541.641 86.1738 541.456 85.301C541.125 83.5157 540.134 82.3123 539.38 81.6776C538.639 81.0296 538.097 80.818 538.124 80.7783Z" fill="#E0E0E0"/>
<path d="M509.521 68.9164C509.442 69.9743 510.261 70.9132 511.359 71.019C512.457 71.1248 513.409 70.3578 513.501 69.3131C513.581 68.2552 512.761 67.3162 511.663 67.2104C510.552 67.0914 509.6 67.8584 509.521 68.9164Z" fill="#263238"/>
<path d="M491.275 68.6122C491.195 69.6701 492.015 70.609 493.113 70.7148C494.211 70.8206 495.163 70.0536 495.255 69.0089C495.335 67.9509 494.515 67.012 493.417 66.9062C492.32 66.7872 491.354 67.5542 491.275 68.6122Z" fill="#263238"/>
<path d="M489.151 61.0611C489.349 61.3653 490.87 60.3206 492.827 60.5454C494.784 60.7305 496.093 62.0662 496.332 61.8017C496.451 61.6959 496.279 61.1669 495.723 60.5718C495.168 59.9768 494.176 59.342 492.959 59.223C491.729 59.1039 490.645 59.5139 489.984 59.9768C489.323 60.4528 489.058 60.9289 489.151 61.0611Z" fill="#263238"/>
<path d="M507.943 62.6745C508.207 62.9787 509.887 61.6695 512.254 61.6959C514.608 61.6827 516.327 62.9919 516.592 62.6877C516.724 62.5555 516.446 62.0001 515.706 61.405C514.965 60.8099 513.709 60.2413 512.241 60.228C510.773 60.228 509.53 60.7967 508.802 61.3918C508.075 61.9869 507.811 62.5423 507.943 62.6745Z" fill="#263238"/>
<path d="M509.459 82.3254C509.194 80.9765 507.859 79.9186 506.497 80.0244C505.492 80.0905 504.579 80.7517 504.103 81.6245C503.627 82.5106 503.574 83.5949 503.891 84.5471L503.931 84.7587C504.817 85.8034 506.404 86.2001 507.66 85.6579C508.903 85.129 509.71 83.6743 509.459 82.3254Z" fill="#FF9A6C"/>
<path d="M502.259 84.7587C502.272 84.4149 504.533 84.5868 506.292 82.7751C508.051 80.9634 507.985 78.5301 508.302 78.5433C508.448 78.5169 508.699 79.112 508.646 80.1302C508.606 81.1353 508.17 82.5635 507.086 83.6743C506.001 84.7852 504.652 85.1819 503.713 85.1819C502.774 85.2084 502.232 84.9174 502.259 84.7587Z" fill="#263238"/>
<path d="M472.172 224.711C471.643 225.505 459.477 267.029 461.328 280.505C463.18 293.993 472.172 333.917 472.172 333.917C472.172 333.917 477.726 356.663 476.668 365.656C475.61 374.648 476.047 404.747 479.049 422.771C482.527 443.599 486.23 480.905 486.23 480.905L513.048 478.829L511.832 348.98L518.444 297.947L522.147 247.973L472.172 224.711Z" fill="#263238"/>
<path d="M549.127 463.171L546.456 492.49L551.336 516.254C551.693 517.973 550.45 519.613 548.638 519.824C547.62 519.943 546.615 519.599 545.927 518.872C541.523 514.283 525.429 497.343 525.747 495.214C526.117 492.741 526.421 464.11 526.421 464.11L549.127 463.171Z" fill="#263238"/>
<path d="M564.31 226.999C564.839 227.792 577.006 269.317 575.154 282.792C573.303 296.281 564.31 336.205 564.31 336.205C564.31 336.205 558.756 358.951 559.814 367.943C560.872 376.936 559.021 406.849 557.434 425.059C555.649 445.53 551.152 481.143 551.152 481.143L523.289 479.331L524.651 351.281L518.039 300.248L514.336 250.274L564.31 226.999Z" fill="#263238"/>
<path d="M487.475 464.097L488.863 488.377C488.863 488.377 463.499 497.885 463.301 502.395L512.667 501.509L512.125 463.582L487.475 464.097Z" fill="#263238"/>
<path d="M572.679 253.593C572.732 253.99 572.282 256.384 569.942 258.909C567.601 261.435 566.226 266.222 566.226 266.222C566.226 266.222 564.031 276.471 563.475 279.791C562.92 283.123 562.801 286.178 565.472 285.649C568.143 285.12 569.016 283.123 569.664 277L571.317 273.8L572.679 276.326V286.178C572.679 286.178 565.816 292.433 566.226 294.298C566.636 296.162 567.918 295.898 567.918 295.898L568.976 296.969L579.437 289.92L583.563 277.013L582.875 260.245L583.206 247.219L572.296 245.5L572.679 253.593Z" fill="#FFBF9D"/>
<path d="M552.5 115.386C552.5 115.386 569.414 123.228 571.569 134.733C573.738 146.252 576.251 181.071 576.859 185.872C577.454 190.672 581.646 198.382 582.453 212.756C583.26 227.131 583.246 249.454 583.246 249.454L572.627 252.442C572.627 252.442 564.058 231.456 561.955 215.745C559.853 200.035 555.833 193.29 556.811 186.916C557.79 180.542 554.259 164.29 554.259 164.29L552.5 115.386Z" fill="#FFBF9D"/>
<path d="M552.494 148.751C553.075 149.862 552.52 171.312 554.16 171.959C555.8 172.594 577.448 171.1 577.448 171.1C577.448 171.1 574.79 138.026 571.153 131.348C567.503 124.67 558.286 116.537 556.448 116.563C554.61 116.59 549.016 144.347 549.016 144.347L552.494 148.751Z" fill="#4CD685"/>
<path d="M487.609 114.818C486.286 115.876 466.304 124.617 466.304 124.617L473.446 174.062L476.738 194.375L466.238 237.393C466.238 237.393 488.984 258.817 525.47 255.907C561.969 252.998 570.194 240.276 570.194 240.276L554.55 177.369C554.55 177.369 552.963 157.982 552.963 150.92C552.963 149.598 556.401 116.537 556.401 116.537L539.474 111.512C539.474 111.512 536.3 124.207 514.348 124.207C492.422 124.22 487.609 114.818 487.609 114.818Z" fill="#4CD685"/>
<path d="M550.681 144.731C550.721 144.705 550.972 145.115 551.368 145.868C551.792 146.622 552.307 147.746 552.876 149.175C554.013 152.031 555.177 156.157 555.574 160.852C555.957 165.546 555.481 169.818 554.833 172.82C554.503 174.327 554.172 175.517 553.894 176.324C553.617 177.131 553.445 177.58 553.392 177.567C553.273 177.527 553.828 175.716 554.357 172.727C554.886 169.738 555.27 165.533 554.899 160.918C554.516 156.302 553.445 152.216 552.44 149.346C551.421 146.477 550.575 144.784 550.681 144.731Z" fill="#263238"/>
<path d="M543.082 112.834C543.082 112.834 547.353 108.021 550.474 107.478C553.595 106.936 565.193 109.145 568.684 109.845C573.538 110.811 573.313 114.421 570.086 114.699C566.211 115.016 561.146 114.487 561.146 114.487C561.146 114.487 558.554 118.904 553.384 118.798C548.213 118.693 543.082 112.834 543.082 112.834Z" fill="#FFBF9D"/>
<path d="M550.473 107.478C550.473 107.478 554.612 105.759 558.566 104.741C562.52 103.722 565.099 103.722 566.17 105.098C567.254 106.473 570.309 113.865 569.423 115.333C568.537 116.801 558.566 123.876 557.019 124.075C555.485 124.273 554.308 123.585 554.995 121.615C555.683 119.658 561.131 114.487 561.131 114.487L560.007 109.938L550.473 107.478Z" fill="#FFBF9D"/>
<path d="M566.684 106.063C566.684 106.063 572.291 118.401 572.437 119.42C572.582 120.425 569.699 122.884 567.451 124.101C565.19 125.331 558.194 127.579 557.414 126.415C556.634 125.251 556.713 124.101 556.713 124.101L567.227 117.383L566.684 106.063Z" fill="#FFBF9D"/>
<path d="M571.731 119.658C571.731 119.658 571.652 125.344 571.731 126.191C571.811 127.05 570.488 129.616 568.928 128.994C567.367 128.373 567.526 128.32 567.367 126.746C567.209 125.172 567.367 122.845 567.367 122.845L571.335 120.2" fill="#FFBF9D"/>
<path d="M552.563 118.772C552.563 118.653 553.608 118.785 555.181 118.322C556.729 117.886 558.845 116.695 560.074 114.487L560.193 114.275L560.431 114.315C560.709 114.355 561 114.394 561.304 114.434C564.095 114.857 566.607 115.135 568.419 114.989C570.231 114.87 571.328 114.513 571.368 114.619C571.394 114.685 570.336 115.214 568.472 115.466C566.607 115.743 563.989 115.532 561.212 115.109C560.907 115.069 560.617 115.016 560.339 114.976L560.683 114.804C559.321 117.224 556.967 118.428 555.3 118.758C553.594 119.129 552.537 118.825 552.563 118.772Z" fill="#FF9A6C"/>
<path d="M553.164 107.333C553.191 107.148 556.999 107.61 561.654 108.377C566.309 109.144 570.065 109.911 570.038 110.11C570.012 110.295 566.203 109.832 561.548 109.065C556.88 108.298 553.138 107.518 553.164 107.333Z" fill="#FF9A6C"/>
<path d="M568.791 115.254C568.857 115.241 568.883 116.219 568.156 117.542C567.455 118.864 565.974 120.359 564.083 121.549C560.261 123.982 556.519 124.352 556.532 124.167C556.479 123.969 560.049 123.321 563.713 120.967C565.538 119.816 566.992 118.467 567.746 117.291C568.526 116.127 568.672 115.228 568.791 115.254Z" fill="#FF9A6C"/>
<path d="M566.813 124.71C566.72 124.524 568.201 123.704 569.709 122.303C571.216 120.914 572.155 119.499 572.327 119.592C572.486 119.671 571.785 121.324 570.172 122.805C568.585 124.3 566.879 124.881 566.813 124.71Z" fill="#FF9A6C"/>
<path d="M450.629 163.39C450.629 162.332 456.672 131.163 463.549 126.68L466.723 124.299L473.864 167.146V170.055L450.629 163.39Z" fill="#4CD685"/>
<path d="M473.846 175.332C473.754 175.358 473.304 173.877 472.696 171.457C472.101 169.037 471.373 165.665 470.752 161.896C470.13 158.14 469.734 154.702 469.522 152.216C469.311 149.729 469.271 148.182 469.363 148.182C469.456 148.169 469.668 149.703 469.998 152.163C470.329 154.636 470.805 158.034 471.413 161.777C472.035 165.519 472.669 168.891 473.159 171.338C473.661 173.798 473.952 175.305 473.846 175.332Z" fill="#263238"/>
</svg>
