<svg width="529" height="529" viewBox="0 0 529 529" fill="none" xmlns="http://www.w3.org/2000/svg">
    <path
        d="M217.791 339.608H118.783C118.191 339.608 117.715 339.131 117.715 338.528V334.931C117.715 334.339 118.191 333.852 118.783 333.852H217.791C218.384 333.852 218.86 334.328 218.86 334.931V338.528C218.87 339.121 218.384 339.608 217.791 339.608Z"
        fill="white" />
    <path d="M171.335 50.8052V134.461H63.2919L59.3984 51.3871L171.335 50.8052Z" fill="#E0E0E0" />
    <path d="M59.3944 51.2867L59.3944 134.456H167.437V51.2867H59.3944Z" fill="#F5F5F5" />
    <path
        d="M167.853 134.874H58.9844V50.8794H167.853V134.874ZM59.8096 134.049H167.038V51.7046H59.8096V134.049Z"
        fill="#E0E0E0" />
    <path
        d="M59.3957 51.1015C59.4274 51.0486 60.1257 51.4824 61.226 52.223C62.3263 52.9636 63.8181 54.011 65.4474 55.2066C67.0767 56.4021 68.505 57.5447 69.5207 58.3911C70.5364 59.2375 71.1395 59.7983 71.0971 59.8406C71.0548 59.8829 70.3883 59.4174 69.3303 58.6239C68.1453 57.7457 66.7382 56.6983 65.1829 55.5451C63.6277 54.3919 62.2205 53.3445 61.0461 52.4663C59.9987 51.6623 59.3639 51.1438 59.3957 51.1015Z"
        fill="#E0E0E0" />
    <path
        d="M167.441 51.2916C167.515 51.3869 164.944 53.3759 161.718 55.7352C158.491 58.0946 155.814 59.9355 155.74 59.8403C155.666 59.7451 158.237 57.756 161.464 55.3967C164.701 53.0268 167.378 51.1964 167.441 51.2916Z"
        fill="#E0E0E0" />
    <path
        d="M59.3966 134.461C59.312 134.377 61.8406 131.964 65.0463 129.076C68.2415 126.188 70.9076 123.924 70.9817 124.008C71.0663 124.093 68.5377 126.505 65.332 129.393C62.1368 132.282 59.4707 134.546 59.3966 134.461Z"
        fill="#E0E0E0" />
    <path
        d="M155.314 123.511C155.399 123.426 158.171 125.807 161.525 128.822C164.879 131.848 167.524 134.366 167.45 134.451C167.376 134.535 164.593 132.155 161.239 129.14C157.885 126.124 155.23 123.596 155.314 123.511Z"
        fill="#E0E0E0" />
    <path d="M155.738 59.8403H71.0978V123.511H155.738V59.8403Z" fill="white" />
    <path
        d="M155.738 59.8403C155.738 59.8403 155.601 59.8509 155.326 59.8509C155.051 59.8509 154.649 59.8615 154.13 59.8615C153.072 59.8615 151.528 59.8721 149.517 59.8827C145.486 59.8932 139.604 59.9144 132.156 59.9356C117.27 59.9567 96.1413 59.9885 71.0879 60.0308L71.2783 59.8403C71.2889 78.9372 71.2889 100.616 71.2995 123.511V123.521L71.0879 123.31C102.606 123.32 131.828 123.341 155.728 123.352L155.548 123.532C155.59 104.287 155.622 88.3958 155.643 77.2973C155.664 71.7428 155.675 67.3945 155.686 64.4215C155.696 62.9403 155.696 61.8082 155.707 61.0359C155.728 60.2424 155.738 59.8403 155.738 59.8403C155.738 59.8403 155.749 60.2212 155.76 60.9724C155.76 61.7447 155.77 62.8662 155.781 64.3263C155.791 67.2887 155.802 71.6265 155.823 77.1598C155.844 88.2794 155.876 104.213 155.918 123.5V123.68H155.738C131.838 123.691 102.616 123.701 71.0984 123.722H70.8868V123.511V123.5C70.8868 100.616 70.8974 78.9372 70.908 59.8403V59.6499H71.0984C96.2048 59.6922 117.375 59.724 132.293 59.7451C139.72 59.7663 145.592 59.7874 149.613 59.798C151.602 59.8086 153.136 59.8192 154.183 59.8192C154.691 59.8192 155.082 59.8298 155.347 59.8298C155.611 59.8298 155.738 59.8403 155.738 59.8403Z"
        fill="#E0E0E0" />
    <path
        d="M133.013 71.5737C133.013 71.7007 124.644 71.7959 114.307 71.7959C103.981 71.7959 95.6017 71.7007 95.6017 71.5737C95.6017 71.4468 103.97 71.3516 114.307 71.3516C124.644 71.3516 133.013 71.4574 133.013 71.5737Z"
        fill="#E0E0E0" />
    <path
        d="M141.445 92.6279C141.445 92.7549 128.897 92.8501 113.429 92.8501C97.9505 92.8501 85.4026 92.7549 85.4026 92.6279C85.4026 92.501 97.9505 92.4058 113.429 92.4058C128.897 92.4058 141.445 92.5116 141.445 92.6279Z"
        fill="#E0E0E0" />
    <path
        d="M141.445 97.833C141.445 97.96 128.897 98.0552 113.429 98.0552C97.9505 98.0552 85.4026 97.96 85.4026 97.833C85.4026 97.7061 97.9505 97.6108 113.429 97.6108C128.897 97.6108 141.445 97.7061 141.445 97.833Z"
        fill="#E0E0E0" />
    <path
        d="M120.773 110.762C120.773 114.359 117.853 117.279 114.256 117.279C110.658 117.279 107.738 114.359 107.738 110.762C107.738 107.165 110.658 104.245 114.256 104.245C117.853 104.245 120.773 107.165 120.773 110.762Z"
        fill="#E0E0E0" />
    <path
        d="M114.246 117.311C110.638 117.311 107.707 114.38 107.707 110.772C107.707 107.165 110.638 104.234 114.246 104.234C117.853 104.234 120.784 107.165 120.784 110.772C120.795 114.37 117.853 117.311 114.246 117.311ZM114.246 104.266C110.659 104.266 107.749 107.186 107.749 110.762C107.749 114.348 110.67 117.258 114.246 117.258C117.832 117.258 120.742 114.338 120.742 110.762C120.752 107.186 117.832 104.266 114.246 104.266Z"
        fill="#E0E0E0" />
    <path
        d="M100.989 110.762C100.989 110.889 97.4762 110.984 93.1384 110.984C88.8006 110.984 85.2775 110.889 85.2775 110.762C85.2775 110.635 88.79 110.54 93.1384 110.54C97.4656 110.54 100.989 110.645 100.989 110.762Z"
        fill="#E0E0E0" />
    <path
        d="M144.068 110.762C144.068 110.889 140.133 110.984 135.276 110.984C130.42 110.984 126.484 110.889 126.484 110.762C126.484 110.635 130.42 110.54 135.276 110.54C140.133 110.54 144.068 110.645 144.068 110.762Z"
        fill="#E0E0E0" />
    <path
        d="M96.9253 109.535C96.9147 109.535 96.8618 109.355 96.8301 108.995C96.7984 108.635 96.7878 108.106 96.9147 107.429C97.0523 106.763 97.3062 105.938 97.9093 105.134C98.068 104.943 98.2901 104.753 98.5758 104.679C98.8615 104.605 99.2 104.679 99.4434 104.858C99.9406 105.208 100.184 105.938 99.9935 106.562C99.8242 107.197 99.4328 107.726 99.0307 108.265C98.6287 108.794 98.1632 109.323 97.5919 109.789C97.0205 110.244 96.3328 110.635 95.5182 110.741C94.7247 110.847 93.8571 110.709 93.1483 110.212C92.4077 109.725 92.0374 108.762 92.1114 107.884C92.1749 106.996 92.45 106.17 92.8097 105.345C93.0001 104.932 93.2646 104.53 93.6667 104.224C94.0687 103.927 94.5766 103.769 95.1056 103.864C95.6346 103.959 96.0789 104.425 96.1847 104.932C96.3011 105.44 96.227 105.938 96.1001 106.403C95.7933 107.334 95.3595 108.138 94.8093 108.889C94.2592 109.63 93.5609 110.275 92.7356 110.667C91.9104 111.058 90.9794 111.185 90.1012 111.005C89.2231 110.836 88.4402 110.265 88.017 109.535C87.5832 108.805 87.4139 107.969 87.4668 107.175C87.5091 106.382 87.7419 105.652 88.0381 104.985C88.3344 104.361 88.6941 103.61 89.4876 103.398C89.8896 103.314 90.3022 103.546 90.4821 103.864C90.6725 104.181 90.7254 104.509 90.7466 104.827C90.7783 106.075 90.4398 107.186 89.9743 108.032C89.5193 108.9 88.9268 109.524 88.4084 109.969C87.8794 110.413 87.4139 110.667 87.0859 110.826C86.7579 110.974 86.5781 111.027 86.5675 111.016C86.5358 110.963 87.2869 110.741 88.2815 109.842C88.7681 109.387 89.3183 108.762 89.7309 107.916C90.1647 107.08 90.4609 106.012 90.4186 104.837C90.3975 104.552 90.334 104.255 90.1964 104.033C90.0589 103.8 89.805 103.673 89.5405 103.737C89.2866 103.79 89.0326 104.001 88.8422 104.255C88.6518 104.509 88.5036 104.816 88.3555 105.134C87.7948 106.371 87.5409 107.99 88.3449 109.313C88.7258 109.958 89.3924 110.434 90.1647 110.582C90.937 110.741 91.7834 110.625 92.524 110.265C94.0264 109.545 95.0632 107.927 95.6451 106.266C95.7615 105.853 95.825 105.409 95.7298 105.028C95.6451 104.647 95.3595 104.351 94.9998 104.287C94.64 104.213 94.2274 104.34 93.91 104.562C93.6032 104.795 93.3599 105.144 93.1906 105.514C92.852 106.276 92.5664 107.101 92.5135 107.884C92.4606 108.667 92.7462 109.44 93.3704 109.852C93.9735 110.286 94.7458 110.413 95.4547 110.328C96.1636 110.244 96.8089 109.895 97.3485 109.471C97.8881 109.048 98.343 108.54 98.7451 108.032C99.1471 107.514 99.528 107.006 99.6761 106.467C99.8454 105.927 99.655 105.366 99.2635 105.07C98.872 104.742 98.3642 104.922 98.0891 105.282C97.5178 106.001 97.2321 106.805 97.0734 107.451C96.7984 108.773 96.9782 109.535 96.9253 109.535Z"
        fill="#EBEBEB" />
    <path
        d="M142.006 108.498C142.006 108.508 141.953 108.54 141.837 108.593C141.721 108.646 141.551 108.731 141.318 108.826C140.853 109.027 140.155 109.281 139.234 109.545C138.314 109.799 137.161 110.053 135.796 110.18C135.119 110.243 134.378 110.275 133.606 110.265C132.833 110.275 131.987 110.106 131.183 110.201C130.781 110.254 130.389 110.434 130.125 110.741C129.85 111.048 129.807 111.471 129.998 111.862C130.178 112.254 130.495 112.624 130.802 113.005C131.109 113.386 131.426 113.767 131.765 114.137C132.103 114.518 132.452 114.888 132.823 115.258C133.193 115.629 133.563 116.02 134.018 116.179C134.463 116.359 134.96 116.158 135.256 115.745C135.563 115.343 135.648 114.803 135.626 114.253C135.161 109.693 135.521 104.456 137.266 99.3249L137.457 98.7642L137.679 99.3143C138.166 100.499 138.472 101.843 138.557 103.208C138.652 105.08 138.356 106.953 137.668 108.635C137.33 109.471 136.896 110.275 136.399 111.005C135.912 111.714 135.298 112.486 134.346 112.73C133.87 112.867 133.278 112.677 133.003 112.254C132.717 111.83 132.675 111.365 132.653 110.952C132.601 110.117 132.632 109.281 132.728 108.477C132.929 106.858 133.405 105.345 134.082 104.001L134.219 103.716L134.41 103.97C135.489 105.419 135.002 107.567 133.574 108.371C132.167 109.175 130.336 108.709 129.554 107.493C128.781 106.287 128.993 104.721 129.818 103.821C130.019 103.589 130.273 103.398 130.569 103.303C130.865 103.197 131.246 103.282 131.447 103.546C131.648 103.8 131.67 104.107 131.659 104.372C131.648 104.636 131.585 104.901 131.5 105.123C130.855 106.974 129.829 108.17 129.088 108.889C128.718 109.249 128.39 109.492 128.178 109.651C127.956 109.799 127.84 109.873 127.829 109.873C127.818 109.863 127.924 109.778 128.136 109.609C128.337 109.439 128.644 109.185 128.993 108.815C129.691 108.085 130.675 106.879 131.267 105.059C131.416 104.636 131.511 104.075 131.246 103.716C130.95 103.345 130.347 103.599 130.019 104.012C129.289 104.826 129.12 106.265 129.818 107.323C130.495 108.381 132.167 108.783 133.383 108.064C134.611 107.376 135.034 105.43 134.092 104.202L134.42 104.171C133.764 105.482 133.309 106.953 133.119 108.519C133.024 109.302 133.003 110.106 133.055 110.921C133.077 111.323 133.14 111.725 133.331 112C133.532 112.275 133.87 112.402 134.23 112.307C134.59 112.222 134.928 111.989 135.235 111.714C135.531 111.45 135.764 111.09 136.028 110.741C136.515 110.032 136.917 109.27 137.245 108.455C137.901 106.837 138.187 105.028 138.102 103.218C138.018 101.896 137.721 100.605 137.256 99.473L137.668 99.4624C135.944 104.541 135.563 109.662 136.007 114.243C136.028 114.825 135.933 115.481 135.552 115.978C135.362 116.221 135.119 116.433 134.812 116.539C134.505 116.655 134.166 116.634 133.881 116.528C133.299 116.306 132.918 115.883 132.548 115.512C132.177 115.131 131.828 114.751 131.49 114.37C131.151 113.989 130.834 113.597 130.527 113.216C130.231 112.825 129.903 112.465 129.691 111.989C129.458 111.534 129.522 110.899 129.881 110.529C130.209 110.148 130.686 109.958 131.13 109.894C131.585 109.831 132.008 109.884 132.421 109.915C132.823 109.947 133.225 109.979 133.606 109.99C134.378 110.011 135.097 109.99 135.775 109.937C137.129 109.841 138.271 109.609 139.192 109.386C140.112 109.154 140.811 108.921 141.287 108.752C141.752 108.572 142.006 108.477 142.006 108.498Z"
        fill="#EBEBEB" />
    <path d="M144.069 78.5986H85.4026V83.8357H144.069V78.5986Z" fill="#F5F5F5" />
    <path d="M283.989 113.396V181.299H196.281L193.117 113.862L283.989 113.396Z" fill="#E0E0E0" />
    <path d="M193.113 113.778V181.3H280.832V113.778H193.113Z" fill="#F5F5F5" />
    <path
        d="M281.163 181.637H192.777V113.449H281.163V181.637ZM193.454 180.971H280.496V114.126H193.454V180.971Z"
        fill="#E0E0E0" />
    <path
        d="M193.115 113.629C193.146 113.587 193.707 113.936 194.596 114.539C195.485 115.142 196.701 115.989 198.024 116.962C199.346 117.935 200.51 118.856 201.335 119.544C202.161 120.231 202.647 120.686 202.615 120.718C202.584 120.76 202.044 120.369 201.177 119.734C200.214 119.025 199.071 118.179 197.812 117.237C196.553 116.296 195.411 115.449 194.448 114.74C193.601 114.095 193.083 113.672 193.115 113.629Z"
        fill="#E0E0E0" />
    <path
        d="M280.834 113.788C280.887 113.862 278.813 115.481 276.189 117.396C273.565 119.311 271.397 120.803 271.333 120.729C271.28 120.655 273.354 119.036 275.978 117.121C278.601 115.195 280.77 113.703 280.834 113.788Z"
        fill="#E0E0E0" />
    <path
        d="M193.115 181.299C193.051 181.225 195.104 179.267 197.696 176.929C200.288 174.581 202.446 172.74 202.51 172.814C202.573 172.888 200.521 174.845 197.929 177.183C195.337 179.532 193.178 181.373 193.115 181.299Z"
        fill="#E0E0E0" />
    <path
        d="M270.986 172.412C271.049 172.338 273.303 174.274 276.022 176.728C278.741 179.183 280.899 181.235 280.825 181.299C280.762 181.373 278.508 179.437 275.778 176.982C273.07 174.538 270.922 172.486 270.986 172.412Z"
        fill="#E0E0E0" />
    <path d="M271.335 120.728H202.617V172.422H271.335V120.728Z" fill="white" />
    <path
        d="M271.334 120.728C271.334 120.728 271.218 120.739 270.996 120.739C270.774 120.739 270.446 120.739 270.033 120.749C269.176 120.749 267.917 120.76 266.288 120.771C263.019 120.781 258.236 120.792 252.195 120.813C240.113 120.834 222.952 120.855 202.617 120.887L202.776 120.728C202.776 136.228 202.787 153.833 202.797 172.412V172.422L202.628 172.253C228.221 172.263 251.941 172.274 271.345 172.285L271.197 172.433C271.229 156.817 271.25 143.909 271.271 134.895C271.292 130.388 271.303 126.854 271.303 124.442C271.313 123.246 271.313 122.315 271.324 121.691C271.324 121.056 271.334 120.728 271.334 120.728C271.334 120.728 271.345 121.035 271.345 121.649C271.345 122.273 271.356 123.183 271.366 124.378C271.377 126.78 271.387 130.303 271.398 134.8C271.419 143.835 271.44 156.764 271.472 172.422V172.57H271.324C251.92 172.581 228.2 172.591 202.607 172.602H202.438V172.433V172.422C202.448 153.844 202.448 136.238 202.459 120.739V120.58H202.617C222.994 120.612 240.187 120.644 252.301 120.654C258.332 120.675 263.093 120.686 266.362 120.696C267.981 120.707 269.218 120.707 270.075 120.718C270.488 120.718 270.805 120.728 271.028 120.728C271.229 120.718 271.334 120.728 271.334 120.728Z"
        fill="#E0E0E0" />
    <path
        d="M252.884 130.25C252.884 130.345 246.081 130.43 237.702 130.43C229.312 130.43 222.52 130.345 222.52 130.25C222.52 130.155 229.312 130.07 237.702 130.07C246.092 130.07 252.884 130.155 252.884 130.25Z"
        fill="#E0E0E0" />
    <path
        d="M259.728 147.347C259.728 147.443 249.54 147.527 236.981 147.527C224.412 147.527 214.234 147.443 214.234 147.347C214.234 147.252 224.412 147.167 236.981 147.167C249.54 147.167 259.728 147.252 259.728 147.347Z"
        fill="#E0E0E0" />
    <path
        d="M259.728 151.569C259.728 151.664 249.54 151.749 236.981 151.749C224.412 151.749 214.234 151.664 214.234 151.569C214.234 151.474 224.412 151.389 236.981 151.389C249.54 151.389 259.728 151.474 259.728 151.569Z"
        fill="#E0E0E0" />
    <path
        d="M237.645 167.354C240.567 167.354 242.935 164.986 242.935 162.064C242.935 159.142 240.567 156.774 237.645 156.774C234.724 156.774 232.355 159.142 232.355 162.064C232.355 164.986 234.724 167.354 237.645 167.354Z"
        fill="#E0E0E0" />
    <path
        d="M237.647 167.375C234.716 167.375 232.336 164.995 232.336 162.064C232.336 159.133 234.716 156.753 237.647 156.753C240.578 156.753 242.958 159.133 242.958 162.064C242.958 164.995 240.578 167.375 237.647 167.375ZM237.647 156.795C234.738 156.795 232.368 159.165 232.368 162.075C232.368 164.984 234.738 167.354 237.647 167.354C240.557 167.354 242.927 164.984 242.927 162.075C242.927 159.155 240.557 156.795 237.647 156.795Z"
        fill="#E0E0E0" />
    <path
        d="M226.877 162.064C226.877 162.159 224.02 162.244 220.497 162.244C216.974 162.244 214.117 162.159 214.117 162.064C214.117 161.969 216.974 161.884 220.497 161.884C224.02 161.884 226.877 161.969 226.877 162.064Z"
        fill="#E0E0E0" />
    <path
        d="M261.856 162.064C261.856 162.159 258.66 162.244 254.725 162.244C250.778 162.244 247.594 162.159 247.594 162.064C247.594 161.969 250.789 161.884 254.725 161.884C258.66 161.884 261.856 161.969 261.856 162.064Z"
        fill="#E0E0E0" />
    <path
        d="M223.586 161.07C223.576 161.07 223.533 160.922 223.512 160.636C223.491 160.35 223.48 159.906 223.586 159.366C223.703 158.827 223.904 158.16 224.39 157.504C224.517 157.345 224.697 157.197 224.93 157.134C225.163 157.07 225.438 157.134 225.628 157.282C226.041 157.568 226.221 158.15 226.073 158.668C225.935 159.186 225.618 159.62 225.29 160.043C224.962 160.477 224.581 160.911 224.115 161.281C223.65 161.652 223.089 161.969 222.433 162.054C221.788 162.138 221.089 162.032 220.508 161.62C219.904 161.228 219.608 160.445 219.661 159.737C219.714 159.017 219.936 158.351 220.232 157.673C220.391 157.345 220.603 157.007 220.931 156.764C221.259 156.531 221.671 156.393 222.095 156.478C222.528 156.552 222.877 156.933 222.973 157.345C223.068 157.758 223.004 158.16 222.899 158.541C222.655 159.292 222.296 159.948 221.851 160.562C221.407 161.165 220.846 161.694 220.169 162.011C219.492 162.329 218.741 162.434 218.032 162.286C217.323 162.149 216.688 161.683 216.339 161.091C215.979 160.498 215.852 159.821 215.895 159.176C215.926 158.53 216.117 157.938 216.36 157.398C216.593 156.891 216.889 156.277 217.535 156.118C217.863 156.044 218.201 156.235 218.339 156.489C218.487 156.742 218.54 157.018 218.55 157.271C218.571 158.287 218.307 159.186 217.915 159.874C217.545 160.583 217.069 161.091 216.646 161.451C216.223 161.81 215.842 162.022 215.577 162.138C215.313 162.255 215.165 162.297 215.165 162.286C215.143 162.244 215.747 162.064 216.561 161.334C216.953 160.964 217.397 160.456 217.746 159.768C218.095 159.091 218.339 158.224 218.296 157.271C218.275 157.039 218.233 156.806 218.116 156.615C218 156.425 217.799 156.33 217.587 156.372C217.376 156.414 217.175 156.584 217.027 156.795C216.868 156.996 216.752 157.25 216.635 157.504C216.18 158.509 215.969 159.832 216.625 160.9C216.942 161.419 217.471 161.81 218.106 161.927C218.73 162.054 219.418 161.958 220.021 161.673C221.238 161.08 222.084 159.779 222.56 158.425C222.655 158.086 222.698 157.726 222.624 157.42C222.549 157.113 222.327 156.869 222.031 156.816C221.735 156.753 221.396 156.859 221.153 157.039C220.899 157.229 220.709 157.515 220.56 157.811C220.285 158.425 220.053 159.102 220.01 159.737C219.968 160.371 220.201 160.996 220.709 161.334C221.195 161.683 221.83 161.789 222.401 161.726C222.973 161.652 223.502 161.366 223.935 161.027C224.38 160.678 224.74 160.276 225.067 159.853C225.395 159.43 225.702 159.028 225.819 158.583C225.956 158.139 225.808 157.695 225.491 157.451C225.173 157.187 224.761 157.335 224.538 157.621C224.073 158.202 223.84 158.858 223.713 159.377C223.48 160.456 223.629 161.07 223.586 161.07Z"
        fill="#EBEBEB" />
    <path
        d="M260.182 160.224C260.182 160.234 260.139 160.255 260.044 160.298C259.949 160.34 259.811 160.414 259.621 160.488C259.251 160.647 258.679 160.858 257.928 161.07C257.177 161.271 256.246 161.483 255.135 161.578C254.585 161.631 253.982 161.652 253.358 161.641C252.723 161.652 252.046 161.514 251.39 161.588C251.062 161.631 250.744 161.779 250.533 162.022C250.311 162.266 250.279 162.615 250.427 162.932C250.575 163.249 250.829 163.546 251.072 163.863C251.326 164.17 251.58 164.477 251.855 164.784C252.13 165.09 252.416 165.397 252.712 165.693C253.009 165.99 253.315 166.307 253.675 166.434C254.035 166.572 254.437 166.413 254.68 166.085C254.934 165.757 254.998 165.323 254.976 164.868C254.596 161.165 254.892 156.912 256.309 152.744L256.468 152.289L256.648 152.733C257.04 153.696 257.293 154.785 257.357 155.896C257.431 157.42 257.188 158.933 256.637 160.308C256.362 160.996 256.013 161.641 255.611 162.234C255.209 162.805 254.712 163.44 253.95 163.641C253.569 163.757 253.083 163.599 252.86 163.249C252.628 162.911 252.596 162.53 252.575 162.191C252.532 161.514 252.554 160.837 252.638 160.181C252.797 158.869 253.188 157.642 253.739 156.552L253.855 156.32L254.003 156.521C254.871 157.695 254.479 159.441 253.326 160.097C252.183 160.742 250.692 160.372 250.067 159.388C249.443 158.404 249.612 157.145 250.279 156.404C250.438 156.214 250.649 156.055 250.893 155.981C251.136 155.896 251.443 155.97 251.601 156.182C251.76 156.394 251.781 156.637 251.771 156.849C251.76 157.071 251.707 157.272 251.633 157.462C251.104 158.965 250.279 159.938 249.676 160.52C249.369 160.816 249.115 161.006 248.935 161.133C248.755 161.26 248.66 161.313 248.66 161.313C248.66 161.303 248.745 161.229 248.914 161.102C249.073 160.964 249.327 160.753 249.612 160.456C250.184 159.864 250.977 158.88 251.464 157.409C251.58 157.071 251.665 156.616 251.443 156.32C251.199 156.013 250.713 156.224 250.448 156.563C249.856 157.219 249.718 158.393 250.289 159.25C250.84 160.118 252.194 160.435 253.188 159.853C254.183 159.293 254.521 157.716 253.76 156.722L254.024 156.7C253.495 157.758 253.125 158.965 252.966 160.234C252.892 160.869 252.871 161.525 252.913 162.181C252.934 162.509 252.977 162.826 253.135 163.059C253.294 163.281 253.58 163.387 253.866 163.313C254.151 163.239 254.437 163.059 254.68 162.837C254.924 162.625 255.114 162.329 255.326 162.054C255.717 161.483 256.045 160.858 256.32 160.202C256.86 158.88 257.092 157.42 257.018 155.949C256.955 154.881 256.712 153.833 256.331 152.902L256.669 152.892C255.273 157.018 254.966 161.176 255.326 164.889C255.336 165.365 255.273 165.894 254.955 166.296C254.807 166.498 254.606 166.667 254.352 166.751C254.109 166.847 253.823 166.825 253.59 166.741C253.114 166.561 252.808 166.212 252.511 165.916C252.215 165.609 251.929 165.302 251.654 164.985C251.379 164.678 251.115 164.36 250.871 164.043C250.628 163.726 250.364 163.429 250.194 163.048C250.004 162.678 250.057 162.16 250.353 161.863C250.617 161.557 251.009 161.398 251.369 161.356C251.739 161.303 252.088 161.345 252.416 161.366C252.744 161.398 253.061 161.419 253.379 161.419C254.003 161.44 254.596 161.419 255.135 161.377C256.235 161.292 257.166 161.112 257.907 160.922C258.658 160.731 259.23 160.541 259.61 160.403C259.981 160.287 260.182 160.213 260.182 160.224Z"
        fill="#EBEBEB" />
    <path d="M261.854 135.953H214.223V140.206H261.854V135.953Z" fill="#F5F5F5" />
    <path
        d="M385.945 353.848C380.338 350.325 373.916 348.114 367.335 347.447C364.298 347.13 360.976 347.225 358.532 349.066C358.014 349.457 357.506 350.039 357.622 350.674C357.707 351.14 358.109 351.489 358.479 351.774C366.055 357.541 377.513 358.271 385.945 353.848Z"
        fill="#E0E0E0" />
    <path
        d="M385.469 353.319C381.258 350.029 377.015 346.717 373.45 342.75C369.885 338.771 366.986 334.053 365.917 328.816C365.589 327.229 365.494 325.409 366.51 324.15C376.084 331.63 383.617 341.311 385.469 353.319Z"
        fill="#E0E0E0" />
    <path
        d="M385.842 353.774C385.122 348.537 384.858 343.141 386.064 337.999C387.27 332.847 390.074 327.916 394.464 324.975C396.125 328.847 395.406 333.302 394.242 337.343C392.443 343.596 389.608 349.542 385.905 354.895"
        fill="#E0E0E0" />
    <path
        d="M395.237 370.607C389.535 371.295 384.572 374.31 380.319 378.161C376.066 382.012 373.04 387.207 371.781 392.814C377.378 392.465 382.118 388.529 385.556 384.107C388.995 379.685 391.386 374.839 395.163 370.702"
        fill="#E0E0E0" />
    <path
        d="M397.277 373.294C392.686 361.984 394.347 348.357 401.53 338.476C404.778 350.029 403.583 363.085 397.277 373.294Z"
        fill="#E0E0E0" />
    <path
        d="M409.69 388.075C404.516 387.757 399.258 388.984 394.761 391.576C390.265 394.158 386.562 398.094 384.245 402.728C383.927 403.363 383.652 404.156 384.076 404.727C384.446 405.214 385.155 405.267 385.758 405.225C390.773 404.897 395.216 401.881 398.888 398.443C402.559 395.004 405.754 391.037 409.806 388.064"
        fill="#E0E0E0" />
    <path
        d="M409.287 387.26C406.62 378.722 406.451 369.411 408.811 360.788C409.742 357.382 411.307 353.795 414.46 352.197C414.725 352.06 415.042 351.944 415.328 352.049C415.592 352.155 415.751 352.42 415.878 352.684C416.999 355.022 417.327 357.689 417.211 360.281C417.095 362.873 416.555 365.433 416.026 367.972C415.032 372.67 414.503 377.727 411.932 381.779C411.318 382.742 410.778 383.779 410.292 384.816C409.805 385.842 409.805 386.212 409.35 387.027"
        fill="#E0E0E0" />
    <path
        d="M442.135 392.158C439.702 382.901 442.283 371.675 448.113 364.09C448.547 363.529 449.107 362.936 449.816 363C450.895 363.095 451.171 364.534 451.118 365.613C450.705 375.061 447.542 384.393 442.135 392.158Z"
        fill="#E0E0E0" />
    <path
        d="M445.098 394.179C456.344 397.11 469.241 394.264 478.604 387.366C473.061 384.551 466.522 383.758 460.47 385.144C454.408 386.53 448.864 389.238 445.098 394.179Z"
        fill="#E0E0E0" />
    <path
        d="M447.598 388.021C453.893 377.748 465.975 371.051 478.005 370.438C476.619 375.336 472.598 379.134 468.059 381.43C463.521 383.726 458.453 384.731 453.459 385.694C451.523 386.075 448.857 386.498 447.598 388.021Z"
        fill="#E0E0E0" />
    <path
        d="M442.762 358.112C444.465 352.272 446.179 346.379 446.655 340.306C447.121 334.233 446.253 327.895 443.111 322.69C437.228 334.074 436.636 347.373 442.593 358.725"
        fill="#E0E0E0" />
    <path
        d="M462.566 348.103C469.443 335.597 483.483 325.61 497.692 324.213C492.212 337.851 477.273 348.389 462.566 348.103Z"
        fill="#E0E0E0" />
    <path
        d="M458.238 350.547C468.501 352.113 477.24 358.662 486.836 362.64C488.889 363.486 491.1 364.164 493.3 363.878C495.501 363.592 497.67 362.111 498.167 359.953C498.58 358.154 497.755 356.25 496.474 354.927C495.184 353.615 493.48 352.79 491.777 352.081C481.334 347.733 470.13 347.627 459.127 350.261"
        fill="#E0E0E0" />
    <path
        d="M452.304 357.752C454.632 358.419 455.426 359.625 457.256 361.19C463.498 366.502 470.978 370.353 478.934 372.331C479.76 372.532 480.849 372.617 481.262 371.866C481.622 371.21 481.167 370.416 480.701 369.834C477.368 365.666 472.618 362.809 467.614 360.947C462.609 359.085 458.272 356.842 452.304 357.318"
        fill="#E0E0E0" />
    <path
        d="M445.605 314.279C453.953 322.066 465.697 326.065 477.06 324.986C477.578 324.933 478.139 324.859 478.488 324.467C479.282 323.61 478.329 322.277 477.409 321.558C468.162 314.353 456.958 311.359 445.605 314.279Z"
        fill="#E0E0E0" />
    <path
        d="M453.555 311.37C464.579 303.096 479.708 300.61 492.806 304.895C487.866 309.772 480.999 312.385 474.101 313.105C467.192 313.824 460.284 313.062 453.555 311.37Z"
        fill="#E0E0E0" />
    <path
        d="M450.391 291.394C449.481 282.158 450.073 274.879 449.428 265.6C449.375 264.86 449.216 263.971 448.528 263.696C447.566 263.326 446.762 264.511 446.444 265.494C443.693 274.043 445.196 283.851 450.38 291.183"
        fill="#E0E0E0" />
    <path
        d="M449.723 292.421C455.975 288.548 460.673 283.502 465.011 277.556C468.026 273.419 470.576 268.468 469.888 263.4C465.646 263.315 461.615 265.653 458.853 268.88C456.092 272.107 454.452 276.127 453.225 280.19C452.019 284.253 451.162 288.432 449.723 292.421Z"
        fill="#E0E0E0" />
    <path
        d="M464.748 288.241C478.481 283.163 491.293 275.609 502.381 266.055C497.884 264.246 492.743 265.325 488.246 267.145C477.973 271.292 469.583 278.286 464.547 288.146"
        fill="#E0E0E0" />
    <path
        d="M453.953 297.467C460.904 298.229 467.961 298.727 474.849 297.573C481.62 296.441 488.031 293.754 494.358 291.088C494.887 290.866 495.458 290.601 495.681 290.083C495.935 289.522 495.659 288.824 495.205 288.411C494.75 287.998 494.136 287.797 493.543 287.628C486.656 285.702 479.229 286.602 472.458 288.887C465.686 291.172 460.132 293.891 453.953 297.467Z"
        fill="#E0E0E0" />
    <path
        d="M414.279 314.596C409.539 305.032 409.846 293.86 413.94 283.999C416.818 288.39 417.178 293.987 416.649 299.213C416.12 304.44 414.533 309.814 414.427 315.072"
        fill="#E0E0E0" />
    <path
        d="M395.341 305.043C383.502 304.821 371.674 309.857 363.633 318.553C369.536 319.484 375.62 317.961 380.995 315.337C386.369 312.713 391.141 309.031 395.87 305.381"
        fill="#E0E0E0" />
    <path
        d="M382.614 300.789C376.827 300.324 371.251 299.604 365.686 301.308C360.121 303.011 355.053 306.883 352.789 312.247C358.206 312.861 363.697 311.496 368.659 309.253C373.621 307 378.128 303.889 382.614 300.789Z"
        fill="#E0E0E0" />
    <path
        d="M401.468 300.98C396.263 297.562 390.909 294.092 384.847 292.674C378.784 291.257 371.759 292.304 367.527 296.875C372.436 299.752 378.393 300.091 384.085 300.091C389.777 300.091 396.749 300.017 402.124 301.921"
        fill="#E0E0E0" />
    <path
        d="M401.499 301.255C392.59 292.516 389.215 276.805 392.802 264.849C399.795 275.493 402.927 288.612 401.499 301.255Z"
        fill="#E0E0E0" />
    <path
        d="M425.98 276.487C427.663 272.583 428.837 268.489 430.35 264.511C431.852 260.533 433.725 256.629 436.571 253.476C439.417 250.323 443.353 247.974 447.595 247.763C444.94 259.792 436.952 270.541 426.192 276.551"
        fill="#E0E0E0" />
    <path
        d="M421.549 281.65C418.766 277.82 415.56 272.636 411.794 269.779C408.027 266.923 403.118 265.198 398.516 266.288C403.192 274.646 412.027 280.539 421.549 281.65Z"
        fill="#E0E0E0" />
    <path
        d="M422.435 276.804C420.616 272.181 418.775 267.494 418.045 262.585C417.304 257.665 417.759 252.407 420.267 248.122C425.155 257.358 426.731 267.282 422.679 276.91"
        fill="#E0E0E0" />
    <path
        d="M426.023 248.112C428.795 238.949 437.175 232.21 446.231 229.11C447.374 228.719 448.58 228.391 449.776 228.581C450.971 228.761 452.135 229.576 452.389 230.761C452.717 232.316 451.437 233.712 450.22 234.749C443.174 240.78 434.879 245.361 426.023 248.112Z"
        fill="#E0E0E0" />
    <path
        d="M426.121 240.621C426.47 234.717 426.84 228.729 428.766 223.132C430.691 217.535 434.384 212.288 439.769 209.844C440.689 215.811 438.055 221.746 434.881 226.878C431.707 232.009 427.888 236.854 425.973 242.578"
        fill="#E0E0E0" />
    <path
        d="M425.983 244.694C423.698 238.018 423.455 229.544 419.466 223.725C416.673 219.662 412.197 216.89 409.785 212.584C408.188 216.604 408.674 221.238 410.346 225.227C412.018 229.216 414.779 232.654 417.741 235.818C420.693 238.971 423.232 241.351 425.983 244.694Z"
        fill="#E0E0E0" />
    <path
        d="M426.026 441.26C425.846 441.26 425.698 396.729 425.676 341.819C425.666 286.887 425.793 242.367 425.973 242.367C426.152 242.367 426.301 286.887 426.322 341.819C426.332 396.729 426.205 441.26 426.026 441.26Z"
        fill="#E0E0E0" />
    <path
        d="M464.936 307.878C464.947 307.92 464.355 308.143 463.265 308.502C462.059 308.904 460.514 309.433 458.662 310.058C454.78 311.38 449.437 313.295 443.649 315.676C437.915 318.141 432.509 320.13 429.43 322.806C427.896 324.129 427.007 325.547 426.573 326.584C426.129 327.631 426.055 328.266 425.991 328.255C425.97 328.255 425.981 328.096 426.013 327.79C426.066 327.493 426.14 327.038 426.341 326.488C426.711 325.388 427.578 323.864 429.134 322.457C430.678 321.05 432.837 319.781 435.302 318.627C437.767 317.474 440.507 316.268 443.417 315.083C449.225 312.703 454.6 310.851 458.536 309.634C460.503 309.021 462.101 308.566 463.212 308.27C464.302 307.973 464.926 307.836 464.936 307.878Z"
        fill="#E0E0E0" />
    <path
        d="M477.687 276.55C477.697 276.572 477.539 276.741 477.221 277.048C476.84 277.407 476.375 277.852 475.793 278.391C474.471 279.597 472.661 281.237 470.461 283.237C465.858 287.342 459.606 292.897 452.708 299.044C445.778 305.212 439.789 311.105 435.642 315.548C433.568 317.76 431.928 319.6 430.807 320.881C430.288 321.473 429.855 321.96 429.516 322.351C429.22 322.69 429.051 322.859 429.029 322.838C429.008 322.827 429.146 322.626 429.41 322.267C429.675 321.907 430.077 321.378 430.606 320.711C431.664 319.378 433.251 317.495 435.293 315.231C439.366 310.703 445.323 304.736 452.274 298.557C459.225 292.399 465.552 286.877 470.154 282.888C472.407 280.952 474.259 279.365 475.624 278.19C476.237 277.683 476.735 277.27 477.137 276.942C477.486 276.667 477.676 276.529 477.687 276.55Z"
        fill="#E0E0E0" />
    <path
        d="M445.226 305.318C445.046 305.233 446.496 301.89 447.935 297.668C449.395 293.436 450.072 289.871 450.262 289.903C450.431 289.924 450.019 293.595 448.548 297.869C447.818 300.006 447.025 301.89 446.39 303.223C445.755 304.556 445.3 305.349 445.226 305.318Z"
        fill="#E0E0E0" />
    <path
        d="M426.064 332.265C426.033 332.286 425.652 331.852 424.996 331.027C424.276 330.096 423.356 328.922 422.256 327.515C419.96 324.542 416.786 320.447 413.22 315.961C409.655 311.475 406.386 307.444 404.016 304.535C402.894 303.149 401.963 301.996 401.223 301.075C400.567 300.25 400.228 299.784 400.26 299.753C400.292 299.721 400.704 300.134 401.413 300.916C402.122 301.689 403.138 302.831 404.365 304.249C406.83 307.085 410.163 311.073 413.728 315.57C417.294 320.066 420.415 324.214 422.626 327.25C423.726 328.774 424.604 330.011 425.197 330.879C425.789 331.747 426.096 332.244 426.064 332.265Z"
        fill="#E0E0E0" />
    <path
        d="M417.53 321.315C417.424 321.431 415.149 318.723 413.953 314.628C413.075 311.74 413.033 309.095 413.139 307.878L413.424 307.899C413.298 308.418 413.202 308.682 413.149 308.682C413.096 308.672 413.096 308.386 413.139 307.857L413.424 307.878C413.53 309.074 413.71 311.634 414.567 314.438C415.731 318.416 417.709 321.209 417.53 321.315Z"
        fill="#E0E0E0" />
    <path
        d="M406.513 307.455C406.428 307.539 405.698 306.619 404.016 306.005C402.344 305.36 399.837 305.222 397.086 305.455C394.335 305.656 391.87 306.153 390.114 306.577C388.358 307.01 387.279 307.36 387.247 307.264C387.215 307.19 388.241 306.693 389.998 306.132C391.743 305.582 394.24 305.011 397.044 304.799C399.826 304.556 402.471 304.778 404.196 305.572C405.942 306.365 406.576 307.444 406.513 307.455Z"
        fill="#E0E0E0" />
    <path
        d="M403.91 304.101C403.857 304.196 402.461 303.519 400.091 302.705C397.721 301.89 394.357 301.033 390.548 300.737C386.739 300.451 383.279 300.79 380.825 301.234C378.36 301.678 376.868 302.133 376.836 302.027C376.826 301.985 377.185 301.837 377.852 301.594C378.518 301.35 379.502 301.065 380.74 300.779C383.205 300.208 386.728 299.795 390.611 300.091C394.484 300.388 397.901 301.34 400.26 302.271C401.435 302.736 402.376 303.159 402.99 303.509C403.593 303.858 403.921 304.059 403.91 304.101Z"
        fill="#E0E0E0" />
    <path
        d="M425.981 289.903C425.812 289.945 424.563 285.607 423.188 280.222C421.823 274.826 420.85 270.425 421.019 270.383C421.188 270.34 422.437 274.678 423.812 280.074C425.177 285.449 426.15 289.86 425.981 289.903Z"
        fill="#E0E0E0" />
    <path
        d="M426.161 289.902C425.97 289.966 425.166 287.067 423.071 284.105C421.03 281.079 418.427 279.555 418.522 279.407C418.554 279.344 419.273 279.608 420.278 280.317C421.283 281.015 422.521 282.2 423.6 283.734C425.769 286.813 426.309 289.892 426.161 289.902Z"
        fill="#E0E0E0" />
    <path
        d="M426.024 417.519C425.95 417.529 425.823 416.45 425.326 414.556C424.829 412.662 423.898 409.986 422.353 406.843C419.274 400.559 413.677 392.582 406.568 384.604C403.045 380.573 399.627 376.775 396.718 373.146C393.808 369.517 391.417 366.058 389.671 362.989C387.926 359.932 386.783 357.308 386.117 355.456C385.789 354.525 385.545 353.806 385.418 353.298C385.281 352.801 385.217 352.536 385.238 352.526C385.291 352.505 385.619 353.541 386.349 355.361C387.079 357.17 388.275 359.752 390.063 362.757C391.84 365.761 394.253 369.179 397.173 372.765C400.082 376.362 403.51 380.139 407.044 384.181C414.175 392.19 419.761 400.263 422.755 406.653C424.257 409.838 425.136 412.578 425.559 414.503C425.77 415.466 425.908 416.217 425.95 416.736C426.024 417.244 426.045 417.519 426.024 417.519Z"
        fill="#E0E0E0" />
    <path
        d="M461.181 377.801C461.202 377.844 460.525 378.193 459.34 378.838C458.155 379.505 456.483 380.52 454.558 382.002C452.632 383.472 450.484 385.408 448.284 387.725C446.083 390.053 443.809 392.751 441.491 395.65C436.857 401.458 432.53 406.6 429.938 410.705C428.626 412.737 427.663 414.461 427.039 415.657C426.404 416.863 426.076 417.529 426.024 417.508C426.002 417.498 426.066 417.318 426.193 416.99C426.33 416.662 426.521 416.164 426.817 415.551C427.378 414.302 428.277 412.546 429.557 410.462C432.075 406.262 436.371 401.046 440.994 395.248C443.311 392.349 445.618 389.64 447.861 387.313C450.114 384.996 452.315 383.07 454.293 381.631C456.272 380.192 458.007 379.219 459.234 378.616C459.848 378.309 460.345 378.119 460.673 377.981C461.001 377.844 461.181 377.78 461.181 377.801Z"
        fill="#E0E0E0" />
    <path
        d="M461.868 390.688C461.879 390.783 460.376 390.963 457.975 391.248C455.573 391.555 452.24 391.957 448.738 393.068C445.258 394.2 442.359 395.935 440.465 397.406C438.56 398.876 437.661 400.093 437.566 400.03C437.534 400.009 437.725 399.681 438.148 399.13C438.56 398.58 439.248 397.861 440.179 397.057C442.041 395.459 444.961 393.618 448.537 392.454C452.124 391.322 455.51 390.994 457.932 390.793C460.366 390.624 461.868 390.603 461.868 390.688Z"
        fill="#E0E0E0" />
    <path
        d="M438.711 398.623C438.51 398.506 440.266 395.83 441.621 392.222C442.901 388.582 443.197 385.387 443.43 385.43C443.514 385.44 443.514 386.234 443.366 387.524C443.218 388.805 442.911 390.582 442.234 392.444C441.557 394.306 440.658 395.872 439.981 396.962C439.282 398.041 438.785 398.665 438.711 398.623Z"
        fill="#E0E0E0" />
    <path
        d="M472.577 343.215C472.587 343.237 472.365 343.353 471.952 343.543C471.466 343.766 470.863 344.041 470.122 344.379C469.318 344.718 468.345 345.162 467.255 345.733C466.155 346.305 464.874 346.887 463.531 347.691C462.854 348.072 462.145 348.484 461.404 348.897C460.664 349.32 459.934 349.828 459.161 350.315C457.595 351.267 456.03 352.431 454.347 353.626C451.068 356.112 447.618 359.054 444.307 362.46C441.017 365.899 438.192 369.443 435.822 372.797C434.69 374.511 433.568 376.119 432.669 377.717C432.214 378.51 431.727 379.251 431.336 380.002C430.944 380.753 430.563 381.473 430.204 382.171C429.442 383.536 428.902 384.837 428.373 385.959C427.834 387.07 427.432 388.064 427.114 388.879C426.808 389.63 426.554 390.244 426.342 390.741C426.162 391.164 426.056 391.386 426.035 391.376C426.014 391.365 426.078 391.132 426.226 390.698C426.395 390.191 426.617 389.566 426.882 388.794C427.167 387.969 427.538 386.964 428.045 385.821C428.543 384.678 429.061 383.356 429.791 381.97C430.14 381.272 430.511 380.531 430.891 379.769C431.283 379.008 431.748 378.246 432.203 377.452C433.082 375.834 434.192 374.204 435.324 372.469C437.684 369.062 440.519 365.476 443.831 362.016C447.174 358.588 450.665 355.636 453.988 353.15C455.68 351.955 457.278 350.801 458.865 349.86C459.648 349.384 460.388 348.886 461.14 348.474C461.891 348.061 462.61 347.67 463.298 347.299C464.652 346.516 465.964 345.956 467.086 345.416C468.207 344.866 469.191 344.464 470.016 344.157C470.778 343.861 471.402 343.628 471.9 343.438C472.333 343.268 472.566 343.194 472.577 343.215Z"
        fill="#E0E0E0" />
    <path
        d="M444.74 361.857C444.687 361.847 444.994 360.768 446.274 359.583C447.522 358.398 449.797 357.297 452.442 357.213C455.076 357.139 457.372 357.879 458.928 358.482C460.493 359.096 461.414 359.604 461.382 359.678C461.35 359.762 460.366 359.413 458.779 358.916C457.203 358.429 454.96 357.795 452.463 357.858C449.977 357.932 447.819 358.895 446.57 359.921C445.3 360.958 444.846 361.921 444.74 361.857Z"
        fill="#E0E0E0" />
    <path
        d="M440.581 366.153C440.401 366.058 441.977 363.751 442.326 360.461C442.739 357.17 441.744 354.568 441.935 354.515C442.009 354.483 442.358 355.086 442.654 356.176C442.961 357.255 443.162 358.821 442.961 360.535C442.76 362.249 442.199 363.73 441.66 364.703C441.131 365.687 440.644 366.195 440.581 366.153Z"
        fill="#E0E0E0" />
    <path
        d="M395.27 423.898C396.232 440.911 401.353 458.22 409.246 475.719H443.546C451.068 458.4 455.84 441.112 456.686 423.898H395.27Z"
        fill="#E0E0E0" />
    <path
        d="M451.129 451.438C451.129 451.618 439.84 451.755 425.906 451.755C411.972 451.755 400.684 451.607 400.684 451.438C400.684 451.258 411.972 451.121 425.906 451.121C439.83 451.11 451.129 451.258 451.129 451.438Z"
        fill="#FAFAFA" />
    <path
        d="M450.359 457.596C450.359 457.776 439.768 457.913 426.713 457.913C413.657 457.913 403.066 457.765 403.066 457.596C403.066 457.416 413.646 457.278 426.713 457.278C439.779 457.278 450.359 457.426 450.359 457.596Z"
        fill="#FAFAFA" />
    <path
        d="M409.794 435.071C409.974 435.071 410.112 438.605 410.112 442.974C410.112 447.333 409.963 450.877 409.794 450.877C409.614 450.877 409.477 447.344 409.477 442.974C409.477 438.615 409.625 435.071 409.794 435.071Z"
        fill="#FAFAFA" />
    <path
        d="M428.173 435.071C428.353 435.071 428.49 438.731 428.49 443.249C428.49 447.767 428.342 451.427 428.173 451.427C427.993 451.427 427.855 447.767 427.855 443.249C427.855 438.731 428.004 435.071 428.173 435.071Z"
        fill="#FAFAFA" />
    <path
        d="M445.427 434.933C445.607 434.933 445.744 438.668 445.744 443.281C445.744 447.894 445.596 451.628 445.427 451.628C445.247 451.628 445.109 447.894 445.109 443.281C445.109 438.668 445.247 434.933 445.427 434.933Z"
        fill="#FAFAFA" />
    <path
        d="M455.593 435.071C455.593 435.251 442.347 435.388 426.011 435.388C409.676 435.388 396.43 435.24 396.43 435.071C396.43 434.902 409.676 434.753 426.011 434.753C442.347 434.753 455.593 434.891 455.593 435.071Z"
        fill="#FAFAFA" />
    <path
        d="M498.306 475.719C498.306 475.867 393.617 475.994 264.509 475.994C135.359 475.994 30.6914 475.867 30.6914 475.719C30.6914 475.571 135.359 475.444 264.509 475.444C393.617 475.444 498.306 475.571 498.306 475.719Z"
        fill="#263238" />
    <path d="M96.6997 394.369L96.1602 356.514H122.324L123.224 394.369H96.6997Z" fill="#EBEBEB" />
    <path
        d="M133.825 428.659C133.825 428.775 120.938 428.87 105.047 428.87C89.156 428.87 76.2695 428.775 76.2695 428.659C76.2695 428.542 89.1454 428.447 105.047 428.447C120.938 428.447 133.825 428.542 133.825 428.659Z"
        fill="#263238" />
    <path
        d="M150.827 475.719H65.4673C51.872 475.719 40.8477 465.594 40.8477 453.099C40.8477 440.604 51.872 430.479 65.4673 430.479H150.827C152.636 430.479 154.107 431.823 154.107 433.494V472.714C154.107 474.375 152.636 475.719 150.827 475.719Z"
        fill="#4CD685" />
    <path
        d="M326.623 437.991H129.57V430.479H326.623C328.876 430.479 330.707 432.161 330.707 434.235C330.707 436.309 328.876 437.991 326.623 437.991Z"
        fill="#4CD685" />
    <path
        d="M326.623 475.719H129.57V468.208H326.623C328.876 468.208 330.707 469.89 330.707 471.963C330.707 474.037 328.876 475.719 326.623 475.719Z"
        fill="#4CD685" />
    <path
        d="M324.709 468.207H152.012C142.924 468.207 135.57 461.447 135.57 453.099C135.57 444.751 142.934 437.991 152.012 437.991H324.709C320.086 448.063 320.086 458.135 324.709 468.207Z"
        fill="#F5F5F5" />
    <path opacity="0.3"
        d="M135.57 475.719H65.2028C51.7556 475.719 40.8477 465.7 40.8477 453.342C40.8477 440.72 51.9884 430.479 65.7318 430.479H137.443C119.616 440.403 120.949 464.166 135.57 475.719Z"
        fill="black" />
    <path
        d="M303.728 454.506C303.728 454.622 268.285 454.718 224.569 454.718C180.841 454.718 145.398 454.622 145.398 454.506C145.398 454.39 180.841 454.294 224.569 454.294C268.285 454.294 303.728 454.39 303.728 454.506Z"
        fill="#263238" />
    <path
        d="M320.021 461.224C320.021 461.341 284.578 461.436 240.862 461.436C197.134 461.436 161.691 461.341 161.691 461.224C161.691 461.108 197.134 461.013 240.862 461.013C284.578 461.013 320.021 461.108 320.021 461.224Z"
        fill="#263238" />
    <path
        d="M315.22 448.275C315.22 448.391 279.777 448.486 236.061 448.486C192.334 448.486 156.891 448.391 156.891 448.275C156.891 448.158 192.334 448.063 236.061 448.063C279.777 448.063 315.22 448.158 315.22 448.275Z"
        fill="#263238" />
    <path
        d="M126.894 472.545C126.894 472.661 110.305 472.757 89.843 472.757C69.3707 472.757 52.7812 472.661 52.7812 472.545C52.7812 472.429 69.3707 472.333 89.843 472.333C110.305 472.344 126.894 472.429 126.894 472.545Z"
        fill="#263238" />
    <path
        d="M126.894 434.235C126.894 434.351 110.305 434.447 89.843 434.447C69.3707 434.447 52.7812 434.351 52.7812 434.235C52.7812 434.119 69.3707 434.023 89.843 434.023C110.305 434.023 126.894 434.119 126.894 434.235Z"
        fill="#263238" />
    <path
        d="M154.955 431.124H86.122C75.5631 431.124 67.0039 423.263 67.0039 413.561C67.0039 403.859 75.5631 395.999 86.122 395.999H154.945V431.124H154.955Z"
        fill="#455A64" />
    <path
        d="M288.906 401.828H135.898V395.999H288.906C290.663 395.999 292.08 397.3 292.08 398.919C292.08 400.527 290.663 401.828 288.906 401.828Z"
        fill="#455A64" />
    <path
        d="M288.906 431.124H135.898V425.294H288.906C290.663 425.294 292.08 426.596 292.08 428.214C292.08 429.823 290.663 431.124 288.906 431.124Z"
        fill="#455A64" />
    <path
        d="M287.426 425.295H153.325C146.268 425.295 140.555 420.036 140.555 413.561C140.555 407.086 146.268 401.828 153.325 401.828H287.426C283.829 409.647 283.829 417.476 287.426 425.295Z"
        fill="#F5F5F5" />
    <path opacity="0.3"
        d="M140.555 431.124H86.1737C75.5831 431.124 66.9922 423.231 66.9922 413.508C66.9922 403.838 75.5302 395.999 86.0468 395.999H141.994C128.166 403.701 129.203 422.152 140.555 431.124Z"
        fill="black" />
    <path
        d="M271.134 414.651C271.134 414.767 243.605 414.863 209.664 414.863C175.702 414.863 148.184 414.767 148.184 414.651C148.184 414.535 175.702 414.439 209.664 414.439C243.615 414.439 271.134 414.535 271.134 414.651Z"
        fill="#263238" />
    <path
        d="M283.786 419.867C283.786 419.983 256.257 420.078 222.316 420.078C188.355 420.078 160.836 419.983 160.836 419.867C160.836 419.751 188.355 419.655 222.316 419.655C256.257 419.655 283.786 419.751 283.786 419.867Z"
        fill="#263238" />
    <path
        d="M280.052 407.256C280.052 407.372 252.523 407.467 218.582 407.467C184.62 407.467 157.102 407.372 157.102 407.256C157.102 407.139 184.62 407.044 218.582 407.044C252.533 407.044 280.052 407.139 280.052 407.256Z"
        fill="#263238" />
    <path
        d="M133.825 398.908C133.825 399.024 120.938 399.119 105.047 399.119C89.156 399.119 76.2695 399.024 76.2695 398.908C76.2695 398.792 89.1454 398.696 105.047 398.696C120.938 398.707 133.825 398.792 133.825 398.908Z"
        fill="#263238" />
    <path d="M197.402 407.404V421.475L202.714 418.344L208.638 421.475V407.404H197.402Z"
        fill="#4CD685" />
    <path
        d="M111.586 386.614C111.586 386.794 106.095 386.942 99.3339 386.942C92.5627 386.942 87.0823 386.794 87.0823 386.614C87.0823 386.434 92.5733 386.286 99.3339 386.286C106.095 386.297 111.586 386.434 111.586 386.614Z"
        fill="#E0E0E0" />
    <path
        d="M111.585 363.243C111.585 363.423 106.094 363.571 99.3337 363.571C92.5625 363.571 87.082 363.423 87.082 363.243C87.082 363.063 92.5731 362.915 99.3337 362.915C106.094 362.926 111.585 363.063 111.585 363.243Z"
        fill="#E0E0E0" />
    <path
        d="M111.585 369.083C111.585 369.263 106.094 369.411 99.3337 369.411C92.5625 369.411 87.082 369.263 87.082 369.083C87.082 368.903 92.5731 368.755 99.3337 368.755C106.094 368.766 111.585 368.914 111.585 369.083Z"
        fill="#E0E0E0" />
    <path
        d="M111.585 374.934C111.585 375.114 106.094 375.262 99.3337 375.262C92.5625 375.262 87.082 375.114 87.082 374.934C87.082 374.754 92.5731 374.606 99.3337 374.606C106.094 374.606 111.585 374.754 111.585 374.934Z"
        fill="#E0E0E0" />
    <path
        d="M111.585 380.774C111.585 380.954 106.094 381.102 99.3337 381.102C92.5625 381.102 87.082 380.954 87.082 380.774C87.082 380.594 92.5731 380.446 99.3337 380.446C106.094 380.446 111.585 380.594 111.585 380.774Z"
        fill="#E0E0E0" />
    <path
        d="M85.1055 355.255H307.793C310.544 367.792 310.153 381.589 307.793 396.168H86.0471V393.385H105.186C108.72 393.385 111.587 390.444 111.587 386.826V364.184C111.587 360.555 108.72 357.625 105.186 357.625H85.1055V355.255Z"
        fill="#4CD685" />
    <path
        d="M300.103 396.961C299.923 396.961 299.785 387.566 299.785 375.971C299.785 364.375 299.923 354.98 300.103 354.98C300.272 354.98 300.42 364.375 300.42 375.971C300.42 387.556 300.282 396.961 300.103 396.961Z"
        fill="#263238" />
    <path
        d="M126.579 396.961C126.399 396.961 126.262 387.566 126.262 375.971C126.262 364.375 126.399 354.98 126.579 354.98C126.759 354.98 126.897 364.375 126.897 375.971C126.897 387.556 126.759 396.961 126.579 396.961Z"
        fill="#263238" />
    <path
        d="M304.005 396.961C303.836 396.961 303.688 387.566 303.688 375.971C303.688 364.375 303.825 354.98 304.005 354.98C304.185 354.98 304.322 364.375 304.322 375.971C304.322 387.556 304.185 396.961 304.005 396.961Z"
        fill="#263238" />
    <path
        d="M122.931 396.961C122.751 396.961 122.613 387.566 122.613 375.971C122.613 364.375 122.751 354.98 122.931 354.98C123.1 354.98 123.248 364.375 123.248 375.971C123.248 387.556 123.111 396.961 122.931 396.961Z"
        fill="#263238" />
    <path d="M172.348 367.845H177.659V382.403H186.62V386.614H172.348V367.845Z" fill="white" />
    <path
        d="M201.494 382.964H193.559L192.089 386.614H186.672L194.956 367.845H200.183L208.498 386.614H202.976L201.494 382.964ZM199.939 379.049L197.527 373.04L195.115 379.049H199.939Z"
        fill="white" />
    <path
        d="M238.387 367.845L232.303 386.614H226.622L223.025 375.188L219.269 386.614H213.587L207.504 367.845H212.974L216.751 379.832L220.718 367.845H225.596L229.373 379.938L233.319 367.845H238.387Z"
        fill="white" />
    <path
        d="M139.646 313.242L118.729 244.874L94.7974 312.957L94.5117 312.851L118.75 243.933L139.932 313.158L139.646 313.242Z"
        fill="#263238" />
    <path
        d="M94.6484 312.904C94.6484 312.904 100.192 319.083 109.503 319.083C118.813 319.083 126.822 319.083 126.822 319.083C126.822 319.083 135.72 318.554 139.783 313.2L94.6484 312.904Z"
        fill="#455A64" />
    <path
        d="M219.166 312.068L198.249 243.7L174.306 311.771L174.031 311.676L198.27 242.748L219.451 311.972L219.166 312.068Z"
        fill="#263238" />
    <path
        d="M174.168 311.729C174.168 311.729 179.712 317.908 189.022 317.908C198.333 317.908 206.342 317.908 206.342 317.908C206.342 317.908 215.24 317.379 219.302 312.015L174.168 311.729Z"
        fill="#455A64" />
    <path d="M208.796 243.573H109.82V246.059H208.796V243.573Z" fill="#455A64" />
    <path
        d="M133.289 355.255V352.759C133.289 352.759 140.145 351.923 142.557 345.585C142.716 345.945 153.254 340.793 153.719 334.106H157.729V355.245H133.289V355.255Z"
        fill="#455A64" />
    <path
        d="M181.428 355.255V352.759C181.428 352.759 174.572 351.923 172.16 345.585C172.001 345.945 161.464 340.793 160.998 334.106H156.988V355.245H181.428V355.255Z"
        fill="#455A64" />
    <g opacity="0.3">
        <path
            d="M161.609 335.375L153.198 336.307C153.124 336.952 153.452 337.597 153.928 338.031C154.404 338.454 155.018 338.687 155.631 338.856C156.933 339.205 158.372 339.28 159.599 338.698C160.816 338.105 161.768 336.761 161.609 335.375Z"
            fill="black" />
    </g>
    <path
        d="M162.637 332.519C162.637 335.608 160.214 338.116 157.231 338.116C154.247 338.116 151.824 335.608 151.824 332.519C151.824 329.429 154.247 326.922 157.231 326.922C160.214 326.922 162.637 329.429 162.637 332.519Z"
        fill="#455A64" />
    <path
        d="M159.431 306.63L161.41 302.874L158.288 229.882H156.109L153.062 302.874L155.04 306.63L148.883 316.998L157.23 330.35L165.589 316.998L159.431 306.63Z"
        fill="#455A64" />
    <path
        d="M161.631 245.149C161.631 247.667 159.663 249.709 157.229 249.709C154.796 249.709 152.828 247.667 152.828 245.149C152.828 242.631 154.796 240.589 157.229 240.589C159.663 240.589 161.631 242.631 161.631 245.149Z"
        fill="#455A64" />
    <path
        d="M161.629 245.149C161.608 245.149 161.629 244.747 161.46 244.06C161.291 243.382 160.868 242.388 159.884 241.594C159.397 241.214 158.762 240.875 158.043 240.748C157.323 240.621 156.509 240.642 155.736 240.96C155.345 241.108 154.975 241.309 154.636 241.584C154.297 241.848 153.98 242.166 153.737 242.536C153.483 242.906 153.271 243.319 153.134 243.763C152.996 244.208 152.922 244.673 152.922 245.149C152.933 245.625 152.996 246.091 153.134 246.535C153.271 246.98 153.483 247.392 153.737 247.763C153.991 248.133 154.297 248.45 154.647 248.715C154.985 248.99 155.355 249.191 155.747 249.339C156.519 249.646 157.334 249.678 158.053 249.551C158.783 249.413 159.408 249.085 159.894 248.704C160.889 247.911 161.312 246.916 161.471 246.239C161.629 245.551 161.608 245.149 161.629 245.149C161.64 245.149 161.64 245.245 161.629 245.435C161.629 245.53 161.629 245.647 161.608 245.784C161.587 245.922 161.576 246.08 161.534 246.25C161.471 246.599 161.312 247.022 161.069 247.466C160.825 247.911 160.466 248.387 159.958 248.789C159.46 249.191 158.815 249.54 158.064 249.688C157.323 249.826 156.477 249.805 155.673 249.487C155.271 249.339 154.879 249.127 154.53 248.842C154.181 248.567 153.853 248.239 153.589 247.847C153.324 247.466 153.102 247.043 152.964 246.578C152.827 246.112 152.742 245.625 152.742 245.139C152.753 244.641 152.827 244.155 152.964 243.7C153.102 243.234 153.335 242.811 153.589 242.43C153.853 242.049 154.181 241.711 154.53 241.436C154.879 241.161 155.271 240.938 155.673 240.79C156.477 240.473 157.323 240.452 158.064 240.589C158.815 240.737 159.45 241.087 159.958 241.489C160.455 241.891 160.825 242.367 161.069 242.811C161.312 243.255 161.46 243.679 161.534 244.028C161.576 244.197 161.598 244.356 161.608 244.493C161.629 244.631 161.629 244.747 161.629 244.842C161.64 245.054 161.64 245.149 161.629 245.149Z"
        fill="#263238" />
    <g opacity="0.3">
        <path d="M153.062 302.884H161.41L159.432 306.545H155.041L153.062 302.884Z" fill="black" />
    </g>
    <path
        d="M161.198 302.895C161.198 302.884 161.272 302.874 161.41 302.863V302.927C160.891 302.969 159.283 303.001 157.4 303.001C156.236 303.001 155.178 302.99 154.406 302.969C154.025 302.958 153.718 302.948 153.496 302.937C153.284 302.927 153.168 302.916 153.168 302.895C153.168 302.884 153.284 302.863 153.496 302.853C153.708 302.842 154.014 302.831 154.406 302.821C155.168 302.8 156.226 302.789 157.4 302.789C159.294 302.789 160.891 302.821 161.41 302.863V302.927C161.262 302.916 161.198 302.905 161.198 302.895Z"
        fill="#263238" />
    <path
        d="M159.313 306.471C159.313 306.46 159.355 306.45 159.429 306.439V306.503C159.143 306.545 158.286 306.577 157.271 306.577C156.012 306.577 154.996 306.534 154.996 306.481C154.996 306.429 156.012 306.386 157.271 306.386C158.286 306.386 159.143 306.418 159.429 306.46V306.524C159.344 306.481 159.313 306.481 159.313 306.471Z"
        fill="#263238" />
    <g opacity="0.3">
        <path
            d="M148.883 316.998L155.39 327.409C156.892 326.785 157.696 326.594 159.114 327.218L165.589 316.998H148.883Z"
            fill="black" />
    </g>
    <path
        d="M165.45 316.998C165.45 317.051 161.716 317.083 157.113 317.083C152.5 317.083 148.766 317.04 148.766 316.998C148.766 316.956 152.5 316.913 157.113 316.913C161.705 316.903 165.45 316.945 165.45 316.998Z"
        fill="#263238" />
    <path
        d="M159.114 327.208C159.103 327.26 158.553 327.07 157.273 327.123C156.003 327.155 154.998 327.461 154.977 327.409C154.966 327.387 155.21 327.292 155.622 327.186C156.035 327.081 156.617 326.964 157.262 326.954C157.908 326.932 158.5 327.028 158.913 327.155C159.325 327.26 159.124 327.186 159.114 327.208Z"
        fill="#263238" />
    <path
        d="M162.096 335.047C162.107 335.047 162.054 335.196 161.916 335.449C161.79 335.703 161.557 336.042 161.229 336.423C160.89 336.804 160.435 337.206 159.853 337.544C159.271 337.883 158.573 338.147 157.801 338.243C157.029 338.327 156.277 338.232 155.643 338.031C154.997 337.83 154.458 337.544 154.056 337.248C153.643 336.952 153.347 336.666 153.167 336.444C152.987 336.232 152.902 336.095 152.902 336.095C152.934 336.063 153.294 336.592 154.119 337.142C154.923 337.692 156.277 338.232 157.78 338.063C159.282 337.883 160.478 337.058 161.144 336.338C161.821 335.608 162.065 335.026 162.096 335.047Z"
        fill="#263238" />
    <path
        d="M172.158 345.543C172.158 345.596 165.546 345.627 157.378 345.627C149.221 345.627 142.598 345.585 142.598 345.543C142.598 345.5 149.21 345.458 157.378 345.458C165.546 345.458 172.158 345.5 172.158 345.543Z"
        fill="#263238" />
    <path
        d="M181.299 352.769C181.299 352.822 170.529 352.853 157.23 352.853C143.931 352.853 133.16 352.811 133.16 352.769C133.16 352.726 143.931 352.684 157.23 352.684C170.529 352.684 181.299 352.726 181.299 352.769Z"
        fill="#263238" />
    <path
        d="M121.926 243.414C122.275 245.139 121.154 246.821 119.429 247.17C117.704 247.519 116.022 246.398 115.673 244.673C115.324 242.949 116.445 241.266 118.17 240.917C119.905 240.579 121.587 241.689 121.926 243.414Z"
        fill="#455A64" />
    <path
        d="M121.925 243.414C121.904 243.425 121.862 243.139 121.64 242.684C121.417 242.24 120.973 241.626 120.158 241.235C119.756 241.044 119.28 240.917 118.751 240.928C118.233 240.949 117.672 241.076 117.175 241.393C116.921 241.542 116.688 241.732 116.487 241.965C116.286 242.187 116.106 242.451 115.979 242.737C115.704 243.308 115.63 243.996 115.747 244.652C115.884 245.308 116.223 245.911 116.699 246.324C116.931 246.535 117.196 246.715 117.471 246.842C117.746 246.969 118.032 247.064 118.328 247.107C118.91 247.202 119.471 247.107 119.957 246.927C120.444 246.736 120.835 246.43 121.132 246.102C121.724 245.435 121.904 244.684 121.936 244.197C121.978 243.7 121.904 243.414 121.925 243.414C121.925 243.414 122.02 243.689 122.02 244.197C122.01 244.705 121.851 245.477 121.248 246.186C120.952 246.535 120.539 246.863 120.031 247.064C119.524 247.265 118.931 247.371 118.328 247.276C118.021 247.234 117.714 247.138 117.429 247.011C117.132 246.874 116.857 246.694 116.614 246.472C116.117 246.028 115.757 245.393 115.609 244.705C115.471 244.007 115.567 243.287 115.852 242.684C115.99 242.377 116.18 242.102 116.392 241.87C116.603 241.626 116.847 241.425 117.122 241.277C117.64 240.949 118.233 240.822 118.772 240.812C119.323 240.801 119.82 240.949 120.232 241.15C121.068 241.563 121.513 242.219 121.714 242.684C121.915 243.129 121.925 243.414 121.925 243.414Z"
        fill="#263238" />
    <path
        d="M201.496 245.149C201.845 246.873 200.724 248.556 198.999 248.905C197.275 249.254 195.593 248.133 195.243 246.408C194.894 244.683 196.016 243.001 197.74 242.652C199.465 242.303 201.147 243.424 201.496 245.149Z"
        fill="#455A64" />
    <path
        d="M201.496 245.149C201.474 245.16 201.432 244.874 201.21 244.419C200.988 243.975 200.543 243.361 199.729 242.97C199.327 242.779 198.851 242.652 198.322 242.663C197.803 242.684 197.242 242.811 196.745 243.128C196.491 243.276 196.258 243.467 196.057 243.7C195.856 243.922 195.677 244.186 195.55 244.472C195.275 245.043 195.19 245.731 195.317 246.387C195.454 247.043 195.793 247.646 196.269 248.059C196.502 248.27 196.766 248.45 197.041 248.577C197.316 248.704 197.602 248.799 197.898 248.842C198.48 248.937 199.041 248.842 199.528 248.662C200.014 248.471 200.406 248.164 200.702 247.836C201.295 247.17 201.474 246.419 201.506 245.932C201.538 245.424 201.474 245.149 201.496 245.149C201.496 245.149 201.591 245.424 201.591 245.932C201.58 246.44 201.421 247.212 200.818 247.921C200.512 248.27 200.11 248.598 199.602 248.799C199.094 249 198.501 249.106 197.898 249.011C197.592 248.968 197.285 248.873 196.999 248.746C196.703 248.609 196.428 248.429 196.184 248.207C195.687 247.762 195.327 247.128 195.179 246.44C195.042 245.742 195.137 245.022 195.423 244.419C195.56 244.112 195.751 243.837 195.962 243.604C196.174 243.361 196.417 243.16 196.692 243.012C197.211 242.684 197.803 242.557 198.343 242.546C198.893 242.536 199.39 242.684 199.803 242.885C200.639 243.298 201.083 243.954 201.284 244.419C201.474 244.853 201.496 245.149 201.496 245.149Z"
        fill="#263238" />
    <path
        d="M157.186 231.385C158.016 231.385 158.688 230.712 158.688 229.882C158.688 229.053 158.016 228.38 157.186 228.38C156.356 228.38 155.684 229.053 155.684 229.882C155.684 230.712 156.356 231.385 157.186 231.385Z"
        fill="#455A64" />
    <path
        d="M333.174 452.465C332.868 452.422 326.858 462.928 326.858 462.928C327.345 463.711 330.815 466.451 330.381 467.827C329.937 469.202 310.406 486.797 307.931 487.4C305.455 488.003 302.895 487.484 302.895 487.484C302.895 487.484 308.026 474.799 310.078 469.805C312.12 464.812 318.32 449.682 318.32 449.682L333.174 452.465Z"
        fill="#FFBF9D" />
    <path
        d="M327.398 463.626C327.695 463.933 331.8 467.372 332.847 471.773C333.894 476.174 332.085 494.933 332.085 494.933L330.16 494.975C330.16 494.975 330.329 480.935 329.789 479.877C329.25 478.819 327.134 477.306 321.569 482.152C316.004 486.998 316.734 492.171 311.624 493.6C306.524 495.028 292.929 493.24 293.024 492.066C293.119 490.891 303.35 486.363 303.35 486.363C303.35 486.363 306.757 487.527 310.079 484.839C313.412 482.131 327.398 463.626 327.398 463.626Z"
        fill="#263238" />
    <path
        d="M397.551 469.213L397.212 464.833L397.434 462.262L384.527 462.378C384.421 464.536 384.283 467.34 384.135 470.377C383.977 473.678 385.712 489.854 385.712 489.854H399.952L401.688 485.908L397.551 469.213Z"
        fill="#FFBF9D" />
    <path
        d="M397.553 469.213C397.553 469.213 400.674 479.708 401.689 485.919C401.933 487.4 402.049 488.648 401.986 489.442C401.615 493.557 399.774 496.805 392.03 496.298C384.285 495.779 382.804 493.896 382.624 489.103C382.444 484.31 383.386 474.545 383.735 471.625C384.105 468.493 384.38 466.652 384.38 466.652L384.391 465.7C384.391 465.7 384.878 469.276 384.793 471.731C384.592 477.433 385.714 485.993 386.02 486.564C386.941 488.278 398.611 489.537 399.965 486.723C401.308 483.877 397.553 469.213 397.553 469.213Z"
        fill="#263238" />
    <path
        d="M411.635 239.098C412.979 239.098 423.316 268.097 425.548 289.078C427.781 310.058 405.869 468.684 405.869 468.684H381.334C381.334 468.684 381.863 398.951 381.281 379.24C380.636 357.594 379.493 313.232 379.493 313.232L329.45 464.727L299.625 457.956C299.625 457.956 317.008 380.584 324.149 347.553C331.291 314.522 342.918 276.096 344.992 262.321C346.791 250.397 348.695 239.108 348.695 239.108H411.635V239.098Z"
        fill="#263238" />
    <path opacity="0.3"
        d="M334.848 301.689L333.547 306.577C333.547 306.577 364.906 313.93 370.704 311.803C376.502 309.677 378.649 290.601 378.649 290.601C378.649 290.601 387.187 312.184 396.868 311.803C406.549 311.412 425.022 303.085 425.022 303.085L425.148 296.515L394.572 269.674L365.012 271.599L334.848 301.689Z"
        fill="black" />
    <path
        d="M395.629 468.684C395.618 468.684 395.618 468.546 395.629 468.282C395.64 467.985 395.661 467.594 395.682 467.097C395.745 466.018 395.83 464.484 395.946 462.526C396.19 458.527 396.549 452.803 396.994 445.736C397.851 431.559 399.036 411.964 399.628 390.297C400.221 368.629 399.988 348.992 399.671 334.794C399.48 327.716 399.321 321.981 399.216 317.982C399.163 316.025 399.12 314.491 399.089 313.412C399.078 312.914 399.078 312.512 399.068 312.227C399.068 311.962 399.068 311.825 399.078 311.825C399.089 311.825 399.099 311.962 399.12 312.227C399.142 312.523 399.163 312.914 399.194 313.412C399.247 314.491 399.321 316.025 399.417 317.982C399.618 321.95 399.829 327.695 400.051 334.794C400.464 348.992 400.76 368.639 400.168 390.318C399.575 411.996 398.327 431.59 397.375 445.767C396.867 452.835 396.444 458.559 396.158 462.547C395.999 464.505 395.872 466.039 395.788 467.107C395.745 467.605 395.703 467.996 395.682 468.292C395.661 468.546 395.64 468.684 395.629 468.684Z"
        fill="#455A64" />
    <path
        d="M353.138 317.136C353.286 317.178 344.314 349.14 333.099 388.519C321.885 427.908 312.669 459.796 312.521 459.754C312.373 459.712 321.345 427.76 332.57 388.371C343.785 348.992 352.99 317.093 353.138 317.136Z"
        fill="#455A64" />
    <path
        d="M417.235 177.162C418.24 172.845 409.458 168.063 409.183 163.641C408.908 159.229 408.961 154.616 411.067 150.659C412.632 147.739 415.341 145.009 414.981 141.74C414.579 138.016 410.326 135.498 409.406 131.848C408.739 129.213 409.935 126.558 410.633 123.944C413.109 114.761 408.136 97.3675 400.899 86.9673L390.404 101.769L361.044 79.8682C342.413 93.5904 354.665 117.565 350.422 130.504C348.433 136.577 338.244 144.163 338.932 150.521C339.546 156.139 342.709 158.848 342.455 164.498C342.254 169.058 338.742 172.718 337.049 176.95C335.028 182.007 335.652 187.678 334.965 193.085C334.277 198.481 331.389 204.437 326.035 205.474C329.96 207.696 334.15 209.452 338.498 210.679C342.138 211.716 346.105 212.372 349.65 211.06C352.083 210.171 354.189 208.077 354.95 205.675C354.866 208.383 354.781 211.081 354.707 213.79C367.138 214.594 382.892 209.008 393.44 202.363C393.398 196.248 393.081 190.302 392.594 184.441L421.414 200.861C425.995 199.591 416.23 181.478 417.235 177.162Z"
        fill="#263238" />
    <path
        d="M400.898 86.9887C395.714 79.7414 388.403 75.2873 379.505 74.5572C374.49 74.1446 372.342 75.0545 368.661 75.7951C364.979 76.5357 361.593 78.2602 359.234 81.1803C356.43 84.6506 354.018 88.5757 353.246 92.9664C352.452 97.4735 351.659 102.012 351.701 106.583C351.743 111.164 352.685 115.83 355.129 119.692L366.597 122.453C372.988 123.088 379.463 123.722 385.8 122.664C392.138 121.606 398.412 118.644 402.115 113.407C407.246 106.128 406.093 94.236 400.898 86.9887Z"
        fill="#263238" />
    <path
        d="M354.916 95.7068C355.455 88.3537 362.375 78.747 371.463 79.3078L375.536 79.0962L390.591 86.2377C392.813 86.4916 394.474 88.4172 394.411 90.6495L390.01 141.518L370.437 173.48L367.379 145.687L366.903 133.922C366.903 133.922 356.63 132.24 354.799 119.967C353.9 113.862 354.313 103.864 354.916 95.7068Z"
        fill="#FFBF9D" />
    <path
        d="M373.167 118.316C373.125 117.671 372.807 117.089 372.384 116.666C371.527 115.83 370.215 115.671 369.199 116.274C368.184 116.877 367.538 118.21 367.644 119.501C368.141 120.284 368.935 120.845 369.855 120.982C369.993 121.003 370.141 121.014 370.289 121.025C370.987 121.056 371.717 120.866 372.278 120.379C372.839 119.903 373.22 119.11 373.167 118.316Z"
        fill="#FF9A6C" />
    <path
        d="M359.678 106.149C359.635 106.985 360.312 107.694 361.18 107.747C362.048 107.8 362.778 107.175 362.82 106.35C362.862 105.525 362.185 104.806 361.318 104.753C360.45 104.7 359.72 105.324 359.678 106.149Z"
        fill="#263238" />
    <path
        d="M357.415 99.9703C357.605 100.182 358.812 99.3038 360.504 99.3249C362.197 99.3249 363.424 100.203 363.615 100.002C363.71 99.9068 363.509 99.5365 362.97 99.1451C362.441 98.743 361.541 98.3621 360.483 98.3516C359.425 98.3516 358.537 98.7219 358.018 99.1133C357.5 99.5048 357.32 99.8751 357.415 99.9703Z"
        fill="#263238" />
    <path
        d="M367.391 113.893C367.402 113.798 366.355 113.608 364.651 113.375C364.217 113.322 363.815 113.237 363.741 112.941C363.646 112.624 363.826 112.169 364.048 111.661C364.461 110.624 364.905 109.524 365.36 108.381C367.18 103.715 368.513 99.875 368.322 99.8009C368.132 99.7268 366.503 103.451 364.683 108.117C364.249 109.27 363.826 110.36 363.424 111.418C363.255 111.904 362.969 112.465 363.181 113.111C363.297 113.439 363.604 113.671 363.889 113.745C364.164 113.83 364.408 113.841 364.619 113.851C366.323 113.968 367.391 113.989 367.391 113.893Z"
        fill="#263238" />
    <path
        d="M366.895 133.911C366.895 133.911 375.147 134.525 383.368 129.7C383.368 129.7 379.305 138.259 367.032 136.99L366.895 133.911Z"
        fill="#FF9A6C" />
    <path
        d="M372.365 115.111C372.09 115.089 372.069 116.93 370.482 118.21C368.895 119.501 366.938 119.279 366.927 119.533C366.896 119.649 367.361 119.893 368.186 119.924C369.001 119.956 370.186 119.713 371.159 118.919C372.133 118.126 372.556 117.068 372.619 116.317C372.693 115.555 372.492 115.1 372.365 115.111Z"
        fill="#263238" />
    <path
        d="M357.753 93.2416C358.028 93.6542 359.33 93.3897 360.843 93.5378C362.356 93.6331 363.604 94.088 363.943 93.7177C364.091 93.5378 363.932 93.1358 363.414 92.7126C362.906 92.2894 362.007 91.8979 360.97 91.8239C359.933 91.7498 358.991 91.9932 358.42 92.3317C357.849 92.6703 357.626 93.0406 357.753 93.2416Z"
        fill="#263238" />
    <path
        d="M378.267 106.244C378.257 107.08 377.548 107.747 376.68 107.757C375.813 107.768 375.114 107.091 375.125 106.266C375.135 105.43 375.844 104.753 376.712 104.753C377.59 104.742 378.278 105.409 378.267 106.244Z"
        fill="#263238" />
    <path
        d="M380.289 100.796C380.088 100.986 378.935 100.055 377.242 99.9811C375.549 99.8858 374.269 100.69 374.1 100.478C374.015 100.383 374.227 100.023 374.788 99.6531C375.338 99.2828 376.269 98.9442 377.316 99.0077C378.374 99.0606 379.242 99.4944 379.729 99.9176C380.236 100.33 380.395 100.711 380.289 100.796Z"
        fill="#263238" />
    <path
        d="M380.774 95.3787C380.425 95.749 379.134 95.2835 377.569 95.1882C376.003 95.0507 374.659 95.3046 374.373 94.892C374.246 94.691 374.479 94.3207 375.072 93.9821C375.664 93.6436 376.627 93.4002 377.706 93.4743C378.785 93.5589 379.706 93.9504 380.224 94.363C380.774 94.7968 380.933 95.1988 380.774 95.3787Z"
        fill="#263238" />
    <path
        d="M390.964 111.048C390.975 110.138 392.054 107.99 392.953 107.863C395.365 107.514 399.703 107.747 399.682 113.862C399.65 122.22 390.414 120.58 390.414 120.58C390.414 120.39 390.922 114.201 390.964 111.048Z"
        fill="#FFBF9D" />
    <path
        d="M393.575 117.173C393.607 117.142 393.724 117.279 393.967 117.385C394.21 117.491 394.623 117.575 395.057 117.406C395.945 117.089 396.686 115.682 396.739 114.179C396.76 113.417 396.601 112.698 396.337 112.095C396.083 111.481 395.691 111.058 395.247 110.973C394.803 110.868 394.485 111.132 394.39 111.365C394.274 111.598 394.327 111.767 394.284 111.778C394.263 111.799 394.104 111.64 394.179 111.291C394.21 111.122 394.316 110.931 394.507 110.772C394.708 110.614 395.004 110.529 395.311 110.561C395.956 110.603 396.538 111.206 396.824 111.862C397.152 112.529 397.342 113.343 397.321 114.19C397.257 115.872 396.39 117.448 395.184 117.787C394.591 117.935 394.104 117.755 393.851 117.565C393.586 117.385 393.544 117.194 393.575 117.173Z"
        fill="#FF9A6C" />
    <path
        d="M393.3 107.905L391.036 109.958C382.466 100.616 366.025 77.5725 366.935 78.9373C366.935 78.9373 373.367 76.7684 380.086 78.3659C386.804 79.9635 399.479 84.2061 398.759 92.194C398.04 100.203 393.3 107.905 393.3 107.905Z"
        fill="#263238" />
    <path
        d="M366.206 139C366.629 139.286 380.299 151.612 380.299 151.612L389.842 138.566L397.385 159.293L388.879 201.062C388.879 201.062 380.68 215.303 380.394 214.478C380.108 213.653 363.688 191.9 365.116 192.472C366.545 193.043 363.223 154.733 363.223 154.733V141.73L366.206 139Z"
        fill="#E0E0E0" />
    <path
        d="M381.769 208.649C381.748 208.649 381.727 208.448 381.716 208.077C381.706 207.643 381.695 207.093 381.674 206.437C381.663 204.935 381.663 202.882 381.642 200.396C381.632 195.297 381.748 188.25 381.547 180.485C381.166 172.751 380.817 165.747 380.563 160.584C380.468 158.097 380.383 156.055 380.32 154.553C380.309 153.886 380.288 153.347 380.277 152.913C380.277 152.543 380.277 152.342 380.299 152.342C380.32 152.342 380.351 152.532 380.383 152.913C380.425 153.347 380.468 153.886 380.521 154.553C380.626 156.055 380.764 158.097 380.944 160.584C381.261 165.673 381.716 172.698 382.087 180.485C382.288 188.271 382.108 195.318 382.023 200.417C381.96 202.904 381.907 204.946 381.875 206.458C381.854 207.125 381.833 207.665 381.811 208.098C381.801 208.448 381.79 208.649 381.769 208.649Z"
        fill="#263238" />
    <path
        d="M389.99 152.32C390.032 152.341 389.651 152.987 388.963 154.098C388.191 155.293 387.197 156.848 386.012 158.689L385.842 158.954L385.641 158.711C384.033 156.7 382.139 154.341 380.087 151.781L380.521 151.77C380.267 152.13 379.981 152.511 379.706 152.892C378.278 154.881 376.892 156.774 375.728 158.541C375.611 158.732 375.495 158.922 375.379 159.113L375.368 159.123C375.368 159.155 375.357 159.187 375.347 159.218C375.315 159.292 375.262 159.335 375.22 159.356C375.178 159.377 375.114 159.388 375.072 159.377L375.03 159.366C374.998 159.356 374.977 159.345 374.966 159.345C374.913 159.314 374.881 159.303 374.85 159.271L374.68 159.144L374.384 158.89C374.003 158.552 373.644 158.224 373.294 157.896C372.617 157.25 371.982 156.637 371.401 156.066C370.247 154.933 369.337 154.013 368.713 153.357C368.089 152.712 367.761 152.331 367.782 152.31C367.814 152.278 368.184 152.606 368.861 153.209C369.602 153.897 370.544 154.754 371.665 155.79C372.268 156.341 372.914 156.933 373.601 157.568C373.961 157.875 374.321 158.203 374.702 158.531L374.987 158.763L375.125 158.869L375.178 158.901C375.146 158.954 375.104 159.102 375.114 159.113C375.125 159.134 375.114 159.113 375.104 159.113H375.093C374.659 159.113 374.977 159.102 374.881 159.102L374.892 159.06C374.955 158.806 375.03 158.742 375.104 158.605L375.315 158.256C376.479 156.457 377.844 154.553 379.272 152.564C379.547 152.183 379.833 151.791 380.087 151.431L380.298 151.135L380.521 151.421C382.541 154.002 384.414 156.383 386.001 158.414L385.641 158.425C386.89 156.626 387.948 155.113 388.752 153.939C389.503 152.892 389.947 152.299 389.99 152.32Z"
        fill="#263238" />
    <path
        d="M389.907 136.778L395.26 143.497L416.568 147.739C416.568 147.739 410.178 221.439 409.744 224.349C409.31 227.258 423.382 257.697 428.122 298.187C428.122 298.187 399.82 308.291 395.63 305.794C391.451 303.297 379.422 276.974 379.422 276.974L381.072 211.42C381.072 211.42 389.483 182.643 390.383 168.18C391.219 154.595 389.907 136.778 389.907 136.778Z"
        fill="#4CD685" />
    <path opacity="0.3"
        d="M383.443 204.279C383.443 204.279 395.917 233.755 394.298 240.283C392.721 246.641 386.31 276.657 384.173 286.898L379.137 276.487L381.073 211.431L383.443 204.279Z"
        fill="black" />
    <path
        d="M384.29 216.53C384.279 216.52 384.438 216.255 384.755 215.779C385.104 215.261 385.57 214.552 386.162 213.674C386.776 212.764 387.559 211.674 388.331 210.32C388.733 209.653 389.167 208.934 389.622 208.183C390.087 207.432 390.563 206.628 391.018 205.76C391.928 204.025 393.018 202.173 393.97 200.068C394.468 199.031 394.997 197.963 395.504 196.841C395.991 195.709 396.488 194.556 396.996 193.36C398.964 188.568 400.868 183.182 402.445 177.416C404.021 171.65 405.206 166.053 405.841 160.922C405.873 160.605 405.926 160.277 405.936 159.97C405.968 159.589 405.979 159.536 405.735 159.409C405.27 159.197 404.603 159.219 404.021 159.25C403.418 159.293 402.826 159.377 402.265 159.504C401.99 159.568 401.694 159.642 401.471 159.748C401.429 159.758 401.44 159.769 401.429 159.769H401.419C401.429 159.758 401.44 159.737 401.44 159.716C401.567 159.652 401.175 159.324 401.207 159.441C401.196 159.441 401.186 159.441 401.165 159.441C401.122 159.451 401.239 159.388 401.281 159.356L401.63 159.102C402.54 158.404 403.429 157.716 404.275 157.071C404.497 156.912 404.709 156.753 404.921 156.595L405.09 156.478L405.174 156.425C405.185 156.415 405.143 156.436 405.153 156.447C405.164 156.425 405.143 156.299 405.122 156.193C404.973 155.738 404.741 155.283 404.519 154.86C402.614 151.453 400.763 148.84 399.567 147.009C398.975 146.131 398.509 145.433 398.16 144.904C397.843 144.417 397.684 144.163 397.694 144.153C397.705 144.142 397.906 144.375 398.255 144.84C398.625 145.348 399.123 146.025 399.747 146.882C401.006 148.681 402.889 151.241 404.868 154.669C405.1 155.103 405.344 155.547 405.513 156.076C405.545 156.214 405.598 156.351 405.545 156.584C405.513 156.648 405.45 156.732 405.407 156.764L405.333 156.817L405.174 156.923C404.963 157.081 404.751 157.24 404.54 157.399C403.693 158.065 402.815 158.753 401.905 159.462L401.546 159.726C401.461 159.779 401.461 159.801 401.292 159.875C401.27 159.885 401.249 159.885 401.228 159.885C401.26 160.002 400.858 159.663 400.985 159.589C400.995 159.557 401.017 159.525 401.027 159.494C401.048 159.462 401.08 159.441 401.101 159.42C401.154 159.377 401.218 159.335 401.249 159.324C401.567 159.176 401.852 159.113 402.149 159.039C402.741 158.901 403.355 158.806 403.979 158.764C404.614 158.743 405.249 158.668 405.947 158.965C406.116 159.039 406.317 159.197 406.391 159.43C406.476 159.705 406.423 159.822 406.423 160.002C406.402 160.34 406.359 160.647 406.328 160.975C405.714 166.159 404.54 171.766 402.953 177.564C401.366 183.352 399.44 188.758 397.44 193.561C396.922 194.757 396.414 195.921 395.917 197.042C395.399 198.164 394.859 199.232 394.351 200.269C393.378 202.364 392.267 204.215 391.325 205.95C390.86 206.818 390.373 207.612 389.886 208.363C389.421 209.114 388.976 209.823 388.553 210.479C387.749 211.822 386.935 212.891 386.3 213.79C385.676 214.647 385.178 215.324 384.808 215.832C384.501 216.308 384.311 216.541 384.29 216.53Z"
        fill="#263238" />
    <path
        d="M416.368 244.684C415.247 245.043 400.879 249.593 400.879 249.593C400.879 249.593 402.117 262.786 403.968 262.934C405.82 263.082 420.209 258.734 421.298 257.686C422.388 256.639 416.368 244.684 416.368 244.684Z"
        fill="#4CD685" />
    <path
        d="M416.368 244.684C416.389 244.673 416.495 244.864 416.696 245.223C416.897 245.594 417.183 246.133 417.542 246.842C418.251 248.26 419.267 250.312 420.346 252.926C420.611 253.582 420.886 254.269 421.14 255.01C421.267 255.38 421.383 255.761 421.489 256.153C421.584 256.555 421.7 256.946 421.647 257.454C421.637 257.517 421.616 257.581 421.605 257.655C421.563 257.729 421.52 257.814 421.468 257.866L421.171 258.068C420.97 258.194 420.78 258.269 420.579 258.374C420.177 258.554 419.775 258.723 419.362 258.882C418.537 259.2 417.669 259.506 416.781 259.813C413.226 260.988 409.322 262.236 405.047 263.104C404.709 263.167 404.36 263.209 403.968 263.209C403.397 263.093 403.238 262.68 403.048 262.395C402.72 261.76 402.519 261.115 402.339 260.469C401.99 259.178 401.757 257.909 401.545 256.66C401.133 254.174 400.858 251.804 400.646 249.614L400.625 249.413L400.815 249.36C405.439 247.942 409.322 246.758 412.136 245.89C413.437 245.509 414.495 245.192 415.289 244.959C415.998 244.768 416.379 244.663 416.368 244.684C416.357 244.705 415.955 244.853 415.225 245.107C414.432 245.372 413.374 245.731 412.073 246.176C409.311 247.085 405.502 248.334 400.953 249.826L401.122 249.572C401.355 251.741 401.641 254.1 402.064 256.565C402.275 257.792 402.519 259.062 402.857 260.31C403.027 260.935 403.228 261.569 403.524 262.12C403.661 262.384 403.884 262.649 404.011 262.649C404.307 262.649 404.624 262.606 404.952 262.543C409.131 261.696 413.067 260.448 416.611 259.305C417.5 259.009 418.357 258.713 419.172 258.406C419.584 258.247 419.986 258.089 420.367 257.919C420.547 257.824 420.759 257.75 420.907 257.655L421.129 257.507C421.14 257.486 421.14 257.475 421.161 257.454L421.182 257.348C421.235 256.639 420.949 255.825 420.727 255.116C420.494 254.386 420.23 253.698 419.976 253.042C418.939 250.429 417.976 248.344 417.331 246.906C417.024 246.228 416.781 245.678 416.58 245.245C416.432 244.895 416.347 244.694 416.368 244.684Z"
        fill="#263238" />
    <path
        d="M366.208 139C364.42 140.153 357.543 146.015 357.543 146.015L339.018 152.341C339.018 152.341 349.407 228.158 348.614 232.368C346.942 241.309 329.337 276.614 327.824 300.863C327.824 300.863 365.997 309.327 368.674 306.153C371.35 302.979 389.992 247.625 389.992 238.674C389.992 229.723 375.096 191.064 372.419 181.257C369.742 171.438 366.208 139 366.208 139Z"
        fill="#4CD685" />
    <path
        d="M378.565 279.947C378.554 279.947 378.575 279.883 378.607 279.746C378.649 279.598 378.713 279.407 378.776 279.174C378.946 278.645 379.178 277.915 379.485 276.974C380.12 275.016 381.04 272.202 382.194 268.647C383.347 265.071 384.754 260.733 386.267 255.75C387.029 253.264 387.812 250.608 388.552 247.805C388.732 247.106 388.922 246.387 389.071 245.667C389.24 244.937 389.367 244.218 389.409 243.477C389.43 241.986 389.187 240.441 388.817 238.917L388.848 238.981C386.129 234.643 383.199 229.988 380.131 225.111C378.575 222.677 377.062 220.148 375.391 217.63C374.565 216.371 373.698 215.123 372.873 213.822C372.09 212.499 371.307 211.166 370.513 209.822C367.921 205.146 365.583 200.47 363.668 195.814C362.642 193.508 361.806 191.18 360.917 188.927C360.124 186.642 359.277 184.42 358.59 182.209C357.13 177.818 355.955 173.575 354.94 169.587C353.934 165.598 353.109 161.853 352.559 158.382C352.517 158.171 352.496 157.938 352.474 157.716C352.432 157.536 352.453 157.155 352.697 156.975C353.13 156.647 353.596 156.647 354.019 156.626C354.876 156.616 355.691 156.732 356.474 156.922C356.664 156.975 356.865 157.018 357.056 157.092C357.151 157.123 357.246 157.166 357.352 157.219C357.394 157.229 357.479 157.303 357.521 157.346C357.532 157.356 357.553 157.388 357.563 157.43C357.637 157.324 357.521 157.716 357.394 157.663C357.373 157.663 357.352 157.652 357.32 157.642C357.267 157.621 357.246 157.6 357.225 157.589C356.897 157.356 356.611 157.113 356.326 156.88C355.754 156.404 355.204 155.949 354.664 155.505C354.4 155.293 354.135 155.071 353.871 154.87L353.48 154.574C353.458 154.563 353.405 154.531 353.353 154.457C353.3 154.394 353.3 154.341 353.289 154.288C353.268 154.172 353.289 154.098 353.3 154.002C353.437 153.325 353.723 152.775 353.966 152.225C354.485 151.146 355.003 150.194 355.479 149.337C356.442 147.633 357.235 146.332 357.775 145.464C358.039 145.052 358.251 144.724 358.399 144.48C358.547 144.258 358.621 144.152 358.632 144.152C358.643 144.152 358.579 144.279 358.452 144.512C358.304 144.766 358.114 145.105 357.87 145.528C357.362 146.416 356.601 147.728 355.67 149.453C355.204 150.31 354.696 151.273 354.21 152.352C353.977 152.891 353.702 153.463 353.585 154.055C353.585 154.119 353.564 154.203 353.575 154.256C353.585 154.277 353.575 154.32 353.585 154.309C353.585 154.309 353.585 154.309 353.585 154.32C353.606 154.32 353.617 154.341 353.638 154.351L354.051 154.648C354.315 154.859 354.58 155.071 354.855 155.283C355.394 155.716 355.955 156.171 356.527 156.637C356.812 156.87 357.108 157.113 357.405 157.314C357.415 157.324 357.447 157.335 357.436 157.335C357.405 157.377 357.394 157.42 357.394 157.473C357.384 157.483 357.394 157.494 357.331 157.504C357.278 157.515 357.225 157.557 357.246 157.547C357.257 157.557 357.331 157.494 357.257 157.547C357.214 157.557 357.246 157.536 357.183 157.515C357.108 157.483 357.034 157.441 356.939 157.42C356.77 157.356 356.579 157.314 356.389 157.272C355.638 157.102 354.834 156.986 354.03 157.007C353.638 157.018 353.194 157.071 352.951 157.272C352.749 157.42 352.908 157.928 352.951 158.34C353.522 161.779 354.368 165.513 355.384 169.481C356.421 173.448 357.606 177.68 359.076 182.05C359.764 184.251 360.61 186.462 361.415 188.736C362.314 190.979 363.139 193.307 364.165 195.592C366.08 200.237 368.418 204.892 370.989 209.537C377.591 220.074 383.823 230.02 389.261 238.695L389.282 238.727L389.293 238.759C389.674 240.325 389.917 241.89 389.885 243.456C389.832 244.239 389.695 245.011 389.526 245.731C389.367 246.472 389.176 247.18 388.997 247.889C388.235 250.704 387.441 253.359 386.658 255.845C385.103 260.818 383.664 265.145 382.469 268.711C381.252 272.244 380.3 275.048 379.623 276.995C379.284 277.926 379.03 278.656 378.84 279.174C378.755 279.407 378.681 279.587 378.628 279.735C378.607 279.883 378.575 279.947 378.565 279.947Z"
        fill="#263238" />
    <path
        d="M343.441 246.324L358.147 251.095C358.147 251.095 356.909 264.289 355.057 264.437C353.206 264.585 338.817 260.236 337.727 259.189C336.638 258.131 343.441 246.324 343.441 246.324Z"
        fill="#4CD685" />
    <path
        d="M343.441 246.324C343.462 246.334 343.367 246.525 343.176 246.895C342.954 247.318 342.679 247.847 342.34 248.493C341.621 249.879 340.563 251.878 339.378 254.407C338.828 255.666 338.108 257.084 337.833 258.618C337.823 258.787 337.833 259.009 337.876 259.02C338.034 259.115 338.161 259.221 338.362 259.295C338.732 259.475 339.135 259.633 339.526 259.792C340.341 260.109 341.187 260.406 342.055 260.691C345.557 261.834 349.45 263.051 353.587 263.95C353.925 264.024 354.275 264.066 354.602 264.119C354.74 264.119 354.952 264.151 355.026 264.13C355.089 264.13 355.195 264.024 355.28 263.918C355.629 263.421 355.851 262.754 356.041 262.12C356.422 260.829 356.666 259.528 356.898 258.258C357.332 255.708 357.639 253.285 357.872 251.064L358.03 251.317C353.714 249.868 350.085 248.651 347.472 247.773C346.234 247.339 345.239 247.001 344.477 246.736C343.821 246.493 343.441 246.345 343.441 246.324C343.43 246.303 343.79 246.398 344.477 246.599C345.229 246.832 346.223 247.128 347.461 247.498C350.127 248.334 353.82 249.487 358.221 250.863L358.401 250.915L358.38 251.106C358.168 253.349 357.882 255.782 357.449 258.353C357.226 259.633 356.983 260.956 356.592 262.278C356.391 262.945 356.19 263.611 355.735 264.257C355.597 264.405 355.459 264.595 355.174 264.669C354.92 264.722 354.772 264.669 354.56 264.68C354.2 264.627 353.841 264.585 353.492 264.5C349.291 263.58 345.419 262.352 341.896 261.178C341.018 260.871 340.171 260.564 339.346 260.247C338.934 260.078 338.531 259.919 338.14 259.718C337.95 259.644 337.738 259.485 337.548 259.348C337.283 259.041 337.378 258.787 337.368 258.565C337.495 257.687 337.823 256.957 338.098 256.237C338.394 255.528 338.701 254.862 339.008 254.227C340.235 251.709 341.356 249.73 342.129 248.376C342.52 247.699 342.838 247.181 343.049 246.832C343.292 246.493 343.419 246.313 343.441 246.324Z"
        fill="#263238" />
    <path
        d="M386.988 242.166C386.988 243.679 385.729 244.895 384.174 244.895C382.618 244.895 381.359 243.668 381.359 242.166C381.359 240.653 382.618 239.436 384.174 239.436C385.729 239.436 386.988 240.663 386.988 242.166Z"
        fill="#263238" />
    <path
        d="M370.525 244.155C372.079 244.155 373.339 242.932 373.339 241.425C373.339 239.917 372.079 238.695 370.525 238.695C368.971 238.695 367.711 239.917 367.711 241.425C367.711 242.932 368.971 244.155 370.525 244.155Z"
        fill="#263238" />
    <path
        d="M368.674 223.809C370.228 223.809 371.488 222.587 371.488 221.08C371.488 219.572 370.228 218.35 368.674 218.35C367.119 218.35 365.859 219.572 365.859 221.08C365.859 222.587 367.119 223.809 368.674 223.809Z"
        fill="#263238" />
    <path
        d="M303.955 198.353C303.955 198.353 295.575 192.915 293.131 191.826C290.687 190.746 285.704 191.413 282.139 191.201C278.573 190.99 273.579 189.847 272.384 190.641C270.956 191.593 272.722 193.275 278.288 194.883H276.711L272.913 195.539C272.913 195.539 271.305 193.593 270.099 193.719C268.374 193.899 268.554 195.317 268.554 195.317C268.554 195.317 265.655 192.482 265.105 195.888C265.105 195.888 261.92 195.01 261.931 197.359C261.931 197.359 261.423 199.285 268.046 199.189C268.046 199.189 274.119 203.919 275.547 204.331C276.965 204.733 281.652 203.559 281.652 203.559C281.652 203.559 283.228 205.432 284.688 205.379C287.482 205.283 294.56 204.141 294.56 204.141L297.681 207.23L303.955 198.353Z"
        fill="#FFBF9D" />
    <path
        d="M281.843 203.612C281.875 203.591 281.578 203.231 281.071 202.564C280.584 201.908 279.801 200.935 279.462 199.517C279.124 198.1 279.61 196.322 280.7 194.714C280.965 194.312 281.261 193.899 281.578 193.497C281.896 193.095 282.192 192.64 282.562 192.323C282.922 191.995 283.388 191.921 283.758 192.207C284.139 192.471 284.319 192.968 284.34 193.497C284.403 194.957 283.747 196.386 282.763 197.285L282.541 197.486L282.784 197.655C283.567 198.205 284.245 198.84 284.795 199.507L284.932 199.676L285.102 199.539C287.207 197.803 289.376 196.904 290.921 196.439C292.476 195.973 293.417 195.878 293.407 195.814C293.407 195.793 293.163 195.793 292.73 195.836C292.285 195.878 291.651 195.984 290.846 196.185C289.259 196.587 287.016 197.444 284.826 199.2L285.133 199.232C284.562 198.533 283.874 197.856 283.049 197.274L283.07 197.645C284.17 196.661 284.89 195.116 284.826 193.476C284.805 192.884 284.583 192.196 284.033 191.815C283.768 191.625 283.419 191.508 283.081 191.551C282.742 191.593 282.457 191.773 282.234 191.963C281.79 192.365 281.504 192.81 281.187 193.222C280.88 193.635 280.584 194.058 280.309 194.481C279.198 196.153 278.69 198.079 279.113 199.602C279.515 201.115 280.383 202.057 280.912 202.691C281.483 203.316 281.822 203.633 281.843 203.612Z"
        fill="#FF9A6C" />
    <path
        d="M272.403 195.137C272.308 195.232 273.62 196.692 275.345 198.385C275.778 198.808 276.17 199.221 276.604 199.56C277.048 199.909 277.566 200.068 278 200.078C278.444 200.089 278.762 199.951 278.963 199.866C279.175 199.771 279.27 199.708 279.27 199.676C279.259 199.644 279.132 199.655 278.91 199.687C278.688 199.718 278.381 199.782 278.032 199.729C277.672 199.665 277.26 199.517 276.889 199.2C276.519 198.883 276.127 198.449 275.694 198.026C273.969 196.343 272.499 195.042 272.403 195.137Z"
        fill="#FF9A6C" />
    <path
        d="M275.79 203.591C275.885 203.474 273.991 201.781 271.95 199.412C269.897 197.052 268.5 194.926 268.374 195.01C268.268 195.074 269.495 197.338 271.579 199.74C273.653 202.141 275.716 203.696 275.79 203.591Z"
        fill="#FF9A6C" />
    <path
        d="M270.015 200.681C270.079 200.586 268.915 199.518 267.529 198.121C266.132 196.735 265 195.603 264.895 195.688C264.789 195.772 265.773 197.063 267.18 198.47C268.576 199.888 269.931 200.808 270.015 200.681Z"
        fill="#FF9A6C" />
    <path
        d="M279.896 194.989C279.896 194.851 279.092 194.767 278.087 194.788C277.082 194.809 276.267 194.947 276.277 195.084C276.288 195.222 277.103 195.306 278.087 195.285C279.081 195.264 279.896 195.126 279.896 194.989Z"
        fill="#FF9A6C" />
    <path
        d="M339.365 152.214C339.365 152.214 332.012 152.923 330.414 172.115C329.144 187.351 328.943 209.812 328.943 209.812L303.636 197.444L293.141 210.838C293.141 210.838 324.246 239.256 337.947 234.188C351.648 229.131 349.246 204.226 349.246 204.226L343.734 163.831L339.365 152.214Z"
        fill="#4CD685" />
    <path
        d="M337.492 165.069C337.514 165.069 337.567 165.259 337.662 165.64C337.757 166.085 337.884 166.624 338.032 167.301C338.349 168.825 338.783 170.898 339.323 173.416C340.391 178.59 341.862 185.732 343.396 193.645C344.92 201.559 346.189 208.754 346.94 213.98C347.321 216.593 347.575 218.72 347.734 220.191C347.787 220.878 347.84 221.439 347.871 221.883C347.903 222.275 347.903 222.476 347.882 222.476C347.861 222.476 347.819 222.275 347.755 221.894C347.692 221.45 347.607 220.889 347.512 220.212C347.3 218.752 346.983 216.636 346.549 214.033C345.703 208.828 344.369 201.654 342.846 193.741C341.322 185.869 339.947 178.738 338.931 173.48C338.445 170.888 338.064 168.782 337.81 167.322C337.704 166.645 337.609 166.085 337.545 165.64C337.492 165.27 337.471 165.069 337.492 165.069Z"
        fill="#263238" />
    <path
        d="M336.054 219.641C335.906 219.715 334.721 217.26 332.775 214.573C330.838 211.864 328.902 209.97 329.008 209.843C329.093 209.738 331.24 211.483 333.219 214.245C335.208 216.996 336.181 219.588 336.054 219.641Z"
        fill="#263238" />
    <path
        d="M415.562 147.517C415.562 147.517 425.793 149.358 428.766 159.24C430.332 164.435 442.329 209.865 442.869 211.262C443.409 212.658 452.814 232.982 438.351 236.135C423.888 239.288 409.859 219.355 409.859 219.355C409.859 219.355 414.113 166.773 414.303 166.064C414.483 165.376 415.562 147.517 415.562 147.517Z"
        fill="#4CD685" />
    <path
        d="M414.397 165.069C414.439 165.069 414.45 165.556 414.461 166.424C414.471 167.302 414.439 168.561 414.387 170.127C414.281 173.248 414.037 177.564 413.657 182.315C413.276 187.065 412.81 191.361 412.366 194.461C412.133 196.005 411.921 197.254 411.699 198.111C411.604 198.534 411.498 198.862 411.403 199.084C411.318 199.296 411.265 199.412 411.244 199.401C411.191 199.38 411.361 198.936 411.488 198.068C411.636 197.211 411.794 195.963 411.974 194.418C412.323 191.318 412.715 187.023 413.106 182.283C413.487 177.533 413.794 173.237 413.995 170.116C414.09 168.645 414.175 167.408 414.238 166.424C414.313 165.545 414.365 165.069 414.397 165.069Z"
        fill="#263238" />
    <path d="M433.219 182.008L462.303 188.705L465.34 195.402L434.88 194.27L433.219 182.008Z"
        fill="#455A64" />
    <path
        d="M386.689 217.715C385.843 218.816 389.916 227.089 390.9 226.539L437.113 190.081L433.22 182.019L386.689 217.715Z"
        fill="#455A64" />
    <path d="M465.34 195.402L437.113 190.081L390.91 226.539L420.862 229.756L465.34 195.402Z"
        fill="#455A64" />
    <path opacity="0.3"
        d="M465.34 195.402L437.113 190.081L390.91 226.539L420.862 229.756L465.34 195.402Z"
        fill="black" />
    <path
        d="M414.948 225.439C414.948 225.439 411.997 219.715 417.72 214.436C423.444 209.146 427.295 209.664 428.819 210.278C430.342 210.881 436.87 215.134 436.87 215.134L443.028 213.039L442.52 221.091L436.881 233.797C436.87 233.776 424.28 236.167 414.948 225.439Z"
        fill="#4CD685" />
    <path
        d="M416.272 199.634C416.272 199.634 411.003 193.826 409.776 193.826C408.549 193.826 407.586 194.535 407.321 196.725C407.321 196.725 405.047 197.053 405.131 200.015C405.131 200.015 403.714 201.116 403.936 203.327C403.936 203.327 401.619 205.707 402.232 207.062C402.846 208.416 404.422 213.769 405.734 214.277C407.046 214.785 417.912 219.028 417.912 219.028L426.852 225.82C426.852 225.82 432.131 217.356 430.745 213.939C429.359 210.521 427.032 209.696 426.937 208.5C426.852 207.315 427.815 201.539 427.117 200.185C426.418 198.83 421.594 194.715 420.895 194.302C420.197 193.9 419.848 191.858 418.092 192.62C416.336 193.382 416.515 195.339 417.478 196.778C418.441 198.217 420.631 201.613 420.631 201.613L416.272 199.634Z"
        fill="#FFBF9D" />
    <path
        d="M462.653 189.467C462.643 189.435 433.643 182.875 433.664 182.939C433.696 182.992 437.113 189.456 437.113 189.456L465.076 194.831C465.076 194.831 462.664 189.499 462.653 189.467Z"
        fill="white" />
    <path
        d="M389.262 215.737C389.262 215.737 392.658 223.09 394.361 223.809L396.308 222.275C396.308 222.275 391.737 215.187 391.251 214.213L389.262 215.737Z"
        fill="white" />
    <path
        d="M424.598 188.663C424.598 188.663 427.994 195.402 429.285 196.301L431.379 194.598C431.379 194.598 427.084 188.102 426.587 187.128L424.598 188.663Z"
        fill="white" />
</svg>