<svg width="160" height="58" viewBox="0 0 160 58" fill="none" xmlns="http://www.w3.org/2000/svg">
    <g clip-path="url(#clip0_24_134)">
    <path d="M61.2565 3.0109L57.3905 6.22733C57.4162 6.77648 57.4349 7.33216 57.4474 7.89438C57.4732 8.45659 57.4856 8.95995 57.4856 9.40451C57.4856 11.1697 57.4732 12.9021 57.4474 14.6019C57.4349 16.2885 57.3522 17.8967 57.2001 19.4265C57.048 20.9431 56.8065 22.3487 56.4765 23.6431C56.1591 24.9245 55.6956 26.0359 55.0861 26.9772C54.4768 27.9056 53.7022 28.6378 52.7627 29.1738C51.8232 29.6968 50.6614 29.9584 49.2775 29.9584C47.881 29.9584 46.6875 29.6119 45.6972 28.9189C44.7069 28.2259 43.8688 27.2911 43.1832 26.1143C42.5103 24.9376 41.9644 23.5712 41.5454 22.0153C41.1391 20.4463 40.8154 18.7858 40.5741 17.0338C40.3329 15.2817 40.1552 13.4905 40.0409 11.6599C39.9393 9.82947 39.8505 8.05782 39.7742 6.345L35.9463 4.01112L49.2775 2.57942L45.1068 5.77624C45.0814 6.18157 45.0687 6.58689 45.0687 6.99221C45.0687 7.38446 45.0687 7.78325 45.0687 8.1886C45.0687 9.10383 45.0687 10.0844 45.0687 11.1305C45.0687 12.1765 45.0877 13.2486 45.1258 14.3469C45.1639 15.4321 45.221 16.5238 45.2972 17.6221C45.3734 18.7073 45.4813 19.7533 45.6209 20.7601C45.7734 21.7669 45.9638 22.7018 46.1923 23.5647C46.4208 24.4276 46.7065 25.1795 47.0493 25.8201C47.3922 26.4608 47.792 26.9642 48.2492 27.3303C48.7189 27.6964 49.2585 27.8794 49.868 27.8794C50.6805 27.8794 51.4233 27.6572 52.0961 27.2126C52.7691 26.768 53.3468 26.0751 53.8292 25.1337C54.3117 24.1793 54.6862 22.9567 54.9528 21.4662C55.2322 19.9756 55.3718 18.1779 55.3718 16.0727C55.3718 13.5101 55.283 11.4311 55.1052 9.83598C54.9402 8.2409 54.7815 7.05105 54.6291 6.26655L50.763 4.38376L61.2565 3.0109ZM101.822 1.97144L107.554 25.6632L112.087 26.3497L101.365 31.0567L105.021 26.2712L102.888 20.7993L93.0615 21.1327L91.0614 26.9576L94.7371 31.9392L83.3488 27.3107L88.9474 26.7419L90.5473 21.2112H89.6144L88.0144 19.1127L91.2517 18.7596L94.6988 6.91377L90.7946 4.81524L101.822 1.97144ZM93.9562 18.4458L101.555 17.5437L97.6506 7.6002L93.9562 18.4458ZM131.608 28.8405L109.725 29.723L114.563 25.3887L115.705 6.42345L110.468 3.61888L123.152 2.77555L119.134 5.58012L119.362 25.4671L128.179 26.585L131.608 19.956V28.8405Z" fill="black"/>
    <path d="M85.4816 21.9369C85.1384 23.7281 84.7008 25.2056 84.1672 26.3693C83.6344 27.5199 83.0946 28.4286 82.5485 29.0955C82.0025 29.7622 81.4884 30.2264 81.0063 30.4879C80.536 30.7494 80.181 30.8801 79.9392 30.8801C79.5585 30.8801 79.0694 30.7101 78.4735 30.3702C77.8767 30.0303 77.216 29.5922 76.4921 29.0562C75.7814 28.5201 75.0388 27.9187 74.2642 27.2518C73.5021 26.572 72.7657 25.8986 72.0551 25.2318C71.3444 24.5649 70.6899 23.9374 70.0932 23.349C69.4964 22.7606 69.0143 22.2768 68.6461 21.8977L68.7983 26.742L72.8172 29.0366L60.7238 29.9191L64.7801 26.0751L65.4845 6.34502L60.5327 3.89347C63.0086 3.74964 65.1101 3.64504 66.8372 3.57967C68.5635 3.50122 69.9918 3.44892 71.1221 3.42277C72.2516 3.39662 73.1214 3.38354 73.7306 3.38354C74.3407 3.38354 74.772 3.38354 75.0263 3.38354C75.5716 3.38354 76.1621 3.43585 76.7971 3.54045C77.4446 3.63197 78.0858 3.79541 78.7207 4.03076C79.3557 4.25303 79.9712 4.54068 80.568 4.89371C81.1647 5.24673 81.6913 5.6782 82.1484 6.18812C82.6055 6.69804 82.9674 7.29295 83.2342 7.97285C83.5135 8.63969 83.6531 9.39802 83.6531 10.2479C83.6531 10.444 83.6282 10.7186 83.5767 11.0716C83.5392 11.4116 83.4503 11.8103 83.3107 12.268C83.171 12.7125 82.9612 13.1897 82.6819 13.6997C82.4027 14.1965 82.022 14.6999 81.5391 15.2098C81.0695 15.7067 80.4853 16.1905 79.7871 16.6611C79.0889 17.1319 78.2449 17.5502 77.2542 17.9163C76.2768 18.2825 75.134 18.5832 73.8258 18.8185C72.5309 19.0408 71.0456 19.165 69.3701 19.1911C70.1954 19.8318 71.0901 20.5183 72.0551 21.2504C73.02 21.9696 73.9974 22.6364 74.9881 23.2509C75.978 23.8524 76.9492 24.3558 77.9017 24.761C78.8541 25.1533 79.7426 25.3495 80.568 25.3495C80.9619 25.3495 81.3808 25.3037 81.8246 25.2122C82.2818 25.1206 82.7264 24.9506 83.1578 24.7022C83.6024 24.4408 84.0213 24.0943 84.4152 23.6628C84.8217 23.2183 85.1766 22.6429 85.4816 21.9369ZM78.149 11.1697C78.149 10.7643 78.1178 10.359 78.0538 9.95368C77.9906 9.54841 77.8572 9.16265 77.6544 8.79658C77.4508 8.4305 77.159 8.08403 76.7784 7.75711C76.3969 7.43024 75.8829 7.14913 75.2354 6.91379C74.6004 6.67844 73.8133 6.49538 72.8741 6.36463C71.9341 6.22081 70.8108 6.1489 69.5027 6.1489C69.2999 6.1489 69.1033 6.1489 68.9129 6.1489C68.7226 6.1489 68.5252 6.16197 68.3224 6.18812L68.5128 16.6611C69.3123 16.6481 70.1064 16.5827 70.8935 16.465C71.6806 16.3342 72.4295 16.1578 73.1409 15.9355C73.8516 15.7132 74.5115 15.4452 75.1215 15.1313C75.7432 14.8176 76.2768 14.4646 76.7206 14.0723C77.1653 13.667 77.5148 13.2224 77.7683 12.7386C78.0226 12.2549 78.149 11.7319 78.149 11.1697Z" fill="#B400FF"/>
    <path d="M23.9901 28.7565L22.5046 40.2494L20.3144 31.8553L14.4677 32.5417L15.2486 52.1345L19.9716 54.6253L4.75491 56.1158L10.2969 51.9776L11.2683 32.7378L5.23106 32.5025L2.88859 39.6414L2.14581 29.0899L23.9901 28.7565ZM48.8624 47.6432C48.5196 49.4345 48.0815 50.912 47.5483 52.0757C47.0151 53.2263 46.4754 54.135 45.9295 54.8018C45.3836 55.4686 44.8694 55.9327 44.3869 56.1942C43.9171 56.4558 43.5616 56.5865 43.3204 56.5865C42.9395 56.5865 42.4507 56.4165 41.8539 56.0766C41.2572 55.7367 40.597 55.2986 39.8733 54.7625C39.1623 54.2265 38.4196 53.625 37.6451 52.9582C36.8833 52.2783 36.1469 51.605 35.4359 50.9382C34.7249 50.2713 34.071 49.6438 33.4743 49.0553C32.8776 48.467 32.3951 47.9832 32.0269 47.604L32.1793 52.4483L36.1977 54.7429L24.1043 55.6255L28.1608 51.7815L28.8655 32.0514L23.9139 29.5999C26.3897 29.456 28.4909 29.3514 30.2176 29.2861C31.9444 29.2076 33.3727 29.1553 34.5027 29.1291C35.6327 29.103 36.5024 29.0899 37.1118 29.0899C37.7213 29.0899 38.153 29.0899 38.4069 29.0899C38.9528 29.0899 39.5432 29.1422 40.178 29.2468C40.8256 29.3384 41.4667 29.5018 42.1015 29.7371C42.7363 29.9594 43.3521 30.247 43.9489 30.6001C44.5456 30.9531 45.0725 31.3846 45.5296 31.8945C45.9866 32.4044 46.3485 32.9994 46.6151 33.6792C46.8944 34.3461 47.0341 35.1044 47.0341 35.9542C47.0341 36.1504 47.0087 36.425 46.9579 36.778C46.9198 37.1179 46.8309 37.5167 46.6913 37.9744C46.5516 38.4189 46.3421 38.8961 46.0628 39.406C45.7835 39.9029 45.4026 40.4063 44.9201 40.9162C44.4504 41.4131 43.8663 41.8968 43.168 42.3675C42.4697 42.8382 41.6254 43.2566 40.6351 43.6227C39.6575 43.9888 38.5148 44.2895 37.207 44.5249C35.9121 44.7472 34.4266 44.8714 32.7506 44.8975C33.5759 45.5382 34.471 46.2246 35.4359 46.9568C36.4008 47.6759 37.3784 48.3428 38.3688 48.9573C39.3591 49.5588 40.3304 50.0621 41.2826 50.4674C42.2348 50.8597 43.1236 51.0558 43.9489 51.0558C44.3424 51.0558 44.7615 51.0101 45.2058 50.9186C45.6629 50.827 46.1072 50.657 46.5389 50.4086C46.9833 50.1471 47.4023 49.8006 47.7959 49.3692C48.2022 48.9246 48.5577 48.3493 48.8624 47.6432ZM41.5302 36.876C41.5302 36.4707 41.4984 36.0654 41.4349 35.6601C41.3715 35.2548 41.2382 34.869 41.035 34.5029C40.8319 34.1369 40.5399 33.7904 40.159 33.4634C39.7781 33.1366 39.2639 32.8555 38.6164 32.6201C37.9815 32.3848 37.1943 32.2017 36.2548 32.071C35.3153 31.9272 34.1916 31.8553 32.8839 31.8553C32.6808 31.8553 32.484 31.8553 32.2935 31.8553C32.103 31.8553 31.9063 31.8684 31.7031 31.8945L31.8936 42.3675C32.6935 42.3545 33.487 42.2891 34.2741 42.1714C35.0614 42.0406 35.8104 41.8641 36.5214 41.6418C37.2325 41.4196 37.8926 41.1516 38.5021 40.8377C39.1242 40.5239 39.6575 40.171 40.1018 39.7787C40.5462 39.3733 40.8954 38.9288 41.1493 38.445C41.4032 37.9613 41.5302 37.4383 41.5302 36.876ZM65.2029 27.6778L70.9348 51.3696L75.4678 52.0561L64.7457 56.7631L68.4019 51.9776L66.2692 46.5057L56.4421 46.8391L54.4424 52.664L58.1183 57.6456L46.7294 53.0171L52.3285 52.4483L53.9283 46.9176H52.9951L51.3953 44.8191L54.6329 44.466L58.0801 32.6201L54.1758 30.5216L65.2029 27.6778ZM57.3374 44.1522L64.9361 43.2501L61.0318 33.3066L57.3374 44.1522ZM106.777 52.6248L118.794 51.4088L122.679 44.9368L121.251 55.7824L102.321 54.8606L115.08 32.5809L105.768 34.8167L103.464 39.5629L102.911 27.7955L104.949 30.2863L122.679 29.4037L106.777 52.6248ZM132.201 34.1107L132.754 51.8599L136.696 54.7037L123.194 55.9197L127.841 51.9384L129.002 32.934L125.022 29.7175L136.621 30.4432L132.201 34.1107ZM159.74 28.7565L158.255 40.2494L156.065 31.8553L150.218 32.5417L150.999 52.1345L155.722 54.6253L140.505 56.1158L146.047 51.9776L147.019 32.7378L140.981 32.5025L138.639 39.6414L137.896 29.0899L159.74 28.7565Z" fill="black"/>
    <path d="M103.33 29.2076L97.9213 30.8158L95.1411 55.8216L82.8191 36.2681L80.8768 51.448L86.1711 54.3506L73.6588 55.3117L78.6481 51.448L79.0101 31.816L73.3156 29.7567L85.7522 27.6386L93.1605 47.349L95.4266 31.3257L91.2556 27.2659L103.33 29.2076Z" fill="#B400FF"/>
    <path d="M58.9163 1.40424L55.0503 4.62067C55.0758 5.16982 55.0948 5.7255 55.1075 6.28772C55.1329 6.84995 55.1456 7.35333 55.1456 7.79788C55.1456 9.563 55.1329 11.2954 55.1075 12.9952C55.0948 14.6819 55.0123 16.29 54.8599 17.8198C54.7076 19.3365 54.4663 20.7421 54.1363 22.0365C53.8188 23.3178 53.3554 24.4292 52.7459 25.3706C52.1365 26.2989 51.362 27.0311 50.4225 27.5672C49.483 28.0901 48.3212 28.3517 46.9373 28.3517C45.5407 28.3517 44.3472 28.0052 43.3569 27.3122C42.3666 26.6193 41.5286 25.6844 40.843 24.5076C40.1701 23.3309 39.6242 21.9646 39.2052 20.4087C38.7989 18.8396 38.4752 17.1792 38.2339 15.4271C37.9927 13.6751 37.8149 11.8838 37.7007 10.0533C37.5991 8.22281 37.5103 6.45116 37.434 4.73834L33.6061 2.40446L46.9373 0.972763L42.7666 4.16958C42.7412 4.57491 42.7284 4.98023 42.7284 5.38555C42.7284 5.7778 42.7284 6.17658 42.7284 6.58191C42.7284 7.49715 42.7284 8.47779 42.7284 9.52379C42.7284 10.5698 42.7475 11.6419 42.7856 12.7402C42.8237 13.8254 42.8808 14.9172 42.957 16.0155C43.0332 17.1007 43.1411 18.1467 43.2807 19.1535C43.4332 20.1602 43.6236 21.0951 43.8521 21.958C44.0806 22.821 44.3663 23.5728 44.7091 24.2135C45.052 24.8541 45.4518 25.3576 45.9089 25.7236C46.3787 26.0897 46.9183 26.2728 47.5277 26.2728C48.3403 26.2728 49.083 26.0505 49.7559 25.6059C50.4289 25.1614 51.0065 24.4684 51.489 23.527C51.9715 22.5726 52.346 21.35 52.6126 19.8595C52.892 18.369 53.0316 16.5712 53.0316 14.4661C53.0316 11.9034 52.9427 9.82448 52.765 8.22932C52.6 6.63421 52.4412 5.44439 52.2889 4.65989L48.4228 2.7771L58.9163 1.40424ZM99.4814 0.364777L105.214 24.0566L109.746 24.743L99.0243 29.45L102.681 24.6645L100.548 19.1927L90.7213 19.5261L88.7212 25.351L92.3969 30.3325L81.0086 25.704L86.6072 25.1353L88.2071 19.6045H87.2741L85.6742 17.506L88.9115 17.153L92.3586 5.30711L88.4544 3.20857L99.4814 0.364777ZM91.616 16.8392L99.2147 15.9371L95.3104 5.99354L91.616 16.8392ZM129.268 27.2338L107.385 28.1163L112.222 23.782L113.365 4.81679L108.128 2.01222L120.812 1.16889L116.794 3.97346L117.021 23.8604L125.839 24.9784L129.268 18.3494V27.2338Z" fill="black"/>
    <path d="M83.1413 20.3302C82.7981 22.1215 82.3605 23.5989 81.8269 24.7626C81.2941 25.9132 80.7543 26.822 80.2083 27.4888C79.6622 28.1556 79.1482 28.6197 78.6661 28.8812C78.1957 29.1428 77.8408 29.2735 77.5989 29.2735C77.2183 29.2735 76.7292 29.1035 76.1332 28.7636C75.5364 28.4236 74.8757 27.9856 74.1518 27.4495C73.4412 26.9135 72.6985 26.312 71.9239 25.6452C71.1618 24.9653 70.4254 24.292 69.7148 23.6251C69.0041 22.9583 68.3497 22.3307 67.7529 21.7423C67.1562 21.1539 66.6741 20.6702 66.3059 20.291L66.458 25.1353L70.4769 27.4299L58.3835 28.3124L62.4399 24.4685L63.1443 4.73836L58.1924 2.28681C60.6683 2.14298 62.7698 2.03838 64.4969 1.97301C66.2232 1.89456 67.6515 1.84226 68.7818 1.81611C69.9114 1.78996 70.7811 1.77689 71.3904 1.77689C72.0004 1.77689 72.4318 1.77689 72.6861 1.77689C73.2313 1.77689 73.8218 1.82919 74.4568 1.93379C75.1043 2.02531 75.7455 2.18875 76.3805 2.4241C77.0154 2.64637 77.6309 2.93402 78.2277 3.28705C78.8244 3.64007 79.351 4.07154 79.8081 4.58146C80.2652 5.09139 80.6272 5.68629 80.894 6.36619C81.1732 7.03301 81.3129 7.79136 81.3129 8.6412C81.3129 8.83737 81.2879 9.11195 81.2364 9.46493C81.199 9.8049 81.11 10.2037 80.9704 10.6613C80.8308 11.1059 80.6209 11.5831 80.3417 12.093C80.0624 12.5899 79.6817 13.0932 79.1989 13.6032C78.7293 14.1 78.145 14.5838 77.4468 15.0545C76.7487 15.5252 75.9046 15.9436 74.9139 16.3097C73.9365 16.6758 72.7937 16.9765 71.4855 17.2119C70.1906 17.4341 68.7054 17.5583 67.0298 17.5844C67.8551 18.2252 68.7498 18.9116 69.7148 19.6438C70.6797 20.3629 71.6572 21.0297 72.6478 21.6443C73.6378 22.2457 74.6089 22.7491 75.5614 23.1544C76.5139 23.5466 77.4024 23.7428 78.2277 23.7428C78.6216 23.7428 79.0405 23.697 79.4844 23.6055C79.9415 23.5139 80.3861 23.344 80.8175 23.0956C81.2621 22.8341 81.681 22.4876 82.075 22.0562C82.4814 21.6116 82.8363 21.0363 83.1413 20.3302ZM75.8087 9.56302C75.8087 9.15766 75.7775 8.75238 75.7135 8.34702C75.6503 7.94172 75.5169 7.55601 75.3141 7.18992C75.1105 6.82382 74.8188 6.47733 74.4381 6.15046C74.0566 5.82358 73.5426 5.54247 72.8951 5.30713C72.2602 5.07178 71.4731 4.88872 70.5339 4.75797C69.5939 4.61415 68.4706 4.54224 67.1624 4.54224C66.9596 4.54224 66.763 4.54224 66.5727 4.54224C66.3823 4.54224 66.185 4.55531 65.9822 4.58146L66.1725 15.0545C66.9721 15.0414 67.7662 14.9761 68.5533 14.8584C69.3404 14.7276 70.0892 14.5511 70.8006 14.3288C71.5113 14.1065 72.1712 13.8385 72.7812 13.5247C73.4029 13.2109 73.9365 12.8579 74.3804 12.4657C74.825 12.0603 75.1745 11.6158 75.428 11.132C75.6823 10.6482 75.8087 10.1253 75.8087 9.56302Z" fill="#B400FF"/>
    <path d="M21.6499 27.1498L20.1644 38.6427L17.9742 30.2486L12.1275 30.935L12.9083 50.5278L17.6314 53.0186L2.4147 54.5091L7.9567 50.3709L8.92804 31.1311L2.89086 30.8958L0.548385 38.0347L-0.194397 27.4832L21.6499 27.1498ZM46.5222 46.0365C46.1794 47.8278 45.7413 49.3053 45.2081 50.469C44.6749 51.6196 44.1352 52.5283 43.5893 53.1951C43.0434 53.8619 42.5291 54.3261 42.0467 54.5875C41.5769 54.8491 41.2214 54.9798 40.9802 54.9798C40.5993 54.9798 40.1105 54.8098 39.5137 54.4699C38.917 54.13 38.2568 53.6919 37.5331 53.1558C36.8221 52.6198 36.0794 52.0183 35.3048 51.3515C34.5431 50.6717 33.8067 49.9983 33.0957 49.3315C32.3847 48.6646 31.7308 48.0371 31.1341 47.4486C30.5374 46.8603 30.0549 46.3765 29.6867 45.9973L29.8391 50.8416L33.8575 53.1362L21.7641 54.0188L25.8206 50.1748L26.5253 30.4447L21.5737 27.9932C24.0495 27.8493 26.1507 27.7447 27.8774 27.6794C29.6042 27.6009 31.0325 27.5486 32.1625 27.5224C33.2925 27.4963 34.1622 27.4832 34.7716 27.4832C35.3811 27.4832 35.8127 27.4832 36.0667 27.4832C36.6126 27.4832 37.203 27.5355 37.8378 27.6401C38.4853 27.7317 39.1265 27.8951 39.7613 28.1305C40.3961 28.3527 41.0119 28.6403 41.6087 28.9934C42.2054 29.3464 42.7323 29.7779 43.1894 30.2878C43.6464 30.7977 44.0083 31.3927 44.2749 32.0725C44.5542 32.7394 44.6939 33.4977 44.6939 34.3475C44.6939 34.5437 44.6685 34.8183 44.6177 35.1713C44.5796 35.5112 44.4907 35.91 44.3511 36.3677C44.2114 36.8122 44.0019 37.2894 43.7226 37.7993C43.4433 38.2962 43.0624 38.7996 42.5799 39.3095C42.1102 39.8064 41.5261 40.2901 40.8278 40.7608C40.1295 41.2315 39.2852 41.6499 38.2948 42.016C37.3173 42.3821 36.1745 42.6828 34.8668 42.9182C33.5718 43.1405 32.0864 43.2647 30.4104 43.2908C31.2357 43.9315 32.1307 44.618 33.0957 45.3501C34.0606 46.0692 35.0382 46.7361 36.0286 47.3506C37.0189 47.9521 37.9902 48.4554 38.9424 48.8607C39.8946 49.253 40.7833 49.4492 41.6087 49.4492C42.0022 49.4492 42.4213 49.4034 42.8656 49.3119C43.3227 49.2203 43.767 49.0503 44.1987 48.8019C44.6431 48.5404 45.0621 48.194 45.4556 47.7625C45.862 47.3179 46.2175 46.7426 46.5222 46.0365ZM39.19 35.2694C39.19 34.864 39.1582 34.4587 39.0947 34.0534C39.0313 33.6481 38.898 33.2623 38.6948 32.8963C38.4917 32.5302 38.1997 32.1837 37.8188 31.8568C37.4379 31.5299 36.9236 31.2488 36.2762 31.0134C35.6413 30.7781 34.8541 30.5951 33.9146 30.4644C32.9751 30.3205 31.8514 30.2486 30.5437 30.2486C30.3406 30.2486 30.1437 30.2486 29.9533 30.2486C29.7628 30.2486 29.5661 30.2617 29.3629 30.2878L29.5534 40.7608C30.3533 40.7478 31.1468 40.6824 31.9339 40.5647C32.7212 40.4339 33.4702 40.2574 34.1812 40.0352C34.8923 39.8129 35.5524 39.5449 36.1619 39.231C36.784 38.9173 37.3173 38.5643 37.7616 38.172C38.206 37.7667 38.5552 37.3221 38.8091 36.8383C39.063 36.3546 39.19 35.8316 39.19 35.2694ZM62.8627 26.0711L68.5946 49.7629L73.1276 50.4494L62.4055 55.1564L66.0617 50.3709L63.929 44.899L54.1019 45.2324L52.1022 51.0573L55.7779 56.0389L44.3891 51.4104L49.9883 50.8416L51.5881 45.3109H50.6549L49.0551 43.2124L52.2927 42.8593L55.7398 31.0134L51.8356 28.9149L62.8627 26.0711ZM54.9971 42.5455L62.5959 41.6434L58.6916 31.6999L54.9971 42.5455ZM104.437 51.0181L116.454 49.8021L120.339 43.3301L118.911 54.1757L99.9807 53.2539L112.74 30.9742L103.428 33.21L101.123 37.9562L100.571 26.1888L102.609 28.6796L120.339 27.797L104.437 51.0181ZM129.861 32.504L130.414 50.2532L134.356 53.097L120.854 54.313L125.501 50.3317L126.662 31.3273L122.681 28.1109L134.28 28.8365L129.861 32.504ZM157.4 27.1498L155.915 38.6427L153.724 30.2486L147.878 30.935L148.659 50.5278L153.382 53.0186L138.165 54.5091L143.707 50.3709L144.679 31.1311L138.641 30.8958L136.298 38.0347L135.556 27.4832L157.4 27.1498Z" fill="black"/>
    <path d="M100.99 27.6009L95.5811 29.2092L92.801 54.215L80.479 34.6614L78.5366 49.8414L83.8309 52.744L71.3186 53.705L76.308 49.8414L76.6699 30.2094L70.9754 28.1501L83.412 26.032L90.8204 45.7424L93.0865 29.7191L88.9154 25.6593L100.99 27.6009Z" fill="#B400FF"/>
    </g>
    <defs>
    <clipPath id="clip0_24_134">
    <rect width="160" height="58" fill="white"/>
    </clipPath>
    </defs>
    </svg>
    