<svg width="160" height="58" viewBox="0 0 160 58" fill="none" xmlns="http://www.w3.org/2000/svg">
    <g clip-path="url(#clip0_31_190)">
        <path
            d="M61.3596 3.01928L57.4915 6.24464C57.5173 6.79532 57.536 7.35255 57.5485 7.91633C57.5742 8.4801 57.5867 8.98486 57.5867 9.43065C57.5867 11.2007 57.5742 12.938 57.5485 14.6424C57.536 16.3338 57.4533 17.9464 57.3011 19.4804C57.1489 21.0013 56.9072 22.4108 56.577 23.7088C56.2594 24.9937 55.7958 26.1082 55.186 27.0522C54.5762 27.9831 53.8013 28.7173 52.8613 29.2549C51.9213 29.7793 50.7589 30.0416 49.3742 30.0416C47.9769 30.0416 46.7828 29.6942 45.7919 28.9992C44.8011 28.3043 43.9626 27.3669 43.2766 26.1869C42.6034 25.0069 42.0571 23.6367 41.6379 22.0765C41.2315 20.5031 40.9076 18.838 40.6662 17.0811C40.4248 15.3242 40.2469 13.528 40.1326 11.6923C40.031 9.85679 39.9421 8.08022 39.8658 6.36265L36.0358 4.02228L49.3742 2.58661L45.2013 5.79231C45.1758 6.19876 45.1631 6.6052 45.1631 7.01165C45.1631 7.40499 45.1631 7.80488 45.1631 8.21137C45.1631 9.12914 45.1631 10.1125 45.1631 11.1614C45.1631 12.2103 45.1821 13.2854 45.2203 14.3868C45.2584 15.475 45.3155 16.5697 45.3918 17.6711C45.468 18.7593 45.576 19.8082 45.7157 20.8178C45.8682 21.8273 46.0587 22.7649 46.2874 23.6302C46.516 24.4955 46.8018 25.2494 47.1448 25.8919C47.4878 26.5343 47.8879 27.0391 48.3453 27.4062C48.8153 27.7733 49.3552 27.9569 49.965 27.9569C50.7779 27.9569 51.5211 27.734 52.1943 27.2882C52.8677 26.8424 53.4456 26.1475 53.9284 25.2035C54.4111 24.2464 54.7858 23.0205 55.0526 21.5258C55.3321 20.0311 55.4718 18.2284 55.4718 16.1174C55.4718 13.5476 55.3829 11.4629 55.205 9.86332C55.0399 8.26381 54.8811 7.07065 54.7287 6.28398L50.8605 4.39596L61.3596 3.01928ZM101.947 1.97693L107.682 25.7345L112.217 26.4229L101.489 31.143L105.148 26.3442L103.013 20.8571L93.1817 21.1914L91.1805 27.0325L94.8582 32.0279L83.4638 27.3866L89.0654 26.8162L90.6661 21.2701H89.7327L88.1319 19.1658L91.3709 18.8118L94.8199 6.93299L90.9136 4.82863L101.947 1.97693ZM94.0769 18.4971L101.68 17.5925L97.7733 7.62133L94.0769 18.4971ZM131.749 28.9206L109.854 29.8056L114.694 25.4592L115.838 6.44131L110.597 3.62895L123.288 2.78327L119.268 5.59564L119.496 25.5378L128.318 26.6589L131.749 20.0115V28.9206Z"
            fill="black" />
        <path
            d="M85.5977 21.9978C85.2542 23.794 84.8164 25.2756 84.2825 26.4425C83.7495 27.5963 83.2094 28.5076 82.663 29.1763C82.1167 29.8449 81.6023 30.3103 81.12 30.5725C80.6494 30.8348 80.2942 30.9659 80.0523 30.9659C79.6714 30.9659 79.182 30.7954 78.5858 30.4546C77.9887 30.1137 77.3276 29.6744 76.6033 29.1369C75.8923 28.5993 75.1493 27.9962 74.3742 27.3275C73.6117 26.6458 72.8749 25.9706 72.1639 25.3019C71.4529 24.6332 70.798 24.0039 70.201 23.4138C69.6039 22.8238 69.1216 22.3387 68.7532 21.9585L68.9054 26.8162L72.9264 29.1172L60.8265 30.0022L64.8851 26.1475L65.5899 6.36265L60.6353 3.90429C63.1126 3.76006 65.2152 3.65517 66.9432 3.58961C68.6704 3.51095 70.0995 3.4585 71.2304 3.43228C72.3606 3.40606 73.2308 3.39294 73.8404 3.39294C74.4507 3.39294 74.8823 3.39294 75.1368 3.39294C75.6823 3.39294 76.2732 3.44539 76.9085 3.55029C77.5563 3.64206 78.1979 3.80595 78.8332 4.04196C79.4685 4.26485 80.0843 4.55329 80.6814 4.9073C81.2784 5.2613 81.8053 5.69397 82.2626 6.20531C82.72 6.71665 83.0821 7.31321 83.3491 7.99499C83.6285 8.66369 83.7682 9.42413 83.7682 10.2763C83.7682 10.473 83.7432 10.7484 83.6917 11.1023C83.6542 11.4433 83.5653 11.8431 83.4256 12.3021C83.2859 12.7479 83.0759 13.2264 82.7965 13.7377C82.5171 14.236 82.1362 14.7407 81.6531 15.2521C81.1832 15.7503 80.5986 16.2354 79.9001 16.7074C79.2016 17.1795 78.3571 17.599 77.3658 17.9661C76.3879 18.3333 75.2445 18.6348 73.9356 18.8708C72.64 19.0937 71.1539 19.2182 69.4775 19.2444C70.3032 19.8869 71.1984 20.5753 72.1639 21.3095C73.1294 22.0306 74.1073 22.6993 75.0985 23.3155C76.089 23.9187 77.0607 24.4234 78.0137 24.8298C78.9666 25.2232 79.8556 25.4199 80.6814 25.4199C81.0755 25.4199 81.4946 25.374 81.9387 25.2822C82.3961 25.1904 82.841 25.0199 83.2726 24.7708C83.7175 24.5086 84.1366 24.1612 84.5307 23.7285C84.9374 23.2827 85.2925 22.7058 85.5977 21.9978ZM78.2611 11.2007C78.2611 10.7942 78.2299 10.3878 78.1659 9.98133C78.1026 9.57493 77.9692 9.1881 77.7662 8.82101C77.5625 8.45392 77.2706 8.10648 76.8898 7.77866C76.5081 7.45088 75.9938 7.16899 75.3459 6.93299C74.7106 6.69699 73.9231 6.51343 72.9834 6.38231C72.0429 6.23809 70.919 6.16598 69.6101 6.16598C69.4072 6.16598 69.2105 6.16598 69.0201 6.16598C68.8297 6.16598 68.6322 6.17909 68.4293 6.20531L68.6197 16.7074C69.4197 16.6943 70.2142 16.6288 71.0018 16.5108C71.7893 16.3796 72.5385 16.2026 73.2503 15.9797C73.9614 15.7568 74.6217 15.4881 75.232 15.1734C75.854 14.8587 76.3879 14.5048 76.832 14.1114C77.2769 13.7049 77.6265 13.2591 77.8802 12.774C78.1346 12.2889 78.2611 11.7645 78.2611 11.2007Z"
            fill="#B400FF" />
        <path
            d="M24.0732 28.8364L22.5869 40.3612L20.3956 31.9437L14.5457 32.6321L15.327 52.2793L20.0526 54.777L4.82772 56.2717L10.3727 52.122L11.3446 32.8287L5.30413 32.5928L2.9604 39.7515L2.21722 29.1707L24.0732 28.8364ZM48.9588 47.7756C48.6159 49.5718 48.1776 51.0534 47.644 52.2203C47.1106 53.3741 46.5706 54.2854 46.0245 54.954C45.4782 55.6227 44.9637 56.0881 44.481 56.3503C44.0109 56.6126 43.6553 56.7437 43.4139 56.7437C43.0328 56.7437 42.5437 56.5732 41.9466 56.2324C41.3496 55.8915 40.689 55.4522 39.965 54.9146C39.2536 54.3771 38.5105 53.774 37.7355 53.1053C36.9734 52.4235 36.2366 51.7483 35.5252 51.0796C34.8138 50.4109 34.1595 49.7816 33.5626 49.1916C32.9655 48.6016 32.4827 48.1165 32.1144 47.7363L32.2668 52.594L36.2874 54.895L24.1875 55.78L28.2462 51.9253L28.9513 32.1404L23.997 29.6821C26.4741 29.5378 28.5765 29.4329 30.3041 29.3674C32.0318 29.2887 33.4609 29.2363 34.5915 29.21C35.7221 29.1838 36.5923 29.1707 37.202 29.1707C37.8118 29.1707 38.2437 29.1707 38.4977 29.1707C39.044 29.1707 39.6347 29.2231 40.2698 29.328C40.9177 29.4199 41.5592 29.5837 42.1944 29.8197C42.8295 30.0426 43.4456 30.331 44.0427 30.6851C44.6398 31.039 45.1669 31.4718 45.6243 31.9831C46.0816 32.4944 46.4436 33.091 46.7104 33.7728C46.9898 34.4415 47.1296 35.2019 47.1296 36.0541C47.1296 36.2508 47.1042 36.5262 47.0534 36.8801C47.0153 37.221 46.9263 37.6209 46.7866 38.0798C46.6469 38.5256 46.4372 39.0041 46.1578 39.5155C45.8783 40.0137 45.4972 40.5185 45.0145 41.0299C44.5445 41.5281 43.9601 42.0132 43.2614 42.4852C42.5628 42.9572 41.718 43.3768 40.7271 43.7438C39.749 44.111 38.6057 44.4125 37.2973 44.6486C36.0016 44.8715 34.5153 44.996 32.8384 45.0222C33.6642 45.6647 34.5597 46.353 35.5252 47.0872C36.4906 47.8084 37.4687 48.4771 38.4596 49.0933C39.4505 49.6964 40.4223 50.2012 41.375 50.6076C42.3277 51.0009 43.217 51.1977 44.0427 51.1977C44.4365 51.1977 44.8557 51.1517 45.3003 51.06C45.7577 50.9682 46.2022 50.7977 46.6342 50.5486C47.0788 50.2864 47.498 49.939 47.8918 49.5063C48.2983 49.0605 48.654 48.4836 48.9588 47.7756ZM41.6227 36.9785C41.6227 36.572 41.591 36.1656 41.5274 35.7591C41.464 35.3527 41.3306 34.9659 41.1273 34.5988C40.924 34.2317 40.6319 33.8843 40.2508 33.5564C39.8697 33.2286 39.3552 32.9467 38.7074 32.7107C38.0721 32.4748 37.2845 32.2912 36.3445 32.1601C35.4045 32.0158 34.2802 31.9437 32.9718 31.9437C32.7686 31.9437 32.5716 31.9437 32.3811 31.9437C32.1905 31.9437 31.9937 31.9569 31.7904 31.9831L31.981 42.4852C32.7813 42.4721 33.5752 42.4065 34.3628 42.2885C35.1505 42.1574 35.8999 41.9804 36.6113 41.7575C37.3227 41.5346 37.9832 41.2659 38.593 40.9511C39.2155 40.6365 39.749 40.2825 40.1936 39.8892C40.6382 39.4827 40.9876 39.0369 41.2416 38.5518C41.4957 38.0667 41.6227 37.5423 41.6227 36.9785ZM65.3081 27.7547L71.0431 51.5123L75.5786 52.2006L64.8507 56.9207L68.5089 52.122L66.375 46.6349L56.5427 46.9692L54.5419 52.8103L58.2197 57.8057L46.8247 53.1643L52.4269 52.594L54.0275 47.0479H53.0938L51.4932 44.9436L54.7325 44.5895L58.1815 32.7107L54.2751 30.6064L65.3081 27.7547ZM57.4385 44.2749L65.0412 43.3702L61.1348 33.3991L57.4385 44.2749ZM106.905 52.771L118.928 51.5516L122.815 45.0616L121.386 55.9374L102.446 55.013L115.213 32.6714L105.895 34.9134L103.589 39.6728L103.037 27.8727L105.076 30.3704L122.815 29.4854L106.905 52.771ZM132.343 34.2054L132.895 52.0039L136.84 54.8557L123.33 56.0751L127.98 52.0826L129.142 33.0254L125.159 29.8001L136.764 30.5277L132.343 34.2054ZM159.896 28.8364L158.41 40.3612L156.219 31.9437L150.369 32.6321L151.15 52.2793L155.876 54.777L140.651 56.2717L146.196 52.122L147.168 32.8287L141.127 32.5928L138.783 39.7515L138.04 29.1707L159.896 28.8364Z"
            fill="black" />
        <path
            d="M103.456 29.2887L98.0441 30.9014L95.2624 55.9767L82.9339 36.3688L80.9904 51.5909L86.2876 54.5016L73.7686 55.4653L78.7606 51.5909L79.1227 31.9044L73.4252 29.8394L85.8685 27.7154L93.2808 47.4806L95.5481 31.4127L91.3748 27.3417L103.456 29.2887Z"
            fill="#B400FF" />
        <g filter="url(#filter0_i_31_190)">
            <path
                d="M59.0181 1.40816L55.1501 4.63353C55.1756 5.1842 55.1946 5.74143 55.2073 6.30521C55.2327 6.869 55.2454 7.37378 55.2454 7.81956C55.2454 9.58959 55.2327 11.3268 55.2073 13.0313C55.1946 14.7227 55.112 16.3353 54.9596 17.8693C54.8072 19.3902 54.5658 20.7997 54.2356 22.0977C53.918 23.3826 53.4543 24.4971 52.8445 25.4411C52.2348 26.372 51.4598 27.1062 50.5198 27.6438C49.5798 28.1682 48.4174 28.4305 47.0327 28.4305C45.6354 28.4305 44.4413 28.083 43.4505 27.3881C42.4596 26.6932 41.6212 25.7558 40.9352 24.5757C40.2619 23.3958 39.7157 22.0256 39.2965 20.4654C38.89 18.892 38.5661 17.2269 38.3247 15.47C38.0834 13.7131 37.9055 11.9168 37.7911 10.0812C37.6895 8.24568 37.6006 6.4691 37.5244 4.75153L33.6944 2.41117L47.0327 0.975489L42.8598 4.18119C42.8343 4.58764 42.8216 4.99408 42.8216 5.40054C42.8216 5.79387 42.8216 6.19377 42.8216 6.60022C42.8216 7.518 42.8216 8.50136 42.8216 9.55027C42.8216 10.5992 42.8407 11.6743 42.8788 12.7756C42.9169 13.8639 42.9741 14.9586 43.0503 16.06C43.1266 17.1482 43.2345 18.1971 43.3742 19.2067C43.5267 20.2162 43.7172 21.1537 43.9459 22.0191C44.1745 22.8844 44.4603 23.6383 44.8034 24.2807C45.1464 24.9232 45.5465 25.428 46.0038 25.7951C46.4738 26.1622 47.0137 26.3458 47.6235 26.3458C48.4365 26.3458 49.1796 26.1229 49.8529 25.6771C50.5262 25.2313 51.1042 24.5364 51.5869 23.5924C52.0696 22.6353 52.4443 21.4093 52.7111 19.9147C52.9906 18.42 53.1303 16.6173 53.1303 14.5063C53.1303 11.9365 53.0414 9.85179 52.8635 8.2522C52.6985 6.65266 52.5396 5.45953 52.3872 4.67286L48.519 2.78484L59.0181 1.40816ZM99.6051 0.365814L105.341 24.1234L109.876 24.8118L99.1477 29.5318L102.807 24.7331L100.672 19.246L90.8402 19.5803L88.839 25.4214L92.5167 30.4168L81.1223 25.7755L86.7239 25.2051L88.3247 19.659H87.3912L85.7904 17.5547L89.0295 17.2006L92.4784 5.32187L88.5721 3.21751L99.6051 0.365814ZM91.7354 16.886L99.3381 15.9813L95.4318 6.01021L91.7354 16.886ZM129.407 27.3095L107.513 28.1945L112.353 23.8481L113.496 4.83019L108.256 2.01783L120.947 1.17216L116.926 3.98452L117.154 23.9267L125.977 25.0478L129.407 18.4004V27.3095Z"
                fill="white" />
            <path
                d="M83.2562 20.3867C82.9128 22.1829 82.4749 23.6645 81.9411 24.8314C81.408 25.9852 80.8679 26.8965 80.3216 27.5652C79.7752 28.2338 79.2609 28.6992 78.7785 28.9614C78.3079 29.2237 77.9528 29.3548 77.7108 29.3548C77.33 29.3548 76.8406 29.1843 76.2443 28.8435C75.6472 28.5026 74.9861 28.0633 74.2619 27.5258C73.5508 26.9882 72.8078 26.3851 72.0328 25.7164C71.2702 25.0347 70.5335 24.3594 69.8224 23.6908C69.1114 23.0221 68.4566 22.3928 67.8595 21.8027C67.2624 21.2127 66.7801 20.7276 66.4117 20.3474L66.5639 25.2051L70.585 27.5061L58.4851 28.3911L62.5436 24.5364L63.2484 4.75153L58.2939 2.29317C60.7711 2.14895 62.8738 2.04405 64.6018 1.9785C66.329 1.89984 67.758 1.84739 68.889 1.82117C70.0191 1.79494 70.8894 1.78183 71.4989 1.78183C72.1093 1.78183 72.5409 1.78183 72.7953 1.78183C73.3409 1.78183 73.9317 1.83428 74.567 1.93917C75.2148 2.03095 75.8564 2.19484 76.4917 2.43084C77.127 2.65373 77.7428 2.94218 78.3399 3.29619C78.937 3.65019 79.4638 4.08286 79.9212 4.59419C80.3785 5.10554 80.7407 5.7021 81.0076 6.38388C81.287 7.05256 81.4267 7.81301 81.4267 8.66521C81.4267 8.86193 81.4018 9.13727 81.3502 9.49123C81.3128 9.83214 81.2238 10.232 81.0841 10.6909C80.9444 11.1367 80.7344 11.6152 80.455 12.1266C80.1756 12.6248 79.7947 13.1296 79.3116 13.641C78.8418 14.1392 78.2572 14.6243 77.5586 15.0963C76.8601 15.5683 76.0156 15.9879 75.0244 16.355C74.0464 16.7221 72.903 17.0237 71.5941 17.2597C70.2985 17.4826 68.8125 17.6071 67.136 17.6333C67.9618 18.2758 68.857 18.9642 69.8224 19.6983C70.7879 20.4195 71.7659 21.0882 72.7571 21.7044C73.7475 22.3075 74.7192 22.8123 75.6722 23.2187C76.6252 23.6121 77.5141 23.8088 78.3399 23.8088C78.734 23.8088 79.1532 23.7629 79.5973 23.6711C80.0546 23.5793 80.4995 23.4088 80.9311 23.1597C81.376 22.8975 81.7951 22.5501 82.1893 22.1174C82.5959 21.6716 82.951 21.0947 83.2562 20.3867ZM75.9196 9.58959C75.9196 9.1831 75.8884 8.7767 75.8244 8.37022C75.7612 7.96379 75.6277 7.577 75.4248 7.2099C75.2211 6.84278 74.9292 6.49533 74.5483 6.16755C74.1666 5.83977 73.6523 5.55787 73.0045 5.32188C72.3692 5.08587 71.5817 4.90231 70.642 4.7712C69.7015 4.62698 68.5776 4.55487 67.2687 4.55487C67.0658 4.55487 66.8691 4.55487 66.6786 4.55487C66.4882 4.55487 66.2907 4.56797 66.0878 4.59419L66.2782 15.0963C67.0782 15.0832 67.8728 15.0177 68.6603 14.8996C69.4478 14.7685 70.1971 14.5915 70.9089 14.3686C71.6199 14.1457 72.2802 13.877 72.8905 13.5623C73.5126 13.2476 74.0464 12.8937 74.4905 12.5003C74.9354 12.0938 75.2851 11.648 75.5387 11.1629C75.7932 10.6778 75.9196 10.1534 75.9196 9.58959Z"
                fill="#B400FF" />
        </g>
        <g filter="url(#filter1_i_31_190)">
            <path
                d="M21.7317 27.2253L20.2454 38.75L18.0541 30.3326L12.2042 31.021L12.9855 50.6682L17.7111 53.1659L2.48623 54.6606L8.03121 50.5108L9.00307 31.2176L2.96264 30.9817L0.618913 38.1404L-0.124268 27.5596L21.7317 27.2253ZM46.6174 46.1645C46.2744 47.9607 45.8361 49.4423 45.3025 50.6092C44.7691 51.763 44.2291 52.6742 43.683 53.3429C43.1367 54.0115 42.6222 54.477 42.1395 54.7392C41.6695 55.0015 41.3138 55.1325 41.0724 55.1325C40.6913 55.1325 40.2022 54.9621 39.6051 54.6213C39.0081 54.2804 38.3475 53.8411 37.6235 53.3035C36.9121 52.766 36.169 52.1629 35.394 51.4942C34.6319 50.8124 33.8951 50.1372 33.1837 49.4685C32.4723 48.7998 31.8181 48.1705 31.2211 47.5805C30.624 46.9905 30.1413 46.5054 29.7729 46.1251L29.9253 50.9829L33.9459 53.2839L21.846 54.1689L25.9047 50.3142L26.6098 30.5293L21.6555 28.071C24.1326 27.9267 26.235 27.8218 27.9626 27.7563C29.6903 27.6776 31.1194 27.6252 32.25 27.5989C33.3806 27.5727 34.2508 27.5596 34.8605 27.5596C35.4703 27.5596 35.9022 27.5596 36.1562 27.5596C36.7025 27.5596 37.2932 27.612 37.9283 27.7169C38.5762 27.8087 39.2177 27.9726 39.8529 28.2086C40.488 28.4315 41.1041 28.7199 41.7012 29.074C42.2983 29.4279 42.8254 29.8607 43.2828 30.3719C43.7401 30.8833 44.1022 31.4799 44.3689 32.1616C44.6483 32.8303 44.7881 33.5908 44.7881 34.443C44.7881 34.6397 44.7627 34.915 44.7119 35.269C44.6738 35.6099 44.5848 36.0098 44.4451 36.4687C44.3054 36.9145 44.0958 37.393 43.8163 37.9044C43.5369 38.4026 43.1557 38.9074 42.673 39.4187C42.203 39.917 41.6186 40.4021 40.92 40.8741C40.2213 41.3461 39.3765 41.7656 38.3856 42.1327C37.4075 42.4999 36.2642 42.8014 34.9558 43.0375C33.6601 43.2604 32.1738 43.3849 30.4969 43.4111C31.3227 44.0536 32.2182 44.7419 33.1837 45.4761C34.1491 46.1972 35.1272 46.8659 36.1182 47.4822C37.109 48.0853 38.0808 48.5901 39.0335 48.9965C39.9863 49.3898 40.8755 49.5865 41.7012 49.5865C42.095 49.5865 42.5143 49.5406 42.9588 49.4489C43.4162 49.357 43.8608 49.1866 44.2927 48.9375C44.7373 48.6753 45.1565 48.3279 45.5503 47.8952C45.9568 47.4494 46.3125 46.8725 46.6174 46.1645ZM39.2812 35.3674C39.2812 34.9609 39.2495 34.5545 39.1859 34.148C39.1225 33.7416 38.9891 33.3548 38.7858 32.9877C38.5825 32.6206 38.2904 32.2731 37.9093 31.9453C37.5282 31.6175 37.0137 31.3356 36.3659 31.0996C35.7306 30.8637 34.9431 30.6801 34.003 30.549C33.063 30.4047 31.9387 30.3326 30.6303 30.3326C30.4271 30.3326 30.2302 30.3326 30.0396 30.3326C29.849 30.3326 29.6522 30.3458 29.4489 30.3719L29.6395 40.8741C30.4398 40.861 31.2337 40.7954 32.0213 40.6774C32.809 40.5463 33.5584 40.3693 34.2698 40.1464C34.9812 39.9235 35.6417 39.6548 36.2515 39.34C36.874 39.0254 37.4075 38.6714 37.8521 38.2781C38.2967 37.8716 38.6461 37.4258 38.9001 36.9407C39.1542 36.4556 39.2812 35.9312 39.2812 35.3674ZM62.9666 26.1436L68.7017 49.9012L73.2371 50.5895L62.5093 55.3096L66.1674 50.5108L64.0336 45.0238L54.2012 45.3581L52.2004 51.1992L55.8781 56.1946L44.4832 51.5532L50.0854 50.9829L51.686 45.4368H50.7523L49.1517 43.3324L52.391 42.9784L55.8399 31.0996L51.9336 28.9952L62.9666 26.1436ZM55.0968 42.6638L62.6997 41.7591L58.7934 31.788L55.0968 42.6638ZM104.563 51.1599L116.587 49.9405L120.474 43.4505L119.045 54.3263L100.105 53.4019L112.871 31.0603L103.554 33.3023L101.248 38.0617L100.695 26.2616L102.734 28.7593L120.474 27.8742L104.563 51.1599ZM130.001 32.5943L130.554 50.3928L134.498 53.2446L120.989 54.4639L125.638 50.4715L126.8 31.4143L122.818 28.189L134.423 28.9166L130.001 32.5943ZM157.555 27.2253L156.069 38.75L153.877 30.3326L148.027 31.021L148.809 50.6682L153.534 53.1659L138.309 54.6606L143.854 50.5108L144.827 31.2176L138.786 30.9817L136.442 38.1404L135.699 27.5596L157.555 27.2253Z"
                fill="white" />
            <path
                d="M101.115 27.6776L95.7026 29.2903L92.9209 54.3656L80.5924 34.7577L78.6489 49.9798L83.9461 52.8905L71.4271 53.8542L76.4191 49.9798L76.7812 30.2933L71.0837 28.2283L83.527 26.1043L90.9393 45.8695L93.2066 29.8016L89.0333 25.7306L101.115 27.6776Z"
                fill="#B400FF" />
        </g>
    </g>
    <defs>
        <filter id="filter0_i_31_190" x="33.6944" y="0.365814" width="95.7128" height="34.051"
            filterUnits="userSpaceOnUse" color-interpolation-filters="sRGB">
            <feFlood flood-opacity="0" result="BackgroundImageFix" />
            <feBlend mode="normal" in="SourceGraphic" in2="BackgroundImageFix" result="shape" />
            <feColorMatrix in="SourceAlpha" type="matrix"
                values="0 0 0 0 0 0 0 0 0 0 0 0 0 0 0 0 0 0 127 0" result="hardAlpha" />
            <feOffset dy="4" />
            <feGaussianBlur stdDeviation="2" />
            <feComposite in2="hardAlpha" operator="arithmetic" k2="-1" k3="1" />
            <feColorMatrix type="matrix" values="0 0 0 0 0 0 0 0 0 0 0 0 0 0 0 0 0 0 0.25 0" />
            <feBlend mode="normal" in2="shape" result="effect1_innerShadow_31_190" />
        </filter>
        <filter id="filter1_i_31_190" x="-0.124268" y="25.7306" width="157.679" height="34.464"
            filterUnits="userSpaceOnUse" color-interpolation-filters="sRGB">
            <feFlood flood-opacity="0" result="BackgroundImageFix" />
            <feBlend mode="normal" in="SourceGraphic" in2="BackgroundImageFix" result="shape" />
            <feColorMatrix in="SourceAlpha" type="matrix"
                values="0 0 0 0 0 0 0 0 0 0 0 0 0 0 0 0 0 0 127 0" result="hardAlpha" />
            <feOffset dy="4" />
            <feGaussianBlur stdDeviation="2" />
            <feComposite in2="hardAlpha" operator="arithmetic" k2="-1" k3="1" />
            <feColorMatrix type="matrix" values="0 0 0 0 0 0 0 0 0 0 0 0 0 0 0 0 0 0 0.25 0" />
            <feBlend mode="normal" in2="shape" result="effect1_innerShadow_31_190" />
        </filter>
        <clipPath id="clip0_31_190">
            <rect width="160" height="58" fill="white" />
        </clipPath>
    </defs>
</svg>
    