<svg width="200" height="200" viewBox="0 0 200 200" fill="none" xmlns="http://www.w3.org/2000/svg">
    <path
        d="M83.0665 0.244456C82.8665 0.355567 81.3554 0.644456 79.7332 0.8889C70.3109 2.31112 61.5776 4.80001 58.9554 6.80001C57.8665 7.64446 56.4443 10.8889 53.3332 19.8222C51.5776 24.8222 51.3998 25.1334 49.1998 26.3556C48.022 27.0222 47.6443 27.1111 46.3109 27.1111C43.7998 27.1111 39.9998 27.5334 38.2443 28.0222C33.7109 29.2445 30.9998 31.8222 30.9998 34.9111C30.9998 36 31.1109 36.3111 31.9554 37.5556C32.622 38.5778 32.8443 39.0889 32.7554 39.4222C32.6665 39.6889 31.6665 40.9111 30.5331 42.1778C17.022 57.1111 8.6887 75.6222 6.53315 95.5111C4.62204 113.2 7.79981 131.156 15.6665 147.222C26.6887 169.8 46.3998 187.022 70.3332 195C77.1554 197.289 83.2887 198.556 93.5554 199.8C96.3109 200.156 106.911 199.933 109.555 199.489C110.711 199.289 113.311 198.867 115.333 198.556C152.355 192.733 182.644 164.644 191.578 127.889C193.422 120.244 194.111 114.267 194.111 105.667C194.111 96.8667 193.4 90.9556 191.444 83C188.6 71.4222 183.578 60.4889 176.666 50.8C171.355 43.3556 163.911 35.7556 156.555 30.2445C149.266 24.7778 140.711 20.1556 132.555 17.2445C128.466 15.7778 128.444 15.7556 128.066 15.2C127.889 14.9111 127.555 13.5778 127.311 12.2667C126.622 8.11112 125.444 5.8889 123.466 4.97779C122.111 4.33334 120 4.2889 116.555 4.77779C115.333 4.95557 113.466 5.11112 112.422 5.11112C110.644 5.11112 110.244 5.02223 107.178 3.8889C105.333 3.22223 102.6 2.33334 101.089 1.8889C99.5776 1.44446 97.7332 0.866678 96.9998 0.600011C95.7776 0.155567 95.1776 0.133345 89.5554 0.0889003C86.1109 0.0666781 83.2665 0.133345 83.0665 0.244456ZM125.866 13.7778C126.044 15.1778 126.311 17.5334 126.444 19C126.933 25.0445 127.555 38.2445 127.355 38.4667C127.289 38.5556 124.733 37.7778 121.666 36.7778C118.622 35.7556 114.155 34.3111 111.778 33.5556C104.866 31.3556 104.978 31.4 105.466 31.2445C106.533 30.9111 112.622 31.8222 121.333 33.6445C122.733 33.9334 123.933 34.1334 124 34.0667C124.289 33.8 124.889 21.8667 125.111 11.1111C125.133 9.93335 125.511 11.2667 125.866 13.7778ZM131.311 25.6667C132.378 26.0889 133.378 26.4445 133.511 26.4445C133.844 26.4445 136.755 27.7778 136.889 27.9778C137.044 28.2445 138.666 29.0222 139.378 29.2C139.711 29.2667 140.111 29.4667 140.266 29.6222C140.422 29.7556 141.111 30.1778 141.778 30.5111C142.444 30.8445 143.644 31.5778 144.444 32.1111C145.244 32.6667 146.244 33.2667 146.666 33.4667C147.4 33.8222 149.533 35.2667 149.778 35.5778C150.044 35.9111 154.244 39.1111 154.444 39.1111C154.555 39.1111 155.178 39.6667 155.844 40.3334C156.489 41 157.111 41.5556 157.222 41.5556C157.533 41.5556 165.333 49.5778 165.978 50.5556C166.289 51.0445 166.6 51.4889 166.666 51.5556C166.733 51.6222 167.133 52.1111 167.555 52.6667C167.978 53.2222 168.511 53.8 168.711 53.9556C168.933 54.1111 169.111 54.3778 169.111 54.5556C169.111 54.7111 169.4 55.1334 169.733 55.4889C170.4 56.1556 171.778 58.0889 171.778 58.3556C171.778 58.5778 173.555 61.3334 174.022 61.8667C174.755 62.6445 178.955 71.5111 180.378 75.3334C180.689 76.1334 181.022 76.8889 181.133 77.0222C181.244 77.1556 181.422 77.7778 181.555 78.4222C181.666 79.0667 181.911 79.9111 182.089 80.2889C182.244 80.6889 182.711 82.3556 183.111 84C183.511 85.6445 183.911 87.0889 184 87.2222C184.289 87.6 184.666 89.7334 184.533 90.1111C184.466 90.2889 184.489 90.4445 184.6 90.4445C185.533 90.4445 186.289 108.289 185.578 113.444C185.444 114.533 185.266 116.156 185.244 117.044C185.155 118.8 184.666 121.822 184.444 122C184.289 122.111 183.444 125.867 183.066 128C182.955 128.667 182.8 129.267 182.711 129.333C182.622 129.4 181.866 131.533 181.022 134.111C179.222 139.511 176.666 145.333 175.622 146.4C175.466 146.556 175.333 146.844 175.333 147C175.333 147.356 173.844 150 173.466 150.333C173.311 150.444 172.978 151.022 172.711 151.578C172.444 152.133 171.866 152.978 171.466 153.444C171.044 153.911 170.466 154.733 170.2 155.244C169.933 155.778 169.6 156.244 169.444 156.311C169.289 156.356 169.022 156.689 168.844 157.044C167.733 159.267 157.689 169.978 155.311 171.444C154.778 171.778 154.178 172.2 154 172.378C153.822 172.533 153.066 173.133 152.333 173.689C151.6 174.244 150.822 174.911 150.6 175.133C150.178 175.6 145.266 178.889 145.022 178.889C144.933 178.889 144.066 179.356 143.089 179.911C142.111 180.489 141.266 180.889 141.2 180.822C141.155 180.778 141.466 180.4 141.933 180C142.4 179.6 143.844 178.244 145.155 176.978C148.155 174.067 149.244 172.333 149.555 169.911C149.778 168.2 149.622 164.733 149.333 164.333C149.244 164.2 149.089 163.6 149.022 163C148.933 162.378 148.666 161.133 148.422 160.178C148.2 159.244 148 157.933 148 157.244V156.022L147.4 156.356C147.044 156.511 146.622 156.667 146.444 156.667C146.244 156.667 145.911 156.8 145.666 156.956C145.422 157.133 144.666 157.556 144 157.933C143.333 158.311 142.4 158.822 141.933 159.111C140.533 159.933 140.778 159.467 142.444 158.111C143.289 157.422 144 156.756 144 156.644C144 156.533 143.733 156.311 143.4 156.133C142.733 155.8 142.089 155.244 141.578 154.6C141.378 154.356 141.711 154.489 142.444 154.933C143.466 155.578 143.822 155.667 145.111 155.667C146.889 155.667 147.2 155.467 150.044 152.778C152.422 150.511 152.555 150.422 155.333 148.578C160.155 145.4 162.578 143.378 164.733 140.733C165.733 139.489 166.866 138.667 167.578 138.667C167.8 138.667 166.133 140.844 164.6 142.556C163.711 143.533 163.644 143.667 164.022 143.733C164.578 143.822 166.866 141.444 166.889 140.778C166.889 140.533 167.111 140.222 167.378 140.111C167.644 139.978 167.933 139.711 168.044 139.489C168.4 138.733 169.378 137.178 169.755 136.733C169.889 136.578 170 136.333 170 136.178C170 135.622 171.622 133.333 172 133.333C172.266 133.333 172.422 133.089 172.511 132.489C172.6 132.022 172.555 131.644 172.444 131.6C172.311 131.556 172.222 130.778 172.222 129.867C172.222 128.644 172.111 128.022 171.755 127.333C171.489 126.844 171.178 126.444 171.066 126.444C170.933 126.444 170.866 125.844 170.889 124.933C170.978 123.044 170.955 122.889 170.6 122.889C170.311 122.889 169.333 121.2 169.333 120.711C169.333 120.578 169.222 120.444 169.089 120.444C168.955 120.444 168.889 119.933 168.911 119.067C168.955 118 168.889 117.644 168.644 117.6C168.333 117.533 167.333 115.267 167.333 114.578C167.333 114.378 167.466 114.222 167.644 114.222C168.133 114.222 168.266 111.911 167.889 110.111C167.578 108.667 167.578 108.533 167.933 108.267C168.133 108.133 168.511 108 168.755 108C169.378 108 169.689 107.756 169.844 107.156C169.955 106.733 169.911 106.689 169.644 106.911C168.733 107.667 166.866 106.822 165.689 105.156C164.778 103.844 165 103.756 166.222 104.933C167.444 106.111 168.333 106.311 169.333 105.622C170.489 104.822 171.533 103.044 171.978 101.089C172.289 99.7556 172.444 99.7778 172.466 101.133L172.489 102.333L172.778 101.556C172.933 101.133 173.089 100.533 173.089 100.267C173.111 99.6222 172.444 98.4445 172.089 98.4445C171.933 98.4445 171.333 98.2445 170.755 97.9778C168.089 96.8445 165.733 97.6 162.622 100.556C160.755 102.333 160.578 102.444 159.689 102.444C155.866 102.444 150.533 104.956 148.044 107.911C147.6 108.444 147.155 108.889 147.066 108.889C146.978 108.889 146.889 108.267 146.889 107.489C146.889 105.867 146.533 104.467 146.089 104.289C145.911 104.222 145.778 104 145.778 103.8C145.778 103.156 145.066 102.911 143.6 103.089C141.755 103.311 141.022 103.978 140.422 106.111C139.755 108.444 139.311 109.289 137.778 111.111C137.022 112.022 136.022 113.533 135.578 114.444C135.133 115.356 134.711 116.156 134.644 116.222C134.422 116.378 133.333 119.133 133.333 119.489C133.333 120 132.133 123.889 131.933 124.022C131.666 124.2 131.289 128.089 131.244 130.956C131.222 133.711 131.178 133.8 128.955 134.822C128.311 135.133 127.778 135.467 127.778 135.578C127.778 135.689 127.289 136.267 126.666 136.822C126.066 137.378 125.555 137.978 125.555 138.111C125.555 138.267 125.311 138.556 125 138.756C124.689 138.956 124.444 139.222 124.444 139.356C124.444 139.467 124.089 139.889 123.644 140.267C123.2 140.667 122.778 141.133 122.689 141.356C122.555 141.733 120.711 143.956 119.8 144.822C119.044 145.556 118.489 145.467 117 144.333C116.266 143.778 115.6 143.333 115.489 143.333C115.244 143.333 112.889 141.733 112.889 141.556C112.889 141.467 112.511 141.222 112.066 140.978C110.911 140.4 109.422 139.4 108.822 138.822C108.555 138.556 108.089 138.178 107.778 137.956L107.222 137.6L108.333 137.111C108.955 136.844 109.844 136.444 110.333 136.222C111.644 135.6 115.111 134.444 115.622 134.444C115.844 134.444 116.355 134.311 116.733 134.133C117.822 133.667 119.733 133.133 121.222 132.889C123.222 132.556 125.822 132 126.333 131.778C126.755 131.578 129.133 131 130.089 130.844C130.466 130.778 130.444 130.733 129.955 130.222C129.244 129.489 127.866 127.511 127.689 126.978C127.511 126.467 125.8 124.289 122.622 120.578C121.289 119.067 120.222 117.733 120.222 117.644C120.222 117.556 119.555 116.8 118.733 116C117.889 115.2 115.844 113.111 114.155 111.4C111.178 108.356 111.089 108.222 111.155 107.4L111.222 106.556L112.711 106.422C114.4 106.289 114.8 106.044 115 105.044C115.089 104.644 115.2 104.178 115.244 103.978C115.311 103.778 115.178 103.444 114.978 103.222C114.622 102.889 114.622 102.8 114.978 102.089C115.178 101.667 115.333 101.178 115.333 101C115.333 100.756 115.6 100.667 116.311 100.667C117.666 100.667 118.222 99.9778 118.222 98.3111C118.222 97.3778 118.155 97.1111 117.889 97.1111C117.622 97.1111 117.578 96.9556 117.689 96.4889C118.133 94.5334 118.266 94.2 118.733 94.0222C119 93.9111 119.4 93.6222 119.644 93.3778C119.955 93.0222 120.444 92.8889 121.8 92.7556C122.755 92.6889 123.555 92.5111 123.555 92.4222C123.555 92.3111 124.066 92.2222 124.666 92.2222C125.711 92.2222 125.778 92.1778 125.778 91.6667C125.778 91.1111 125.778 91.1111 124.978 91.4445C124.533 91.6222 123.155 91.8445 121.911 91.9334C119.511 92.0889 119.422 92.1334 118.044 93.8667C117.733 94.2667 117.4 96 117.266 98.0667C117.155 99.6889 116.778 100.089 115 100.556C113.6 100.911 110.866 101.022 111.244 100.689C111.355 100.6 112.444 99.9778 113.644 99.3556C114.844 98.7111 116 98.0889 116.222 97.9556C116.466 97.8 116.689 97.1556 116.866 96.1111C117 95.2222 117.378 93.9778 117.689 93.3556C118.289 92.1778 119.066 91.6667 121.155 91.1111C122.178 90.8222 122.155 90.4889 121.089 89.9334C120.511 89.6445 119.955 89.5778 118.778 89.6445L117.244 89.7334L118 89.3111C119.022 88.7778 120.378 88.7778 122.311 89.3556C123.844 89.8222 125.778 89.8667 126.733 89.4445C127.266 89.2222 127.222 89.6667 126.644 90.2445C126.4 90.4889 126.244 90.7778 126.333 90.8445C126.422 90.9334 126.733 90.7111 127.022 90.3778C127.755 89.5111 127.711 88.3556 126.866 86.2667C126.489 85.3111 126.044 84 125.866 83.3334C125.689 82.6667 125.4 81.9111 125.222 81.6445C124.8 81 124.222 78.9556 124.222 78.1111C124.222 77.7334 124.111 77.3111 124 77.2C123.622 76.8222 123.2 74 123.289 72.4889C123.378 71.2 123.444 71.0222 124.422 69.9334C125.022 69.3111 125.555 68.5556 125.644 68.2667C125.733 68 126.066 67.4667 126.378 67.1111C126.822 66.5556 127.089 66.4445 127.889 66.4445C128.422 66.4445 128.933 66.5334 129 66.6667C129.066 66.7778 129.578 66.8889 130.111 66.8889C131.155 66.8889 135.511 67.4 137.689 67.8C139.133 68.0445 144.6 67.8667 145.489 67.5334C146.133 67.2889 146.889 66.0667 146.711 65.5778C146.644 65.3778 146.2 64.6 145.733 63.8222C145.266 63.0667 144.889 62.3556 144.889 62.2445C144.889 62.1556 144.111 61.2445 143.178 60.2222C141.289 58.2 139.066 56.3778 136.778 55C135.955 54.5111 134.778 53.7778 134.155 53.3556C133.511 52.9556 132.755 52.5778 132.489 52.5334C132.2 52.4667 131.511 52.2222 130.978 51.9556C129.555 51.2889 129.266 50.6222 129.378 48.2445C129.444 47.2 129.4 45.0222 129.311 43.4445C129 38.3778 128.866 24.8889 129.111 24.8889C129.244 24.8889 130.222 25.2445 131.311 25.6667ZM42.9776 45.2445C44.0887 45.8222 45.0443 46.3778 45.0665 46.4667C45.1109 46.5778 45.3554 46.6667 45.5998 46.6667C46.222 46.6667 47.9109 47.6667 48.0887 48.1334C48.1776 48.3556 48.1776 49.4889 48.1109 50.6445C48.0443 51.8222 47.9554 55.2445 47.9331 58.2667C47.8887 61.2889 47.7998 63.8222 47.7109 63.9111C47.622 64 47.3331 63.9778 47.0443 63.8445C46.7776 63.7111 45.0443 62.8889 43.1998 62.0222C41.3554 61.1556 39.7554 60.4445 39.6665 60.4445C39.5776 60.4445 38.9998 60.1778 38.3776 59.8667C36.7998 59.0889 35.0665 58.6667 33.3776 58.6667C31.1109 58.6667 30.7331 58.9556 29.3998 61.7111C28.7554 63.0445 28.1776 64.5111 28.1109 65C27.8443 66.6889 27.2443 69.1111 27.0887 69.1111C26.9331 69.1111 26.5554 70.9778 26.3109 73.0445C26.2443 73.6889 26.1109 74.2222 26.022 74.2222C25.9331 74.2222 25.6887 75.1556 25.4887 76.2667C25.2887 77.4 25.0665 78.6222 24.9998 79C24.8443 79.8 24.7331 80.4222 24.3998 82.8445C24.2665 83.8667 24.0665 84.7334 23.9554 84.8C23.8665 84.8667 23.7776 85.1556 23.7776 85.4445C23.7776 85.8445 23.5554 86.0667 22.822 86.4222C22.2887 86.6889 21.622 86.8889 21.3109 86.8889C20.5554 86.8889 18.4887 87.4667 18.1109 87.7778C17.6665 88.1334 16.7331 87.8889 16.4443 87.3111C16.2443 86.9778 16.3109 86.4222 16.6665 84.9334C16.9331 83.8667 17.222 82.9556 17.3109 82.8889C17.3998 82.8222 17.6887 81.9778 17.9554 81C18.8443 77.6 21.3998 70.6222 21.9109 70.2C22.0665 70.0667 22.2665 69.6445 22.3554 69.2667C22.5331 68.3778 23.0665 67.3334 24.0887 65.8C24.5331 65.1556 24.8887 64.4889 24.8887 64.3111C24.8887 63.8 27.8887 58.9111 29.2443 57.2445C29.9109 56.4 30.5776 55.4445 30.7331 55.0889C31.022 54.4445 31.8665 53.3334 33.022 52.1334C33.3998 51.7334 34.2443 50.7111 34.8887 49.8667C36.4443 47.8445 40.0887 44.2222 40.5776 44.2222C40.7776 44.2222 41.8665 44.6889 42.9776 45.2445ZM110.511 48.3556C110.6 48.4445 111.111 48.5556 111.689 48.6C114.911 48.8667 128.911 52.8667 132.444 54.5111C134.333 55.4 136.8 57.0445 139.044 58.9334C140.889 60.4889 143.2 62.8889 143.022 63.0667C142.955 63.1111 142.244 62.7556 141.4 62.2667C135.466 58.8222 123.778 53.8667 112.022 49.8667C110.489 49.3334 110.133 49.1334 110.089 48.7111C110 48.2445 110.222 48.0667 110.511 48.3556ZM109.333 48.6667C109.333 48.7778 109.244 48.8889 109.133 48.8889C109 48.8889 108.844 48.7778 108.778 48.6667C108.711 48.5334 108.8 48.4445 108.978 48.4445C109.178 48.4445 109.333 48.5334 109.333 48.6667ZM47.3331 75.6667C46.9554 77.3111 47.0665 81.7778 47.5554 83.6445C49.1776 90 54.1109 95.9334 63.9998 103.422C69.3776 107.511 71.6887 109.244 72.222 109.6C73.0887 110.178 74.6887 111.822 75.5332 112.956C76.5998 114.444 76.8665 115.422 76.6665 116.889C76.5554 117.556 76.3776 118.8 76.2443 119.622C76.1332 120.467 75.9332 121.267 75.822 121.4C75.7332 121.556 75.4665 122.311 75.2443 123.111C75.022 123.911 74.6887 124.978 74.5109 125.511C74.1998 126.422 71.8665 130.089 70.7776 131.378C70.1998 132.067 70.022 131.956 69.5332 130.6C69.3776 130.156 69.1776 129.778 69.0665 129.778C68.9109 129.778 68.0443 127.978 67.8887 127.333C67.5998 126.089 61.5776 113.756 58.6443 108.444C53.2887 98.6667 49.0443 91.2222 45.822 85.9778C44.9331 84.5556 44.1776 83.2222 44.0887 83.0445C43.9554 82.6667 47.2443 74.5111 47.4665 74.7334C47.5109 74.7556 47.4443 75.1778 47.3331 75.6667ZM114.155 103.444C114.333 104.933 113.978 105.467 112.689 105.667C111.489 105.844 109.711 106.6 108.289 107.556C107.733 107.933 107.333 108.156 107.378 108.044C107.533 107.6 109.711 105.933 111.355 104.978C113.222 103.911 113.555 103.533 113.555 102.533C113.555 101.533 114.022 102.244 114.155 103.444ZM144.555 103.822C145.489 104.244 145.844 105.2 145.955 107.556C146.133 111.489 145.422 114.311 143.778 116.067C143.311 116.578 143.111 117 143.111 117.556C143.111 117.978 143 119.733 142.844 121.467L142.6 124.6L143.422 125.689C144.644 127.289 146.6 131.4 147.111 133.422C147.4 134.556 147.555 135.933 147.555 137.289C147.555 138.467 147.511 139.356 147.466 139.311C147.422 139.267 147.333 138.511 147.266 137.667C147.089 135.667 146.666 134.067 145.622 131.622C144.8 129.756 142.844 126.511 141.8 125.356C141.266 124.733 141.266 125 141.644 121.022C141.822 119.311 141.911 117.8 141.866 117.667C141.8 117.511 141.444 117.444 141.044 117.511L140.333 117.6L141 117.222C142.933 116.178 144.066 114.4 144.555 111.689C145.178 108.089 144.889 105.289 143.755 104.089C143.355 103.644 143.311 103.556 143.622 103.556C143.822 103.556 144.244 103.667 144.555 103.822ZM162.578 104.178C163.978 104.733 164.978 105.6 165.711 106.844C166.266 107.778 166.333 108.111 166.333 109.889C166.333 111.689 166.266 112.044 165.622 113.4C163.289 118.311 158.022 121.778 152.822 121.778C150.711 121.778 148.755 121.067 147.489 119.822C146.422 118.8 145.644 116.489 145.866 115C146.711 108.733 153.666 103.244 160.178 103.689C160.933 103.756 162.022 103.978 162.578 104.178ZM58.4887 112.333C61.3109 117.778 64.9998 125.267 66.7776 129.222C69.5109 135.333 69.9998 136.444 69.9998 136.733C69.9998 136.956 69.3998 137.133 68.0665 137.311C59.3776 138.533 48.5554 142.667 39.7776 148.111C36.3776 150.2 36.7776 149.667 40.7331 146.844C47.1554 142.2 54.3776 138.422 59.4443 137C62.8887 136.022 63.822 135.8 65.2887 135.533C66.1554 135.378 66.8887 135.2 66.8887 135.111C66.8887 134.689 63.4443 125.622 62.5332 123.622C62.3554 123.222 61.9554 122.244 61.6665 121.467C60.9776 119.644 58.0887 112.911 56.9332 110.444C55.5554 107.511 54.6665 105.511 54.6665 105.356C54.6665 105.156 56.0665 107.711 58.4887 112.333ZM108.778 110.378C108.155 113.178 107.266 114.578 105.533 115.444C104.355 116.044 101.578 116.489 101.866 116.044C101.955 115.889 102.333 115.778 102.689 115.778C104.355 115.778 106.178 114.244 107.311 111.889C107.689 111.089 108 110.311 108 110.156C108 109.778 108.889 108.378 109.044 108.511C109.111 108.578 108.978 109.422 108.778 110.378ZM167.244 112.578C167.089 114 166.533 115.911 166.222 116.111C166.111 116.178 165.955 115.889 165.866 115.444C165.778 114.867 165.866 114.356 166.2 113.533C166.466 112.911 166.755 111.911 166.822 111.289C166.933 110.267 166.978 110.2 167.155 110.689C167.289 110.978 167.311 111.844 167.244 112.578ZM95.222 114.333L96.5554 115.533L96.5332 118.378C96.4887 124.067 94.9109 129.267 92.5554 131.556C92.1332 131.978 91.7776 132.267 91.7554 132.2C91.7554 132.156 91.7109 131.956 91.6665 131.778C91.5998 131.378 90.7332 125.911 90.3998 123.667C90.2665 122.8 90.1554 121.578 90.1332 120.933C90.1332 120.311 90.0443 119.778 89.9554 119.778C89.8443 119.778 89.7776 119.578 89.7776 119.333C89.7776 118.667 88.9109 117.156 88.4443 117C88.022 116.867 87.6887 116.289 87.9554 116.156C88.0443 116.089 88.6665 115.889 89.3332 115.667C91.0443 115.111 92.4665 114.378 93.0887 113.689C93.3998 113.378 93.6887 113.111 93.7554 113.111C93.822 113.133 94.4887 113.667 95.222 114.333ZM120.089 120.333C122.822 123.467 127.111 129.067 127.111 129.489C127.111 129.622 126.533 129.844 125.844 129.978C118.133 131.422 106.933 134.978 101.689 137.622C101.466 137.733 101.333 137.733 101.4 137.622C101.466 137.511 101.933 137.222 102.422 136.978C102.933 136.756 103.333 136.489 103.333 136.378C103.333 136.289 103.489 136.222 103.689 136.222C103.889 136.222 104.178 136.067 104.311 135.911C104.555 135.578 109.133 133.178 111.222 132.289C114.022 131.067 118.555 129.511 122.178 128.511C122.933 128.289 123.555 128.044 123.555 127.933C123.555 127.8 122.266 125.822 120.755 123.667C120.6 123.422 119.511 121.822 118.378 120.111C117.244 118.4 116 116.556 115.6 116.022C115.2 115.489 114.889 114.933 114.889 114.822C114.889 114.533 116.822 116.6 120.089 120.333ZM165.422 115.911C165.755 116.778 165.533 117.556 164.578 118.711C163.422 120.133 162.489 120.956 162.244 120.778C162.133 120.733 162 120.356 161.955 119.956C161.844 119.289 162 119.044 163.355 117.578C164.2 116.689 164.889 115.867 164.889 115.756C164.889 115.422 165.266 115.533 165.422 115.911ZM167.889 117.4C168.378 118.422 168.644 121.622 168.311 122.4C167.822 123.578 164.289 126.556 161.778 127.933C158.2 129.889 157 130.333 156.178 130.022C155.778 129.889 155.911 129.778 156.911 129.467C157.578 129.244 158.222 129 158.333 128.889C158.466 128.8 159.266 128.333 160.111 127.889C163.089 126.267 166.844 123.178 167.289 121.978C167.511 121.444 167.289 118.267 166.978 117.289C166.844 116.822 167.066 116.378 167.333 116.556C167.444 116.622 167.689 117 167.889 117.4ZM149.222 121.644C150.089 122.044 150.444 122.333 150.444 122.644C150.444 122.889 150.511 123.244 150.6 123.467C150.711 123.8 150.644 123.822 150.089 123.689C148.689 123.333 146.8 121.378 146.333 119.778C146.178 119.289 146.289 119.333 147.089 120.133C147.578 120.644 148.555 121.311 149.222 121.644ZM161.555 120.378C161.755 121.156 161.733 121.267 161.178 121.733C160.422 122.333 157.978 123.556 157.466 123.556C157.111 123.556 156.666 122.733 156.666 122.089C156.666 121.911 156.844 121.711 157.066 121.622C157.933 121.333 160.133 120.244 160.555 119.911C161.2 119.422 161.289 119.467 161.555 120.378ZM156.311 122.489C156.378 122.778 156.444 123.222 156.444 123.467C156.444 124.067 155.755 124.222 153.333 124.222C151.444 124.222 151.2 124.089 150.978 122.889L150.822 122.156L152.022 122.289C152.689 122.356 153.733 122.333 154.333 122.244C156.089 121.956 156.155 121.978 156.311 122.489ZM170.466 126.044C170.511 127.578 170.422 128.067 170 128.889C168.955 130.956 165.866 133.267 162.111 134.822C160.178 135.622 159.289 135.711 158.444 135.222C157.889 134.911 157.911 134.911 158.844 134.889C159.4 134.889 160.533 134.6 161.511 134.178C165.333 132.6 168.355 130.267 169.422 128.089C170 126.911 170.044 126.667 169.911 125.244C169.822 124.4 169.711 123.444 169.644 123.133C169.555 122.667 169.622 122.711 169.978 123.378C170.333 124 170.444 124.644 170.466 126.044ZM171.666 131.133C171.666 132.489 171.578 132.978 171.333 133.178C170.822 133.578 170 134.8 170 135.178C170 135.933 166.911 138 165.8 138C165.533 138 165.111 137.889 164.866 137.778C164.378 137.511 164.289 137 164.755 137.178C165.333 137.4 166.755 136.867 168 135.956C169.622 134.756 170.178 134.111 170.822 132.711C171.289 131.733 171.355 131.267 171.289 130.2C171.222 129.311 171.266 128.956 171.422 129.111C171.533 129.222 171.644 130.133 171.666 131.133ZM101 138C100.933 138.111 100.733 138.222 100.6 138.222C100.444 138.222 100.466 138.133 100.666 138C101.089 137.733 101.178 137.733 101 138ZM114.755 145.044C117.8 147.111 120.333 148.889 120.378 149.022C120.489 149.356 118.466 152.4 116.378 154.978C115.4 156.222 113.133 158.667 111.355 160.444C107.911 163.889 106.978 164.733 104.8 166.378C104.066 166.956 103.378 167.533 103.289 167.644C103.2 167.778 103.089 167.822 103.022 167.756C102.955 167.711 103.889 166.644 105.066 165.4C107.978 162.378 109.022 161.244 110.333 159.667C110.955 158.933 111.489 158.289 111.555 158.222C112.333 157.444 115.089 153.844 116.8 151.378C118.022 149.578 118.044 149.511 117.644 149.156C117.4 148.956 116.511 148.178 115.666 147.444C114.8 146.711 114.044 146 113.955 145.867C113.866 145.733 112.578 144.578 111.111 143.311C109.644 142.067 108.444 141 108.444 140.956C108.444 140.822 109.133 141.267 114.755 145.044ZM147.044 162.267C146.978 162.444 146.911 162.378 146.911 162.133C146.889 161.889 146.955 161.756 147.022 161.844C147.089 161.911 147.111 162.111 147.044 162.267ZM147.644 167.222C147.689 171.4 147.444 172.156 145.466 174.111C142.933 176.622 139.111 180 138.289 180.422C137.533 180.8 136.889 180.711 135.444 180.022C134.111 179.4 132.8 178.267 131.489 176.578L130.8 175.667L131.8 176.578C134.333 178.867 137.044 179.667 138.355 178.489C138.578 178.289 139.711 177.311 140.844 176.356C142.889 174.578 143.178 174.222 142.555 174.222C142.378 174.222 142.222 174.156 142.222 174.044C142.222 173.956 141.911 173.756 141.555 173.6C140.889 173.289 139.244 171.733 138.222 170.422C137.578 169.6 135.555 166.289 135.555 166.067C135.555 166 136.178 166.756 136.911 167.778C139.511 171.333 141.555 172.889 143.622 172.889C144.955 172.889 146.022 172.111 146.689 170.622C147.178 169.533 147.222 169.156 147.222 166.044C147.222 163.6 147.266 162.889 147.422 163.489C147.511 163.956 147.622 165.622 147.644 167.222Z"
        fill="black" />
    <path
        d="M171.955 103.622C171.244 105.355 171.244 105.333 171.711 105.333C172.022 105.333 172.267 105.044 172.511 104.4C172.711 103.889 172.8 103.422 172.689 103.355C172.6 103.289 172.467 103.089 172.422 102.955C172.378 102.8 172.155 103.089 171.955 103.622Z"
        fill="black" />
    <path
        d="M170.667 105.578C170.667 105.689 170.778 105.733 170.889 105.667C171.022 105.6 171.111 105.489 171.111 105.422C171.111 105.378 171.022 105.333 170.889 105.333C170.778 105.333 170.667 105.444 170.667 105.578Z"
        fill="black" />
    <path
        d="M163 144.222C162.933 144.333 162.977 144.445 163.088 144.445C163.222 144.445 163.333 144.333 163.333 144.222C163.333 144.089 163.288 144 163.244 144C163.177 144 163.066 144.089 163 144.222Z"
        fill="black" />
    <path
        d="M161 145.889C160.133 146.622 160.133 146.645 160.689 146.667C161.467 146.667 162.067 146.178 161.956 145.6C161.889 145.156 161.844 145.156 161 145.889Z"
        fill="black" />
    <path
        d="M157.244 148.578C154.911 150.178 154.867 150.222 155.644 150.222C156.289 150.222 156.489 150.111 156.667 149.689C156.8 149.311 157.067 149.111 157.489 149.067C157.889 149.022 158.133 148.844 158.2 148.556C158.289 148 158.622 147.778 159.4 147.778C159.844 147.778 160 147.667 160 147.333C160 147.089 159.933 146.889 159.844 146.911C159.733 146.911 158.578 147.667 157.244 148.578Z"
        fill="black" />
    <path
        d="M151.2 153.178C149.044 155.156 148.8 155.445 149.266 155.511C149.666 155.578 150.266 155.133 151.844 153.645C153.644 151.933 154.4 150.889 153.844 150.889C153.755 150.889 152.555 151.911 151.2 153.178Z"
        fill="black" />
    <path
        d="M110.4 49.0445C110.555 49.1111 110.755 49.0889 110.822 49.0222C110.911 48.9556 110.778 48.8889 110.533 48.9111C110.289 48.9111 110.222 48.9778 110.4 49.0445Z"
        fill="black" />
    <path
        d="M157.067 106.889C156.533 107.822 156.2 107.933 154.933 107.578C154.333 107.4 154.178 107.422 153.889 107.844C153.444 108.489 153.467 108.644 154.111 108.889C154.422 109 154.667 109.178 154.667 109.267C154.644 109.378 153.911 110.689 153.022 112.222C151.489 114.889 151.378 115 150.733 114.956C150.2 114.911 149.955 115.022 149.667 115.467C149.222 116.156 149.4 116.333 150.622 116.578C151.422 116.733 151.467 116.844 151 117.467C150.533 118.089 150.6 118.622 151.155 118.8C151.667 118.956 151.8 118.822 152.489 117.556C152.711 117.178 153 116.933 153.111 117C153.267 117.089 153.2 117.422 152.889 117.933C152.378 118.822 152.533 119.2 153.355 119.067C153.711 119.022 154.044 118.711 154.333 118.178C154.755 117.378 154.8 117.378 155.8 117.489C158.333 117.8 160.711 115.378 159.933 113.222C159.822 112.867 159.933 112.689 160.467 112.4C161.355 111.867 161.867 110.667 161.511 109.889C161.355 109.556 160.955 109.156 160.622 108.978C159.889 108.6 159.867 108.4 160.378 107.533C160.733 106.956 160.733 106.844 160.444 106.667C159.822 106.267 159.444 106.444 158.933 107.333C158.667 107.822 158.333 108.222 158.222 108.222C157.889 108.222 157.955 107.911 158.4 107.133C158.733 106.511 158.733 106.4 158.444 106.222C157.867 105.844 157.578 105.978 157.067 106.889ZM158.689 110.133C159.067 110.578 158.755 111.444 158.111 111.733C157.311 112.089 156.244 112.067 156.089 111.689C155.955 111.356 156.289 110.578 156.8 109.978C157.155 109.578 158.289 109.667 158.689 110.133ZM156.889 113.644C157.6 113.978 157.689 114.467 157.133 115.133C156.755 115.6 156.511 115.667 155.355 115.667C154.622 115.644 153.955 115.578 153.867 115.511C153.8 115.422 154.022 114.844 154.355 114.222C154.933 113.156 155 113.111 155.644 113.244C156.022 113.311 156.578 113.489 156.889 113.644Z"
        fill="black" />
</svg>