<svg width="88" height="45" viewBox="0 0 88 45" fill="none" xmlns="http://www.w3.org/2000/svg">
    <path
        d="M88 43.811C87.0079 44.0997 85.8553 44.2441 84.5422 44.2441C83.3361 44.2441 82.4072 43.9596 81.7556 43.3908C81.1039 42.8134 80.778 41.9432 80.778 40.78V32.6546H78.7792V30.2349H80.9823L82.2662 27H84.834V30.2349H87.8249V32.6546H84.834V39.8121C84.834 40.4828 84.9799 40.9795 85.2717 41.3021C85.5635 41.6163 86.0158 41.7733 86.6286 41.7733C86.9204 41.7733 87.3775 41.7139 88 41.595V43.811Z"
        fill="#20A157" />
    <path
        d="M66.3341 36.6281V44.0148H62.2344V33.3169C62.2344 32.5782 62.2198 31.9754 62.1906 31.5084C62.1712 31.033 62.1469 30.6084 62.1177 30.2349H66.0277C66.0472 30.3367 66.0715 30.5787 66.1007 30.9608C66.1299 31.3344 66.1542 31.7207 66.1736 32.1197C66.2028 32.5103 66.2174 32.7947 66.2174 32.973H66.2758C66.8302 31.9202 67.5256 31.1561 68.3621 30.6806C69.1986 30.2051 70.1956 29.9674 71.353 29.9674C73.026 29.9674 74.3099 30.4174 75.2047 31.3174C76.0996 32.2174 76.547 33.5334 76.547 35.2654V44.0148H72.4619V36.2843C72.4619 35.0702 72.2284 34.1617 71.7615 33.5589C71.2947 32.956 70.5895 32.6546 69.646 32.6546C68.6539 32.6546 67.8515 33.0282 67.2387 33.7754C66.6357 34.514 66.3341 35.465 66.3341 36.6281Z"
        fill="#20A157" />
    <path
        d="M49.2495 44.2695C47.7224 44.2695 46.5309 43.9087 45.675 43.187C44.819 42.4568 44.3911 41.4337 44.3911 40.1177C44.3911 38.6913 44.9211 37.6088 45.9813 36.8701C47.0513 36.1314 48.5978 35.7451 50.6209 35.7112L54.0203 35.6602V34.9598C54.0203 34.0598 53.8404 33.3933 53.4805 32.9603C53.1206 32.5188 52.5322 32.298 51.7151 32.298C50.9565 32.298 50.3972 32.4508 50.0373 32.7565C49.6872 33.0537 49.4683 33.5504 49.3808 34.2466L45.106 34.0683C45.6409 31.3428 47.9023 29.9801 51.8902 29.9801C53.8842 29.9801 55.4209 30.4089 56.5006 31.2664C57.5802 32.124 58.1201 33.3423 58.1201 34.9216V39.9394C58.1201 40.712 58.2173 41.2469 58.4119 41.5441C58.6161 41.8328 58.9517 41.9771 59.4186 41.9771C59.7298 41.9771 60.0313 41.9516 60.3231 41.9007V43.8365C59.8173 43.9469 59.3845 44.0275 59.0246 44.0785C58.6648 44.1379 58.2222 44.1676 57.697 44.1676C56.6659 44.1676 55.9024 43.9469 55.4064 43.5054C54.92 43.0639 54.6282 42.4144 54.531 41.5568H54.4434C53.8696 42.4568 53.1498 43.1361 52.2841 43.5945C51.4185 44.0445 50.4069 44.2695 49.2495 44.2695ZM54.0203 37.6343L51.9194 37.6597C50.9565 37.7022 50.2805 37.7913 49.8914 37.9272C49.4926 38.08 49.1862 38.3092 48.9723 38.6149C48.768 38.9206 48.6659 39.3281 48.6659 39.8375C48.6659 40.4913 48.8361 40.9795 49.1765 41.3021C49.5267 41.6163 49.9887 41.7733 50.5625 41.7733C51.2045 41.7733 51.7929 41.6205 52.3279 41.3149C52.8531 41.0092 53.2665 40.5889 53.568 40.054C53.8696 39.5106 54.0203 38.9375 54.0203 38.3347V37.6343Z"
        fill="#20A157" />
    <path
        d="M43.3698 30.2349L37.5484 44.0148H32.6463L27 30.2349H31.3332L34.0906 37.9399C34.1685 38.1522 34.29 38.5258 34.4554 39.0607C34.6305 39.5871 34.8542 40.2748 35.1265 41.1238C35.1654 41.005 35.2432 40.7672 35.36 40.4106C35.4864 40.054 35.6226 39.6635 35.7685 39.239C35.9144 38.8144 36.0408 38.4578 36.1478 38.1692L39.0804 30.2349H43.3698Z"
        fill="#20A157" />
    <path
        d="M6.02041 27.9489V44H0V0H6.02041V19.9546L18.9796 0H26L13.7143 18.6118L27 44H19.898L9.57143 23.7956L6.02041 27.9489Z"
        fill="#20A157" />
    <path
        d="M87.9999 16.1352C87.9999 18.0713 87.5899 19.5681 86.77 20.6254C85.9577 21.6757 84.8068 22.2008 83.3175 22.2008C81.5498 22.2008 80.3162 21.5149 79.6166 20.1432H79.5489C79.5941 20.3575 79.6166 21.0077 79.6166 22.0936V26.541H76.4461V13.0596C76.4461 12.5095 76.4386 12.0129 76.4236 11.57C76.4085 11.127 76.386 10.7341 76.3559 10.3912H79.4361C79.4662 10.4769 79.4888 10.6234 79.5038 10.8306C79.5264 11.0306 79.5414 11.2592 79.5489 11.5164C79.564 11.7736 79.5715 12.0272 79.5715 12.2773H79.6166C79.9702 11.5629 80.4741 11.0306 81.1286 10.6805C81.783 10.3233 82.5803 10.1447 83.5206 10.1447C84.9422 10.1447 86.0442 10.6662 86.8265 11.7093C87.6087 12.7452 87.9999 14.2205 87.9999 16.1352ZM84.694 16.1352C84.694 14.835 84.4834 13.8598 84.0621 13.2096C83.6484 12.5595 83.0203 12.2344 82.1779 12.2344C81.3354 12.2344 80.6885 12.5845 80.2372 13.2846C79.7934 13.9848 79.5715 14.9636 79.5715 16.221C79.5715 17.4712 79.7934 18.4393 80.2372 19.1251C80.6885 19.8038 81.3279 20.1432 82.1553 20.1432C83.0053 20.1432 83.6409 19.811 84.0621 19.1466C84.4834 18.475 84.694 17.4712 84.694 16.1352Z"
        fill="#20A157" />
    <path
        d="M73.9188 16.1778C73.9188 18.0567 73.3697 19.532 72.2715 20.6037C71.1733 21.6682 69.6538 22.2005 67.7131 22.2005C65.8101 22.2005 64.317 21.6646 63.2338 20.593C62.1506 19.5213 61.6091 18.0496 61.6091 16.1778C61.6091 14.3131 62.1506 12.8485 63.2338 11.784C64.317 10.7124 65.8326 10.1765 67.7808 10.1765C69.7742 10.1765 71.2936 10.6945 72.3392 11.7304C73.3922 12.7592 73.9188 14.2417 73.9188 16.1778ZM70.6016 16.1778C70.6016 14.7989 70.3646 13.7987 69.8908 13.1772C69.4169 12.5556 68.7286 12.2448 67.826 12.2448C66.8632 12.2448 66.141 12.5735 65.6596 13.2307C65.1782 13.8809 64.9375 14.8632 64.9375 16.1778C64.9375 17.4709 65.1707 18.4568 65.6371 19.1355C66.111 19.8071 66.7917 20.1429 67.6793 20.1429C68.6571 20.1429 69.3868 19.8142 69.8682 19.157C70.3571 18.4925 70.6016 17.4995 70.6016 16.1778Z"
        fill="#20A157" />
    <path
        d="M51.319 12.7058C51.7477 11.8199 52.2856 11.1769 52.9325 10.7768C53.5793 10.3768 54.3503 10.1767 55.2455 10.1767C56.5392 10.1767 57.5321 10.5554 58.2242 11.3127C58.9162 12.07 59.2622 13.1773 59.2622 14.6348V21.9863H56.103V15.4921C56.103 14.4705 55.9224 13.706 55.5614 13.1988C55.2003 12.6915 54.655 12.4379 53.9254 12.4379C53.1581 12.4379 52.5375 12.7522 52.0637 13.3809C51.5973 14.0025 51.3641 14.8027 51.3641 15.7814V21.9863H48.1936V6.08301H51.3641V10.4232C51.3641 10.6804 51.3604 10.9376 51.3528 11.1948C51.3453 11.452 51.334 11.7056 51.319 11.9557C51.3115 12.2057 51.2964 12.4558 51.2739 12.7058H51.319Z"
        fill="#20A157" />
    <path
        d="M45 16.1184C45 18.2621 44.2126 19.9484 42.6379 21.1772C41.0753 22.3924 38.9085 23 36.1373 23C33.4151 23 31.3276 22.5221 29.8749 21.5664C28.4344 20.5969 27.4761 19.095 27 17.0606L31.5229 16.3028C31.7793 17.3541 32.2187 18.0983 32.8413 18.5352C33.4761 18.9721 34.5748 19.1906 36.1373 19.1906C37.5778 19.1906 38.6277 18.9858 39.2869 18.5761C39.9461 18.1665 40.2757 17.5248 40.2757 16.6509C40.2757 15.9409 40.0071 15.3811 39.47 14.9715C38.9451 14.5482 38.0478 14.1932 36.7782 13.9065C35.8138 13.688 34.9471 13.4764 34.178 13.2716C33.4212 13.0668 32.7681 12.8688 32.2187 12.6777C31.6816 12.4729 31.2421 12.2817 30.9003 12.1042C29.8871 11.5444 29.1119 10.8276 28.5748 9.95371C28.0499 9.07986 27.7874 8.0012 27.7874 6.71773C27.7874 4.60138 28.5137 2.95608 29.9664 1.78184C31.4313 0.593955 33.5005 1.03436e-05 36.174 1.03436e-05C38.53 1.03436e-05 40.4222 0.512032 41.8505 1.53607C43.291 2.56012 44.1882 4.04157 44.5422 5.98042L39.9827 6.51292C39.8362 5.61176 39.4761 4.94272 38.9023 4.5058C38.3286 4.05522 37.4191 3.82993 36.174 3.82993C34.9532 3.82993 34.0377 4.00743 33.4273 4.36243C32.8169 4.70378 32.5117 5.28407 32.5117 6.10331C32.5117 6.74504 32.7437 7.25706 33.2075 7.63937C33.6836 8.00803 34.4771 8.31524 35.588 8.56101C37.1384 8.91601 38.5117 9.28466 39.708 9.66697C40.9166 10.0356 41.8871 10.4794 42.6195 10.9982C43.3398 11.5171 43.9135 12.1861 44.3408 13.0054C44.7803 13.8109 45 14.8486 45 16.1184Z"
        fill="#20A157" />
</svg>