
<svg width="20" height="16" viewBox="0 0 20 16" fill="none" xmlns="http://www.w3.org/2000/svg">
<path d="M0 4.82861V12.9999C0 13.7577 0.301015 14.4844 0.836824 15.0202C1.37263 15.556 2.09935 15.857 2.8571 15.857H17.1426C17.9003 15.857 18.627 15.556 19.1629 15.0202C19.6987 14.4844 19.9997 13.7577 19.9997 12.9999V4.82861L11.497 10.06C11.0467 10.337 10.5285 10.4836 9.99984 10.4836C9.47122 10.4836 8.95296 10.337 8.50272 10.06L0 4.82861Z" fill="#54EF94"/>
<path d="M19.9997 3.15064V3.00016C19.9997 2.24241 19.6987 1.5157 19.1629 0.979891C18.627 0.444081 17.9003 0.143066 17.1426 0.143066H2.8571C2.09935 0.143066 1.37263 0.444081 0.836824 0.979891C0.301015 1.5157 0 2.24241 0 3.00016V3.15064L9.25128 8.84388C9.4764 8.98238 9.73553 9.05571 9.99984 9.05571C10.2641 9.05571 10.5233 8.98238 10.7484 8.84388L19.9997 3.15064Z" fill="#54EF94"/>
</svg>
