<svg width="57" height="57" viewBox="0 0 57 57" fill="none" xmlns="http://www.w3.org/2000/svg">
    <rect x="0.654999" y="0.5" width="56" height="56" rx="20" fill="#F4F4F4" />
    <g clip-path="url(#clip0_2_1040)">
        <path
            d="M28.655 14.5C36.387 14.5 42.655 20.768 42.655 28.5C42.655 36.232 36.387 42.5 28.655 42.5C20.923 42.5 14.655 36.232 14.655 28.5C14.655 20.768 20.923 14.5 28.655 14.5ZM28.655 16.8333C22.2117 16.8333 16.9883 22.0567 16.9883 28.5C16.9883 34.9433 22.2117 40.1667 28.655 40.1667C35.0983 40.1667 40.3217 34.9433 40.3217 28.5C40.3217 22.0567 35.0983 16.8333 28.655 16.8333ZM30.6069 22.0833C32.9668 22.0833 34.8797 23.9963 34.8797 26.356C34.8797 28.7158 32.9668 30.6288 30.6069 30.6288L27.7392 30.628V32.2648L29.6488 32.2652C30.176 32.2652 30.6033 32.6925 30.6033 33.2197C30.6033 33.7468 30.176 34.1742 29.6488 34.1742L27.7392 34.1735L27.7397 35.0834C27.7397 35.6356 27.292 36.0833 26.7397 36.0833H26.5761C26.0238 36.0833 25.5761 35.6356 25.5761 35.0834L25.575 34.1735L24.5579 34.1742C24.0307 34.1742 23.6033 33.7468 23.6033 33.2197C23.6033 32.6925 24.0307 32.2652 24.5579 32.2652L25.575 32.2648V30.628L24.6033 30.6288C24.0511 30.6288 23.6033 30.181 23.6033 29.6287V29.447C23.6033 28.8947 24.0511 28.4469 24.6033 28.4469L25.575 28.4463L25.5761 23.0833C25.5761 22.5311 26.0238 22.0833 26.5761 22.0833H30.6069ZM30.6488 24.0833H27.7397V28.4469H30.6488C31.8538 28.4469 32.8306 27.4702 32.8306 26.2651C32.8306 25.0602 31.8538 24.0833 30.6488 24.0833Z"
            fill="#222222" />
    </g>
    <defs>
        <clipPath id="clip0_2_1040">
            <rect width="28" height="28" fill="white" transform="translate(14.655 14.5)" />
        </clipPath>
    </defs>
</svg>