<svg width="57" height="57" viewBox="0 0 57 57" fill="none" xmlns="http://www.w3.org/2000/svg">
<rect x="0.954987" y="0.5" width="56" height="56" rx="20" fill="#F4F4F4"/>
<g clip-path="url(#clip0_2_1047)">
<path d="M28.3771 14.5025C28.7686 14.4467 29.1414 14.4467 29.5329 14.5025C29.9196 14.5577 30.2422 14.6447 30.9849 14.8923L38.6234 17.4384C39.538 17.7433 40.155 18.5993 40.155 19.5635V29.9562C40.155 35.326 36.9312 39.4396 30.6819 42.2116L30.2694 42.3907C29.4295 42.7478 28.4805 42.7478 27.6406 42.3907C21.1232 39.6204 17.755 35.447 17.755 29.9562V19.5635C17.755 18.5993 18.372 17.7433 19.2866 17.4384L27.1358 14.8227C27.7329 14.6276 28.0291 14.5522 28.3771 14.5025ZM29.2165 16.7201C29.0348 16.6942 28.8751 16.6942 28.6935 16.7201C28.4696 16.752 28.2589 16.8089 27.6335 17.0173L19.995 19.5635V29.9562C19.995 34.454 22.7626 37.8833 28.5169 40.3292C28.7968 40.4483 29.1131 40.4482 29.3852 40.3326L29.7817 40.1606C35.2727 37.7249 37.915 34.3531 37.915 29.9562V19.5635L30.1009 16.9592C29.7182 16.8336 29.5177 16.7761 29.3527 16.7432L29.2165 16.7201Z" fill="#222222"/>
<path d="M34.6189 24.7962C34.1816 24.3589 33.4724 24.3589 33.035 24.7962L27.555 30.2763L25.4349 28.1563C24.9976 27.7189 24.2884 27.7189 23.851 28.1563C23.4136 28.5936 23.4136 29.3028 23.851 29.7402L26.763 32.6522C27.2004 33.0895 27.9096 33.0895 28.3469 32.6522L34.6189 26.3802C35.0563 25.9428 35.0563 25.2336 34.6189 24.7962Z" fill="#222222"/>
</g>
<defs>
<clipPath id="clip0_2_1047">
<rect width="22.4" height="29.12" fill="white" transform="translate(17.755 13.94)"/>
</clipPath>
</defs>
</svg>
