<svg width="57" height="57" viewBox="0 0 57 57" fill="none" xmlns="http://www.w3.org/2000/svg">
<rect x="0.544983" y="0.5" width="56" height="56" rx="20" fill="#F4F4F4"/>
<g clip-path="url(#clip0_2_1058)">
<path fill-rule="evenodd" clip-rule="evenodd" d="M25.9596 15.06C23.2181 15.06 22.0095 15.3015 20.7828 15.9576C19.6905 16.5417 18.8267 17.4056 18.2425 18.4978C17.5865 19.7245 17.345 20.9331 17.345 23.6747V33.3253C17.345 36.0668 17.5865 37.2754 18.2425 38.5022C18.8267 39.5944 19.6905 40.4584 20.7828 41.0424C22.0095 41.6985 23.2181 41.94 25.9596 41.94H31.1303C33.8718 41.94 35.0804 41.6985 36.3071 41.0424C37.3994 40.4584 38.2633 39.5944 38.8474 38.5022C39.5035 37.2754 39.745 36.0668 39.745 33.3253V26.6619C39.745 25.7696 39.7138 25.3681 39.6083 24.91C39.5037 24.4562 39.3338 24.0462 39.087 23.6513C38.8377 23.2527 38.5758 22.9469 37.9448 22.3159L32.489 16.8601C31.858 16.2292 31.5523 15.9673 31.1537 15.718C30.7588 15.4711 30.3487 15.3013 29.8949 15.1967C29.512 15.1084 29.1686 15.0722 28.545 15.0627V15.06H25.9596ZM25.9596 17.3C23.3445 17.3 22.5792 17.5371 21.8391 17.9328C21.1373 18.3082 20.5932 18.8523 20.2178 19.5542C19.822 20.2942 19.585 21.0595 19.585 23.6747V33.3253C19.585 35.9405 19.822 36.7058 20.2178 37.4458C20.5932 38.1477 21.1373 38.6918 21.8391 39.0672C22.5792 39.4629 23.3445 39.7 25.9596 39.7H31.1303C33.7455 39.7 34.5108 39.4629 35.2507 39.0672C35.9527 38.6918 36.4967 38.1477 36.8722 37.4458C37.2679 36.7058 37.505 35.9405 37.505 33.3253V26.6619C37.505 26.5081 37.5041 26.3755 37.5023 26.2595L31.345 26.26C29.7986 26.26 28.545 25.0064 28.545 23.46L28.5467 17.3027C28.486 17.3018 28.4207 17.3011 28.3502 17.3006L25.9596 17.3ZM30.9051 18.4441L30.785 18.3248V23.46C30.785 23.7349 30.9831 23.9636 31.2443 24.011L31.345 24.02L36.4827 24.0223C36.4444 23.9836 36.4039 23.9428 36.3609 23.8999L30.9051 18.4441ZM22.945 35.22C22.945 34.6014 23.4464 34.1 24.065 34.1H28.545C29.1635 34.1 29.665 34.6014 29.665 35.22C29.665 35.8386 29.1635 36.34 28.545 36.34H24.065C23.4464 36.34 22.945 35.8386 22.945 35.22ZM24.065 29.62C23.4464 29.62 22.945 30.1214 22.945 30.74C22.945 31.3586 23.4464 31.86 24.065 31.86H31.905C32.5235 31.86 33.025 31.3586 33.025 30.74C33.025 30.1214 32.5235 29.62 31.905 29.62H24.065Z" fill="#222222"/>
</g>
<defs>
<clipPath id="clip0_2_1058">
<rect width="22.4" height="26.88" fill="white" transform="translate(17.345 15.06)"/>
</clipPath>
</defs>
</svg>
