<svg width="57" height="57" viewBox="0 0 57 57" fill="none" xmlns="http://www.w3.org/2000/svg">
<rect x="0.255005" y="0.5" width="56" height="56" rx="20" fill="#F4F4F4"/>
<g clip-path="url(#clip0_2_1053)">
<path d="M33.3459 16.2818C33.9082 16.2818 34.3641 16.7377 34.3641 17.3L34.3648 18.4809C35.22 18.6169 35.7736 18.8367 36.3297 19.1341C37.3253 19.6666 38.1066 20.4479 38.639 21.4434C39.1228 22.3479 39.401 23.2457 39.4479 25.4445L39.455 25.4454V32.8866L39.4496 33.5078C39.4081 35.7679 39.1289 36.677 38.639 37.5929C38.1066 38.5884 37.3253 39.3698 36.3297 39.9022C35.3342 40.4346 34.3467 40.7182 31.6234 40.7182H24.8865L24.2654 40.7128C22.0053 40.6712 21.0962 40.392 20.1803 39.9022C19.1847 39.3698 18.4034 38.5884 17.871 37.5929C17.3598 36.6372 17.0781 35.6889 17.0564 33.2052L17.055 26.1497V25.4454C17.109 23.2457 17.3872 22.3479 17.871 21.4434C18.4034 20.4479 19.1847 19.6666 20.1803 19.1341C20.7366 18.8366 21.2905 18.6168 22.1462 18.4807L22.1459 17.3C22.1459 16.7377 22.6018 16.2818 23.1641 16.2818C23.7264 16.2818 24.1823 16.7377 24.1823 17.3L24.1813 18.3253C24.4027 18.3205 24.6374 18.3182 24.8865 18.3182H31.6234C31.873 18.3182 32.108 18.3205 32.3297 18.3253L32.3277 17.3C32.3277 16.7377 32.7836 16.2818 33.3459 16.2818ZM37.4176 27.4818H19.0914L19.0923 33.1748L19.1013 33.7539C19.1409 35.2885 19.303 35.9527 19.6666 36.6325C20.0093 37.2732 20.4999 37.7639 21.1406 38.1065C21.9005 38.5129 22.6407 38.6676 24.5984 38.6809H31.9116L32.4907 38.6718C34.0253 38.6323 34.6895 38.4701 35.3693 38.1065C36.0101 37.7639 36.5007 37.2732 36.8434 36.6325C37.2497 35.8726 37.4045 35.1325 37.4177 33.1748L37.4176 27.4818ZM33.3927 32.5727C33.8334 32.5727 34.1804 32.6554 34.4707 32.8107C34.7611 32.966 34.9889 33.1939 35.1443 33.4843C35.2996 33.7746 35.3823 34.1216 35.3823 34.5622V34.6559C35.3823 35.0966 35.2996 35.4436 35.1443 35.7339C34.9889 36.0242 34.7611 36.2521 34.4707 36.4075C34.1804 36.5628 33.8334 36.6454 33.3927 36.6454H33.2991C32.8584 36.6454 32.5114 36.5628 32.2211 36.4075C31.9307 36.2521 31.7029 36.0242 31.5475 35.7339C31.3922 35.4436 31.3095 35.0966 31.3095 34.6559V34.5622C31.3095 34.1216 31.3922 33.7746 31.5475 33.4843C31.7029 33.1939 31.9307 32.966 32.2211 32.8107C32.5114 32.6554 32.8584 32.5727 33.2991 32.5727H33.3927ZM31.9116 20.3555H24.5984L24.1823 20.3606V21.3727C24.1823 21.935 23.7264 22.3909 23.1641 22.3909C22.6018 22.3909 22.1459 21.935 22.1459 21.3727L22.1451 20.5505C21.7575 20.64 21.4507 20.764 21.1406 20.9298C20.4999 21.2725 20.0093 21.7631 19.6666 22.4038C19.2905 23.1071 19.13 23.7935 19.0976 25.4441L37.4115 25.4454L37.4087 25.2824C37.3691 23.7478 37.2069 23.0837 36.8434 22.4038C36.5007 21.7631 36.0101 21.2725 35.3693 20.9298C35.0594 20.764 34.7526 20.6401 34.3651 20.5506L34.3641 21.3727C34.3641 21.935 33.9082 22.3909 33.3459 22.3909C32.7836 22.3909 32.3277 21.935 32.3277 21.3727L32.3302 20.3608C32.1971 20.3582 32.0577 20.3565 31.9116 20.3555Z" fill="#222222"/>
</g>
<defs>
<clipPath id="clip0_2_1053">
<rect width="22.4" height="24.4364" fill="white" transform="translate(17.055 16.2818)"/>
</clipPath>
</defs>
</svg>
