<svg width="40" height="40" viewBox="0 0 40 40" fill="none" xmlns="http://www.w3.org/2000/svg">
    <path
        d="M20.4 39.8999C31.1696 39.8999 39.9 31.1694 39.9 20.3999C39.9 9.63035 31.1696 0.899902 20.4 0.899902C9.63047 0.899902 0.900024 9.63035 0.900024 20.3999C0.900024 31.1694 9.63047 39.8999 20.4 39.8999Z"
        fill="#FF0000" />
    <path fill-rule="evenodd" clip-rule="evenodd"
        d="M31.418 12.9686C31.8071 13.3578 32.0875 13.8421 32.2312 14.3732C33.0589 17.7048 32.8676 22.9666 32.2473 26.4268C32.1036 26.9579 31.8232 27.4422 31.4341 27.8314C31.0449 28.2205 30.5607 28.5009 30.0295 28.6446C28.0848 29.175 20.258 29.175 20.258 29.175C20.258 29.175 12.4312 29.175 10.4866 28.6446C9.9554 28.5009 9.47111 28.2205 9.08199 27.8314C8.69287 27.4422 8.41246 26.9579 8.26874 26.4268C7.43619 23.1096 7.66444 17.8446 8.25265 14.3893C8.39637 13.858 8.67678 13.3738 9.0659 12.9846C9.45503 12.5955 9.93931 12.3152 10.4705 12.1714C12.4151 11.6411 20.2419 11.625 20.2419 11.625C20.2419 11.625 28.0687 11.625 30.0134 12.1554C30.5446 12.2991 31.0288 12.5795 31.418 12.9686ZM24.2437 20.4L17.7509 24.1607V16.6392L24.2437 20.4Z"
        fill="white" />
</svg>