<svg width="376" height="312" viewBox="0 0 376 312" fill="none" xmlns="http://www.w3.org/2000/svg">
    <path
        d="M309.519 29.3869L283.801 29.985C283.801 23.1142 286.416 15.9059 291.084 10.9751C295.753 6.05202 302.423 3.18404 309.116 3L309.519 29.3869Z"
        fill="#F5F5F5" />
    <path
        d="M82.974 258.448V234.561C70.2082 234.561 59.7058 245.343 59.7058 258.448C59.7058 271.553 70.2082 282.335 82.974 282.335C95.538 282.335 105.943 271.891 106.235 259L82.974 258.448Z"
        fill="#F4F4F4" />
    <path
        d="M82.974 258.448V234.561C70.2082 234.561 59.7058 245.343 59.7058 258.448C59.7058 271.553 70.2082 282.335 82.974 282.335C95.538 282.335 105.943 271.891 106.235 259L82.974 258.448Z"
        fill="url(#paint0_linear_2681_121520)" />
    <path
        d="M88.6501 252.007L111.918 252.544C111.918 246.325 109.55 239.806 105.323 235.343C101.095 230.888 95.0666 228.296 89.0087 228.127L88.6501 252.007Z"
        fill="#54EF94" />
    <path d="M235.273 82.0991H224.397V116.967H235.273V82.0991Z" fill="#F4F4F4" />
    <path d="M235.273 82.0991H224.397V116.967H235.273V82.0991Z"
        fill="url(#paint1_linear_2681_121520)" />
    <path d="M251.512 90.0581H240.637V116.966H251.512V90.0581Z" fill="#F4F4F4" />
    <path d="M251.512 90.0581H240.637V116.966H251.512V90.0581Z"
        fill="url(#paint2_linear_2681_121520)" />
    <path d="M266.541 100.986H255.665V116.967H266.541V100.986Z" fill="#F4F4F4" />
    <path d="M266.541 100.986H255.665V116.967H266.541V100.986Z"
        fill="url(#paint3_linear_2681_121520)" />
    <path d="M51.9003 277.703H29.7824V322.003H51.9003V277.703Z" fill="#4CD685" />
    <path d="M99.9146 295.831H77.7967V322.011H99.9146V295.831Z" fill="#4CD685" />
    <g opacity="0.79">
        <path d="M99.9146 295.831H77.7967V322.011H99.9146V295.831Z" fill="white" />
    </g>
    <path d="M144.532 322.011L122.414 322.157V262.765H144.532V322.011Z" fill="#4CD685" />
    <path d="M191.24 290.731H169.122V322.011H191.24V290.731Z" fill="#4CD685" />
    <g opacity="0.79">
        <path d="M191.24 290.731H169.122V322.011H191.24V290.731Z" fill="white" />
    </g>
    <path d="M237.163 262.765H215.046V322.004H237.163V262.765Z" fill="#4CD685" />
    <path d="M282.654 187.017H260.536V322.011H282.654V187.017Z" fill="#4CD685" />
    <g opacity="0.79">
        <path d="M282.654 187.017H260.536V322.011H282.654V187.017Z" fill="white" />
    </g>
    <path
        d="M191.195 298.776C191.367 298.96 186.579 304.305 180.499 310.723C174.418 317.141 169.346 322.195 169.174 322.011C169.003 321.827 173.791 316.482 179.879 310.063C185.951 303.645 191.023 298.592 191.195 298.776Z"
        fill="#4CD685" />
    <path
        d="M237.702 298.776C237.874 298.96 233.086 304.305 227.005 310.723C220.925 317.141 215.853 322.195 215.681 322.011C215.509 321.827 220.298 316.482 226.385 310.063C232.458 303.645 237.53 298.592 237.702 298.776Z"
        fill="white" />
    <path
        d="M237.402 278.14C237.574 278.324 232.786 283.669 226.706 290.087C220.625 296.505 215.553 301.559 215.382 301.375C215.21 301.191 219.998 295.846 226.086 289.427C232.159 283.009 237.231 277.956 237.402 278.14Z"
        fill="white" />
    <path
        d="M230.367 262.565C230.539 262.749 227.327 266.43 223.188 270.801C219.05 275.165 215.554 278.554 215.383 278.378C215.211 278.194 218.423 274.513 222.561 270.142C226.699 265.778 230.188 262.389 230.367 262.565Z"
        fill="white" />
    <path d="M329.459 105.618H308.559V322.012H329.459V105.618Z" fill="#4CD685" />
    <path
        d="M349.411 103.753C349.411 103.753 349.089 103.539 348.484 103.094C348.178 102.871 347.797 102.595 347.349 102.273C346.886 101.967 346.348 101.606 345.735 101.2C343.27 99.6201 339.521 97.3963 334.299 95.5175C331.692 94.5896 328.719 93.7461 325.395 93.2247C322.079 92.7032 318.396 92.5192 314.505 92.9716C306.706 93.8305 298.146 97.611 290.684 104.267C286.934 107.565 283.423 111.506 280.174 115.923C276.999 120.401 273.832 125.171 270.56 130.11C264.039 140.002 257.331 150.753 250.37 162.125C243.415 173.505 236.192 185.498 228.468 197.783C224.592 203.918 220.61 210.129 216.45 216.364C214.366 219.469 212.394 222.682 210.369 225.895C208.345 229.108 206.298 232.344 204.184 235.557C199.942 241.968 195.587 248.226 190.746 253.931C188.311 256.768 185.794 259.514 182.963 261.868C181.566 263.056 180.065 264.13 178.459 264.996C176.86 265.855 175.12 266.53 173.275 266.568C171.415 266.507 169.741 265.763 168.128 265.035C166.507 264.283 164.968 263.401 163.452 262.504C160.427 260.687 157.543 258.708 154.727 256.699C149.11 252.666 143.784 248.463 138.667 244.276C136.105 242.183 133.603 240.082 131.153 237.988C128.71 235.88 126.283 233.832 123.87 231.838C119.037 227.858 114.286 224.063 109.55 220.596C104.859 217.084 99.9519 214.163 94.7529 212.66C89.554 211.218 84.2655 211.103 79.44 212.1C74.6071 213.127 70.2448 215.098 66.4352 217.429C62.6107 219.768 59.3166 222.468 56.4034 225.167C50.6144 230.627 45.7217 235.435 41.7553 239.392C37.7889 243.356 34.7487 246.47 32.6945 248.594C31.6712 249.652 30.8868 250.457 30.3565 251.009C29.8336 251.554 29.5572 251.83 29.5572 251.83C29.5572 251.83 29.8112 251.538 30.3266 250.986C30.8495 250.434 31.6263 249.614 32.6348 248.54C34.674 246.401 37.6992 243.264 41.6432 239.284C45.5947 235.304 50.4724 230.481 56.2465 225.006C59.1597 222.291 62.4613 219.569 66.2933 217.215C70.1178 214.861 74.5025 212.874 79.3728 211.824C84.243 210.812 89.5764 210.919 94.8202 212.361C100.064 213.864 105.031 216.808 109.722 220.32C114.466 223.794 119.224 227.582 124.064 231.562C126.484 233.548 128.919 235.603 131.362 237.705C133.812 239.798 136.314 241.892 138.877 243.985C143.993 248.164 149.312 252.359 154.922 256.385C157.73 258.386 160.606 260.365 163.624 262.167C165.133 263.064 166.664 263.938 168.262 264.682C169.853 265.403 171.527 266.124 173.252 266.177C174.985 266.147 176.696 265.495 178.257 264.651C179.826 263.8 181.305 262.742 182.694 261.561C185.495 259.23 188.005 256.5 190.425 253.67C195.243 247.98 199.59 241.738 203.833 235.335C205.947 232.13 207.994 228.901 210.011 225.681C212.035 222.468 214.007 219.247 216.098 216.133C220.259 209.907 224.241 203.695 228.11 197.568C235.841 185.291 243.064 173.306 250.033 161.933C257.003 150.561 263.718 139.818 270.254 129.926C273.533 124.987 276.7 120.225 279.897 115.739C283.162 111.307 286.687 107.357 290.467 104.052C297.974 97.3809 306.594 93.5927 314.445 92.7492C318.366 92.3045 322.056 92.5038 325.388 93.0406C328.727 93.5774 331.7 94.4363 334.314 95.3718C339.543 97.2812 343.293 99.5281 345.743 101.131C346.348 101.545 346.886 101.905 347.349 102.22C347.797 102.549 348.171 102.833 348.477 103.063C349.104 103.508 349.411 103.753 349.411 103.753Z"
        fill="#4CD685" />
    <path
        d="M90.1593 213.004C90.1593 215.527 88.2097 217.575 85.812 217.575C83.4142 217.575 81.4646 215.527 81.4646 213.004C81.4646 210.482 83.4142 208.434 85.812 208.434C88.2097 208.434 90.1593 210.482 90.1593 213.004Z"
        fill="#4CD685" />
    <path
        d="M85.8122 221.195C81.5171 221.195 78.0212 217.521 78.0212 213.005C78.0212 208.488 81.5171 204.815 85.8122 204.815C90.1072 204.815 93.6031 208.488 93.6031 213.005C93.6031 217.521 90.1072 221.195 85.8122 221.195ZM85.8122 205.582C81.9279 205.582 78.7682 208.91 78.7682 213.005C78.7682 217.1 81.9279 220.428 85.8122 220.428C89.6964 220.428 92.8561 217.1 92.8561 213.005C92.8561 208.91 89.6964 205.582 85.8122 205.582Z"
        fill="#4CD685" />
    <path
        d="M323.804 92.5963C323.804 95.1192 321.854 97.1666 319.457 97.1666C317.059 97.1666 315.109 95.1192 315.109 92.5963C315.109 90.0734 317.059 88.0259 319.457 88.0259C321.862 88.0182 323.804 90.0657 323.804 92.5963Z"
        fill="#4CD685" />
    <path
        d="M319.457 100.778C315.162 100.778 311.666 97.1049 311.666 92.5883C311.666 88.0716 315.162 84.3984 319.457 84.3984C323.752 84.3984 327.248 88.0716 327.248 92.5883C327.255 97.1049 323.759 100.778 319.457 100.778ZM319.457 85.1729C315.573 85.1729 312.413 88.501 312.413 92.5959C312.413 96.6909 315.573 100.019 319.457 100.019C323.341 100.019 326.501 96.6909 326.501 92.5959C326.508 88.501 323.348 85.1729 319.457 85.1729Z"
        fill="#4CD685" />
    <path
        d="M130.885 84.9662L130.588 85.4603L130.867 85.9645L136.781 96.6579L124.044 93.5803L123.568 93.465L123.185 93.7715C117.728 98.1384 110.88 100.745 103.44 100.745C85.7081 100.745 71.2889 85.9808 71.2889 67.7129C71.2889 49.4451 85.7081 34.6807 103.44 34.6807C111.22 34.6807 118.358 37.5254 123.924 42.2566L123.926 42.2588C131.072 48.2924 135.635 57.4475 135.635 67.7053C135.635 74.0381 133.894 79.9495 130.885 84.9662Z"
        fill="white" stroke="#263238" stroke-width="2" />
    <path
        d="M229.08 211.894L232.038 220.483C232.038 220.483 245.715 233.373 247.732 250.635C249.748 267.896 249.748 271.661 249.748 271.661L245.513 322.012H154.353C154.353 322.012 151.335 281.316 152.455 269.806C153.576 258.295 160.082 245.275 160.082 245.275L167.029 228.013L167.238 219.325L229.08 211.894Z"
        fill="#263238" />
    <path
        d="M231.882 221.364C231.882 221.379 231.665 221.425 231.239 221.51C230.784 221.594 230.171 221.701 229.394 221.847C227.751 222.123 225.443 222.514 222.604 222.99C216.867 223.933 208.927 225.183 200.143 226.448C191.358 227.706 183.381 228.718 177.599 229.308C174.708 229.615 172.363 229.815 170.742 229.93C169.958 229.983 169.338 230.022 168.875 230.052C168.449 230.075 168.225 230.083 168.225 230.068C168.225 230.052 168.449 230.022 168.875 229.976C169.338 229.93 169.958 229.861 170.734 229.784C172.348 229.615 174.693 229.377 177.577 229.032C183.351 228.365 191.314 227.315 200.098 226.057C208.882 224.792 216.823 223.588 222.574 222.714C225.42 222.284 227.743 221.939 229.387 221.694C230.164 221.586 230.784 221.494 231.239 221.433C231.65 221.372 231.874 221.349 231.882 221.364Z"
        fill="#455A64" />
    <path
        d="M180.146 251.831C180.169 251.847 180.049 252.146 179.81 252.675C179.579 253.204 179.205 253.963 178.727 254.883C177.771 256.724 176.322 259.208 174.514 261.8C172.699 264.392 170.869 266.593 169.479 268.111C168.785 268.87 168.202 269.476 167.791 269.875C167.38 270.274 167.141 270.488 167.119 270.465C167.097 270.442 167.298 270.197 167.679 269.76C168.113 269.261 168.643 268.648 169.278 267.919C170.615 266.355 172.4 264.139 174.2 261.562C176.001 258.986 177.472 256.54 178.488 254.737C178.959 253.894 179.354 253.173 179.676 252.598C179.96 252.092 180.124 251.816 180.146 251.831Z"
        fill="#455A64" />
    <path
        d="M287.591 120.641C287.591 120.641 289.458 152.894 290.026 156.544C290.586 160.194 287.591 164.803 287.591 164.803C287.591 164.803 280.674 165.57 275.998 156.736L273.002 149.827C273.002 149.827 275.811 141.951 274.683 131.584C273.563 121.216 273.002 116.416 273.002 116.416L287.591 120.641Z"
        fill="#FFBE9D" />
    <path
        d="M279.202 75.6806C280.023 83.464 279.919 90.1969 276.184 91.5695C275.87 91.6845 273.36 91.7842 273.032 91.8226C268.729 92.298 264.524 85.8489 263.635 77.406C262.746 68.9708 265.51 61.7395 269.812 61.2641C270.216 61.2181 272.509 60.8807 272.905 60.9573C276.752 61.6628 278.395 68.0352 279.202 75.6806Z"
        fill="#455A64" />
    <path
        d="M291.146 103.548C291.146 103.548 294.298 104.622 293.73 107.75C293.163 110.879 291.146 116.416 291.146 116.416L287.232 120.871L273.009 116.416C273.009 116.416 271.941 114.491 272.038 112.052C272.135 109.614 272.031 103.556 272.031 103.556C272.031 103.556 274.033 101.018 274.608 97.9885C275.086 95.4656 275.43 92.5286 275.527 91.6238C275.542 91.4627 275.691 91.363 275.84 91.3937C276.475 91.5317 278.007 92.0685 278.604 93.9856C279.366 96.4242 279.172 97.1143 279.172 97.1143L291.146 103.548Z"
        fill="#FFBE9D" />
    <path
        d="M279.837 93.1499L277.805 89.8142L275.669 91.5013L279.628 99.53L280.704 96.1636L279.837 93.1499Z"
        fill="#455A64" />
    <path
        d="M279.837 93.1493C279.837 93.1493 282.063 89.6985 284.125 91.3396C286.194 92.9806 285.716 93.9621 284.125 96.9835C284.125 96.9835 288.181 96.416 287.225 100.818C287.225 100.818 291.243 100.005 291.139 103.555C291.139 103.555 294.455 106.37 293.021 108.486C291.595 110.61 286.112 114.682 284.595 114.199C283.087 113.708 282.9 111.592 282.9 111.592C282.9 111.592 281.1 110.94 280.539 110.043C279.987 109.146 280.696 107.758 280.696 107.758C280.696 107.758 279.105 106.347 278.709 105.956C278.313 105.557 278.709 103.517 278.709 103.517L280.853 100.986C280.853 100.986 277.753 102.696 277.036 102.213C276.319 101.723 275.527 101.316 276.162 100.258C276.797 99.1997 279.165 96.7458 279.165 96.7458L279.837 93.1493Z"
        fill="#FFBE9D" />
    <path
        d="M283.258 111.799C283.221 111.761 283.61 111.255 284.207 110.396C284.805 109.552 285.649 108.31 286.949 107.344C288.226 106.385 289.399 105.595 290.108 104.852C290.833 104.123 291.087 103.517 291.147 103.548C291.184 103.556 291.012 104.23 290.31 105.043C289.63 105.872 288.435 106.723 287.188 107.658C285.933 108.586 285.089 109.752 284.431 110.565C283.766 111.385 283.296 111.838 283.258 111.799Z"
        fill="#EB996E" />
    <path
        d="M280.704 108.371C280.622 108.302 281.981 106.515 283.737 104.383C284.618 103.333 285.373 102.321 286.037 101.684C286.687 101.032 287.203 100.772 287.225 100.818C287.255 100.871 286.814 101.201 286.232 101.884C285.642 102.551 284.924 103.586 284.036 104.644C282.28 106.776 280.786 108.448 280.704 108.371Z"
        fill="#EB996E" />
    <path
        d="M280.868 100.98C280.786 100.888 281.645 100.052 282.586 98.9629C283.55 97.874 283.968 96.7698 284.073 96.8004C284.185 96.8158 283.893 98.0887 282.885 99.2236C281.906 100.359 280.935 101.049 280.868 100.98Z"
        fill="#EB996E" />
    <path
        d="M275.161 105.159C275.168 105.121 275.729 105.228 276.483 105.719C277.245 106.202 278.156 107.107 278.851 108.303C279.546 109.499 279.942 110.696 280.203 111.554C280.457 112.413 280.569 112.958 280.524 112.973C280.472 112.988 280.263 112.475 279.949 111.646C279.628 110.818 279.195 109.668 278.522 108.51C277.85 107.36 277.021 106.47 276.334 105.949C275.639 105.427 275.131 105.22 275.161 105.159Z"
        fill="#EB996E" />
    <path
        d="M280.89 75.5124C281.779 83.9476 279.523 91.1252 275.856 91.5316C272.188 91.938 268.491 85.4276 267.602 76.9924C266.713 68.5571 268.969 61.3795 272.636 60.9731C276.304 60.5667 280.001 67.0771 280.89 75.5124Z"
        fill="#263238" />
    <path
        d="M274.511 91.332C277.947 89.5607 280.002 83.0732 279.217 75.6425C278.44 68.2502 275.116 62.3839 271.412 61.364C268.498 63.0741 266.84 69.5232 267.624 76.9538C268.401 84.3385 271.329 90.2508 274.511 91.332Z"
        fill="#E0E0E0" />
    <path
        d="M274.668 85.2588C274.563 85.2664 274.287 82.0304 274.055 78.0275C273.824 74.0246 273.719 70.7809 273.831 70.7732C273.936 70.7655 274.212 74.0016 274.444 78.0045C274.675 81.9997 274.772 85.2511 274.668 85.2588Z"
        fill="white" />
    <path
        d="M273.383 80.382C273.33 80.3897 273.174 79.6229 273.002 78.3729C272.83 77.123 272.651 75.3822 272.546 73.4575C272.442 71.5327 272.442 69.7843 272.479 68.519C272.516 67.2538 272.591 66.4792 272.643 66.4792C272.696 66.4792 272.725 67.2614 272.755 68.519C272.785 69.7767 272.837 71.5174 272.935 73.4345C273.039 75.3516 273.174 77.0846 273.278 78.3422C273.375 79.5922 273.435 80.3744 273.383 80.382Z"
        fill="white" />
    <path
        d="M279.838 93.1344C279.845 93.1344 279.838 93.2187 279.815 93.3797C279.785 93.5638 279.755 93.7938 279.711 94.0776C279.606 94.714 279.457 95.6036 279.27 96.7385L279.262 96.7615L279.24 96.7845C278.807 97.2523 278.314 97.7814 277.791 98.3795C277.283 98.9853 276.663 99.6448 276.207 100.435C276.11 100.634 276.043 100.849 276.08 101.056C276.118 101.255 276.26 101.439 276.439 101.593C276.618 101.746 276.835 101.884 277.051 102.03C277.231 102.168 277.455 102.145 277.709 102.106C278.717 101.899 279.748 101.378 280.779 100.826L281.503 100.442L280.973 101.079C280.301 101.876 279.584 102.735 278.837 103.617L278.867 103.563C278.635 104.33 278.523 105.289 278.949 106.002C279.412 106.707 280.181 107.275 280.951 107.773L281.122 107.881L281.01 108.049C280.555 108.709 280.271 109.713 280.988 110.258C281.63 110.833 282.482 111.255 283.318 111.615L283.057 111.792V111.746C283.057 111.746 283.057 111.723 283.057 111.73C283.109 111.784 282.938 111.6 283.184 111.891C283.684 111.592 283.326 111.776 283.438 111.723V111.815L283.453 112.006C283.468 112.137 283.49 112.267 283.52 112.397C283.58 112.658 283.67 112.903 283.782 113.134C283.901 113.364 284.058 113.571 284.245 113.732C284.439 113.893 284.67 114.031 284.88 114.038C285.358 114.054 285.896 113.824 286.396 113.594C286.896 113.356 287.389 113.064 287.868 112.758C288.779 112.167 289.638 111.523 290.445 110.833C291.251 110.143 292.028 109.422 292.656 108.624C292.977 108.226 293.178 107.804 293.171 107.313C293.178 106.838 293.022 106.362 292.805 105.925C292.364 105.051 291.699 104.307 291.012 103.678L290.953 103.625V103.533C290.938 103.057 290.915 102.574 290.706 102.175C290.512 101.769 290.191 101.455 289.802 101.255C289.018 100.856 288.077 100.856 287.255 100.979L287.023 101.017L287.061 100.772C287.098 100.504 287.15 100.243 287.18 99.9822C287.173 99.7215 287.225 99.4608 287.173 99.2077C287.143 98.7016 286.949 98.2338 286.642 97.8888C286.008 97.1909 284.984 97.0529 284.14 97.1219L283.871 97.1449L283.998 96.9072C284.424 96.1097 284.835 95.3505 285.126 94.599C285.268 94.2233 285.365 93.8475 285.373 93.4871C285.38 93.1267 285.261 92.7816 285.081 92.4902C284.7 91.9304 284.177 91.455 283.684 91.1713C283.162 90.9029 282.594 90.9642 282.153 91.1406C281.249 91.524 280.719 92.1451 280.36 92.5209C280.181 92.7203 280.062 92.8736 279.972 92.981C279.89 93.0884 279.845 93.142 279.838 93.1344C279.83 93.1344 279.867 93.0653 279.942 92.9503C280.017 92.8353 280.129 92.6666 280.301 92.4595C280.465 92.2525 280.689 91.9994 280.973 91.7387C281.257 91.4703 281.623 91.1866 282.093 90.9872C282.557 90.7878 283.184 90.7035 283.774 90.9872C283.909 91.0716 284.05 91.1559 284.185 91.2479C284.312 91.3476 284.439 91.455 284.566 91.5623C284.812 91.7924 285.074 92.0378 285.276 92.3598C285.477 92.6743 285.619 93.0653 285.619 93.4794C285.619 93.8935 285.515 94.3 285.373 94.691C285.074 95.4732 284.67 96.2401 284.252 97.0452L284.11 96.8305C284.588 96.7768 285.059 96.7998 285.544 96.9149C286.022 97.0299 286.515 97.2599 286.882 97.6664C287.248 98.0651 287.472 98.6173 287.509 99.1694C287.561 99.4454 287.516 99.7215 287.516 100.005C287.487 100.281 287.434 100.557 287.389 100.841L287.195 100.634C288.092 100.496 289.063 100.481 289.967 100.925C290.415 101.148 290.803 101.531 291.035 102.007C291.289 102.482 291.311 103.019 291.326 103.54L291.259 103.387C291.991 104.054 292.678 104.806 293.156 105.749C293.388 106.217 293.567 106.746 293.567 107.313C293.567 107.597 293.5 107.881 293.41 108.149C293.283 108.41 293.149 108.655 292.977 108.862C292.312 109.706 291.528 110.434 290.706 111.132C289.884 111.83 289.01 112.489 288.084 113.087C287.591 113.402 287.098 113.701 286.575 113.946C286.045 114.184 285.515 114.437 284.872 114.429C284.185 114.337 283.744 113.839 283.46 113.318C283.326 113.049 283.229 112.765 283.162 112.482C283.132 112.336 283.102 112.198 283.087 112.052L283.064 111.83L283.057 111.715V111.692V111.684C283.169 111.631 282.811 111.815 283.311 111.508C283.557 111.792 283.386 111.615 283.438 111.669V111.684V111.723V111.776V112.068L283.177 111.953C282.303 111.569 281.451 111.163 280.726 110.511C280.555 110.342 280.383 110.143 280.278 109.897C280.174 109.652 280.159 109.376 280.181 109.131C280.241 108.624 280.443 108.195 280.712 107.796L280.764 108.072C279.965 107.543 279.188 106.991 278.65 106.171C278.388 105.741 278.306 105.235 278.321 104.775C278.329 104.307 278.411 103.862 278.553 103.425L278.56 103.395L278.583 103.372C279.33 102.497 280.054 101.646 280.734 100.849L280.928 101.094C279.86 101.646 278.844 102.16 277.754 102.375C277.492 102.413 277.148 102.436 276.894 102.244C276.685 102.099 276.461 101.961 276.26 101.784C276.058 101.616 275.871 101.378 275.819 101.086C275.774 100.795 275.864 100.527 275.976 100.304C276.484 99.4454 277.096 98.832 277.619 98.2185C278.157 97.628 278.657 97.0989 279.106 96.6465L279.083 96.6925C279.307 95.5652 279.479 94.6757 279.606 94.0392C279.666 93.7632 279.711 93.5331 279.755 93.3567C279.808 93.211 279.83 93.1344 279.838 93.1344Z"
        fill="#EB996E" />
    <path
        d="M155.907 235.589L127.694 199.632C127.694 199.632 112.694 212.6 112.291 213.006C111.895 213.412 135.753 237.246 151.081 246.471L155.899 243.196V235.589H155.907Z"
        fill="#FFBE9D" />
    <path
        d="M179.601 224.048C179.601 224.048 170.697 222.606 169.876 223.204C169.054 223.802 162.959 228.02 162.959 228.02C162.959 228.02 161.233 230.742 160.262 231.747C160.262 231.747 158.268 234.155 156.744 234.392C155.22 234.63 154.286 234.392 154.286 234.392L150.305 245.703C150.305 245.703 153.353 248.955 155.228 248.709C157.102 248.471 167.067 242.812 167.067 242.812L169.525 241.969C169.525 241.969 179.138 242.329 179.601 239.323V238.48L170.107 237.636L166.589 238.234L172.684 235.88C172.684 235.88 181.588 235.343 182.41 235.105C183.232 234.868 184.165 233.541 183.814 232.82L181.939 232.583C181.939 232.583 183.964 231.149 183.889 229.822L175.456 228.449C175.471 228.457 180.542 225.85 179.601 224.048Z"
        fill="#FFBE9D" />
    <path
        d="M182.918 232.452C182.91 232.483 182.634 232.429 182.148 232.345C181.655 232.253 180.946 232.138 180.057 232C178.286 231.731 175.836 231.417 173.125 231.103C172.781 231.072 172.445 231.011 172.146 231.018C171.833 231.026 171.526 231.08 171.242 231.187C170.667 231.417 170.092 231.693 169.562 231.946C168.494 232.46 167.545 232.958 166.776 233.403C165.999 233.856 165.401 234.254 164.99 234.553C164.579 234.845 164.378 235.037 164.348 235.006C164.333 234.991 164.505 234.76 164.893 234.431C165.274 234.093 165.864 233.649 166.626 233.158C167.395 232.675 168.329 232.146 169.397 231.609C169.935 231.34 170.48 231.072 171.108 230.811C171.429 230.696 171.773 230.627 172.131 230.62C172.49 230.612 172.826 230.673 173.162 230.704C175.881 231.018 178.331 231.379 180.094 231.716C180.975 231.885 181.685 232.046 182.171 232.184C182.664 232.322 182.925 232.429 182.918 232.452Z"
        fill="#EB996E" />
    <path
        d="M175.717 228.849C175.694 228.91 175.03 228.611 173.902 228.388C172.781 228.158 171.168 228.066 169.487 228.519C167.799 228.971 166.432 229.853 165.565 230.612C164.684 231.371 164.251 231.962 164.198 231.916C164.161 231.893 164.527 231.233 165.386 230.398C166.23 229.562 167.635 228.596 169.39 228.128C171.153 227.66 172.833 227.806 173.961 228.112C175.104 228.412 175.732 228.81 175.717 228.849Z"
        fill="#EB996E" />
    <path
        d="M290.086 157.795C290.086 157.795 291.804 160.97 291.804 163.968C291.804 166.966 290.094 172.211 290.094 172.211L287.965 174.274C287.965 174.274 289.361 180.831 281.272 182.709C273.182 184.581 227.893 157.856 227.893 157.856L226.631 122.367C226.631 122.367 233.204 125.181 237.947 130.051C242.691 134.92 269.709 155.349 269.709 155.349C269.709 155.349 270.807 148.11 272.024 148.593C273.242 149.068 290.086 157.795 290.086 157.795Z"
        fill="white" />
    <path
        d="M226.63 122.359L202.122 117.006L195.743 110.273L167.56 109.997L164.169 116.331L143.052 129.513C143.052 129.513 148.37 165.624 150.312 169.833C152.254 174.036 167.627 220.475 167.627 220.475L229.066 212.953L229.588 183.805L231.366 169.703C231.747 166.682 231.807 163.637 231.546 160.608C230.395 147.426 226.63 122.359 226.63 122.359Z"
        fill="white" />
    <path
        d="M135.769 208.299L115.631 222.477L108.595 212.179L110.477 210.461C110.477 210.461 100.087 201.642 100.714 195.423C101.342 189.204 112.3 173.2 112.3 173.2C112.3 173.2 135.777 133.747 143.052 129.521C144.068 128.931 152.905 150.824 152.905 159.405C152.905 167.986 151.232 167.986 151.232 167.986C151.232 167.986 144.128 175.064 140.782 181.498C137.435 187.931 131.758 194.94 128.001 197.517L135.769 208.299Z"
        fill="white" />
    <path
        d="M116.729 192.471C116.729 192.44 116.923 192.425 117.274 192.417C117.625 192.402 118.133 192.425 118.753 192.501C120.001 192.647 121.711 193.077 123.429 193.958C125.147 194.84 126.522 195.975 127.403 196.888C128.285 197.8 128.718 198.467 128.688 198.49C128.598 198.598 126.656 196.037 123.257 194.319C121.577 193.46 119.926 193 118.716 192.785C117.498 192.563 116.729 192.54 116.729 192.471Z"
        fill="#263238" />
    <path
        d="M122.869 185.485C122.891 185.454 123.526 185.884 124.37 186.796C125.214 187.701 126.223 189.12 126.97 190.876C127.709 192.64 128.023 194.365 128.098 195.615C128.172 196.865 128.06 197.632 128.016 197.632C127.948 197.632 127.963 196.865 127.821 195.638C127.679 194.419 127.328 192.755 126.611 191.029C125.887 189.311 124.938 187.908 124.169 186.973C123.392 186.045 122.832 185.539 122.869 185.485Z"
        fill="#263238" />
    <path
        d="M200.144 163.032C200.174 163.024 200.233 163.4 200.323 164.074C200.375 164.412 200.428 164.826 200.442 165.317C200.465 165.8 200.517 166.352 200.495 166.965C200.487 167.579 200.48 168.246 200.405 168.967C200.368 169.688 200.233 170.447 200.114 171.244C199.822 172.839 199.374 174.565 198.717 176.313C198.037 178.054 197.208 179.626 196.364 180.991C195.916 181.658 195.505 182.302 195.057 182.854C194.639 183.429 194.198 183.928 193.794 184.38C193.406 184.848 192.995 185.209 192.659 185.554C192.323 185.899 192.009 186.167 191.748 186.374C191.232 186.804 190.934 187.034 190.919 187.011C190.866 186.949 192.032 186.014 193.593 184.196C193.981 183.736 194.399 183.238 194.81 182.663C195.244 182.111 195.639 181.466 196.073 180.799C196.894 179.442 197.694 177.885 198.366 176.168C199.016 174.45 199.471 172.747 199.778 171.183C199.905 170.393 200.047 169.649 200.099 168.936C200.189 168.231 200.218 167.571 200.233 166.965C200.293 164.542 200.062 163.047 200.144 163.032Z"
        fill="#263238" />
    <path
        d="M198.627 149.29C198.619 149.297 198.455 149.175 198.149 148.922C197.842 148.676 197.409 148.285 196.811 147.825C195.646 146.874 193.913 145.563 191.71 144.006C189.514 142.442 186.847 140.648 183.889 138.608C180.946 136.553 177.689 134.275 174.559 131.468L174.843 131.438C174.529 131.898 174.208 132.404 173.909 132.925C172.624 135.165 171.773 137.58 171.34 139.919L171.228 140.525L170.981 139.965C168.15 133.478 166.477 127.512 165.461 123.24C164.961 121.101 164.624 119.375 164.423 118.187C164.318 117.596 164.258 117.129 164.206 116.822C164.161 116.507 164.146 116.346 164.154 116.346C164.169 116.346 164.206 116.507 164.266 116.814C164.333 117.152 164.43 117.604 164.542 118.164C164.781 119.345 165.155 121.055 165.693 123.179C166.768 127.42 168.486 133.355 171.317 139.804L170.959 139.85C171.392 137.465 172.258 135.004 173.566 132.726C173.872 132.197 174.201 131.683 174.522 131.215L174.649 131.031L174.813 131.177C177.921 133.961 181.155 136.254 184.083 138.316C187.019 140.371 189.678 142.197 191.859 143.792C194.04 145.379 195.758 146.729 196.894 147.718C197.476 148.201 197.895 148.607 198.186 148.876C198.485 149.136 198.634 149.282 198.627 149.29Z"
        fill="#263238" />
    <path
        d="M202.122 117.013C202.13 117.006 202.204 117.113 202.324 117.328C202.443 117.542 202.63 117.857 202.854 118.279C203.302 119.114 203.937 120.341 204.662 121.898C206.096 125.019 208.031 129.49 209.218 134.927L209.33 135.456L208.912 135.118C207.672 134.129 206.477 133.002 205.357 131.737C204.669 130.954 204.034 130.149 203.459 129.329L203.81 129.221C203.571 133.654 203.347 137.695 203.168 141.015V141.054L203.153 141.084C201.801 143.569 200.688 145.616 199.889 147.089C199.508 147.771 199.202 148.316 198.97 148.73C198.753 149.106 198.634 149.297 198.619 149.29C198.604 149.282 198.701 149.075 198.888 148.684C199.104 148.262 199.381 147.702 199.732 147.004C200.501 145.517 201.577 143.446 202.877 140.931L202.862 141C203.019 137.68 203.213 133.631 203.429 129.198L203.459 128.639L203.78 129.091C204.348 129.896 204.976 130.694 205.655 131.461C206.753 132.71 207.941 133.83 209.151 134.804L208.845 134.996C207.695 129.612 205.812 125.142 204.438 121.998C203.736 120.426 203.146 119.183 202.735 118.332C202.54 117.934 202.391 117.611 202.264 117.351C202.16 117.136 202.115 117.013 202.122 117.013Z"
        fill="#263238" />
    <path
        d="M231.882 162.089C231.777 162.096 231.128 156.015 230.433 148.508C229.738 140.993 229.26 134.897 229.372 134.889C229.477 134.881 230.127 140.955 230.821 148.47C231.508 155.977 231.987 162.073 231.882 162.089Z"
        fill="#263238" />
    <path
        d="M275.461 165.823C275.431 165.854 274.893 165.401 274.153 164.542C273.406 163.683 272.473 162.41 271.651 160.869C270.829 159.328 270.292 157.825 269.993 156.72C269.694 155.616 269.604 154.911 269.649 154.895C269.769 154.857 270.359 157.641 271.995 160.677C273.601 163.722 275.558 165.739 275.461 165.823Z"
        fill="#263238" />
    <path
        d="M271.793 166.705C271.77 166.721 271.643 166.567 271.427 166.268C271.202 165.977 270.926 165.525 270.627 164.934C270.015 163.768 269.395 162.012 269.186 159.996C268.984 157.971 269.245 156.123 269.604 154.858C269.783 154.221 269.963 153.715 270.127 153.386C270.276 153.048 270.373 152.872 270.403 152.879C270.463 152.91 270.164 153.662 269.88 154.927C269.589 156.192 269.387 157.987 269.582 159.957C269.783 161.928 270.343 163.638 270.881 164.819C271.397 165.992 271.845 166.659 271.793 166.705Z"
        fill="#263238" />
    <path
        d="M142.133 151.66C142.155 151.652 142.297 151.921 142.536 152.427C142.805 153.009 143.134 153.73 143.522 154.574C144.404 156.468 145.546 158.929 146.809 161.652C148.094 164.412 149.222 166.935 149.991 168.783C150.372 169.704 150.678 170.463 150.865 170.984C151.059 171.513 151.156 171.805 151.126 171.812C151.104 171.82 150.962 171.552 150.723 171.045C150.454 170.463 150.125 169.742 149.737 168.898C148.856 167.004 147.713 164.543 146.45 161.82C145.166 159.06 144.038 156.537 143.268 154.689C142.887 153.769 142.581 153.009 142.394 152.488C142.2 151.967 142.11 151.667 142.133 151.66Z"
        fill="#263238" />
    <path
        d="M214.507 193.729C214.53 193.736 214.455 194.066 214.291 194.664C214.126 195.255 213.865 196.106 213.529 197.156C212.849 199.25 211.818 202.103 210.519 205.193C209.219 208.283 207.897 211.013 206.881 212.953C206.373 213.927 205.947 214.702 205.641 215.231C205.335 215.76 205.155 216.044 205.133 216.036C205.11 216.021 205.245 215.714 205.514 215.162C205.813 214.541 206.194 213.758 206.642 212.831C207.59 210.86 208.868 208.122 210.167 205.04C211.46 201.964 212.528 199.127 213.275 197.064C213.626 196.09 213.917 195.278 214.156 194.618C214.358 194.035 214.485 193.721 214.507 193.729Z"
        fill="#263238" />
    <path
        d="M214.074 206.581C214.119 206.604 213.902 207.156 213.476 207.999C213.051 208.843 212.401 209.985 211.579 211.174C210.765 212.363 209.936 213.382 209.308 214.08C208.673 214.778 208.247 215.169 208.21 215.139C208.128 215.054 209.652 213.313 211.265 210.952C212.886 208.597 213.969 206.527 214.074 206.581Z"
        fill="#263238" />
    <path
        d="M209.704 206.58C209.689 206.58 209.659 206.381 209.621 205.99C209.577 205.56 209.524 204.993 209.457 204.288C209.33 202.808 209.121 200.668 208.852 198.022C208.284 192.747 207.41 185.454 205.916 177.494C204.437 169.527 202.607 162.434 201.076 157.357C200.71 156.084 200.344 154.942 200.023 153.937C199.709 152.932 199.433 152.066 199.194 151.368C198.977 150.693 198.798 150.149 198.663 149.742C198.544 149.367 198.491 149.175 198.506 149.167C198.521 149.16 198.596 149.351 198.738 149.712C198.887 150.11 199.089 150.647 199.336 151.307C199.597 151.997 199.896 152.856 200.232 153.86C200.576 154.857 200.957 155.992 201.337 157.265C202.929 162.326 204.818 169.435 206.297 177.41C207.799 185.385 208.635 192.693 209.128 197.984C209.36 200.63 209.532 202.777 209.614 204.265C209.651 204.978 209.681 205.545 209.711 205.975C209.718 206.381 209.718 206.58 209.704 206.58Z"
        fill="#263238" />
    <path
        d="M210.974 211.649C210.862 211.603 211.609 210.062 211.452 208.03C211.333 205.998 210.377 204.579 210.489 204.518C210.526 204.487 210.817 204.801 211.138 205.415C211.46 206.021 211.773 206.949 211.848 208.007C211.915 209.065 211.736 210.024 211.504 210.675C211.258 211.327 211.011 211.672 210.974 211.649Z"
        fill="#263238" />
    <path
        d="M209.817 215.353C209.713 215.346 209.653 214.855 209.683 214.249C209.72 213.651 209.832 213.168 209.937 213.175C210.042 213.183 210.101 213.674 210.072 214.28C210.034 214.878 209.922 215.361 209.817 215.353Z"
        fill="#263238" />
    <path
        d="M129.412 200.523C129.419 200.554 129.098 200.661 128.516 200.838C127.933 201.006 127.096 201.282 126.08 201.65C125.057 202.003 123.869 202.509 122.562 203.092C121.262 203.698 119.858 204.411 118.417 205.232C115.541 206.888 113.098 208.652 111.373 209.994C110.514 210.668 109.826 211.221 109.356 211.612C108.885 212.003 108.609 212.202 108.594 212.187C108.579 212.164 108.81 211.918 109.259 211.497C109.699 211.067 110.364 210.477 111.208 209.771C112.896 208.368 115.332 206.551 118.23 204.879C119.679 204.051 121.106 203.337 122.42 202.747C123.75 202.18 124.96 201.696 125.998 201.374C127.037 201.037 127.888 200.807 128.478 200.684C129.076 200.554 129.404 200.492 129.412 200.523Z"
        fill="#263238" />
    <path
        d="M128.628 200.545C128.628 200.614 127.605 200.584 125.976 200.729C124.348 200.875 122.107 201.266 119.739 202.079C117.371 202.9 115.339 203.95 113.92 204.778C112.493 205.606 111.649 206.197 111.612 206.143C111.597 206.12 111.791 205.952 112.165 205.668C112.531 205.376 113.083 204.993 113.786 204.541C115.182 203.643 117.222 202.539 119.627 201.711C122.032 200.883 124.318 200.53 125.969 200.461C126.798 200.423 127.47 200.43 127.926 200.469C128.374 200.484 128.628 200.515 128.628 200.545Z"
        fill="#263238" />
    <g opacity="0.3">
        <path
            d="M143.538 154.405C142.611 160.502 145.48 167.027 150.544 170.356C148.781 165.754 145.734 159.137 143.538 154.405Z"
            fill="black" />
    </g>
    <g opacity="0.3">
        <path
            d="M172.086 136.492C173.027 138.463 174.335 140.249 175.918 141.722C175.896 140.326 175.866 138.93 175.843 137.527C182.081 140.372 188.318 143.217 194.555 146.062C187.862 141.139 181.162 136.208 174.469 131.285C173.371 133.179 173.184 134.598 172.086 136.492Z"
            fill="black" />
    </g>
    <g opacity="0.3">
        <path
            d="M206.633 133.225C205.834 131.937 203.623 129.215 203.623 129.215C203.548 131.224 203.384 133.984 203.309 135.993L203.026 140.817C203.317 139.137 203.534 135.894 203.825 134.214C204.983 135.342 206.148 136.469 207.306 137.604C207.829 136.162 207.433 134.513 206.633 133.225Z"
            fill="black" />
    </g>
    <g opacity="0.3">
        <path d="M229.469 138.164L231.852 160.287C232.89 153.086 234.803 149.175 229.469 138.164Z"
            fill="black" />
    </g>
    <g opacity="0.3">
        <path
            d="M282.691 170.057C281.795 169.297 279.816 168.822 278.792 168.247C274.153 165.663 271.696 160.924 269.881 155.824L269.724 155.257C269.911 162.089 274.124 169.382 280.196 172.188C280.824 172.48 281.511 172.733 282.183 172.618C282.863 172.503 283.506 171.882 283.423 171.184C283.371 170.724 283.035 170.348 282.691 170.057Z"
            fill="black" />
    </g>
    <g opacity="0.3">
        <path
            d="M186.466 189.02C194.144 186.405 197.849 178.982 199.814 172.487C199.859 175.302 199.665 178.147 198.835 180.831C198.006 183.514 196.49 186.03 194.256 187.663C192.038 189.304 189.05 189.956 186.466 189.02Z"
            fill="black" />
    </g>
    <g opacity="0.3">
        <path
            d="M127.918 201.029C122.353 200.645 116.669 202.532 112.374 206.182C112.06 206.45 111.716 206.841 111.851 207.24C111.955 207.539 112.299 207.685 112.613 207.654C112.919 207.624 113.195 207.455 113.457 207.286C117.916 204.549 122.958 202.47 127.918 200.898"
            fill="black" />
    </g>
    <g opacity="0.3">
        <path
            d="M220.064 185.631C219.571 185.01 218.563 185.094 217.95 185.592C217.338 186.091 217.024 186.865 216.733 187.609C213.693 195.354 210.653 203.107 207.612 210.852L206.216 214.303C209.405 208.82 212.587 203.329 215.777 197.847C217.682 194.565 219.624 191.19 220.288 187.425C220.393 186.819 220.445 186.114 220.064 185.631Z"
            fill="black" />
    </g>
    <path
        d="M157.326 55.0143C162.988 46.9089 172.355 42.1621 181.909 40.3677C185.927 39.6086 188.564 40.1607 192.568 40.9889C196.572 41.8247 200.262 43.7572 202.824 47.0239C205.864 50.9041 208.493 55.3057 209.33 60.2135C210.189 65.2593 211.048 70.3358 210.996 75.4506C210.936 80.5654 209.913 85.7876 207.246 90.1125L194.764 93.1952C187.81 93.893 180.751 94.5985 173.856 93.4099C166.962 92.2213 160.127 88.9009 156.108 83.0269C150.521 74.8755 151.664 63.1198 157.326 55.0143Z"
        fill="#263238" />
    <path
        d="M203.878 97.6739C203.855 97.7045 204.102 97.9806 204.677 98.3027C205.245 98.6247 206.156 98.9698 207.336 99.0312C208.501 99.0772 209.965 98.8318 211.295 97.9346C212.64 97.0527 213.693 95.4577 214.059 93.625C214.417 91.7922 214.059 89.8981 213.155 88.5485C212.266 87.1912 211.019 86.3707 209.921 85.9489C208.808 85.5348 207.844 85.4888 207.194 85.5578C206.544 85.6268 206.216 85.7802 206.223 85.8185C206.223 85.9719 207.68 85.5578 209.719 86.455C210.705 86.9074 211.81 87.705 212.565 88.9319C213.334 90.1435 213.633 91.8152 213.312 93.4639C212.983 95.1126 212.072 96.5313 210.899 97.3364C209.734 98.1646 208.419 98.456 207.336 98.479C205.125 98.502 203.937 97.5282 203.878 97.6739Z"
        fill="#E0E0E0" />
    <path
        d="M147.564 91.9067C147.698 88.9621 149.013 85.9867 151.381 84.3304C153.756 82.674 157.215 82.5973 159.396 84.5144L161.532 86.8149C164.729 87.9728 166.911 91.4696 166.746 94.9434C166.582 98.4172 164.192 101.623 161.024 102.85C157.857 104.076 154.085 103.333 151.471 101.132C148.841 98.931 147.407 95.3805 147.564 91.9067Z"
        fill="#263238" />
    <path
        d="M150.612 100.48C150.701 100.427 149.775 99.6597 149.775 97.942C149.775 96.278 150.813 94.0235 152.3 91.9224C153.816 89.8135 155.669 88.3182 157.103 87.4287C158.53 86.5161 159.53 86.1481 159.493 86.0484C159.478 85.987 158.417 86.2017 156.886 87.0376C155.355 87.8504 153.383 89.3458 151.807 91.5466C151.015 92.6355 150.395 93.7781 149.962 94.867C149.521 95.9482 149.275 97.0372 149.334 97.9574C149.387 98.8776 149.723 99.5754 150.029 99.9742C150.335 100.381 150.589 100.511 150.612 100.48Z"
        fill="#455A64" />
    <path
        d="M156.953 103.908C157.155 103.885 156.057 100.02 156.983 95.3113C157.842 90.5876 160.277 87.4359 160.098 87.3285C160.046 87.2825 159.366 87.9957 158.552 89.3606C157.73 90.7179 156.841 92.7731 156.378 95.1886C155.922 97.6041 156.005 99.851 156.266 101.423C156.52 103.01 156.894 103.931 156.953 103.908Z"
        fill="#455A64" />
    <path
        d="M196.072 114.229C195.706 109.69 195.37 105.97 195.37 105.993C195.37 105.993 205.596 104.153 207.598 90.419C208.592 83.5865 208.166 72.4136 207.524 63.2729C206.948 55.0524 199.426 44.2937 189.529 44.9072L185.099 44.6694L168.696 52.6446C166.276 52.9283 164.468 55.0754 164.535 57.5753L168.128 116.315L198.627 149.282L200.375 139.98L196.072 114.229Z"
        fill="#FFBE9D" />
    <path
        d="M187.601 88.5481C187.646 87.8272 187.997 87.1678 188.46 86.7076C189.394 85.7721 190.828 85.5957 191.926 86.2782C193.032 86.953 193.726 88.4484 193.614 89.89C193.077 90.7642 192.203 91.3854 191.209 91.5464C191.052 91.5694 190.895 91.5847 190.738 91.5924C189.977 91.6231 189.185 91.4084 188.572 90.8716C187.96 90.3271 187.549 89.4376 187.601 88.5481Z"
        fill="#EB996E" />
    <path
        d="M203.989 72.5979C204.027 73.5257 203.295 74.3233 202.353 74.3846C201.412 74.446 200.613 73.7405 200.576 72.8126C200.538 71.8847 201.27 71.0795 202.212 71.0258C203.153 70.9722 203.952 71.67 203.989 72.5979Z"
        fill="#263238" />
    <path
        d="M204.557 68.5648C204.348 68.7949 203.041 67.821 201.196 67.844C199.351 67.8363 198.006 68.8255 197.805 68.5955C197.708 68.4958 197.917 68.074 198.507 67.6293C199.082 67.1845 200.068 66.7474 201.218 66.7474C202.369 66.7397 203.34 67.1692 203.893 67.6063C204.46 68.051 204.662 68.4651 204.557 68.5648Z"
        fill="#263238" />
    <path
        d="M193.899 83.6101C193.892 83.5027 195.034 83.288 196.887 83.0273C197.358 82.9736 197.798 82.8739 197.88 82.5442C197.985 82.1914 197.791 81.6776 197.552 81.1178C197.096 79.9522 196.625 78.733 196.125 77.4524C194.146 72.2302 192.711 67.9359 192.913 67.8592C193.122 67.7825 194.892 71.9464 196.872 77.1686C197.35 78.4569 197.806 79.6838 198.239 80.8571C198.426 81.4016 198.732 82.0227 198.5 82.7512C198.373 83.1116 198.037 83.38 197.731 83.4644C197.432 83.564 197.163 83.5717 196.932 83.5871C195.064 83.7021 193.907 83.7174 193.899 83.6101Z"
        fill="#263238" />
    <path
        d="M195.37 105.994C195.37 105.994 186.391 106.668 177.435 101.262C177.435 101.262 182.283 110.725 195.639 109.314L195.37 105.994Z"
        fill="#EB996E" />
    <path
        d="M188.491 84.967C188.789 84.944 188.812 86.9991 190.537 88.4408C192.255 89.8901 194.392 89.637 194.407 89.9208C194.436 90.0511 193.936 90.3272 193.032 90.3579C192.151 90.3962 190.858 90.1201 189.805 89.2383C188.752 88.3564 188.296 87.1678 188.214 86.3243C188.132 85.4731 188.349 84.9593 188.491 84.967Z"
        fill="#263238" />
    <path
        d="M203.691 60.7579C203.37 61.1873 202.1 60.7579 200.569 60.7502C199.045 60.6889 197.753 61.0646 197.447 60.6199C197.312 60.4052 197.514 59.9681 198.074 59.5616C198.627 59.1475 199.553 58.8101 200.606 58.8331C201.652 58.8561 202.571 59.2396 203.101 59.6767C203.647 60.1061 203.833 60.5432 203.691 60.7579Z"
        fill="#263238" />
    <path
        d="M183.254 73.0195C183.262 73.9474 184.038 74.7065 184.987 74.7142C185.928 74.7219 186.69 73.978 186.683 73.0502C186.675 72.1223 185.898 71.3631 184.957 71.3555C184.009 71.3401 183.247 72.084 183.254 73.0195Z"
        fill="#263238" />
    <path
        d="M180.401 69.9751C180.625 70.1975 181.872 69.1469 183.717 69.0626C185.555 68.9552 186.951 69.8601 187.138 69.6223C187.235 69.515 186.996 69.1086 186.391 68.7021C185.794 68.288 184.785 67.9123 183.635 67.9736C182.485 68.035 181.543 68.5181 181.006 68.9859C180.468 69.4536 180.288 69.8754 180.401 69.9751Z"
        fill="#263238" />
    <path
        d="M180.423 67.3301C180.766 67.7442 182.014 67.2381 183.538 67.1461C185.061 67.0004 186.369 67.2995 186.645 66.8394C186.764 66.617 186.54 66.1952 185.958 65.8118C185.383 65.436 184.441 65.1446 183.388 65.229C182.342 65.3134 181.453 65.7428 180.938 66.2106C180.43 66.6783 180.273 67.1308 180.423 67.3301Z"
        fill="#263238" />
    <path
        d="M169.3 80.604C169.285 79.5841 168.12 77.184 167.134 77.0383C164.504 76.6395 159.784 76.9002 159.799 83.7404C159.821 93.0882 168.956 91.1404 168.979 90.872C168.979 90.665 169.337 84.1315 169.3 80.604Z"
        fill="#FFBE9D" />
    <path
        d="M165.394 87.2521C165.357 87.2215 165.237 87.3672 164.968 87.4898C164.707 87.6125 164.259 87.6969 163.78 87.5205C162.817 87.1601 162.003 85.5958 161.958 83.9087C161.935 83.0575 162.107 82.2447 162.399 81.5775C162.675 80.895 163.108 80.4119 163.586 80.3276C164.064 80.2126 164.408 80.5116 164.52 80.7723C164.64 81.0331 164.587 81.2171 164.632 81.2324C164.654 81.2554 164.826 81.0791 164.752 80.688C164.714 80.5039 164.61 80.2816 164.393 80.1052C164.176 79.9211 163.855 79.8291 163.512 79.8675C162.809 79.9211 162.182 80.5806 161.861 81.3245C161.502 82.0683 161.286 82.9732 161.315 83.9317C161.375 85.8181 162.324 87.5742 163.639 87.9653C164.281 88.134 164.811 87.9346 165.088 87.7122C165.379 87.4822 165.424 87.2675 165.394 87.2521Z"
        fill="#EB996E" />
    <path
        d="M165.708 76.876L168.165 79.1765C177.51 68.7398 195.437 42.974 194.444 44.5077C194.444 44.5077 187.445 42.0768 180.124 43.8559C172.804 45.635 159 50.3587 159.777 59.3077C160.554 68.2567 165.708 76.876 165.708 76.876Z"
        fill="#263238" />
    <path
        d="M167.366 100.067C167.396 100.097 167.18 100.397 166.657 100.795C166.134 101.194 165.275 101.647 164.11 101.869C162.959 102.068 161.48 102.015 160.046 101.294C158.604 100.596 157.364 99.1543 156.774 97.3829C156.192 95.6115 156.311 93.6867 157.043 92.2297C157.76 90.7651 158.896 89.7912 159.927 89.2314C160.98 88.6793 161.936 88.5029 162.578 88.4876C163.228 88.4722 163.579 88.5796 163.572 88.6179C163.594 88.7713 162.093 88.5489 160.181 89.7068C159.254 90.282 158.261 91.2175 157.663 92.5365C157.051 93.8401 156.961 95.5348 157.484 97.1298C158.014 98.7172 159.097 100.005 160.352 100.657C161.615 101.324 162.952 101.447 164.027 101.324C166.231 101.048 167.292 99.9288 167.366 100.067Z"
        fill="#E0E0E0" />
    <path
        d="M159.531 85.0667C159.583 85.059 159.523 84.2922 159.486 82.8965C159.448 81.5086 159.508 79.4841 159.882 77.0302C160.576 72.1301 162.922 65.5047 167.404 59.4543C171.886 53.4039 177.234 49.0943 181.185 46.234C183.172 44.8 184.831 43.7034 185.973 42.9596C187.124 42.2081 187.759 41.794 187.729 41.748C187.721 41.7327 187.542 41.8094 187.228 41.9781C186.907 42.1468 186.437 42.3998 185.846 42.7449C184.659 43.4274 182.963 44.4703 180.931 45.8659C176.898 48.6419 171.452 52.9362 166.903 59.0709C162.354 65.2056 160.039 71.9768 159.441 76.9612C159.12 79.4534 159.12 81.5009 159.239 82.9042C159.269 83.602 159.374 84.1465 159.411 84.5069C159.471 84.875 159.516 85.0667 159.531 85.0667Z"
        fill="#455A64" />
    <path
        d="M181.992 41.5792C181.984 41.5562 181.805 41.6329 181.476 41.7939C181.148 41.9473 180.662 42.2003 180.049 42.5301C178.824 43.1896 177.069 44.2018 174.985 45.5821C172.901 46.9624 170.481 48.7108 167.941 50.8426C165.424 52.9821 162.66 55.436 160.367 58.58C159.224 60.152 158.29 61.8391 157.633 63.5721C156.983 65.3052 156.624 67.0766 156.46 68.7713C156.154 72.1684 156.565 75.2204 157.043 77.7126C157.536 80.2125 158.103 82.191 158.507 83.5483C158.708 84.2307 158.88 84.7522 159 85.1049C159.119 85.4577 159.194 85.6417 159.216 85.6341C159.261 85.6187 159.075 84.8595 158.738 83.4792C158.402 82.1066 157.909 80.1128 157.476 77.6283C157.058 75.1437 156.699 72.13 157.035 68.825C157.207 67.1763 157.566 65.4662 158.201 63.7945C158.843 62.1228 159.747 60.4894 160.867 58.9634C163.101 55.8884 165.82 53.4499 168.307 51.295C170.809 49.1479 173.185 47.3765 175.232 45.9578C177.271 44.5392 178.981 43.4733 180.169 42.7448C181.349 42.0163 182.014 41.6252 181.992 41.5792Z"
        fill="#455A64" />
    <path
        d="M165.543 77.1226C165.581 77.1456 165.969 76.7008 166.656 75.865C167.403 74.9294 168.359 73.7331 169.51 72.2992C171.893 69.2701 175.157 65.0602 178.727 60.3825C182.298 55.7048 185.51 51.4488 187.803 48.3508C188.886 46.8708 189.79 45.6285 190.5 44.6546C191.127 43.7728 191.456 43.2743 191.426 43.2437C191.396 43.213 191 43.6654 190.313 44.4936C189.566 45.4291 188.61 46.6254 187.46 48.0594C185.077 51.0884 181.812 55.2983 178.234 59.9837C174.664 64.6614 171.452 68.9174 169.151 72.0154C168.068 73.4954 167.164 74.7377 166.455 75.7039C165.842 76.6011 165.513 77.0996 165.543 77.1226Z"
        fill="#E0E0E0" />
    <path
        d="M189.132 84.3686C189.088 84.476 188.341 84.2076 187.444 84.4223C186.533 84.614 185.965 85.1738 185.883 85.0971C185.786 85.0511 186.309 84.2612 187.362 84.0312C188.408 83.7935 189.2 84.2842 189.132 84.3686Z"
        fill="#EB996E" />
    <path
        d="M179.654 72.6133C179.661 72.7206 178.899 72.8893 177.943 72.8203C176.987 72.759 176.24 72.4982 176.27 72.3986C176.292 72.2912 177.047 72.3679 177.973 72.4216C178.884 72.4906 179.639 72.5059 179.654 72.6133Z"
        fill="#EB996E" />
    <path
        d="M179.235 73.2578C179.25 73.3728 178.72 73.5262 178.085 73.7332C177.45 73.9403 176.927 74.1166 176.875 74.0169C176.823 73.9249 177.293 73.5722 177.973 73.3575C178.645 73.1427 179.228 73.1504 179.235 73.2578Z"
        fill="#EB996E" />
    <path
        d="M207.12 71.5474C207.158 71.6548 206.724 71.9078 206.149 72.1226C205.574 72.3373 205.081 72.4293 205.044 72.3219C205.006 72.2146 205.44 71.9615 206.015 71.7468C206.59 71.5398 207.083 71.4477 207.12 71.5474Z"
        fill="#EB996E" />
    <path
        d="M206.985 73.3873C206.948 73.4946 206.47 73.4179 205.917 73.2186C205.364 73.0192 204.939 72.7815 204.976 72.6741C205.013 72.5667 205.491 72.6434 206.044 72.8428C206.597 73.0422 207.015 73.2876 206.985 73.3873Z"
        fill="#EB996E" />
    <path
        d="M86.9767 69.4252L91.3987 64.8856L99.9291 72.6663L116.676 56.1179L120.785 60.6679L99.3017 81.4236L86.9767 69.4252Z"
        fill="#263238" />
    <defs>
        <linearGradient id="paint0_linear_2681_121520" x1="83.5286" y1="282.335" x2="56.0158"
            y2="279.633" gradientUnits="userSpaceOnUse">
            <stop stop-color="#C6D2FF" />
            <stop offset="1" stop-color="#BAE5FD" />
            <stop offset="1" stop-color="#DCF2FF" />
        </linearGradient>
        <linearGradient id="paint1_linear_2681_121520" x1="229.965" y1="116.967" x2="223.479"
            y2="116.763" gradientUnits="userSpaceOnUse">
            <stop stop-color="#C6D2FF" />
            <stop offset="1" stop-color="#BAE5FD" />
            <stop offset="1" stop-color="#DCF2FF" />
        </linearGradient>
        <linearGradient id="paint2_linear_2681_121520" x1="246.205" y1="116.966" x2="239.723"
            y2="116.702" gradientUnits="userSpaceOnUse">
            <stop stop-color="#C6D2FF" />
            <stop offset="1" stop-color="#BAE5FD" />
            <stop offset="1" stop-color="#DCF2FF" />
        </linearGradient>
        <linearGradient id="paint3_linear_2681_121520" x1="261.234" y1="116.967" x2="254.771"
            y2="116.524" gradientUnits="userSpaceOnUse">
            <stop stop-color="#C6D2FF" />
            <stop offset="1" stop-color="#BAE5FD" />
            <stop offset="1" stop-color="#DCF2FF" />
        </linearGradient>
    </defs>
</svg>