<svg width="349" height="283" viewBox="0 0 349 283" fill="none" xmlns="http://www.w3.org/2000/svg">
    <path
        d="M289.242 82.3855L288.896 82.1073L288.458 82.1764L279.824 83.5396L281.657 74.1599L281.73 73.7872L281.537 73.46C277.969 67.4123 276.313 60.2085 277.262 52.6975C279.532 34.7241 295.927 21.9924 313.874 24.262C331.821 26.5316 344.531 42.9482 342.261 60.922C339.991 78.8952 323.597 91.6268 305.65 89.3575C299.407 88.5645 293.804 86.0619 289.242 82.3855Z"
        fill="white" stroke="#263238" stroke-width="2" />
    <path
        d="M320.392 57.3308C320.392 55.4323 321.93 53.8943 323.828 53.8943C325.727 53.8943 327.265 55.4323 327.265 57.3308C327.265 59.2293 325.727 60.7673 323.828 60.7673C321.93 60.7593 320.392 59.2212 320.392 57.3308Z"
        fill="#263238" />
    <path
        d="M306.648 57.331C306.648 55.4325 308.186 53.8945 310.085 53.8945C311.983 53.8945 313.521 55.4325 313.521 57.331C313.521 59.2295 311.983 60.7675 310.085 60.7675C308.186 60.7595 306.648 59.2215 306.648 57.331Z"
        fill="#263238" />
    <path
        d="M292.937 59.0448C291.991 57.4026 292.552 55.3039 294.194 54.3506C295.836 53.4054 297.935 53.9661 298.888 55.6083C299.834 57.2504 299.273 59.3492 297.631 60.3024C295.989 61.2477 293.89 60.6869 292.937 59.0448Z"
        fill="#263238" />
    <path
        d="M52.9424 180.307C50.8277 179.305 47.2871 177.215 45.0922 176.398C42.8973 175.581 40.4461 175.188 38.2272 175.933C36.9295 176.366 35.6398 177.399 35.6318 178.761L44.2431 185.073L52.9344 182.782V180.307H52.9424Z"
        fill="#FF9A6C" />
    <path
        d="M43.5196 180.219C43.5196 180.219 28.0434 176.862 25.496 175.541C22.9487 174.211 9.43507 167.45 7.20015 167.45C4.95722 167.45 3.0267 168.059 2.61816 170.302L5.558 172.593L5.9345 173.762L10.9651 176.382L11.8863 178.072L24.687 184.913C24.687 184.913 38.1285 191.738 40.3715 192.146C42.6144 192.555 53.813 193.468 58.6033 197.545L77.8284 189.655C77.8284 189.655 72.2772 181.765 67.9996 179.826C64.1866 178.096 57.7862 178.096 53.3084 179.922L43.5196 180.219Z"
        fill="#FFBE9D" />
    <path
        d="M56.3838 193.147C56.3838 193.147 80.8558 246.513 84.7969 257.199C84.7969 257.199 112.153 252.705 113.09 237.517L77.8278 189.462L56.3838 193.147Z"
        fill="#FFBE9D" />
    <path
        d="M33.66 181.428C33.66 181.444 33.5719 181.436 33.3956 181.42C33.2194 181.412 32.9791 181.356 32.6587 181.276C32.0339 181.1 31.1527 180.755 30.1114 180.251C29.07 179.746 27.8604 179.081 26.5307 178.336C25.8658 177.968 25.1689 177.575 24.44 177.191C23.719 176.806 22.918 176.494 22.1169 176.141C20.5068 175.444 18.9528 174.836 17.4869 174.459C16.037 174.099 14.6432 173.826 13.5938 174.179C12.5364 174.539 12.0638 175.444 11.7994 175.997C11.5271 176.574 11.431 176.918 11.3909 176.91C11.3749 176.91 11.3909 176.814 11.431 176.654C11.463 176.486 11.5351 176.245 11.6553 175.941C11.7754 175.637 11.9436 175.268 12.224 174.884C12.5044 174.507 12.9289 174.123 13.5057 173.906C14.0744 173.682 14.7473 173.658 15.4362 173.714C16.1251 173.778 16.846 173.906 17.591 174.091C19.089 174.459 20.675 175.068 22.2931 175.765C23.0942 176.117 23.9032 176.438 24.6402 176.838C25.3772 177.231 26.0741 177.631 26.7309 178.008C28.0527 178.769 29.2382 179.458 30.2555 179.994C31.2729 180.531 32.122 180.916 32.7228 181.132C33.3075 181.34 33.66 181.388 33.66 181.428Z"
        fill="#FF9A6C" />
    <path
        d="M18.9055 173.754C18.8895 173.802 18.0403 173.562 16.7426 173.001C15.453 172.416 13.6907 171.599 11.656 170.974C10.6547 170.67 9.62936 170.654 8.73219 170.726C7.827 170.798 7.07402 171.158 6.66549 171.687C6.25695 172.216 6.1368 172.776 6.05669 173.153C6.00062 173.537 5.96858 173.754 5.94455 173.754C5.92051 173.754 5.89648 173.537 5.89648 173.137C5.92853 172.744 6.00062 172.136 6.43318 171.511C6.65748 171.214 6.96988 170.926 7.3624 170.726C7.75491 170.526 8.21151 170.405 8.69213 170.349C9.63737 170.245 10.7108 170.261 11.7762 170.582C13.8589 171.23 15.6212 172.104 16.8708 172.744C18.1204 173.361 18.9215 173.69 18.9055 173.754Z"
        fill="#FF9A6C" />
    <path
        d="M57.4742 178.713C57.4822 178.737 57.2579 178.833 56.8494 178.985C56.4409 179.138 55.8321 179.33 55.0711 179.53C53.5491 179.931 51.3943 180.331 48.9911 180.435C46.588 180.539 44.4011 180.331 42.8551 180.059C42.0781 179.923 41.4533 179.786 41.0367 179.674C40.6122 179.562 40.3799 179.482 40.3879 179.458C40.4039 179.394 41.3572 179.578 42.9032 179.77C44.4492 179.963 46.604 180.123 48.9751 180.019C51.3462 179.915 53.477 179.57 55.007 179.242C56.521 178.921 57.4582 178.649 57.4742 178.713Z"
        fill="#FF9A6C" />
    <path
        d="M285.365 147.023L249.726 139.654L240.963 133.045L193.933 142.113C193.18 143.491 185.562 154.096 185.562 154.096L167.05 160.385C159.128 162.515 152.071 166.969 146.96 173.217C143.051 177.992 138.701 184.576 134.968 193.324C126.637 212.877 114.614 235.467 114.614 235.467L107.076 223.331L75.3145 238.286C75.3145 238.286 93.9228 275.807 100.083 281.158C106.932 287.11 122.672 287.799 133.559 276.697C140.119 270 159.08 243.533 163.037 236.909L168.869 264.617L174.26 296.242L165.544 317.999H292.75L287.488 297.436C287.488 297.436 292.67 243.814 294.104 233.841C297.469 210.306 285.365 147.023 285.365 147.023Z"
        fill="#27AE60" />
    <path
        d="M285.364 147.023C285.364 147.023 310.837 154.169 316.444 179.482C319.841 194.822 331.376 238.551 335.437 274.55C337.848 295.954 337.776 315.732 337.848 317.999H298.757L282.184 154.169L285.364 147.023Z"
        fill="#27AE60" />
    <path
        d="M220.03 168.763C220.038 168.771 220.006 168.859 219.925 169.028C219.829 169.228 219.709 169.468 219.565 169.765C219.253 170.413 218.788 171.359 218.243 172.568C217.122 174.979 215.784 178.544 213.645 182.517L213.533 182.718L213.357 182.565C210.713 180.314 207.846 177.607 204.882 174.683C199.643 169.476 195.037 164.63 191.64 161.193C189.958 159.503 188.588 158.125 187.603 157.132C187.147 156.684 186.778 156.315 186.498 156.035C186.249 155.778 186.121 155.642 186.129 155.634C186.137 155.626 186.281 155.738 186.554 155.979C186.85 156.243 187.235 156.587 187.715 157.02C188.709 157.941 190.126 159.287 191.849 160.985C195.309 164.374 199.939 169.188 205.178 174.387C208.134 177.31 210.994 180.018 213.605 182.285L213.317 182.333C215.472 178.408 216.857 174.859 218.043 172.472C218.62 171.271 219.108 170.333 219.461 169.709C219.629 169.42 219.765 169.188 219.877 168.996C219.965 168.843 220.022 168.763 220.03 168.763Z"
        fill="black" />
    <path
        d="M250.261 140.559C250.277 140.559 250.245 140.751 250.188 141.12C250.116 141.528 250.012 142.057 249.892 142.714C249.604 144.091 249.123 146.078 248.434 148.497C247.056 153.344 244.813 159.936 242.058 167.114C240.6 170.91 239.158 174.499 237.812 177.679L237.708 177.92L237.508 177.743C233.879 174.539 230.627 172.016 228.424 170.141C227.319 169.212 226.453 168.459 225.869 167.931C225.604 167.682 225.388 167.482 225.212 167.322C225.068 167.178 224.996 167.106 225.004 167.098C225.012 167.089 225.1 167.154 225.252 167.274C225.436 167.426 225.668 167.61 225.949 167.842C226.59 168.363 227.471 169.076 228.568 169.973C230.811 171.8 234.095 174.275 237.764 177.471L237.46 177.535C238.782 174.347 240.207 170.758 241.673 166.969C244.421 159.8 246.704 153.231 248.154 148.417C248.875 146.006 249.395 144.043 249.74 142.674C249.892 142.025 250.02 141.496 250.116 141.096C250.196 140.743 250.253 140.551 250.261 140.559Z"
        fill="black" />
    <path
        d="M167.86 261.076C167.852 261.076 167.828 261.02 167.788 260.891C167.74 260.747 167.692 260.563 167.62 260.347C167.475 259.834 167.267 259.129 167.019 258.24C166.746 257.327 166.482 256.197 166.162 254.876C165.825 253.562 165.497 252.064 165.152 250.39C163.726 243.733 162.309 234.417 161.419 224.067C160.514 213.71 160.314 204.297 160.362 197.497C160.386 194.092 160.458 191.337 160.546 189.438C160.594 188.517 160.626 187.788 160.65 187.251C160.666 187.019 160.683 186.835 160.691 186.682C160.699 186.554 160.715 186.49 160.715 186.49C160.723 186.49 160.731 186.554 160.731 186.682C160.731 186.835 160.731 187.027 160.731 187.251C160.723 187.788 160.715 188.517 160.699 189.438C160.658 191.337 160.634 194.092 160.642 197.489C160.674 204.289 160.923 213.686 161.82 224.027C162.701 234.361 164.079 243.669 165.425 250.334C165.753 252 166.058 253.506 166.37 254.819C166.666 256.133 166.915 257.271 167.163 258.192C167.387 259.089 167.563 259.802 167.692 260.315C167.74 260.539 167.788 260.723 167.82 260.867C167.86 261.012 167.868 261.076 167.86 261.076Z"
        fill="black" />
    <path
        d="M287.478 175.107C287.486 175.107 287.518 175.18 287.59 175.324C287.662 175.492 287.758 175.708 287.871 175.981C288.119 176.589 288.471 177.446 288.92 178.528C289.144 179.081 289.409 179.697 289.665 180.378C289.897 181.067 290.154 181.82 290.426 182.621C290.698 183.43 290.987 184.287 291.299 185.201C291.555 186.13 291.82 187.115 292.108 188.148C294.495 196.391 295.705 208.319 295.016 221.368C294.311 234.425 292.789 246.16 291.844 254.659C291.355 258.889 290.955 262.317 290.674 264.728C290.53 265.89 290.418 266.811 290.346 267.46C290.306 267.756 290.274 267.989 290.25 268.173C290.226 268.333 290.21 268.413 290.202 268.413C290.194 268.413 290.194 268.333 290.21 268.165C290.226 267.981 290.242 267.748 290.266 267.452C290.33 266.795 290.41 265.874 290.522 264.704C290.746 262.325 291.099 258.881 291.555 254.627C292.429 246.12 293.902 234.377 294.599 221.344C295.288 208.319 294.127 196.455 291.82 188.221C291.547 187.187 291.291 186.202 291.043 185.273C290.746 184.36 290.466 183.494 290.202 182.685C289.937 181.876 289.697 181.131 289.473 180.434C289.232 179.753 288.976 179.137 288.768 178.576C288.351 177.479 288.023 176.613 287.79 176.005C287.686 175.724 287.606 175.508 287.542 175.332C287.494 175.196 287.47 175.115 287.478 175.107Z"
        fill="black" />
    <path
        d="M114.788 262.758C114.676 262.758 114.54 256.654 114.492 249.117C114.444 241.579 114.492 235.475 114.612 235.467C114.724 235.467 114.861 241.571 114.909 249.109C114.957 256.654 114.909 262.758 114.788 262.758Z"
        fill="black" />
    <path
        d="M230.38 299.727C230.372 299.727 230.38 299.615 230.404 299.391C230.428 299.15 230.468 298.83 230.516 298.413C230.629 297.532 230.781 296.275 230.981 294.656C231.085 293.839 231.197 292.934 231.326 291.941C231.43 290.948 231.55 289.866 231.67 288.705C231.902 286.382 232.223 283.746 232.439 280.814C232.559 279.348 232.687 277.818 232.815 276.224C232.944 274.63 233.016 272.964 233.128 271.242C233.368 267.797 233.464 264.113 233.609 260.227C233.785 252.465 233.761 243.926 233.352 234.978C232.912 226.031 232.143 217.524 231.229 209.81C230.725 205.957 230.284 202.296 229.715 198.891C229.443 197.185 229.219 195.535 228.938 193.957C228.658 192.379 228.386 190.865 228.129 189.423C227.649 186.523 227.08 183.928 226.623 181.645C226.391 180.499 226.175 179.442 225.975 178.457C225.758 177.487 225.558 176.59 225.374 175.789C225.021 174.203 224.749 172.961 224.557 172.096C224.469 171.688 224.405 171.367 224.356 171.135C224.316 170.919 224.292 170.807 224.3 170.807C224.308 170.807 224.34 170.911 224.396 171.127C224.453 171.359 224.533 171.68 224.637 172.08C224.845 172.945 225.141 174.179 225.526 175.757C225.718 176.558 225.926 177.447 226.159 178.417C226.367 179.394 226.591 180.459 226.84 181.597C227.312 183.88 227.897 186.475 228.402 189.375C228.666 190.817 228.946 192.339 229.235 193.909C229.523 195.487 229.755 197.137 230.036 198.843C230.613 202.256 231.069 205.916 231.582 209.77C232.511 217.484 233.296 225.999 233.737 234.962C234.137 243.926 234.153 252.473 233.953 260.243C233.801 264.129 233.689 267.821 233.432 271.266C233.312 272.988 233.232 274.654 233.096 276.256C232.952 277.85 232.823 279.388 232.687 280.854C232.455 283.786 232.119 286.422 231.862 288.745C231.726 289.906 231.598 290.98 231.486 291.973C231.35 292.958 231.221 293.863 231.101 294.68C230.869 296.291 230.685 297.548 230.557 298.429C230.492 298.838 230.444 299.166 230.404 299.399C230.412 299.615 230.388 299.727 230.38 299.727Z"
        fill="black" />
    <path
        d="M247.313 213.261C247.313 213.261 247.362 213.245 247.474 213.237C247.602 213.221 247.762 213.205 247.97 213.173C248.435 213.125 249.092 213.045 249.941 212.957C251.695 212.773 254.235 212.5 257.439 212.156C263.943 211.483 273.171 210.53 284.154 209.392L284.354 209.368L284.362 209.568C284.57 217.659 284.802 226.799 285.051 236.5V236.588L284.995 236.652C283.969 237.749 282.872 238.927 281.774 240.112C277.745 244.438 273.828 248.643 270.111 252.633L270.007 252.745L269.871 252.681C262.71 249.124 256.069 245.832 250.189 242.908L250.101 242.868L250.093 242.772C249.236 233.84 248.531 226.446 248.034 221.272C247.802 218.724 247.61 216.722 247.482 215.328C247.426 214.663 247.378 214.15 247.346 213.782C247.321 213.429 247.313 213.261 247.313 213.261C247.313 213.261 247.346 213.453 247.386 213.814C247.426 214.19 247.49 214.719 247.562 215.392C247.714 216.786 247.93 218.804 248.203 221.36C248.739 226.511 249.5 233.856 250.43 242.732L250.333 242.596C256.221 245.495 262.87 248.772 270.047 252.312L269.807 252.352C273.524 248.355 277.433 244.15 281.462 239.824C282.568 238.638 283.665 237.461 284.69 236.363L284.634 236.508C284.402 226.807 284.186 217.659 283.993 209.576L284.194 209.753C273.251 210.81 264.055 211.699 257.575 212.324C254.347 212.628 251.791 212.869 250.021 213.029C249.156 213.109 248.491 213.165 248.01 213.205C247.794 213.221 247.626 213.237 247.49 213.245C247.378 213.261 247.321 213.261 247.313 213.261Z"
        fill="black" />
    <path
        d="M284.41 218.901C284.41 218.934 283.922 219.022 283.024 219.166C282.127 219.31 280.83 219.494 279.219 219.703C275.999 220.119 271.537 220.592 266.611 221.056C261.717 221.537 257.287 221.97 253.995 222.29C252.432 222.45 251.143 222.586 250.174 222.69C249.268 222.787 248.772 222.819 248.764 222.795C248.764 222.763 249.252 222.674 250.149 222.53C251.047 222.386 252.344 222.202 253.954 221.994C257.175 221.577 261.636 221.104 266.563 220.64C271.457 220.159 275.887 219.727 279.179 219.406C280.741 219.246 282.031 219.11 283 219.006C283.906 218.91 284.41 218.869 284.41 218.901Z"
        fill="black" />
    <g opacity="0.3">
        <path
            d="M292.149 250.406C292.597 255.862 293.046 261.317 293.495 266.772C296.466 252.754 301.137 237.686 300.408 223.371C299.687 209.153 298.333 195.383 290.274 182.43C290.274 182.43 295.738 196.12 295.001 212.861C294.272 229.611 292.149 250.406 292.149 250.406Z"
            fill="black" />
    </g>
    <path
        d="M109.487 219.942C108.95 219.021 108.333 218.028 107.324 217.675C106.203 217.291 104.985 217.828 103.92 218.364C94.227 223.187 84.5424 228.009 74.8497 232.839C72.9432 233.792 70.8685 234.922 70.1476 236.924C69.2264 239.488 70.9086 242.195 72.5107 244.398C75.1862 248.083 78.3904 252.08 82.9163 252.601L107.909 235.459C110.969 235.01 112.867 231.606 112.747 228.522C112.635 225.429 111.041 222.618 109.487 219.942Z"
        fill="#27AE60" />
    <path
        d="M112.644 230.42C112.652 230.428 112.564 230.524 112.388 230.7C112.171 230.901 111.915 231.149 111.602 231.445C110.914 232.086 109.896 232.991 108.623 234.081C106.067 236.268 102.439 239.175 98.241 242.139C94.0435 245.103 90.0944 247.546 87.1786 249.229C85.7207 250.07 84.5271 250.727 83.694 251.159C83.3095 251.351 82.9971 251.52 82.7328 251.648C82.5085 251.76 82.3883 251.808 82.3803 251.792C82.3723 251.776 82.4764 251.704 82.6927 251.576C82.9491 251.423 83.2535 251.239 83.6219 251.015C84.4871 250.502 85.6406 249.813 87.0344 248.972C89.9102 247.234 93.8273 244.751 98.0087 241.803C102.19 238.847 105.843 235.987 108.438 233.864C109.696 232.823 110.729 231.974 111.498 231.333C111.827 231.061 112.107 230.837 112.339 230.644C112.532 230.484 112.636 230.404 112.644 230.42Z"
        fill="black" />
    <g opacity="0.3">
        <path
            d="M249.885 142.393C246.465 153.759 241.675 166.6 237.629 177.607C234.177 174.683 229.363 170.814 225.91 167.882C228.874 173.77 232.455 179.353 236.556 184.52C237.029 185.12 237.678 185.769 238.422 185.625C239.135 185.489 239.496 184.712 239.752 184.039C241.859 178.48 243.958 172.92 246.064 167.353C249.012 159.575 251.856 150.475 249.885 142.393Z"
            fill="black" />
    </g>
    <path
        d="M195.82 18.8156C206.201 15.8197 215.974 18.8396 225.579 23.7981C235.183 28.7566 242.929 36.9994 247.944 46.5799C253.231 56.665 255.562 68.4244 253.655 79.6471C251.741 90.8697 245.405 101.444 235.896 107.708C222.911 116.263 205.024 115.814 191.646 107.892C178.269 99.9696 169.481 85.3585 167.142 69.9944C165.532 59.4046 166.838 48.238 171.788 38.7376C176.723 29.2212 185.462 21.5552 195.82 18.8156Z"
        fill="#263238" />
    <path
        d="M230.006 51.4111C227.996 47.534 228.084 42.944 226.986 38.7225C224.567 29.4224 216.092 22.7016 206.864 20.0101C198.277 17.5108 188.352 19.3933 178.844 23.7029C172.323 26.6588 166.387 31.1927 162.494 37.2005C157.336 45.179 156.39 55.7207 160.051 64.4842L207.625 51.9638C212.576 55.2001 217.646 58.4844 223.374 59.9503C225.056 60.3828 226.842 60.6472 228.516 60.1826C230.191 59.718 231.713 58.3722 231.929 56.65C232.169 54.7755 230.88 53.1013 230.006 51.4111Z"
        fill="#263238" />
    <path
        d="M241.355 135.768L229.075 49.3996C228.53 45.3142 226.679 41.1568 222.57 41.349L179.33 37.1836C165.784 37.8084 159.424 55.5836 160.617 69.0893C161.947 84.1009 164.174 102.373 167.626 113.195C174.571 134.959 192.106 135.192 192.106 135.192C192.098 135.112 193.172 139.517 194.501 147.608L222.538 166.248L241.355 135.768Z"
        fill="#FFBE9D" />
    <path
        d="M171.053 85.5098C171.229 87.0318 172.663 88.1292 174.249 87.977C175.835 87.8248 176.981 86.4631 176.804 84.9491C176.628 83.4271 175.194 82.3297 173.608 82.4819C172.022 82.6341 170.877 83.9878 171.053 85.5098Z"
        fill="#263238" />
    <path
        d="M166.014 77.9431C166.422 78.2635 168.345 76.325 171.429 75.8684C174.497 75.3637 176.996 76.6054 177.276 76.1728C177.413 75.9805 176.948 75.3637 175.859 74.795C174.777 74.2263 173.023 73.7857 171.108 74.0901C169.194 74.3945 167.688 75.3477 166.871 76.2129C166.03 77.078 165.814 77.8069 166.014 77.9431Z"
        fill="#263238" />
    <path
        d="M199.51 80.8809C199.686 82.4029 201.12 83.5003 202.706 83.3481C204.292 83.1959 205.438 81.8342 205.261 80.3202C205.085 78.7982 203.651 77.7008 202.065 77.853C200.479 78.0052 199.334 79.3669 199.51 80.8809Z"
        fill="#263238" />
    <path
        d="M195.295 73.8645C195.712 74.1849 197.634 72.2464 200.71 71.7898C203.778 71.2851 206.277 72.5187 206.558 72.0942C206.694 71.9019 206.237 71.2851 205.14 70.7164C204.058 70.1476 202.304 69.7071 200.39 70.0115C198.475 70.3159 196.969 71.2691 196.152 72.1342C195.311 72.9994 195.095 73.7283 195.295 73.8645Z"
        fill="#263238" />
    <path
        d="M188.659 98.4317C188.643 98.2555 186.681 98.2155 183.524 98.2956C182.723 98.3356 181.954 98.2956 181.746 97.7749C181.474 97.2382 181.674 96.341 181.914 95.3637C182.363 93.3451 182.836 91.2383 183.324 89.0194C185.247 80.0077 186.52 72.6381 186.152 72.566C185.791 72.4939 183.933 79.7353 182.002 88.7551C181.546 90.974 181.105 93.0888 180.697 95.1154C180.537 96.0526 180.176 97.1421 180.761 98.2635C181.065 98.8163 181.706 99.1527 182.227 99.2168C182.755 99.2969 183.196 99.2328 183.589 99.2008C186.737 98.8883 188.675 98.608 188.659 98.4317Z"
        fill="#263238" />
    <path
        d="M192.099 135.184C192.099 135.184 207.255 133.862 220.753 122.656C220.753 122.656 213.76 140.159 193.493 141.921L192.099 135.184Z"
        fill="#EB996E" />
    <path
        d="M191.093 105.659C191.974 104.025 193.793 102.927 195.755 102.839C197.117 102.783 198.559 103.216 199.536 104.185C200.514 105.146 200.922 106.668 200.337 107.814C199.688 109.111 197.99 109.64 196.46 109.448C194.93 109.256 193.512 108.479 192.167 107.702C191.79 107.485 191.414 107.261 191.149 106.925C190.885 106.588 190.773 106.124 190.981 105.779"
        fill="#EB996E" />
    <path
        d="M198.048 99.175C197.543 99.223 198.048 102.563 195.549 105.375C193.057 108.187 189.437 108.363 189.485 108.828C189.469 109.044 190.374 109.356 191.888 109.164C193.37 108.988 195.453 108.187 196.983 106.473C198.504 104.75 198.961 102.7 198.865 101.306C198.769 99.8959 198.272 99.1269 198.048 99.175Z"
        fill="#263238" />
    <path
        d="M194.414 64.6684C194.847 65.4614 197.859 64.5963 201.536 64.4761C205.213 64.2839 208.289 64.9007 208.649 64.0756C208.809 63.6831 208.176 62.9702 206.879 62.3453C205.589 61.7125 203.61 61.2319 201.4 61.32C199.197 61.4161 197.266 62.065 196.033 62.7939C194.791 63.5309 194.222 64.2919 194.414 64.6684Z"
        fill="#263238" />
    <path
        d="M164.852 64.3455C165.501 64.9623 167.511 63.9129 170.059 63.4884C172.59 62.9757 174.841 63.24 175.225 62.431C175.386 62.0465 174.945 61.3976 173.896 60.877C172.862 60.3563 171.228 60.0599 169.482 60.3803C167.736 60.7007 166.318 61.5659 165.541 62.423C164.748 63.2721 164.563 64.0411 164.852 64.3455Z"
        fill="#263238" />
    <path
        d="M237.006 44.0164C231.174 31.6563 210.075 16.2922 196.681 19.0398L176.823 34.8685C179.114 42.0539 185.643 47.7012 193.084 48.9188C197.058 49.5677 201.696 49.2793 204.403 52.2592C207.167 55.3032 206.462 60.3658 209.081 63.5299C212.71 67.9196 220.849 66.6059 223.788 71.4843C225.07 73.6151 224.918 76.3947 226.24 78.5015C228.002 81.3131 236.085 84.1008 239.08 82.6829C242.084 81.2731 241.379 75.9381 242.028 73.0063C243.142 67.9917 242.092 65.6126 241.155 63.0252C238.952 56.8892 239.793 49.9121 237.006 44.0164Z"
        fill="#263238" />
    <path
        d="M230.185 86.5687C229.937 84.9105 231.259 80.697 232.861 80.1924C237.138 78.8386 245.085 77.9895 246.863 89.1C249.282 104.296 233.534 103.591 233.438 103.158C233.357 102.822 231.05 92.3042 230.185 86.5687Z"
        fill="#FFBE9D" />
    <path
        d="M237.153 96.6605C237.209 96.6045 237.45 96.8047 237.93 96.9409C238.395 97.0691 239.172 97.0931 239.917 96.6685C241.431 95.8275 242.376 93.0558 242.008 90.3082C241.823 88.9224 241.327 87.6488 240.662 86.6395C240.021 85.5981 239.18 84.9412 238.347 84.9252C237.514 84.8691 237.017 85.4459 236.897 85.9025C236.761 86.3591 236.905 86.6475 236.833 86.6875C236.801 86.7356 236.464 86.4873 236.488 85.8384C236.504 85.526 236.625 85.1415 236.937 84.789C237.257 84.4366 237.77 84.1963 238.339 84.1722C239.524 84.0681 240.75 84.9733 241.479 86.0867C242.272 87.1922 242.865 88.618 243.073 90.1721C243.466 93.2481 242.352 96.3642 240.261 97.3494C239.236 97.798 238.291 97.6218 237.778 97.3334C237.241 97.021 237.105 96.6926 237.153 96.6605Z"
        fill="#FF9A6C" />
    <path
        d="M180.733 29.7503C180.028 36.1266 171.481 45.1704 167.884 50.4814C161.011 60.6146 159.802 63.8588 162.213 84.4938C157.671 77.789 154.018 71.1243 153.393 63.0418C152.768 54.9592 154.819 46.5643 159.761 40.1399C164.704 33.7235 172.634 29.494 180.733 29.7503Z"
        fill="#263238" />
    <path
        d="M217.028 8.01779C220.256 4.47716 224.863 2.17816 229.669 0.984601C236.518 -0.729638 244.04 -0.265028 250.272 2.71486C256.512 5.69476 261.326 11.27 262.608 17.6864C263.889 24.1108 261.414 31.2321 255.975 35.5017C259.436 38.8981 263.833 41.4695 268.64 42.9194C267.342 44.8659 264.939 46.0034 262.528 46.4119C260.109 46.8205 257.641 46.5882 255.206 46.3639C256.768 48.775 259.299 50.6174 262.207 51.4665C258.298 52.4679 254.125 52.1554 250.28 51.082C246.435 50.0086 242.886 48.2063 239.49 46.2357C227.77 39.4268 221.306 33.475 213.392 22.9653C212.334 18.5035 213.8 11.5584 217.028 8.01779Z"
        fill="#263238" />
    <path d="M242.292 40.1231C233.697 27.5627 222.747 20.8339 212.83 18.7432L242.292 40.1231Z"
        fill="#263238" />
    <path
        d="M212.83 18.7439C212.822 18.7759 213.327 18.9281 214.232 19.1684C215.137 19.4248 216.443 19.8173 218.013 20.4181C221.153 21.5956 225.342 23.6944 229.428 26.7944C233.513 29.8944 236.741 33.2749 238.896 35.8542C239.953 37.1599 240.811 38.2173 241.371 38.9783C241.94 39.7313 242.269 40.1318 242.293 40.1158C242.317 40.0998 242.036 39.6592 241.508 38.8742C240.995 38.0811 240.178 36.9837 239.144 35.646C237.046 32.9945 233.833 29.55 229.708 26.4259C225.583 23.3018 221.329 21.2191 218.133 20.1137C216.539 19.5529 215.209 19.2005 214.288 18.9922C213.351 18.808 212.838 18.7118 212.83 18.7439Z"
        fill="#455A64" />
    <path
        d="M252.548 50.8334C252.548 50.8254 252.475 50.8495 252.355 50.8975C252.203 50.9616 252.019 51.0337 251.803 51.1218C251.322 51.3301 250.593 51.6025 249.656 51.9389C247.773 52.5797 244.962 53.3247 241.405 53.6211C237.856 53.9255 233.579 53.7493 228.957 52.8361C224.327 51.9389 219.376 50.3208 214.33 48.2781C209.283 46.2194 204.525 44.1047 200.287 42.0299C196.058 39.9392 192.373 37.8004 189.449 35.7497C186.517 33.7151 184.33 31.8086 182.897 30.4308C182.168 29.7499 181.639 29.1812 181.262 28.8127C181.094 28.6445 180.95 28.5003 180.838 28.3881C180.742 28.292 180.686 28.252 180.678 28.252C180.67 28.26 180.71 28.316 180.798 28.4202C180.902 28.5403 181.03 28.6925 181.19 28.8768C181.535 29.2693 182.047 29.8621 182.76 30.559C184.162 31.9848 186.333 33.9394 189.249 36.0141C192.165 38.1048 195.849 40.2837 200.087 42.4064C204.333 44.5132 209.083 46.636 214.145 48.7027C219.208 50.7534 224.19 52.3715 228.861 53.2446C233.523 54.1418 237.84 54.286 241.413 53.9335C244.994 53.5891 247.813 52.788 249.696 52.0991C250.633 51.7386 251.354 51.4422 251.827 51.2019C252.043 51.0978 252.219 51.0097 252.363 50.9376C252.491 50.8735 252.556 50.8415 252.548 50.8334Z"
        fill="#455A64" />
    <path
        d="M207.158 126.269L205.7 123.417C205.804 123.369 215.857 118.202 219.726 114.95C228.842 107.292 237.229 95.0598 237.309 94.9316L239.953 96.734C239.6 97.2467 231.237 109.455 221.785 117.401C217.636 120.886 207.583 126.052 207.158 126.269Z"
        fill="#455A64" />
    <path
        d="M214.649 117.417C214.649 117.417 200.887 123.545 200.887 124.906C200.887 126.268 203.065 128.992 204.7 128.855C206.334 128.719 211.06 126.06 211.877 124.97C212.694 123.881 214.232 121.077 215.866 119.716L214.649 117.417Z"
        fill="#263238" />
    <path
        d="M239.858 76.1947L236.654 76.0425C236.662 75.9063 237.214 62.4488 231.959 48.9031C225.006 30.9997 211.645 21.3791 192.244 20.3217C190.65 20.2256 188.879 20.3618 186.965 20.6822L188.367 19.3605C189.047 18.7197 189.832 18.207 190.698 17.8465C191.875 17.3499 193.165 17.1576 194.438 17.2698C218.934 19.3925 230.005 34.9649 234.979 47.8457C240.459 62.0082 239.882 75.618 239.858 76.1947Z"
        fill="#455A64" />
    <path
        d="M238.255 105.304C243.86 105.304 248.404 98.77 248.404 90.7093C248.404 82.6487 243.86 76.1143 238.255 76.1143C232.649 76.1143 228.105 82.6487 228.105 90.7093C228.105 98.77 232.649 105.304 238.255 105.304Z"
        fill="#455A64" />
    <path
        d="M248.404 90.7098C248.396 90.7098 248.388 90.6377 248.372 90.5095C248.364 90.3493 248.348 90.157 248.332 89.9167C248.316 89.3961 248.228 88.6351 248.092 87.6578C247.755 85.7433 247.09 82.8435 244.959 80.0238C244.447 79.3109 243.782 78.67 243.053 78.0612C242.284 77.5085 241.451 76.9478 240.466 76.6594C239.496 76.363 238.431 76.2108 237.358 76.363C236.284 76.5152 235.227 76.9158 234.257 77.5245C232.327 78.7742 230.797 80.7928 229.82 83.0998C228.802 85.4068 228.338 88.0343 228.306 90.7018C228.338 93.3773 228.802 95.9967 229.82 98.3117C230.797 100.627 232.327 102.637 234.257 103.887C235.227 104.496 236.292 104.896 237.358 105.048C238.431 105.201 239.496 105.048 240.466 104.752C241.451 104.464 242.284 103.911 243.053 103.35C243.782 102.741 244.447 102.101 244.959 101.388C247.082 98.568 247.755 95.6763 248.092 93.7537C248.228 92.7765 248.316 92.0155 248.332 91.4948C248.348 91.2545 248.364 91.0622 248.372 90.902C248.388 90.7739 248.396 90.7098 248.404 90.7098C248.412 90.7098 248.412 90.7819 248.42 90.91C248.42 91.0702 248.42 91.2625 248.42 91.5028C248.436 92.0235 248.372 92.7925 248.26 93.7858C247.963 95.7243 247.347 98.6642 245.2 101.572C244.679 102.301 244.006 102.974 243.261 103.607C242.476 104.191 241.611 104.776 240.586 105.081C239.576 105.401 238.455 105.569 237.325 105.409C236.196 105.257 235.075 104.84 234.065 104.207C232.047 102.91 230.469 100.835 229.459 98.4639C228.418 96.1008 227.929 93.4173 227.905 90.6938C227.937 87.9702 228.418 85.2947 229.459 82.9236C230.469 80.5605 232.047 78.4778 234.065 77.1881C235.083 76.5553 236.196 76.1387 237.325 75.9865C238.455 75.8343 239.576 76.0025 240.586 76.315C241.611 76.6274 242.476 77.2121 243.261 77.7889C244.006 78.4217 244.679 79.0946 245.2 79.8235C247.339 82.7313 247.963 85.6712 248.26 87.6097C248.372 88.595 248.436 89.372 248.42 89.8927C248.42 90.133 248.42 90.3253 248.42 90.4855C248.42 90.6377 248.412 90.7098 248.404 90.7098Z"
        fill="#263238" />
    <path
        d="M239.818 99.1849C243.388 99.1849 246.282 95.0246 246.282 89.8927C246.282 84.7608 243.388 80.6006 239.818 80.6006C236.248 80.6006 233.353 84.7608 233.353 89.8927C233.353 95.0246 236.248 99.1849 239.818 99.1849Z"
        fill="#455A64" />
    <path
        d="M246.283 89.8928C246.234 89.8928 246.251 89.1879 246.058 87.9543C245.834 86.7367 245.401 84.9023 244.048 83.1239C243.375 82.2508 242.438 81.4097 241.212 81.0092C240.603 80.8249 239.938 80.7288 239.265 80.825C238.593 80.9211 237.928 81.1694 237.319 81.5539C236.109 82.3389 235.14 83.6126 234.523 85.0705C233.882 86.5284 233.586 88.1866 233.57 89.8848C233.586 91.575 233.882 93.2412 234.523 94.6991C235.14 96.157 236.101 97.4306 237.319 98.2237C237.928 98.6082 238.593 98.8565 239.265 98.9526C239.938 99.0488 240.603 98.9526 241.22 98.7684C242.446 98.3679 243.383 97.5268 244.056 96.6536C245.409 94.8753 245.842 93.0409 246.058 91.8233C246.251 90.5897 246.234 89.8848 246.283 89.8928C246.299 89.8928 246.307 90.069 246.307 90.3975C246.323 90.7339 246.283 91.2225 246.218 91.8554C246.042 93.097 245.65 94.9714 244.288 96.8379C243.607 97.7511 242.638 98.6562 241.324 99.0968C240.675 99.3051 239.954 99.4092 239.217 99.3131C238.488 99.217 237.767 98.9526 237.111 98.5441C235.805 97.711 234.796 96.3733 234.147 94.8593C233.474 93.3453 233.169 91.6311 233.145 89.8848C233.161 88.1385 233.474 86.4243 234.147 84.9103C234.796 83.3963 235.805 82.0586 237.111 81.2255C237.767 80.8169 238.488 80.5526 239.217 80.4565C239.946 80.3604 240.667 80.4645 241.324 80.6727C242.638 81.1133 243.607 82.0185 244.288 82.9317C245.658 84.7981 246.042 86.6726 246.218 87.9142C246.283 88.547 246.323 89.0357 246.307 89.3721C246.299 89.7166 246.291 89.8928 246.283 89.8928Z"
        fill="#263238" />
    <path
        d="M240.263 96.5734C242.829 96.5734 244.909 93.5823 244.909 89.8927C244.909 86.203 242.829 83.2119 240.263 83.2119C237.697 83.2119 235.617 86.203 235.617 89.8927C235.617 93.5823 237.697 96.5734 240.263 96.5734Z"
        fill="#455A64" />
    <path
        d="M244.911 89.8923C244.871 89.8923 244.871 89.3877 244.727 88.4985C244.559 87.6254 244.247 86.3117 243.269 85.046C242.789 84.4212 242.116 83.8284 241.243 83.5481C240.377 83.2597 239.344 83.3798 238.487 83.9406C236.749 85.0861 235.82 87.4892 235.82 89.8923C235.82 92.2875 236.749 94.6906 238.487 95.8441C239.344 96.4048 240.386 96.525 241.251 96.2366C242.124 95.9563 242.789 95.3555 243.277 94.7387C244.247 93.473 244.567 92.1593 244.727 91.2862C244.871 90.389 244.871 89.8843 244.911 89.8923C244.927 89.8923 244.935 90.0205 244.943 90.2608C244.96 90.5011 244.935 90.8536 244.887 91.3102C244.767 92.2074 244.495 93.5611 243.51 94.9149C243.021 95.5798 242.316 96.2366 241.363 96.5651C240.89 96.7173 240.361 96.7974 239.825 96.7253C239.296 96.6532 238.767 96.4609 238.287 96.1645C237.334 95.5557 236.605 94.5865 236.132 93.489C235.643 92.3916 235.419 91.15 235.411 89.8843C235.427 88.6187 235.651 87.3851 236.132 86.2796C236.605 85.1822 237.334 84.2129 238.287 83.6041C238.767 83.3077 239.288 83.1155 239.825 83.0434C240.361 82.9713 240.882 83.0514 241.363 83.2036C242.316 83.532 243.021 84.1889 243.51 84.8538C244.495 86.2075 244.767 87.5693 244.887 88.4585C244.935 88.9151 244.951 89.2675 244.943 89.5078C244.935 89.7642 244.927 89.8923 244.911 89.8923Z"
        fill="#263238" />
</svg>