<svg width="572" height="323" viewBox="0 0 572 323" fill="none" xmlns="http://www.w3.org/2000/svg">
    <path
        d="M521.793 301.077L521.777 301.045C524.236 303.02 527.586 305.705 531.307 308.686L531.387 308.75L531.282 308.774C530.881 308.878 530.447 308.99 530.013 309.11C527.12 309.861 524.38 310.581 521.97 311.212L521.954 311.22L521.938 311.212C518.949 309.949 516.426 308.886 514.65 308.135C513.766 307.759 513.067 307.464 512.585 307.256C512.352 307.152 512.167 307.072 512.039 307.016C511.983 306.992 511.934 306.968 511.902 306.952C511.87 306.936 511.854 306.928 511.854 306.928C511.854 306.928 511.87 306.936 511.902 306.944C511.934 306.96 511.983 306.976 512.047 307C512.175 307.056 512.36 307.128 512.601 307.224C513.083 307.424 513.79 307.711 514.674 308.079C516.458 308.822 518.981 309.869 521.978 311.116H521.946C524.356 310.485 527.096 309.765 529.989 309.006C530.423 308.894 530.857 308.782 531.258 308.678L531.234 308.774C527.522 305.777 524.188 303.084 521.729 301.101L521.713 301.093V301.077"
        fill="#E0E0E0" />
    <path
        d="M530.447 307.505L530.969 307.985L531.668 307.841L531.363 308.48L531.716 309.096L531.009 309L530.535 309.535L530.407 308.832L529.748 308.544L530.374 308.208L530.447 307.505Z"
        fill="#E0E0E0" />
    <path
        d="M521.292 310.509L521.646 310.804L522.088 310.684L521.919 311.108L522.176 311.492L521.718 311.46L521.429 311.819L521.316 311.372L520.882 311.22L521.276 310.972L521.292 310.509Z"
        fill="#E0E0E0" />
    <path
        d="M511.209 306.392L511.772 306.432L512.125 305.985L512.262 306.528L512.8 306.728L512.318 307.024L512.294 307.591L511.86 307.232L511.314 307.384L511.523 306.864L511.209 306.392Z"
        fill="#E0E0E0" />
    <path
        d="M534.716 301.196L535.278 301.228L535.632 300.788L535.768 301.332L536.298 301.524L535.824 301.827L535.8 302.387L535.366 302.027L534.82 302.187L535.029 301.66L534.716 301.196Z"
        fill="#E0E0E0" />
    <path
        d="M521.326 300.824L521.687 300.848L521.912 300.569L522.001 300.912L522.338 301.04L522.033 301.232L522.025 301.592L521.743 301.36L521.398 301.464L521.527 301.128L521.326 300.824Z"
        fill="#E0E0E0" />
    <path
        d="M535.494 301.59C535.494 301.63 532.409 301.526 528.616 301.366C524.816 301.206 521.739 301.046 521.739 301.006C521.739 300.966 524.824 301.07 528.624 301.23C532.417 301.39 535.494 301.55 535.494 301.59Z"
        fill="#E0E0E0" />
    <path
        d="M535.268 298.297C535.163 298.265 535.91 296.683 535.91 294.597C535.935 292.511 535.211 290.92 535.308 290.888C535.364 290.832 536.264 292.423 536.24 294.597C536.24 296.771 535.324 298.345 535.268 298.297Z"
        fill="#F5F5F5" />
    <path
        d="M533.563 298.273C533.466 298.249 533.844 296.651 533.836 294.653C533.844 292.646 533.45 291.056 533.555 291.032C533.627 291 534.173 292.599 534.173 294.653C534.181 296.707 533.643 298.305 533.563 298.273Z"
        fill="#F5F5F5" />
    <path
        d="M212.971 70.5122C212.971 70.5122 213.405 69.9048 214.506 69.1694C215.59 68.4501 217.487 67.6508 219.897 67.8986C221.078 68.0345 222.38 68.4181 223.561 69.1934C224.726 69.9687 225.835 71.0797 226.526 72.5104C226.887 73.2137 227.144 73.997 227.281 74.8203C227.426 75.6356 227.45 76.4988 227.329 77.354C227.12 79.0724 226.301 80.7589 225.039 82.0937C223.746 83.4045 222.074 84.2757 220.363 84.5394C219.511 84.6913 218.644 84.6993 217.816 84.5794C216.988 84.4755 216.193 84.2517 215.47 83.916C213.999 83.2846 212.85 82.2216 212.031 81.0866C211.211 79.9356 210.777 78.6648 210.601 77.4899C210.263 75.108 211.002 73.1898 211.685 72.0868C212.376 70.9598 212.971 70.5122 212.971 70.5122C213.019 70.5522 212.473 71.0477 211.838 72.1827C211.219 73.2937 210.561 75.164 210.922 77.4419C211.115 78.5689 211.541 79.7758 212.344 80.8628C213.14 81.9338 214.249 82.9329 215.639 83.5244C216.322 83.8361 217.077 84.0439 217.864 84.1398C218.644 84.2517 219.463 84.2357 220.275 84.0919C221.898 83.8361 223.473 83.0048 224.694 81.774C225.891 80.5191 226.662 78.9285 226.871 77.298C226.992 76.4908 226.976 75.6755 226.839 74.9002C226.711 74.1249 226.478 73.3816 226.14 72.7102C225.497 71.3434 224.461 70.2804 223.352 69.5291C222.235 68.7698 220.998 68.3861 219.865 68.2423C217.559 67.9545 215.703 68.6739 214.61 69.3373C213.501 69.9927 213.011 70.5522 212.971 70.5122Z"
        fill="#E0E0E0" />
    <path
        d="M480.817 5.3875C481.861 4.75607 482.978 4.27651 484.127 3.9568L484.81 0.695768L490.354 0.599854L491.149 3.83691C492.314 4.12465 493.439 4.55625 494.508 5.15571L497.312 3.33337L501.297 7.16188L499.562 10.0073C500.197 11.0463 500.679 12.1573 501 13.3083L504.278 13.9877L504.375 19.5027L501.121 20.2939C500.831 21.4529 500.398 22.5719 499.795 23.6349L501.627 26.4244L497.778 30.3888L494.918 28.6623C493.873 29.2937 492.756 29.7733 491.607 30.093L490.924 33.3541L485.38 33.45L484.585 30.2129C483.42 29.9252 482.295 29.4936 481.226 28.8941L478.422 30.7165L474.437 26.8879L476.172 24.0425C475.538 23.0035 475.056 21.8925 474.734 20.7495L471.456 20.0701L471.36 14.5552L474.614 13.7639C474.903 12.6129 475.337 11.486 475.939 10.4229L474.107 7.63345L477.956 3.66906L480.817 5.3875ZM483.773 12.7328C481.491 15.0827 481.556 18.8233 483.918 21.0932C486.28 23.3631 490.041 23.2992 492.322 20.9493C494.604 18.5995 494.54 14.8589 492.178 12.5889C489.816 10.311 486.055 10.383 483.773 12.7328Z"
        fill="#F5F5F5" />
    <path
        d="M483.771 12.7336C483.771 12.7336 484.084 12.294 484.88 11.7665C485.659 11.2469 487.025 10.6715 488.76 10.8553C489.612 10.9512 490.544 11.231 491.396 11.7904C492.239 12.3499 493.035 13.1492 493.525 14.1803C493.79 14.6918 493.967 15.2513 494.063 15.8428C494.168 16.4342 494.184 17.0497 494.096 17.6651C493.943 18.904 493.356 20.1189 492.448 21.078C491.516 22.0211 490.319 22.6446 489.082 22.8364C488.463 22.9483 487.844 22.9563 487.25 22.8684C486.655 22.7884 486.085 22.6286 485.563 22.3888C484.51 21.9332 483.682 21.1659 483.088 20.3507C482.493 19.5274 482.188 18.6082 482.059 17.761C481.818 16.0426 482.349 14.6678 482.839 13.8766C483.345 13.0533 483.771 12.7336 483.771 12.7336C483.803 12.7576 483.409 13.1252 482.951 13.9325C482.501 14.7318 482.027 16.0746 482.292 17.7211C482.429 18.5283 482.734 19.3995 483.313 20.1828C483.883 20.9581 484.679 21.6695 485.683 22.0931C486.173 22.3169 486.72 22.4687 487.282 22.5407C487.844 22.6206 488.431 22.6126 489.018 22.5007C490.183 22.3169 491.315 21.7174 492.199 20.8302C493.059 19.927 493.622 18.7761 493.766 17.6092C493.855 17.0257 493.838 16.4422 493.742 15.8827C493.654 15.3232 493.485 14.7877 493.244 14.3082C492.786 13.3251 492.031 12.5578 491.235 12.0142C490.432 11.4707 489.54 11.191 488.728 11.0871C487.065 10.8793 485.731 11.3988 484.944 11.8704C484.148 12.3579 483.795 12.7576 483.771 12.7336Z"
        fill="#F5F5F5" />
    <path
        d="M480.821 5.38691C480.821 5.3949 480.757 5.36293 480.636 5.291C480.5 5.21107 480.323 5.10716 480.09 4.97129C479.592 4.67556 478.868 4.25194 477.928 3.70044L477.993 3.69245C477.012 4.71552 475.727 6.0583 474.168 7.68082L474.176 7.57692C474.739 8.41615 475.357 9.3513 476.024 10.3584L476.056 10.4063L476.024 10.4623C475.478 11.4454 475.02 12.5564 474.722 13.7873L474.706 13.8512L474.642 13.8672C473.63 14.115 472.529 14.3867 471.388 14.6665L471.476 14.5466C471.509 16.281 471.549 18.1273 471.589 20.0616L471.484 19.9337C472.497 20.1415 473.622 20.3733 474.763 20.6051L474.843 20.6211L474.867 20.701C475.172 21.764 475.647 22.899 476.297 23.962L476.346 24.0339L476.297 24.1139C475.759 25.0011 475.172 25.9682 474.562 26.9673L474.538 26.7834C475.791 27.9824 477.141 29.2772 478.531 30.612L478.33 30.596C479.206 30.0285 480.162 29.3971 481.126 28.7656L481.207 28.7097L481.295 28.7577C482.275 29.3012 483.416 29.7647 484.621 30.0525L484.718 30.0764L484.742 30.1724C484.991 31.1874 485.264 32.2904 485.545 33.4094L485.377 33.2815C487.128 33.2496 489.008 33.2176 490.921 33.1856L490.76 33.3215C490.977 32.2904 491.21 31.1794 491.443 30.0605L491.467 29.9566L491.564 29.9326C492.656 29.6289 493.789 29.1493 494.834 28.5179L494.922 28.4619L495.011 28.5179C495.975 29.1013 496.931 29.6768 497.871 30.2443L497.662 30.2683C498.964 28.9255 500.249 27.6067 501.511 26.3039L501.495 26.5117C500.876 25.5765 500.265 24.6414 499.663 23.7222L499.606 23.6343L499.655 23.5464C500.241 22.4993 500.683 21.3804 500.964 20.2454L500.988 20.1495L501.085 20.1255C502.186 19.8617 503.27 19.598 504.339 19.3342L504.219 19.4941C504.186 17.6158 504.154 15.7775 504.13 13.9791L504.259 14.131C503.15 13.8992 502.057 13.6754 500.98 13.4516L500.892 13.4356L500.868 13.3477C500.539 12.1807 500.048 11.0777 499.446 10.0866L499.398 10.0067L499.446 9.93477C500.04 8.95966 500.619 8.01652 501.189 7.08936L501.213 7.2652C499.815 5.91443 498.49 4.64359 497.236 3.42869L497.397 3.44468C496.409 4.0841 495.485 4.68355 494.593 5.26702L494.528 5.30698L494.464 5.27501C493.347 4.65158 492.23 4.23596 491.138 3.9642L491.073 3.94822L491.057 3.88428C490.768 2.70935 490.511 1.64631 490.27 0.647222L490.366 0.727148C488.221 0.751126 486.389 0.775105 484.822 0.799083L484.895 0.735143C484.613 2.03796 484.38 3.10099 484.188 3.99617L484.18 4.02815L484.147 4.03614C482.974 4.36384 482.147 4.7395 481.616 5.00326C481.359 5.13914 481.166 5.23505 481.022 5.31498C480.885 5.35494 480.821 5.38691 480.821 5.38691C480.821 5.37892 480.885 5.33895 481.006 5.25903C481.134 5.1791 481.327 5.0672 481.592 4.92333C482.123 4.64359 482.942 4.24395 484.123 3.90026L484.083 3.94023C484.26 3.04504 484.477 1.98201 484.742 0.671199L484.75 0.61525H484.814C486.381 0.58328 488.205 0.543318 490.358 0.495361H490.439L490.455 0.575287C490.704 1.57438 490.969 2.63741 491.266 3.81234L491.186 3.73242C492.303 4.00417 493.444 4.41979 494.585 5.05121L494.456 5.05921C495.348 4.47574 496.272 3.86829 497.252 3.22887L497.341 3.17292L497.413 3.24486C498.674 4.45176 500 5.7226 501.406 7.06538L501.487 7.14531L501.43 7.22524C500.868 8.15239 500.289 9.09554 499.703 10.0786V9.92678C500.322 10.9419 500.82 12.0608 501.165 13.2598L501.053 13.1558C502.129 13.3796 503.222 13.6034 504.331 13.8272L504.452 13.8512V13.9791C504.484 15.7695 504.516 17.6078 504.556 19.4941V19.622L504.427 19.6539C503.359 19.9177 502.274 20.1815 501.173 20.4532L501.294 20.3333C501.005 21.5003 500.563 22.6432 499.96 23.7222L499.952 23.5464C500.555 24.4656 501.173 25.3927 501.792 26.3279L501.864 26.4398L501.768 26.5357C500.506 27.8385 499.221 29.1653 497.919 30.5001L497.823 30.596L497.71 30.524C496.762 29.9566 495.806 29.3811 494.85 28.7976H495.027C493.95 29.445 492.793 29.9326 491.676 30.2443L491.797 30.1164C491.564 31.2354 491.331 32.3464 491.114 33.3774L491.09 33.5133H490.953C489.049 33.5453 487.169 33.5773 485.409 33.6092H485.272L485.24 33.4813C484.967 32.3624 484.694 31.2594 484.445 30.2443L484.565 30.3642C483.336 30.0605 482.163 29.5889 481.166 29.0294L481.335 29.0214C480.363 29.6528 479.407 30.2763 478.531 30.8438L478.427 30.9157L478.338 30.8278C476.956 29.493 475.606 28.1982 474.353 26.9913L474.265 26.9033L474.329 26.7994C474.931 25.8083 475.526 24.8332 476.072 23.954V24.1059C475.414 23.0189 474.931 21.8599 474.626 20.7729L474.731 20.8688C473.582 20.629 472.465 20.3973 471.452 20.1814L471.348 20.1575V20.0536C471.316 18.1193 471.292 16.273 471.259 14.5386V14.4427L471.356 14.4187C472.497 14.1469 473.598 13.8752 474.61 13.6354L474.53 13.7153C474.843 12.4685 475.317 11.3415 475.871 10.3504V10.4543C475.213 9.44722 474.602 8.50407 474.048 7.66484L474.007 7.60889L474.056 7.56093C475.63 5.95439 476.94 4.6276 477.928 3.62052L477.961 3.58855L478.001 3.61252C478.917 4.18001 479.624 4.61162 480.114 4.91534C480.347 5.05921 480.524 5.17111 480.66 5.25903C480.757 5.33895 480.821 5.37892 480.821 5.38691Z"
        fill="#F5F5F5" />
    <path
        d="M524.208 134.862V134.846L522.239 126.869C519.347 126.158 516.558 125.071 513.955 123.624L507.037 128.132L507.029 128.124L497.178 118.66L497.186 118.644L501.469 111.627C499.926 109.093 498.737 106.36 497.918 103.506L489.818 101.828V101.812L489.577 88.1921H489.593L497.612 86.2339C498.327 83.3565 499.42 80.583 500.866 77.9933L496.335 71.1116L496.343 71.1036L505.856 61.3045L505.872 61.3125L512.935 65.5726C515.482 64.046 518.23 62.8551 521.098 62.0399L522.785 53.9832H522.802L536.493 53.7434V53.7594L538.462 61.7361C541.362 62.4475 544.142 63.5345 546.745 64.9732L553.663 60.4653L553.672 60.4733L563.522 69.9367L563.514 69.9527L559.232 76.9703C560.766 79.504 561.964 82.2375 562.775 85.0909L570.874 86.7694V86.7853L571.115 100.405H571.099L563.08 102.363C562.365 105.249 561.272 108.014 559.818 110.604L564.35 117.485L564.342 117.493L554.829 127.293L554.812 127.285L547.758 123.024C545.211 124.551 542.471 125.742 539.594 126.557L537.907 134.614H537.891L524.208 134.862ZM513.955 123.576L513.963 123.584C516.566 125.031 519.355 126.118 522.255 126.829H522.263V126.837L524.232 134.814L537.875 134.574L539.562 126.525H539.57C542.447 125.71 545.203 124.519 547.75 122.992L547.758 122.984L547.766 122.992L554.82 127.245L564.302 117.477L559.77 110.604L559.778 110.596C561.224 108.006 562.325 105.233 563.04 102.347V102.339H563.048L571.067 100.381L570.826 86.8093L562.735 85.1309V85.1229C561.915 82.2615 560.726 79.528 559.183 76.9863L559.175 76.9783L559.183 76.9703L563.458 69.9527L553.639 60.5212L546.729 65.0292L546.721 65.0211C544.118 63.5745 541.33 62.4875 538.429 61.7761H538.421V61.7681L536.453 53.7914L522.81 54.0311L521.122 62.0798H521.114C518.238 62.8951 515.49 64.078 512.943 65.6126L512.935 65.6206L512.927 65.6126L505.872 61.3605L496.391 71.1276L500.923 78.0013L500.915 78.0093C499.46 80.599 498.368 83.3725 497.652 86.2578V86.2658H497.644L489.626 88.224L489.867 101.796L497.958 103.474V103.482C498.777 106.344 499.966 109.077 501.509 111.619L501.517 111.627L501.509 111.635L497.235 118.652L507.053 128.084L513.955 123.576ZM530.772 108.478C526.948 108.478 523.332 107.031 520.568 104.377C517.748 101.668 516.149 98.0231 516.084 94.1147C516.012 90.2062 517.482 86.5136 520.206 83.7002C522.93 80.8947 526.594 79.3042 530.523 79.2402C530.611 79.2402 530.7 79.2402 530.788 79.2402C534.613 79.2402 538.228 80.6869 540.992 83.3405C543.821 86.05 545.412 89.6947 545.476 93.6032C545.548 97.5036 544.078 101.204 541.354 104.018C538.63 106.823 534.966 108.414 531.037 108.478C530.949 108.47 530.861 108.478 530.772 108.478ZM520.238 83.7321C517.523 86.5376 516.06 90.2222 516.125 94.1147C516.197 98.0071 517.78 101.644 520.6 104.345C523.356 106.991 526.956 108.438 530.772 108.438C530.861 108.438 530.949 108.438 531.037 108.438C534.95 108.366 538.606 106.791 541.322 103.986C544.038 101.188 545.5 97.4956 545.436 93.6032C545.363 89.7107 543.781 86.074 540.96 83.3725C538.204 80.7269 534.605 79.2802 530.788 79.2802C530.7 79.2802 530.611 79.2802 530.523 79.2802C526.61 79.3521 522.954 80.9267 520.238 83.7321Z"
        fill="#E0E0E0" />
    <path
        d="M520.216 83.7153C520.216 83.7153 520.988 82.6363 522.948 81.3335C524.876 80.0547 528.251 78.6319 532.526 79.0795C534.631 79.3113 536.937 79.9987 539.034 81.3814C541.107 82.7642 543.075 84.7304 544.297 87.2801C544.939 88.5349 545.389 89.9257 545.63 91.3803C545.896 92.827 545.936 94.3536 545.711 95.8723C545.341 98.9255 543.887 101.931 541.637 104.289C539.347 106.614 536.374 108.157 533.321 108.637C531.802 108.908 530.268 108.924 528.805 108.717C527.335 108.525 525.921 108.133 524.643 107.534C522.04 106.407 519.991 104.528 518.529 102.506C517.066 100.468 516.303 98.1981 515.99 96.12C515.387 91.8839 516.697 88.487 517.918 86.5208C519.164 84.5146 520.216 83.7153 520.216 83.7153C520.297 83.7793 519.332 84.6745 518.199 86.6806C517.091 88.6468 515.926 91.9718 516.576 96.0241C516.914 98.0223 517.677 100.172 519.099 102.099C520.513 104.001 522.482 105.775 524.957 106.822C526.178 107.382 527.52 107.749 528.91 107.917C530.3 108.109 531.754 108.085 533.184 107.821C536.069 107.358 538.865 105.895 541.035 103.697C543.164 101.467 544.538 98.6377 544.899 95.7524C545.116 94.3217 545.084 92.875 544.843 91.5002C544.618 90.1255 544.208 88.7987 543.606 87.6078C542.465 85.178 540.617 83.2917 538.656 81.9489C536.672 80.6062 534.478 79.9188 532.461 79.655C528.364 79.1515 525.069 80.4303 523.125 81.5973C521.148 82.7962 520.288 83.7873 520.216 83.7153Z"
        fill="#EBEBEB" />
    <path d="M545.681 17.3206H214.845V228.504H545.681V17.3206Z" fill="white" />
    <path d="M545.673 78.4807H304.715V101.835H545.673V78.4807Z" fill="#F5F5F5" />
    <path d="M545.673 145.9H304.715V181.58H545.673V145.9Z" fill="#F5F5F5" />
    <path d="M304.723 50.6909H214.845V227.898H304.723V50.6909Z" fill="#EBEBEB" />
    <path d="M304.723 55.4377H214.845V72.782H304.723V55.4377Z" fill="#27AE60" />
    <path
        d="M287.344 88.4151C287.344 88.527 274.697 88.6229 259.094 88.6229C243.49 88.6229 230.843 88.527 230.843 88.4151C230.843 88.3032 243.49 88.2073 259.094 88.2073C274.697 88.2073 287.344 88.2952 287.344 88.4151Z"
        fill="#263238" />
    <path
        d="M287.344 110.204C287.344 110.316 274.697 110.412 259.094 110.412C243.49 110.412 230.843 110.316 230.843 110.204C230.843 110.092 243.49 109.997 259.094 109.997C274.697 109.997 287.344 110.092 287.344 110.204Z"
        fill="#263238" />
    <path
        d="M287.344 131.993C287.344 132.105 274.697 132.201 259.094 132.201C243.49 132.201 230.843 132.105 230.843 131.993C230.843 131.881 243.49 131.785 259.094 131.785C274.697 131.785 287.344 131.881 287.344 131.993Z"
        fill="#263238" />
    <path
        d="M450.21 117.789C450.21 117.901 421.791 117.997 386.751 117.997C351.695 117.997 323.283 117.901 323.283 117.789C323.283 117.677 351.695 117.582 386.751 117.582C421.791 117.582 450.21 117.677 450.21 117.789Z"
        fill="#263238" />
    <path
        d="M376.849 129.154C376.849 129.266 364.773 129.362 349.876 129.362C334.98 129.362 322.903 129.266 322.903 129.154C322.903 129.042 334.98 128.946 349.876 128.946C364.773 128.946 376.849 129.034 376.849 129.154Z"
        fill="#263238" />
    <path
        d="M524.259 132.48H471.301C467.734 132.48 464.849 129.602 464.849 126.061V116.254C464.849 112.706 467.742 109.836 471.301 109.836H524.259C527.826 109.836 530.711 112.714 530.711 116.254V126.061C530.711 129.602 527.818 132.48 524.259 132.48Z"
        fill="#27AE60" />
    <path
        d="M450.21 158.057C450.21 158.169 421.791 158.265 386.751 158.265C351.695 158.265 323.283 158.169 323.283 158.057C323.283 157.945 351.695 157.849 386.751 157.849C421.791 157.849 450.21 157.945 450.21 158.057Z"
        fill="#263238" />
    <path
        d="M376.849 169.422C376.849 169.534 364.773 169.63 349.876 169.63C334.98 169.63 322.903 169.534 322.903 169.422C322.903 169.31 334.98 169.215 349.876 169.215C364.773 169.215 376.849 169.31 376.849 169.422Z"
        fill="#263238" />
    <path
        d="M524.259 175.066H471.301C467.734 175.066 464.849 172.188 464.849 168.647V158.84C464.849 155.292 467.742 152.422 471.301 152.422H524.259C527.826 152.422 530.711 155.3 530.711 158.84V168.647C530.711 172.188 527.818 175.066 524.259 175.066Z"
        fill="#27AE60" />
    <path
        d="M450.21 198.324C450.21 198.435 421.791 198.531 386.751 198.531C351.695 198.531 323.283 198.435 323.283 198.324C323.283 198.212 351.695 198.116 386.751 198.116C421.791 198.116 450.21 198.212 450.21 198.324Z"
        fill="#263238" />
    <path
        d="M376.849 209.69C376.849 209.802 364.773 209.898 349.876 209.898C334.98 209.898 322.903 209.802 322.903 209.69C322.903 209.578 334.98 209.482 349.876 209.482C364.773 209.482 376.849 209.578 376.849 209.69Z"
        fill="#263238" />
    <path
        d="M524.259 217.651H471.301C467.734 217.651 464.849 214.773 464.849 211.233V201.425C464.849 197.877 467.742 195.007 471.301 195.007H524.259C527.826 195.007 530.711 197.885 530.711 201.425V211.233C530.711 214.773 527.818 217.651 524.259 217.651Z"
        fill="#27AE60" />
    <path d="M545.681 17.0491H214.845V37.1987H545.681V17.0491Z" fill="#E0E0E0" />
    <path d="M545.681 35.2966H214.845V55.4463H545.681V35.2966Z" fill="#F5F5F5" />
    <path
        d="M485.235 122.497H482.246L481.676 123.872H480.149L483.025 117.462H484.496L487.38 123.872H485.813L485.235 122.497ZM484.761 121.37L483.74 118.916L482.72 121.37H484.761Z"
        fill="#FAFAFA" />
    <path
        d="M487.524 121.402C487.524 119.915 488.673 118.868 490.288 118.868C491.325 118.868 492.145 119.316 492.506 120.123L491.389 120.722C491.124 120.259 490.722 120.043 490.272 120.043C489.541 120.043 488.971 120.547 488.971 121.41C488.971 122.273 489.541 122.777 490.272 122.777C490.722 122.777 491.116 122.577 491.389 122.097L492.506 122.705C492.145 123.496 491.325 123.952 490.288 123.952C488.673 123.944 487.524 122.889 487.524 121.402Z"
        fill="#FAFAFA" />
    <path
        d="M492.89 121.402C492.89 119.915 494.039 118.868 495.654 118.868C496.691 118.868 497.51 119.316 497.872 120.123L496.755 120.722C496.49 120.259 496.088 120.043 495.638 120.043C494.907 120.043 494.336 120.547 494.336 121.41C494.336 122.273 494.907 122.777 495.638 122.777C496.088 122.777 496.482 122.577 496.755 122.097L497.872 122.705C497.51 123.496 496.691 123.952 495.654 123.952C494.047 123.944 492.89 122.889 492.89 121.402Z"
        fill="#FAFAFA" />
    <path
        d="M503.465 121.809H499.721C499.858 122.425 500.388 122.8 501.135 122.8C501.658 122.8 502.035 122.649 502.381 122.321L503.144 123.144C502.686 123.664 501.995 123.943 501.103 123.943C499.392 123.943 498.275 122.872 498.275 121.41C498.275 119.931 499.408 118.876 500.918 118.876C502.373 118.876 503.498 119.843 503.498 121.434C503.489 121.53 503.473 121.689 503.465 121.809ZM499.697 120.97H502.14C502.035 120.347 501.569 119.947 500.926 119.947C500.268 119.947 499.802 120.339 499.697 120.97Z"
        fill="#FAFAFA" />
    <path
        d="M509.838 121.402C509.838 122.953 508.761 123.936 507.371 123.936C506.752 123.936 506.246 123.744 505.876 123.337V125.638H504.438V118.933H505.812V119.5C506.174 119.068 506.704 118.861 507.371 118.861C508.761 118.869 509.838 119.86 509.838 121.402ZM508.383 121.402C508.383 120.547 507.837 120.036 507.122 120.036C506.407 120.036 505.86 120.547 505.86 121.402C505.86 122.258 506.407 122.769 507.122 122.769C507.845 122.769 508.383 122.258 508.383 121.402Z"
        fill="#FAFAFA" />
    <path
        d="M513.991 123.632C513.693 123.84 513.26 123.944 512.818 123.944C511.653 123.944 510.97 123.344 510.97 122.177V120.155H510.206V119.052H510.97V117.853H512.408V119.052H513.645V120.155H512.408V122.161C512.408 122.585 512.641 122.809 513.027 122.809C513.235 122.809 513.452 122.745 513.605 122.625L513.991 123.632Z"
        fill="#FAFAFA" />
    <path
        d="M485.235 164.914H482.246L481.676 166.289H480.149L483.025 159.879H484.496L487.38 166.289H485.813L485.235 164.914ZM484.761 163.787L483.74 161.334L482.72 163.787H484.761Z"
        fill="#FAFAFA" />
    <path
        d="M487.524 163.819C487.524 162.333 488.673 161.286 490.288 161.286C491.325 161.286 492.145 161.733 492.506 162.541L491.389 163.14C491.124 162.676 490.722 162.461 490.272 162.461C489.541 162.461 488.971 162.964 488.971 163.827C488.971 164.691 489.541 165.194 490.272 165.194C490.722 165.194 491.116 164.994 491.389 164.515L492.506 165.122C492.145 165.913 491.325 166.369 490.288 166.369C488.673 166.361 487.524 165.306 487.524 163.819Z"
        fill="#FAFAFA" />
    <path
        d="M492.89 163.819C492.89 162.333 494.039 161.286 495.654 161.286C496.691 161.286 497.51 161.733 497.872 162.541L496.755 163.14C496.49 162.676 496.088 162.461 495.638 162.461C494.907 162.461 494.336 162.964 494.336 163.827C494.336 164.691 494.907 165.194 495.638 165.194C496.088 165.194 496.482 164.994 496.755 164.515L497.872 165.122C497.51 165.913 496.691 166.369 495.654 166.369C494.047 166.361 492.89 165.306 492.89 163.819Z"
        fill="#FAFAFA" />
    <path
        d="M503.465 164.227H499.721C499.858 164.843 500.388 165.218 501.135 165.218C501.658 165.218 502.035 165.059 502.381 164.739L503.144 165.562C502.686 166.082 501.995 166.361 501.103 166.361C499.392 166.361 498.275 165.29 498.275 163.828C498.275 162.357 499.408 161.294 500.918 161.294C502.373 161.294 503.498 162.269 503.498 163.852C503.489 163.948 503.473 164.107 503.465 164.227ZM499.697 163.388H502.14C502.035 162.765 501.569 162.365 500.926 162.365C500.268 162.365 499.802 162.757 499.697 163.388Z"
        fill="#FAFAFA" />
    <path
        d="M509.838 163.82C509.838 165.371 508.761 166.354 507.371 166.354C506.752 166.354 506.246 166.162 505.876 165.754V168.056H504.438V161.35H505.812V161.918C506.174 161.486 506.704 161.278 507.371 161.278C508.761 161.286 509.838 162.269 509.838 163.82ZM508.383 163.82C508.383 162.965 507.837 162.453 507.122 162.453C506.407 162.453 505.86 162.965 505.86 163.82C505.86 164.675 506.407 165.187 507.122 165.187C507.845 165.187 508.383 164.675 508.383 163.82Z"
        fill="#FAFAFA" />
    <path
        d="M513.991 166.049C513.693 166.257 513.26 166.361 512.818 166.361C511.653 166.361 510.97 165.762 510.97 164.595V162.573H510.206V161.47H510.97V160.271H512.408V161.47H513.645V162.573H512.408V164.579C512.408 165.002 512.641 165.226 513.027 165.226C513.235 165.226 513.452 165.162 513.605 165.042L513.991 166.049Z"
        fill="#FAFAFA" />
    <path
        d="M485.235 207.324H482.246L481.676 208.698H480.149L483.025 202.288H484.496L487.38 208.698H485.813L485.235 207.324ZM484.761 206.197L483.74 203.743L482.72 206.197H484.761Z"
        fill="#FAFAFA" />
    <path
        d="M487.524 206.236C487.524 204.75 488.673 203.703 490.288 203.703C491.325 203.703 492.145 204.15 492.506 204.958L491.389 205.549C491.124 205.085 490.722 204.87 490.272 204.87C489.541 204.87 488.971 205.373 488.971 206.236C488.971 207.1 489.541 207.603 490.272 207.603C490.722 207.603 491.116 207.403 491.389 206.924L492.506 207.531C492.145 208.322 491.325 208.778 490.288 208.778C488.673 208.77 487.524 207.723 487.524 206.236Z"
        fill="#FAFAFA" />
    <path
        d="M492.89 206.236C492.89 204.75 494.039 203.703 495.654 203.703C496.691 203.703 497.51 204.15 497.872 204.958L496.755 205.549C496.49 205.085 496.088 204.87 495.638 204.87C494.907 204.87 494.336 205.373 494.336 206.236C494.336 207.1 494.907 207.603 495.638 207.603C496.088 207.603 496.482 207.403 496.755 206.924L497.872 207.531C497.51 208.322 496.691 208.778 495.654 208.778C494.047 208.77 492.89 207.723 492.89 206.236Z"
        fill="#FAFAFA" />
    <path
        d="M503.465 206.636H499.721C499.858 207.251 500.388 207.627 501.135 207.627C501.658 207.627 502.035 207.475 502.381 207.148L503.144 207.971C502.686 208.49 501.995 208.77 501.103 208.77C499.392 208.77 498.275 207.699 498.275 206.236C498.275 204.766 499.408 203.703 500.918 203.703C502.373 203.703 503.498 204.67 503.498 206.26C503.489 206.364 503.473 206.516 503.465 206.636ZM499.697 205.805H502.14C502.035 205.181 501.569 204.782 500.926 204.782C500.268 204.782 499.802 205.173 499.697 205.805Z"
        fill="#FAFAFA" />
    <path
        d="M509.838 206.236C509.838 207.787 508.761 208.77 507.371 208.77C506.752 208.77 506.246 208.578 505.876 208.171V210.472H504.438V203.767H505.812V204.334C506.174 203.902 506.704 203.695 507.371 203.695C508.761 203.695 509.838 204.686 509.838 206.236ZM508.383 206.236C508.383 205.381 507.837 204.87 507.122 204.87C506.407 204.87 505.86 205.381 505.86 206.236C505.86 207.091 506.407 207.603 507.122 207.603C507.845 207.603 508.383 207.083 508.383 206.236Z"
        fill="#FAFAFA" />
    <path
        d="M513.991 208.458C513.693 208.666 513.26 208.77 512.818 208.77C511.653 208.77 510.97 208.171 510.97 207.004V204.982H510.206V203.879H510.97V202.68H512.408V203.879H513.645V204.982H512.408V206.988C512.408 207.411 512.641 207.635 513.027 207.635C513.235 207.635 513.452 207.571 513.605 207.451L513.991 208.458Z"
        fill="#FAFAFA" />
    <path
        d="M284.65 65.1016C284.65 65.2135 272.863 65.3094 258.328 65.3094C243.785 65.3094 232.006 65.2135 232.006 65.1016C232.006 64.9897 243.785 64.8938 258.328 64.8938C272.863 64.8938 284.65 64.9897 284.65 65.1016Z"
        fill="white" />
    <path
        d="M228.263 26.4966C228.263 27.8953 227.122 29.0303 225.715 29.0303C224.309 29.0303 223.168 27.8953 223.168 26.4966C223.168 25.0979 224.309 23.9629 225.715 23.9629C227.13 23.9629 228.263 25.0979 228.263 26.4966Z"
        fill="#263238" />
    <path
        d="M237.599 26.4966C237.599 27.8953 236.458 29.0303 235.052 29.0303C233.646 29.0303 232.505 27.8953 232.505 26.4966C232.505 25.0979 233.646 23.9629 235.052 23.9629C236.458 23.9629 237.599 25.0979 237.599 26.4966Z"
        fill="#263238" />
    <path
        d="M246.927 26.4966C246.927 27.8953 245.786 29.0303 244.38 29.0303C242.974 29.0303 241.833 27.8953 241.833 26.4966C241.833 25.0979 242.974 23.9629 244.38 23.9629C245.786 23.9629 246.927 25.0979 246.927 26.4966Z"
        fill="#263238" />
    <path
        d="M524.7 125.366L528.903 147.546L532.358 141.359L539.774 152.413L543.486 149.928L536.07 138.874L542.875 137.835L524.7 125.366Z"
        fill="#263238" />
    <path
        d="M523.325 126.094C523.325 126.206 521.911 126.318 520.159 126.342C518.408 126.366 516.986 126.286 516.986 126.174C516.986 126.062 518.4 125.95 520.151 125.926C521.903 125.902 523.325 125.982 523.325 126.094Z"
        fill="#263238" />
    <path
        d="M523.937 123.232C523.849 123.312 522.314 121.745 520.515 119.739C518.707 117.733 517.317 116.046 517.397 115.967C517.485 115.887 519.02 117.453 520.82 119.459C522.628 121.466 524.026 123.152 523.937 123.232Z"
        fill="#263238" />
    <path
        d="M527.551 117.741C527.663 117.757 527.559 118.996 527.141 120.458C526.731 121.929 526.169 123.04 526.072 122.992C525.96 122.944 526.337 121.785 526.739 120.347C527.149 118.908 527.438 117.725 527.551 117.741Z"
        fill="#263238" />
    <path
        d="M528.399 62.2321C528.399 63.0953 527.692 63.7987 526.824 63.7987C525.957 63.7987 525.25 63.0953 525.25 62.2321C525.25 61.3689 525.957 60.6655 526.824 60.6655C527.692 60.6655 528.399 61.3689 528.399 62.2321Z"
        fill="#E0E0E0" />
    <path
        d="M528.399 66.6757C528.399 67.5389 527.692 68.2423 526.824 68.2423C525.957 68.2423 525.25 67.5389 525.25 66.6757C525.25 65.8125 525.957 65.1091 526.824 65.1091C527.692 65.1091 528.399 65.8045 528.399 66.6757Z"
        fill="#E0E0E0" />
    <path
        d="M528.399 71.1115C528.399 71.9747 527.692 72.6781 526.824 72.6781C525.957 72.6781 525.25 71.9747 525.25 71.1115C525.25 70.2483 525.957 69.5449 526.824 69.5449C527.692 69.5449 528.399 70.2483 528.399 71.1115Z"
        fill="#E0E0E0" />
    <path
        d="M545.682 228.512C545.682 227.169 545.618 146.21 545.513 17.056L545.682 17.2238C455.249 17.2318 339.997 17.2478 214.87 17.2638H214.846L215.055 17.056C215.047 92.1237 215.047 163.611 215.039 228.512L214.846 228.32C409.33 228.432 543.946 228.504 545.682 228.512C543.954 228.512 409.338 228.592 214.846 228.703H214.653V228.512C214.645 163.603 214.645 92.1157 214.637 17.056V16.8481H214.846H214.87C339.997 16.8641 455.249 16.8801 545.682 16.8881H545.851V17.056C545.746 146.202 545.682 227.169 545.682 228.512Z"
        fill="#263238" />
    <path
        d="M348.843 207.214L339.402 203.745L303.278 202.682L294.889 204.952L295.99 225.277L314.952 237.306L333.336 236.938L344.898 226.46L347.469 216.069L348.843 207.214Z"
        fill="#FFBE9D" />
    <path
        d="M241.692 238.344C244.384 232.829 246.963 228.401 249.253 224.9C253.769 218.003 260.663 213.007 268.713 211.281L299.029 203.104C299.029 203.104 301.086 223.438 321.936 223.438C342.787 223.438 343.205 204.607 343.205 204.607L381.37 218.49C382.576 218.954 390.707 221.751 400.18 241.949C409.195 261.179 413.14 271.018 413.14 271.018L377.136 280.642L374.742 313.724L375.513 332.187L265.837 331.947L266.448 310.838L265.949 275.942L263.651 280.25L229.407 266.59C229.407 266.582 232.814 256.528 241.692 238.344Z"
        fill="#27AE60" />
    <path
        d="M265.426 257.886C265.265 257.886 265.361 269.579 265.643 283.99C265.924 298.409 266.285 310.094 266.446 310.086C266.607 310.086 266.51 298.393 266.229 283.974C265.948 269.563 265.586 257.878 265.426 257.886Z"
        fill="#263238" />
    <g opacity="0.3">
        <path
            d="M372.272 261.29C370.569 259.428 367.917 258.804 365.443 258.301C337.216 252.538 308.114 254.976 279.526 258.533C275.974 258.972 272.069 259.723 269.924 262.569C268.373 264.623 269.37 267.357 269.225 269.922C268.478 283.102 270.205 297.145 272.825 310.094L370.215 308.535C373.55 298.496 374.361 281.464 374.41 269.898C374.426 266.869 374.329 263.528 372.272 261.29Z"
            fill="black" />
    </g>
    <path
        d="M405.954 254.384C405.97 254.408 405.681 254.696 405.126 255.208C404.853 255.463 404.508 255.775 404.09 256.103C403.672 256.438 403.214 256.83 402.66 257.214C401.583 258.021 400.225 258.884 398.666 259.739C397.099 260.579 395.316 261.402 393.379 262.097C391.435 262.777 389.531 263.264 387.779 263.6C386.027 263.912 384.428 264.095 383.079 264.151C382.404 264.207 381.793 264.191 381.263 264.191C380.724 264.199 380.266 264.175 379.889 264.151C379.141 264.103 378.724 264.063 378.724 264.039C378.724 264.008 379.141 263.992 379.889 263.992C380.266 263.992 380.724 263.992 381.255 263.96C381.785 263.936 382.388 263.928 383.054 263.856C384.388 263.76 385.963 263.552 387.699 263.216C389.426 262.857 391.306 262.369 393.227 261.698C395.139 261.01 396.907 260.203 398.473 259.396C400.024 258.564 401.382 257.733 402.475 256.966C403.037 256.606 403.503 256.223 403.937 255.911C404.371 255.599 404.724 255.311 405.014 255.08C405.608 254.616 405.938 254.368 405.954 254.384Z"
        fill="white" />
    <path
        d="M285.592 164.059C285.592 164.059 283.31 167.168 283.35 172.795C283.374 175.8 285.431 181.914 290.807 182.218C289.385 190.826 294.921 197.197 304.145 197.213C313.369 197.229 323.934 181.483 332.476 178.022L357.295 171.5C359.473 170.996 360.373 168.351 360.332 166.129C360.292 163.907 359.714 161.589 360.509 159.503C361.594 156.649 364.92 155.123 366.053 152.285C367.347 149.064 365.346 145.484 363.04 142.878C360.734 140.272 357.93 137.795 357.199 134.398C356.524 131.281 357.729 127.764 356.162 124.982C354.234 121.553 349.188 121.13 346.842 117.973C345.709 116.446 345.355 114.448 344.231 112.913C342.318 110.292 338.638 109.604 335.4 109.956C332.162 110.308 329.045 111.475 325.799 111.706C321.339 112.026 316.743 110.595 312.461 111.882C307.744 113.297 304.868 117.461 301.806 121.497L297.813 126.173C296.985 126.972 296.11 127.708 295.154 128.331C293.474 129.418 291.546 130.17 290.1 131.56C287.006 134.526 287.287 140.208 290.646 142.862C287.215 143.957 284.764 147.53 284.981 151.111C284.981 151.111 284.539 155.203 287.151 157.017C287.151 157.017 283.415 159.815 285.592 164.059Z"
        fill="#263238" />
    <path
        d="M302.221 172.42C300.173 166.162 298.156 159.847 297.224 153.333C296.292 146.811 296.493 140.017 298.799 133.847C299.144 132.912 302.125 126.638 303.129 126.734C303.845 126.805 302.005 132.656 302.366 133.272C305.813 139.154 306.745 146.228 306.199 153.014C305.636 159.799 304.222 165.906 302.221 172.42Z"
        fill="#263238" />
    <path
        d="M319.937 221.566C309.676 221.35 302.228 204.605 302.228 204.605L301.561 147.289C301.023 130.784 310.231 116.717 326.831 116.637L328.365 116.717C343.808 117.54 356.029 130.017 356.447 145.395C356.833 159.702 357.074 175.52 356.568 183.153C355.515 198.962 339.477 200.577 339.477 200.577C339.445 200.577 339.389 204.245 339.341 208.897C339.236 219.352 324.051 221.925 319.937 221.566Z"
        fill="#FFBE9D" />
    <path
        d="M339.473 200.584C339.473 200.584 329.413 200.632 319.088 193.39C319.088 193.39 323.515 205.163 339.465 204.588L339.473 200.584Z"
        fill="#EB996E" />
    <path
        d="M348.354 158.96C348.33 160.159 347.293 161.126 346.04 161.126C344.786 161.126 343.79 160.159 343.806 158.96C343.83 157.761 344.867 156.794 346.12 156.794C347.373 156.794 348.378 157.761 348.354 158.96Z"
        fill="#263238" />
    <path
        d="M352.696 151.792C352.398 152.072 350.743 150.713 348.301 150.585C345.858 150.425 344.002 151.584 343.753 151.272C343.632 151.136 343.946 150.617 344.757 150.089C345.553 149.57 346.895 149.09 348.421 149.178C349.94 149.266 351.193 149.898 351.9 150.505C352.615 151.12 352.84 151.664 352.696 151.792Z"
        fill="#263238" />
    <path
        d="M326.505 158.384C326.481 159.583 325.444 160.55 324.191 160.55C322.937 160.55 321.941 159.583 321.957 158.384C321.981 157.185 323.018 156.218 324.271 156.218C325.525 156.218 326.521 157.185 326.505 158.384Z"
        fill="#263238" />
    <path
        d="M328.697 151.496C328.4 151.776 326.745 150.417 324.302 150.297C321.86 150.137 320.004 151.296 319.755 150.984C319.634 150.848 319.947 150.329 320.759 149.809C321.554 149.29 322.896 148.81 324.423 148.898C325.941 148.986 327.195 149.618 327.902 150.225C328.609 150.824 328.842 151.376 328.697 151.496Z"
        fill="#263238" />
    <path
        d="M336.445 170.646C336.445 170.51 337.971 170.327 340.454 170.143C341.081 170.111 341.675 170.023 341.804 169.599C341.973 169.16 341.748 168.472 341.482 167.737C340.976 166.202 340.446 164.596 339.892 162.909C337.69 156.044 336.131 150.409 336.412 150.321C336.694 150.233 338.702 155.732 340.904 162.598C341.434 164.292 341.932 165.907 342.414 167.449C342.615 168.169 342.977 168.992 342.607 169.903C342.414 170.359 341.94 170.67 341.531 170.758C341.121 170.862 340.775 170.846 340.462 170.846C337.979 170.862 336.445 170.79 336.445 170.646Z"
        fill="#263238" />
    <path
        d="M329.158 171.952C329.56 171.952 329.423 174.59 331.593 176.588C333.762 178.586 336.598 178.442 336.606 178.81C336.631 178.978 335.948 179.289 334.75 179.257C333.577 179.233 331.89 178.77 330.556 177.547C329.23 176.324 328.716 174.758 328.684 173.67C328.644 172.568 328.981 171.928 329.158 171.952Z"
        fill="#263238" />
    <path
        d="M329.093 141.623C328.82 142.27 326.393 141.831 323.508 142.022C320.616 142.158 318.262 142.87 317.916 142.254C317.764 141.958 318.197 141.359 319.17 140.768C320.134 140.176 321.644 139.649 323.372 139.553C325.099 139.457 326.666 139.816 327.687 140.288C328.715 140.768 329.213 141.319 329.093 141.623Z"
        fill="#263238" />
    <path
        d="M352.107 143.651C351.649 144.179 349.994 143.515 347.969 143.379C345.953 143.171 344.209 143.555 343.847 142.956C343.687 142.668 343.992 142.124 344.763 141.645C345.527 141.165 346.788 140.806 348.178 140.918C349.568 141.037 350.749 141.597 351.416 142.204C352.107 142.812 352.308 143.395 352.107 143.651Z"
        fill="#263238" />
    <path
        d="M302.233 159.078C301.967 158.95 291.474 155.281 291.241 166.112C291.008 176.95 301.991 174.944 302.016 174.64C302.04 174.328 302.233 159.078 302.233 159.078Z"
        fill="#FFBE9D" />
    <path
        d="M298.775 170.468C298.726 170.436 298.582 170.596 298.26 170.732C297.947 170.868 297.401 170.955 296.838 170.732C295.697 170.284 294.765 168.446 294.757 166.496C294.749 165.512 294.982 164.577 295.344 163.802C295.697 163.019 296.22 162.475 296.806 162.387C297.385 162.267 297.786 162.619 297.915 162.931C298.052 163.234 297.979 163.45 298.035 163.474C298.068 163.498 298.276 163.298 298.196 162.851C298.156 162.635 298.035 162.379 297.778 162.163C297.521 161.948 297.136 161.828 296.734 161.868C295.89 161.908 295.119 162.659 294.717 163.506C294.267 164.353 293.986 165.401 293.994 166.512C294.018 168.694 295.095 170.764 296.661 171.251C297.425 171.467 298.068 171.251 298.405 171.003C298.743 170.724 298.807 170.484 298.775 170.468Z"
        fill="#EB996E" />
    <path
        d="M349.626 127.365C351.401 126.421 346.187 120.675 341.872 118.661C335.364 115.623 325.385 113.673 319.326 115.304C312.031 117.262 305.948 120.779 302.212 127.317C298.476 133.855 297.005 141.504 297.126 149.017C297.158 151.311 297.367 153.701 298.572 155.659C300.067 158.073 302.959 159.623 302.791 162.924C302.726 164.131 303.056 165.354 303.883 166.249C305.852 168.383 308.31 166.433 309.459 164.459C311.91 160.247 312.24 155.179 312.513 150.32C312.706 146.867 312.89 143.334 311.958 140.001C311.452 138.187 310.616 136.468 310.207 134.63C309.797 132.792 309.885 130.714 311.05 129.227C311.243 128.987 311.549 128.683 311.95 128.348C315.068 125.694 319.399 124.951 323.247 126.358C329.354 128.596 339.791 131.952 342.555 129.914C346.532 126.989 347.497 125.055 347.497 125.055L349.626 127.365Z"
        fill="#263238" />
    <path
        d="M319.917 113.833C325.927 111.915 332.741 112.107 338.309 115.072C341.266 116.647 343.917 119.133 344.785 122.354C345.653 125.575 344.223 129.507 341.105 130.722L340.888 130.85C336.22 132.345 333.207 131.689 328.595 130.035C324.714 128.644 321.275 126.206 317.386 124.831C313.256 123.369 308.676 123.177 304.434 124.288C308.66 119.636 313.907 115.752 319.917 113.833Z"
        fill="#263238" />
    <path
        d="M299.201 124.551C299.297 124.631 300.173 123.6 301.941 122.377C302.825 121.777 303.925 121.114 305.243 120.618C306.553 120.123 308.087 119.747 309.67 119.883C312.908 120.187 315.6 121.689 317.263 123C318.951 124.327 319.73 125.446 319.834 125.366C319.875 125.342 319.722 125.03 319.36 124.535C319.007 124.031 318.42 123.352 317.593 122.608C315.954 121.146 313.181 119.491 309.726 119.164C307.983 119.02 306.352 119.443 304.986 120.003C303.612 120.562 302.495 121.298 301.627 121.969C299.884 123.336 299.137 124.511 299.201 124.551Z"
        fill="#455A64" />
    <path
        d="M332.396 112.849C332.372 112.969 333.529 113.233 335.281 113.928C337.032 114.615 339.371 115.822 341.588 117.637C343.806 119.459 345.437 121.505 346.457 123.088C347.478 124.67 347.968 125.741 348.072 125.701C348.145 125.677 347.831 124.518 346.891 122.824C345.967 121.137 344.336 118.963 342.046 117.077C339.748 115.199 337.29 114.024 335.45 113.448C333.61 112.857 332.412 112.769 332.396 112.849Z"
        fill="#455A64" />
    <path
        d="M285.091 151.238C285.107 151.206 285.493 151.406 286.24 151.622C286.979 151.838 288.112 151.99 289.486 151.83C290.86 151.678 292.451 151.191 294.09 150.343C295.737 149.52 297.424 148.385 299.297 147.33C301.169 146.275 303.105 145.468 304.993 145.236C306.873 144.964 308.633 145.388 309.862 146.115C311.108 146.826 311.863 147.778 312.201 148.489C312.377 148.841 312.474 149.136 312.514 149.344C312.562 149.544 312.578 149.656 312.562 149.656C312.522 149.672 312.434 149.232 312.056 148.569C311.686 147.897 310.931 147.026 309.718 146.379C308.521 145.715 306.857 145.348 305.05 145.628C303.242 145.875 301.354 146.667 299.514 147.706C297.666 148.753 295.962 149.88 294.275 150.695C292.604 151.534 290.948 152.014 289.534 152.126C288.112 152.254 286.955 152.046 286.208 151.774C285.83 151.646 285.549 151.518 285.372 151.414C285.179 151.31 285.083 151.254 285.091 151.238Z"
        fill="#455A64" />
    <path
        d="M285.835 156.362C285.851 156.274 287.321 156.858 289.772 156.594C290.985 156.474 292.408 156.146 293.942 155.627C295.477 155.115 297.124 154.412 298.916 153.796C300.7 153.181 302.475 152.725 304.138 152.685C305.802 152.637 307.296 152.965 308.437 153.485C309.586 154.004 310.374 154.683 310.815 155.219C311.032 155.491 311.193 155.707 311.273 155.874C311.362 156.034 311.41 156.114 311.394 156.122C311.354 156.146 311.161 155.818 310.687 155.323C310.221 154.835 309.433 154.22 308.317 153.756C307.2 153.293 305.753 153.005 304.146 153.069C302.54 153.133 300.804 153.58 299.044 154.196C297.277 154.811 295.622 155.507 294.055 156.002C292.496 156.506 291.034 156.81 289.788 156.897C288.543 156.985 287.53 156.866 286.847 156.706C286.51 156.626 286.253 156.554 286.076 156.482C285.915 156.418 285.827 156.378 285.835 156.362Z"
        fill="#455A64" />
    <path
        d="M362.468 144.684C362.516 144.7 362.419 145.107 362.082 145.691C361.744 146.266 361.134 146.994 360.266 147.561C359.398 148.121 358.482 148.392 357.815 148.472C357.148 148.552 356.731 148.472 356.739 148.424C356.723 148.297 358.402 148.305 360.033 147.218C361.688 146.146 362.355 144.62 362.468 144.684Z"
        fill="#455A64" />
    <path
        d="M365.531 150.079C365.571 150.087 365.45 150.703 364.968 151.566C364.494 152.429 363.586 153.516 362.293 154.347C360.999 155.17 359.625 155.53 358.637 155.594C357.64 155.666 357.03 155.522 357.038 155.474C357.046 155.402 357.648 155.442 358.596 155.298C359.545 155.162 360.83 154.771 362.068 153.988C363.297 153.204 364.189 152.205 364.719 151.406C365.241 150.623 365.458 150.055 365.531 150.079Z"
        fill="#455A64" />
    <path
        d="M410.015 271.912L424.711 301.261C426.35 304.538 427.121 308.183 426.944 311.835C426.39 323.233 416.941 332.185 405.467 332.185L363.324 329.755L361.484 310.628L393.552 302.939L381.13 279.577L410.015 271.912Z"
        fill="#FFBE9D" />
    <path
        d="M393.55 302.94C393.575 303.068 395.013 302.828 397.335 302.844C399.649 302.876 402.871 303.252 406.221 304.403C409.58 305.522 412.368 307.184 414.184 308.607C416.008 310.038 416.868 311.212 416.972 311.14C417.012 311.109 416.827 310.805 416.442 310.261C416.048 309.734 415.405 309.014 414.521 308.223C412.746 306.657 409.909 304.874 406.463 303.723C403.024 302.54 399.697 302.237 397.335 302.341C396.154 302.412 395.198 302.508 394.547 302.668C393.888 302.796 393.542 302.892 393.55 302.94Z"
        fill="#EB996E" />
    <path
        d="M229.98 266.869C229.98 266.869 222.066 288.873 212.127 313.371C211.926 313.867 211.773 314.378 211.653 314.898C210.15 321.516 215.22 332.65 222.034 332.65L279.097 332.09V313.515L246.195 306.337L258.89 278.403L229.98 266.869Z"
        fill="#FFBE9D" />
    <path
        d="M220.603 311.42C220.683 311.516 221.808 310.637 223.792 309.502C225.769 308.367 228.678 307.056 232.076 306.289C235.483 305.529 238.665 305.465 240.947 305.641C243.229 305.817 244.627 306.129 244.659 306.009C244.667 305.961 244.33 305.841 243.703 305.665C243.076 305.473 242.152 305.29 240.995 305.138C238.689 304.826 235.411 304.81 231.916 305.585C228.429 306.377 225.472 307.799 223.527 309.07C222.547 309.702 221.792 310.269 221.318 310.709C220.828 311.124 220.57 311.38 220.603 311.42Z"
        fill="#EB996E" />
    <path
        d="M369.718 309.518H361.466C361.466 309.518 342.85 302.828 339.025 303.468C335.578 304.043 322.955 312.388 320.481 314.034C320.207 314.218 319.998 314.482 319.878 314.794C319.372 316.152 320.039 317.663 321.38 318.214L321.646 318.318L321.533 318.694C321.397 319.158 321.316 319.677 321.34 320.189C321.437 321.955 323.815 322.491 324.723 320.972L324.249 321.811C324.056 322.155 323.968 322.547 323.984 322.938L324.024 323.705C324.072 324.553 324.635 325.288 325.446 325.552C326.217 325.8 327.069 325.584 327.616 324.984C329.214 323.234 332.678 319.725 335.016 319.333C337.097 318.99 340.56 318.942 342.657 318.95C343.725 318.958 344.674 319.605 345.059 320.596C343.669 320.692 333.995 325.712 330.572 327.51C329.512 328.069 328.716 329.069 328.58 330.252C328.451 331.315 328.998 332.434 331.119 331.938C335.666 330.883 343.854 327.134 343.854 327.134C343.854 327.134 348.072 325.935 350.812 327.854C354.661 330.555 356.421 331.546 359.723 330.451C363.025 329.364 365.46 327.798 365.46 327.798L371.968 327.15C371.984 327.166 378.139 311.868 369.718 309.518Z"
        fill="#FFBE9D" />
    <path
        d="M345.151 312.644C345.135 312.716 343.833 312.3 341.656 312.164C339.495 312.02 336.425 312.268 333.364 313.563C330.303 314.858 327.997 316.896 326.607 318.551C325.2 320.205 324.598 321.436 324.534 321.396C324.518 321.388 324.654 321.076 324.951 320.541C325.249 320.005 325.731 319.254 326.414 318.391C327.772 316.672 330.102 314.562 333.219 313.243C336.345 311.917 339.486 311.709 341.664 311.917C342.765 312.021 343.64 312.188 344.235 312.348C344.838 312.508 345.151 312.628 345.151 312.644Z"
        fill="#EB996E" />
    <path
        d="M343.17 308.152C343.146 308.24 341.828 307.593 339.53 307.521C337.256 307.425 334.058 308.104 331.061 309.903C328.072 311.709 325.83 314.003 324.24 315.641C323.484 316.441 322.858 317.104 322.367 317.616C321.926 318.079 321.668 318.335 321.652 318.319C321.636 318.303 321.853 318.023 322.263 317.528C322.673 317.032 323.283 316.329 324.055 315.474C325.605 313.787 327.831 311.445 330.876 309.599C333.93 307.761 337.216 307.105 339.538 307.265C340.703 307.337 341.627 307.545 342.238 307.761C342.551 307.849 342.776 307.968 342.937 308.024C343.097 308.096 343.178 308.136 343.17 308.152Z"
        fill="#EB996E" />
    <path
        d="M267.014 310.102H275.265C275.265 310.102 293.882 303.412 297.707 304.052C301.154 304.627 313.777 312.972 316.251 314.618C316.525 314.802 316.733 315.066 316.854 315.377C317.36 316.736 316.693 318.247 315.351 318.798L315.086 318.902L315.199 319.278C315.335 319.741 315.416 320.261 315.392 320.772C315.295 322.539 312.917 323.074 312.009 321.556L312.483 322.395C312.676 322.739 312.764 323.13 312.748 323.522L312.708 324.289C312.66 325.136 312.097 325.872 311.286 326.136C310.514 326.383 309.663 326.168 309.116 325.568C307.517 323.818 304.054 320.309 301.716 319.917C299.635 319.574 296.172 319.526 294.075 319.534C293.006 319.542 292.058 320.189 291.673 321.18C293.063 321.276 302.737 326.295 306.16 328.094C307.22 328.645 308.016 329.652 308.152 330.835C308.281 331.898 307.734 333.017 305.613 332.522C301.065 331.467 292.878 327.718 292.878 327.718C292.878 327.718 288.66 326.519 285.92 328.437C282.071 331.139 280.311 332.13 277.009 331.035C273.707 329.948 271.272 328.381 271.272 328.381L264.764 327.734C264.748 327.75 258.593 312.444 267.014 310.102Z"
        fill="#FFBE9D" />
    <path
        d="M291.591 313.227C291.607 313.299 292.909 312.883 295.086 312.747C297.248 312.604 300.317 312.851 303.378 314.146C306.439 315.441 308.746 317.479 310.136 319.134C311.542 320.788 312.144 322.019 312.209 321.979C312.225 321.971 312.088 321.659 311.791 321.124C311.493 320.588 311.011 319.837 310.328 318.974C308.97 317.255 306.64 315.145 303.523 313.826C300.397 312.5 297.256 312.292 295.078 312.5C293.977 312.604 293.102 312.771 292.507 312.931C291.904 313.091 291.583 313.203 291.591 313.227Z"
        fill="#EB996E" />
    <path
        d="M293.568 308.728C293.592 308.816 294.91 308.169 297.208 308.097C299.482 308.001 302.679 308.681 305.676 310.479C308.665 312.285 310.907 314.579 312.498 316.218C313.253 317.017 313.88 317.68 314.37 318.192C314.812 318.655 315.069 318.911 315.085 318.895C315.101 318.879 314.884 318.6 314.475 318.104C314.065 317.608 313.454 316.905 312.683 316.05C311.132 314.363 308.906 312.014 305.861 310.175C302.808 308.337 299.522 307.681 297.2 307.841C296.035 307.913 295.111 308.121 294.5 308.337C294.187 308.425 293.962 308.545 293.801 308.601C293.64 308.681 293.56 308.721 293.568 308.728Z"
        fill="#EB996E" />
    <path
        d="M278.169 332.713H364.761C367.22 332.713 369.245 330.786 369.357 328.341L371.952 269.05C372.065 266.453 369.976 264.279 367.356 264.279H275.743C273.131 264.279 271.042 266.445 271.147 269.034L273.573 328.325C273.678 330.778 275.703 332.713 278.169 332.713Z"
        fill="#E0E0E0" />
    <path
        d="M278.171 332.713C278.171 332.713 278.099 332.713 277.962 332.713C277.818 332.713 277.609 332.697 277.336 332.657C276.789 332.561 275.954 332.321 275.118 331.602C274.29 330.906 273.503 329.643 273.511 328.029C273.439 326.446 273.358 324.624 273.27 322.578C272.916 314.361 272.41 302.484 271.783 287.817C271.631 284.149 271.47 280.304 271.301 276.3C271.221 274.294 271.133 272.256 271.044 270.169C271.028 269.642 270.98 269.138 271.004 268.587C271.036 268.043 271.165 267.5 271.382 266.996C271.808 265.981 272.619 265.118 273.623 264.623C274.13 264.375 274.676 264.207 275.238 264.143C275.817 264.095 276.347 264.119 276.902 264.111C278.002 264.111 279.119 264.111 280.236 264.111C282.478 264.111 284.76 264.111 287.074 264.103C291.702 264.103 296.458 264.095 301.336 264.095C320.86 264.087 342.322 264.087 364.851 264.079H366.964C367.664 264.063 368.427 264.135 369.102 264.407C370.476 264.918 371.56 266.101 371.97 267.492C372.195 268.179 372.195 268.947 372.147 269.61L372.059 271.672C371.994 273.047 371.938 274.414 371.882 275.78C371.641 281.231 371.408 286.603 371.175 291.886C370.709 302.444 370.259 312.627 369.825 322.33C369.769 323.545 369.72 324.752 369.664 325.943C369.64 326.542 369.608 327.142 369.584 327.733C369.56 328.317 369.536 328.948 369.343 329.539C368.981 330.722 368.146 331.729 367.069 332.313C366.531 332.609 365.944 332.793 365.341 332.864C364.731 332.928 364.16 332.888 363.582 332.904C358.954 332.904 354.47 332.896 350.123 332.896C341.446 332.888 333.355 332.88 325.971 332.872C311.211 332.848 299.263 332.824 290.995 332.809C286.873 332.793 283.667 332.777 281.49 332.769C280.413 332.761 279.585 332.753 279.015 332.745C278.46 332.721 278.171 332.713 278.171 332.713C278.171 332.713 278.46 332.697 279.015 332.689C279.585 332.681 280.405 332.681 281.49 332.665C283.675 332.657 286.873 332.641 290.995 332.625C299.263 332.609 311.211 332.585 325.971 332.561C333.355 332.553 341.438 332.545 350.123 332.537C354.462 332.537 358.954 332.529 363.582 332.529C364.152 332.521 364.755 332.553 365.301 332.489C365.856 332.425 366.402 332.249 366.892 331.977C367.88 331.442 368.652 330.507 368.981 329.42C369.158 328.876 369.182 328.309 369.198 327.709C369.222 327.118 369.246 326.518 369.279 325.919C369.327 324.72 369.383 323.513 369.431 322.306C369.849 312.603 370.299 302.42 370.757 291.862C370.99 286.579 371.223 281.207 371.456 275.756C371.512 274.39 371.576 273.023 371.633 271.648L371.721 269.586C371.769 268.883 371.769 268.243 371.56 267.604C371.183 266.341 370.194 265.254 368.941 264.79C368.306 264.543 367.655 264.479 366.956 264.495H364.843C342.313 264.487 320.852 264.487 301.328 264.479C296.45 264.479 291.686 264.471 287.066 264.471C284.752 264.471 282.478 264.471 280.228 264.463C279.103 264.463 277.994 264.463 276.894 264.463C276.347 264.471 275.777 264.447 275.263 264.487C274.74 264.543 274.226 264.694 273.76 264.926C272.828 265.39 272.065 266.181 271.671 267.124C271.47 267.596 271.35 268.091 271.317 268.603C271.301 269.098 271.341 269.642 271.358 270.153C271.438 272.232 271.526 274.278 271.599 276.284C271.759 280.288 271.912 284.133 272.057 287.801C272.627 302.476 273.093 314.345 273.414 322.57C273.495 324.624 273.559 326.446 273.615 328.029C273.591 329.619 274.355 330.85 275.15 331.546C275.962 332.257 276.781 332.513 277.319 332.625C277.882 332.713 278.171 332.689 278.171 332.713Z"
        fill="#263238" />
    <path
        d="M316.814 299.543C316.814 302.149 318.935 304.259 321.555 304.259C324.174 304.259 326.295 302.149 326.295 299.543C326.295 296.938 324.174 294.828 321.555 294.828C318.935 294.82 316.814 296.938 316.814 299.543Z"
        fill="white" />
    <path
        d="M378.609 246.08C378.625 246.08 378.633 246.248 378.642 246.575C378.642 246.943 378.642 247.415 378.642 247.998C378.633 249.229 378.601 251.011 378.553 253.217C378.441 257.621 378.208 263.712 377.838 270.426C377.46 277.148 377.027 283.222 376.673 287.618C376.488 289.776 376.336 291.534 376.223 292.821C376.167 293.397 376.119 293.868 376.078 294.236C376.038 294.556 376.014 294.724 375.998 294.724C375.982 294.724 375.982 294.548 375.99 294.228C376.006 293.86 376.03 293.389 376.054 292.813C376.135 291.526 376.239 289.76 376.368 287.602C376.641 283.158 377.002 277.1 377.412 270.41C377.79 263.696 378.063 257.613 378.248 253.209C378.344 251.051 378.417 249.277 378.473 247.998C378.505 247.415 378.529 246.951 378.545 246.583C378.577 246.248 378.593 246.08 378.609 246.08Z"
        fill="#263238" />
    <path
        d="M329.391 67.1271C329.391 67.7915 329.261 68.3589 329.001 68.8293C328.744 69.2997 328.387 69.6598 327.929 69.9097C327.473 70.1566 326.947 70.2801 326.35 70.2801H323.824V64.0667H326.084C327.136 64.0667 327.951 64.3313 328.527 64.8605C329.103 65.3867 329.391 66.1423 329.391 67.1271ZM328.075 67.1271C328.075 66.4598 327.9 65.9512 327.552 65.6013C327.203 65.2485 326.705 65.0722 326.058 65.0722H325.131V69.2747H326.24C326.615 69.2747 326.938 69.188 327.21 69.0145C327.485 68.8381 327.698 68.5897 327.849 68.2692C327.999 67.9488 328.075 67.5681 328.075 67.1271Z"
        fill="black" />
    <path
        d="M331.865 68.6926L331.311 70.2801H330.003L332.282 64.0667H333.824L336.094 70.2801H334.8L334.246 68.6926H331.865ZM333.053 65.0236C333.024 65.1412 332.982 65.2824 332.929 65.447C332.876 65.6116 332.837 65.7277 332.814 65.7954L332.158 67.7136H333.953L333.279 65.7557C333.238 65.6351 333.199 65.5131 333.164 65.3897C333.128 65.2662 333.092 65.1442 333.053 65.0236Z"
        fill="black" />
    <path d="M339.091 65.0722V70.2801H337.783V65.0722H335.766V64.0667H341.112V65.0722H339.091Z"
        fill="black" />
    <path
        d="M342.628 68.6926L342.074 70.2801H340.767L343.045 64.0667H344.588L346.858 70.2801H345.563L345.009 68.6926H342.628ZM343.817 65.0236C343.787 65.1412 343.746 65.2824 343.692 65.447C343.639 65.6116 343.601 65.7277 343.577 65.7954L342.921 67.7136H344.716L344.043 65.7557C344.001 65.6351 343.963 65.5131 343.927 65.3897C343.892 65.2662 343.855 65.1442 343.817 65.0236Z"
        fill="black" />
    <path
        d="M353.246 68.5074C353.246 69.0718 353.033 69.5084 352.607 69.8171C352.182 70.1258 351.591 70.2801 350.834 70.2801H347.709V64.0667H350.568C351.331 64.0667 351.907 64.199 352.297 64.4636C352.69 64.7253 352.887 65.1133 352.887 65.6278C352.887 65.9806 352.788 66.279 352.589 66.523C352.394 66.764 352.096 66.9272 351.694 67.0125C352.199 67.0713 352.584 67.23 352.847 67.4887C353.113 67.7445 353.246 68.084 353.246 68.5074ZM351.57 65.8042C351.57 65.5249 351.48 65.3265 351.299 65.2089C351.122 65.0913 350.858 65.0325 350.506 65.0325H349.016V66.5715H350.515C350.884 66.5715 351.152 66.5083 351.317 66.3819C351.486 66.2525 351.57 66.0599 351.57 65.8042ZM351.933 68.406C351.933 67.8239 351.514 67.5328 350.674 67.5328H349.016V69.3144H350.723C351.143 69.3144 351.449 69.2394 351.641 69.0895C351.836 68.9366 351.933 68.7088 351.933 68.406Z"
        fill="black" />
    <path
        d="M355.75 68.6926L355.196 70.2801H353.888L356.167 64.0667H357.71L359.979 70.2801H358.685L358.131 68.6926H355.75ZM356.938 65.0236C356.909 65.1412 356.867 65.2824 356.814 65.447C356.761 65.6116 356.723 65.7277 356.699 65.7954L356.043 67.7136H357.838L357.164 65.7557C357.123 65.6351 357.085 65.5131 357.049 65.3897C357.014 65.2662 356.977 65.1442 356.938 65.0236Z"
        fill="black" />
    <path
        d="M365.924 68.4897C365.924 69.0983 365.696 69.5643 365.241 69.8876C364.789 70.2081 364.124 70.3683 363.246 70.3683C361.665 70.3683 360.745 69.7994 360.485 68.6617L361.748 68.4545C361.834 68.7837 362.001 69.0233 362.249 69.1733C362.497 69.3202 362.842 69.3937 363.282 69.3937C363.74 69.3937 364.083 69.3247 364.31 69.1865C364.538 69.0483 364.652 68.8411 364.652 68.5647C364.652 68.3883 364.6 68.2428 364.497 68.1281C364.393 68.0135 364.245 67.9179 364.053 67.8415C363.959 67.8033 363.82 67.7621 363.637 67.718C363.453 67.671 363.226 67.6195 362.954 67.5637C362.641 67.4902 362.395 67.4284 362.218 67.3785C362.041 67.3256 361.899 67.2756 361.792 67.2285C361.686 67.1786 361.583 67.1242 361.482 67.0654C361.261 66.9331 361.088 66.7567 360.963 66.5362C360.839 66.3157 360.777 66.0408 360.777 65.7116C360.777 65.1501 360.989 64.7208 361.411 64.4239C361.837 64.1241 362.454 63.9741 363.264 63.9741C364.039 63.9741 364.619 64.0947 365.006 64.3357C365.397 64.5768 365.648 64.9751 365.76 65.5308L364.492 65.7028C364.427 65.4352 364.294 65.2338 364.093 65.0986C363.895 64.9634 363.61 64.8958 363.238 64.8958C362.842 64.8958 362.545 64.9575 362.347 65.081C362.149 65.2045 362.05 65.3897 362.05 65.6366C362.05 65.7983 362.091 65.9306 362.174 66.0335C362.259 66.1364 362.385 66.2246 362.551 66.2981C362.707 66.3686 363.043 66.4583 363.557 66.5671C363.855 66.6317 364.112 66.6935 364.328 66.7523C364.544 66.8081 364.717 66.8625 364.847 66.9154C364.977 66.9713 365.092 67.0301 365.193 67.0918C365.296 67.1536 365.385 67.2197 365.459 67.2903C365.609 67.4343 365.725 67.6063 365.804 67.8062C365.884 68.0032 365.924 68.231 365.924 68.4897Z"
        fill="black" />
    <path
        d="M371.98 69.2747V70.2801H366.886V64.0667H371.798V65.0722H368.194V66.6332H371.527V67.6386H368.194V69.2747H371.98Z"
        fill="black" />
    <path
        d="M329.28 88.6409C329.28 89.3062 329.149 89.8789 328.888 90.3592C328.631 90.8394 328.269 91.2093 327.804 91.4689C327.343 91.7284 326.806 91.8582 326.194 91.8582H323.824V85.5535H325.92C326.993 85.5535 327.821 85.8219 328.403 86.3589C328.987 86.8929 329.28 87.6535 329.28 88.6409ZM328.416 88.6409C328.416 87.8594 328.2 87.2643 327.768 86.8556C327.34 86.4439 326.717 86.2381 325.902 86.2381H324.683V91.1735H326.095C326.566 91.1735 326.974 91.0706 327.319 90.8648C327.666 90.659 327.936 90.3666 328.128 89.9878C328.32 89.6089 328.416 89.16 328.416 88.6409Z"
        fill="black" />
    <path
        d="M334.462 89.4329C334.462 90.2801 334.274 90.911 333.899 91.3257C333.525 91.7403 332.98 91.9477 332.267 91.9477C331.556 91.9477 331.019 91.7329 330.656 91.3033C330.293 90.8708 330.112 90.2473 330.112 89.4329C330.112 88.5977 330.293 87.9712 330.656 87.5536C331.022 87.136 331.568 86.9272 332.294 86.9272C333.037 86.9272 333.585 87.1315 333.935 87.5402C334.286 87.9459 334.462 88.5768 334.462 89.4329ZM333.612 89.4329C333.612 88.7647 333.511 88.28 333.31 87.9787C333.112 87.6744 332.778 87.5223 332.307 87.5223C331.833 87.5223 331.49 87.6774 331.277 87.9876C331.067 88.2949 330.962 88.7767 330.962 89.4329C330.962 90.0713 331.066 90.5516 331.273 90.8737C331.482 91.1929 331.811 91.3525 332.258 91.3525C332.743 91.3525 333.09 91.1974 333.297 90.8872C333.507 90.5769 333.612 90.0922 333.612 89.4329Z"
        fill="black" />
    <path
        d="M337.341 91.9477C336.66 91.9477 336.14 91.7344 335.78 91.3078C335.423 90.8782 335.244 90.2533 335.244 89.4329C335.244 88.6186 335.424 87.9981 335.784 87.5715C336.144 87.1419 336.66 86.9272 337.332 86.9272C337.829 86.9272 338.242 87.0554 338.569 87.312C338.898 87.5685 339.105 87.922 339.189 88.3725L338.357 88.4351C338.315 88.1666 338.209 87.9533 338.038 87.7952C337.867 87.6371 337.624 87.5581 337.309 87.5581C336.88 87.5581 336.57 87.6998 336.378 87.9832C336.186 88.2666 336.09 88.7438 336.09 89.415C336.09 90.0594 336.192 90.5367 336.396 90.8469C336.6 91.1571 336.907 91.3123 337.318 91.3123C337.606 91.3123 337.846 91.2347 338.038 91.0796C338.233 90.9245 338.353 90.6858 338.398 90.3636L339.216 90.4173C339.174 90.7276 339.069 90.9975 338.901 91.2272C338.737 91.4569 338.521 91.6344 338.254 91.7597C337.99 91.885 337.685 91.9477 337.341 91.9477Z"
        fill="black" />
    <path
        d="M343.157 91.0304C342.971 91.3645 342.755 91.6016 342.509 91.7418C342.266 91.879 341.963 91.9477 341.6 91.9477C341.067 91.9477 340.675 91.8164 340.426 91.5539C340.18 91.2884 340.057 90.8514 340.057 90.2428V87.0167H340.872V90.0862C340.872 90.5695 340.947 90.8976 341.097 91.0706C341.249 91.2407 341.509 91.3257 341.875 91.3257C342.265 91.3257 342.572 91.1929 342.797 90.9274C343.022 90.662 343.134 90.2935 343.134 89.8222V87.0167H343.944V90.8245C343.944 91.1049 343.945 91.3316 343.948 91.5047C343.954 91.6777 343.962 91.7955 343.971 91.8582H343.206C343.203 91.8432 343.197 91.7731 343.188 91.6479C343.182 91.5226 343.176 91.3167 343.17 91.0304H343.157Z"
        fill="black" />
    <path
        d="M346.031 89.0526V91.8582H345.226V88.0503C345.226 87.7669 345.223 87.5402 345.217 87.3701C345.214 87.1971 345.208 87.0793 345.199 87.0167H345.964C345.97 87.0823 345.976 87.1628 345.982 87.2583C345.988 87.3537 345.992 87.4537 345.995 87.5581C345.998 87.6595 346 87.755 346 87.8445H346.013C346.187 87.5014 346.386 87.2628 346.611 87.1285C346.836 86.9943 347.111 86.9272 347.434 86.9272C347.803 86.9272 348.094 87.0002 348.307 87.1464C348.523 87.2926 348.673 87.5253 348.757 87.8445H348.77C348.938 87.5193 349.141 87.2851 349.378 87.1419C349.618 86.9988 349.907 86.9272 350.246 86.9272C350.738 86.9272 351.094 87.0599 351.316 87.3254C351.541 87.5909 351.654 88.0264 351.654 88.632V91.8582H350.853V88.7886C350.853 88.3203 350.789 87.9966 350.66 87.8176C350.531 87.6386 350.298 87.5491 349.962 87.5491C349.609 87.5491 349.333 87.6804 349.135 87.9429C348.94 88.2024 348.842 88.5723 348.842 89.0526V91.8582H348.042V88.7886C348.042 88.3203 347.977 87.9966 347.848 87.8176C347.719 87.6386 347.487 87.5491 347.151 87.5491C346.806 87.5491 346.533 87.6804 346.332 87.9429C346.132 88.2054 346.031 88.5753 346.031 89.0526Z"
        fill="black" />
    <path
        d="M353.503 89.6074C353.503 90.1623 353.618 90.5904 353.849 90.8916C354.08 91.1929 354.417 91.3436 354.861 91.3436C355.212 91.3436 355.492 91.2735 355.702 91.1333C355.915 90.9931 356.059 90.8156 356.134 90.6008L356.845 90.8022C356.554 91.5658 355.893 91.9477 354.861 91.9477C354.141 91.9477 353.592 91.7344 353.215 91.3078C352.84 90.8812 352.652 90.2473 352.652 89.4061C352.652 88.6066 352.84 87.9936 353.215 87.567C353.592 87.1405 354.131 86.9272 354.829 86.9272C355.546 86.9272 356.083 87.1419 356.44 87.5715C356.797 88.0011 356.975 88.6439 356.975 89.5001V89.6074H353.503ZM356.138 88.9899C356.093 88.4798 355.963 88.1085 355.747 87.8758C355.531 87.6401 355.221 87.5223 354.816 87.5223C354.423 87.5223 354.111 87.6535 353.88 87.916C353.652 88.1756 353.53 88.5335 353.512 88.9899H356.138Z"
        fill="black" />
    <path
        d="M358.837 89.0526V91.8582H358.028V88.0503C358.028 87.7669 358.025 87.5402 358.019 87.3701C358.016 87.1971 358.01 87.0793 358.001 87.0167H358.765C358.771 87.0733 358.776 87.1449 358.779 87.2314C358.785 87.3179 358.789 87.4134 358.792 87.5178C358.795 87.6222 358.798 87.7311 358.801 87.8445H358.815C359.001 87.5104 359.215 87.2747 359.458 87.1375C359.704 86.9973 360.008 86.9272 360.371 86.9272C360.905 86.9272 361.295 87.0629 361.541 87.3344C361.79 87.6058 361.914 88.0384 361.914 88.632V91.8582H361.1V88.7886C361.1 88.3262 361.025 88.004 360.875 87.8221C360.725 87.6401 360.466 87.5491 360.097 87.5491C359.707 87.5491 359.4 87.6819 359.175 87.9474C358.95 88.2129 358.837 88.5813 358.837 89.0526Z"
        fill="black" />
    <path
        d="M365.009 91.8224C364.745 91.894 364.472 91.9298 364.19 91.9298C363.866 91.9298 363.623 91.8388 363.461 91.6568C363.3 91.4719 363.219 91.1974 363.219 90.8335V87.6028H362.656V87.0167H363.25L363.488 85.9338H364.028V87.0167H364.928V87.6028H364.028V90.659C364.028 90.8916 364.066 91.0557 364.141 91.1512C364.219 91.2436 364.352 91.2899 364.541 91.2899C364.643 91.2899 364.799 91.269 365.009 91.2272V91.8224Z"
        fill="black" />
    <path
        d="M369.354 90.5203C369.354 90.9767 369.18 91.3287 368.832 91.5763C368.487 91.8239 368.003 91.9477 367.379 91.9477C366.774 91.9477 366.306 91.8492 365.976 91.6523C365.649 91.4525 365.436 91.1422 365.337 90.7216L366.052 90.5829C366.121 90.8424 366.264 91.0333 366.48 91.1556C366.696 91.275 366.996 91.3346 367.379 91.3346C367.79 91.3346 368.09 91.272 368.279 91.1467C368.471 91.0214 368.567 90.8335 368.567 90.5829C368.567 90.392 368.501 90.2369 368.369 90.1175C368.237 89.9982 368.024 89.8998 367.73 89.8222C367.382 89.7297 367.105 89.6537 366.898 89.594C366.694 89.5344 366.537 89.4836 366.426 89.4419C366.315 89.3971 366.226 89.3554 366.16 89.3166C365.962 89.2032 365.808 89.0645 365.697 88.9005C365.586 88.7364 365.531 88.535 365.531 88.2964C365.531 87.8549 365.688 87.5193 366.003 87.2896C366.321 87.0569 366.783 86.9406 367.388 86.9406C367.925 86.9406 368.351 87.0346 368.666 87.2225C368.984 87.4104 369.185 87.7117 369.269 88.1264L368.54 88.2158C368.495 88.0011 368.373 87.837 368.176 87.7236C367.981 87.6073 367.718 87.5491 367.388 87.5491C367.023 87.5491 366.753 87.6043 366.579 87.7147C366.405 87.8251 366.318 87.9921 366.318 88.2158C366.318 88.3799 366.367 88.5156 366.466 88.623C366.565 88.7274 366.754 88.8139 367.033 88.8826C367.408 88.9721 367.765 89.0705 368.104 89.1779C368.442 89.2823 368.685 89.3867 368.832 89.4911C369.003 89.6134 369.132 89.7581 369.219 89.9251C369.309 90.0892 369.354 90.2876 369.354 90.5203Z"
        fill="black" />
    <path
        d="M-124.569 180.591L-122.849 178.472C-108.342 160.586 -82.1088 149.801 -54.4529 151.107C-50.8973 151.271 -47.3547 151.639 -43.8638 152.19C-18.7162 156.214 3.1602 170.443 12.2366 188.668C17.5764 199.386 19.0633 211.719 29.187 220.222C42.362 231.288 64.7297 231.637 84.3823 231.182C104.048 230.727 126.429 231.114 139.526 242.229C147.736 249.184 150.348 259.09 149.688 268.405C147.93 293.081 124.955 315.146 95.7214 326.116C66.4881 337.085 32.0831 338.062 0.0830383 333.245C-44.73 326.483 -87.3452 307.93 -112.971 279.258C-138.584 250.587 -145.062 211.526 -124.569 180.591Z"
        fill="#EBEBEB" />
    <path
        d="M53.2085 243.115C53.2986 227.936 63.2693 218.236 63.2693 218.236C66.3312 230.726 53.2085 243.115 53.2085 243.115Z"
        fill="#455A64" />
    <path
        d="M67.8396 236.076C81.8629 230.099 94.7927 235.333 94.7927 235.333C84.4875 243.089 67.8396 236.076 67.8396 236.076Z"
        fill="#455A64" />
    <path
        d="M69.4987 227.987C67.0672 216.264 73.1653 207.152 73.1653 207.152C77.5782 216.303 69.4987 227.987 69.4987 227.987Z"
        fill="#455A64" />
    <path
        d="M12.9826 198.808C34.3521 204.465 45.8151 222.945 45.8151 222.945C27.5463 222.958 12.9826 198.808 12.9826 198.808Z"
        fill="#455A64" />
    <path
        d="M47.1007 207.523C45.9942 184.615 68.4958 158.686 68.4958 158.686C65.0994 187.123 47.1007 207.523 47.1007 207.523Z"
        fill="#455A64" />
    <path
        d="M46.9968 142.28C47.9488 160.862 38.9044 175.093 38.9044 175.093C35.7138 160.35 46.9968 142.28 46.9968 142.28Z"
        fill="#455A64" />
    <path
        d="M38.3133 188.812C21.4725 187.021 12.3123 170.358 12.3123 170.358C32.6783 176.027 38.3133 188.812 38.3133 188.812Z"
        fill="#455A64" />
    <path
        d="M1.99408 258.856C14.8595 250.703 28.4711 253.788 28.4711 253.788C19.5811 263.092 1.99408 258.856 1.99408 258.856Z"
        fill="#455A64" />
    <path
        d="M45.6318 266.368C42.4412 275.122 34.3231 279.051 34.3231 279.051C35.0307 271.321 45.6318 266.368 45.6318 266.368Z"
        fill="#455A64" />
    <path
        d="M43.4593 263.911C33.8874 269.773 23.325 267.482 23.325 267.482C29.8091 260.763 43.4593 263.911 43.4593 263.911Z"
        fill="#455A64" />
    <path
        d="M52.0717 294.74C52.0588 294.74 52.0459 294.625 52.0331 294.395C52.0331 294.126 52.0202 293.793 52.0073 293.397C52.0073 292.449 52.0074 291.17 51.9945 289.557C52.0074 287.893 52.0074 285.846 51.9559 283.491C51.9173 281.123 51.9173 278.436 51.7886 275.454C51.6471 269.503 51.2226 262.413 50.605 254.568C49.9232 246.722 48.9582 238.109 47.646 229.125C44.9828 211.131 41.3548 195.057 38.4215 183.501C36.9548 177.729 35.7069 173.058 34.8063 169.858C34.3817 168.297 34.0472 167.055 33.8028 166.147C33.6999 165.763 33.6227 165.443 33.5583 165.174C33.5069 164.956 33.494 164.841 33.494 164.841C33.494 164.841 33.5455 164.944 33.6227 165.161C33.7127 165.417 33.8157 165.724 33.9443 166.108C34.2274 167.004 34.6005 168.233 35.0893 169.781C36.08 172.968 37.4051 177.614 38.949 183.373C42.0109 194.904 45.729 210.991 48.3922 229.023C49.7173 238.033 50.6565 246.659 51.2997 254.516C51.8787 262.387 52.2389 269.477 52.3161 275.454C52.4062 278.436 52.3805 281.136 52.3805 283.504C52.3933 285.871 52.3418 287.919 52.2904 289.583C52.2389 291.195 52.1875 292.475 52.1617 293.422C52.136 293.819 52.1231 294.152 52.1103 294.42C52.0974 294.625 52.0845 294.74 52.0717 294.74Z"
        fill="#263238" />
    <path
        d="M21.1624 246.249C21.2782 246.083 28.084 250.511 36.3564 256.155C44.6289 261.798 51.2417 266.508 51.1259 266.687C51.0102 266.854 44.2044 262.426 35.9319 256.782C27.6594 251.138 21.0466 246.428 21.1624 246.249Z"
        fill="#263238" />
    <path
        d="M51.1386 248.694C51.1 248.656 51.4731 248.259 52.1807 247.555C53.0169 246.749 54.0204 245.789 55.2169 244.65C57.9444 242.103 61.4566 238.827 65.342 235.205C69.2273 231.583 72.7396 228.307 75.4671 225.76C76.6636 224.647 77.6928 223.687 78.529 222.893C79.2624 222.228 79.6869 221.87 79.7127 221.908C79.7513 221.946 79.4039 222.369 78.7349 223.098C78.0659 223.841 77.0753 224.864 75.8273 226.131C73.3314 228.653 69.8063 232.057 65.8438 235.743C61.8812 239.428 58.2403 242.692 55.5643 245.034C54.2263 246.199 53.1327 247.133 52.3737 247.76C51.6146 248.4 51.1772 248.733 51.1386 248.694Z"
        fill="#263238" />
    <path
        d="M-0.453003 235.397C-0.453003 235.397 16.941 235.064 24.3129 248.694C24.3129 248.694 9.46623 249.18 -0.453003 235.397Z"
        fill="#455A64" />
    <path
        d="M23.315 228.448C23.315 228.448 37.4798 238.494 35.2284 253.801C35.2284 253.801 23.0191 245.392 23.315 228.448Z"
        fill="#455A64" />
    <path
        d="M97.9446 203.684C97.9446 203.684 92.3481 223.06 74.5939 226.541C74.5939 226.541 79.1225 209.942 97.9446 203.684Z"
        fill="#455A64" />
    <path
        d="M15.5956 131.645C15.5956 131.645 37.8014 146.055 35.3312 169.475C35.3312 169.488 16.2132 157.445 15.5956 131.645Z"
        fill="#455A64" />
    <path
        d="M89.4848 259.777C89.5105 259.815 88.9959 260.225 88.0439 260.929C87.079 261.62 85.7152 262.644 84.0556 263.962C80.7363 266.573 76.3492 270.425 72.0393 275.199C67.7294 279.985 64.3458 284.733 62.0943 288.291C60.9622 290.07 60.0873 291.529 59.4955 292.553C58.9037 293.576 58.5435 294.127 58.5049 294.101C58.4663 294.076 58.7236 293.474 59.2382 292.412C59.7528 291.337 60.5634 289.839 61.644 288.009C63.7926 284.362 67.1376 279.511 71.4861 274.687C75.8346 269.875 80.3246 266.048 83.7468 263.527C85.4579 262.26 86.8731 261.3 87.8895 260.673C88.8801 260.059 89.4462 259.739 89.4848 259.777Z"
        fill="#263238" />
    <path
        d="M70.1558 274.161C67.3254 259.252 75.2505 247.823 75.2505 247.823C77.6434 264.256 70.1558 274.161 70.1558 274.161Z"
        fill="#455A64" />
    <path
        d="M85.0957 266.06C94.6676 260.468 104.471 263.078 104.471 263.078C93.7542 268.735 85.0957 266.06 85.0957 266.06Z"
        fill="#455A64" />
    <path d="M19.6962 296.545L28.033 351H76.4198L87.6514 297.338L19.6962 296.545Z" fill="#27AE60" />
    <path
        d="M14.1525 285.77V295.957C14.1525 298.171 15.9536 299.962 18.1793 299.962H88.2572C90.483 299.962 92.2841 298.171 92.2841 295.957V285.77H14.1525Z"
        fill="#27AE60" />
    <path
        d="M86.239 300.154C86.239 300.333 70.9163 300.487 52.017 300.487C33.1048 300.487 17.795 300.333 17.795 300.154C17.795 299.975 33.1177 299.822 52.017 299.822C70.9163 299.822 86.239 299.975 86.239 300.154Z"
        fill="#263238" />
</svg>