<svg width="376" height="286" viewBox="0 0 376 286" fill="none" xmlns="http://www.w3.org/2000/svg">
    <g opacity="0.1">
        <path
            d="M166.565 82.2568C152.67 84.5013 143.176 97.8844 145.362 112.148C145.362 112.148 163.166 110.107 166.299 102.108C169.432 94.1086 166.565 82.2568 166.565 82.2568Z"
            fill="white" />
    </g>
    <path
        d="M150.94 123.658C150.934 123.665 150.886 123.602 150.79 123.476C150.688 123.336 150.559 123.154 150.395 122.937C150.225 122.7 150.021 122.413 149.803 122.056C149.585 121.7 149.326 121.308 149.088 120.847C148.965 120.616 148.836 120.378 148.699 120.127C148.563 119.875 148.447 119.602 148.318 119.322C148.046 118.77 147.807 118.155 147.548 117.511C147.072 116.211 146.629 114.743 146.322 113.169C146.023 111.589 145.887 110.065 145.846 108.673C145.846 107.974 145.832 107.317 145.887 106.702C145.907 106.394 145.914 106.093 145.941 105.807C145.975 105.52 146.002 105.247 146.036 104.988C146.084 104.464 146.179 103.996 146.248 103.59C146.309 103.177 146.391 102.828 146.465 102.541C146.534 102.275 146.588 102.059 146.629 101.884C146.67 101.737 146.69 101.66 146.697 101.66C146.704 101.66 146.69 101.744 146.663 101.898C146.629 102.073 146.588 102.289 146.534 102.562C146.472 102.849 146.404 103.198 146.35 103.611C146.295 104.024 146.2 104.485 146.166 105.009C146.139 105.268 146.111 105.541 146.084 105.828C146.057 106.114 146.057 106.408 146.036 106.715C145.996 107.331 146.009 107.988 146.016 108.68C146.064 110.058 146.207 111.575 146.506 113.141C146.813 114.708 147.249 116.162 147.712 117.455C147.964 118.099 148.189 118.707 148.461 119.259C148.591 119.539 148.706 119.812 148.836 120.064C148.965 120.315 149.095 120.553 149.21 120.784C149.442 121.252 149.694 121.644 149.898 122.007C150.103 122.364 150.293 122.665 150.457 122.902C150.607 123.133 150.729 123.322 150.825 123.462C150.899 123.588 150.94 123.658 150.94 123.658Z"
        fill="white" />
    <path
        d="M164.655 106.576C164.648 106.597 164.362 106.464 164.015 106.101C163.668 105.744 163.286 105.115 163.191 104.331C163.102 103.548 163.327 102.842 163.579 102.409C163.831 101.968 164.083 101.772 164.09 101.786C164.117 101.807 163.906 102.038 163.695 102.472C163.484 102.905 163.293 103.569 163.375 104.304C163.463 105.038 163.804 105.639 164.11 106.003C164.417 106.38 164.676 106.548 164.655 106.576Z"
        fill="white" />
    <path
        d="M167.766 98.3658C167.711 98.3728 167.616 98.0162 167.548 97.5757C167.48 97.1282 167.466 96.7646 167.521 96.7506C167.575 96.7436 167.671 97.1002 167.739 97.5407C167.807 97.9882 167.814 98.3518 167.766 98.3658Z"
        fill="white" />
    <path
        d="M168.691 87.3186C168.691 87.3326 168.473 87.3605 168.071 87.3955C167.873 87.4095 167.628 87.4305 167.349 87.4724C167.07 87.5144 166.743 87.5423 166.395 87.6123C166.041 87.6752 165.66 87.7451 165.251 87.843C164.842 87.9269 164.413 88.0598 163.957 88.1926C163.058 88.4793 162.084 88.8499 161.096 89.3253C160.116 89.8078 159.223 90.3532 158.44 90.8916C158.059 91.1713 157.684 91.43 157.364 91.7027C157.03 91.9614 156.73 92.2271 156.465 92.4648C156.192 92.6956 155.961 92.9333 155.756 93.1361C155.545 93.3319 155.375 93.5137 155.239 93.6605C154.96 93.9542 154.803 94.115 154.789 94.108C154.782 94.101 154.919 93.9262 155.184 93.6116C155.314 93.4507 155.477 93.2619 155.682 93.0592C155.886 92.8494 156.104 92.6047 156.376 92.3669C156.642 92.1152 156.935 91.8425 157.269 91.5768C157.589 91.2971 157.963 91.0314 158.345 90.7448C159.128 90.1924 160.027 89.64 161.021 89.1505C162.016 88.6681 163.003 88.3045 163.909 88.0248C164.366 87.8989 164.802 87.7731 165.217 87.6892C165.632 87.5913 166.021 87.5284 166.375 87.4794C166.729 87.4165 167.056 87.3955 167.335 87.3675C167.621 87.3326 167.867 87.3256 168.064 87.3186C168.466 87.3046 168.691 87.3046 168.691 87.3186Z"
        fill="white" />
    <path
        d="M177.325 132.083C177.332 132.097 177.175 132.167 176.896 132.279C176.616 132.398 176.201 132.544 175.683 132.698C174.648 133.013 173.17 133.335 171.515 133.425C169.86 133.516 168.361 133.363 167.292 133.16C166.761 133.062 166.332 132.957 166.039 132.873C165.746 132.789 165.589 132.74 165.589 132.726C165.589 132.712 165.76 132.74 166.053 132.803C166.345 132.866 166.774 132.943 167.306 133.027C168.368 133.195 169.853 133.321 171.495 133.237C173.136 133.146 174.594 132.852 175.636 132.572C176.153 132.433 176.576 132.307 176.862 132.209C177.155 132.111 177.318 132.069 177.325 132.083Z"
        fill="white" />
    <g opacity="0.1">
        <path
            d="M23.1448 0.321045C9.25031 2.56553 -0.244274 15.9486 1.94207 30.2126C1.94207 30.2126 19.7461 28.1709 22.8792 20.1718C26.0123 12.1798 23.1448 0.321045 23.1448 0.321045Z"
            fill="white" />
    </g>
    <path
        d="M7.54246 41.7281C7.53565 41.7351 7.48797 41.6722 7.39261 41.5463C7.29045 41.4065 7.16104 41.2247 6.99758 41.0079C6.8273 40.7702 6.62297 40.4835 6.40502 40.1269C6.18706 39.7703 5.92824 39.3787 5.68985 38.9173C5.56726 38.6865 5.43785 38.4488 5.30163 38.1971C5.16541 37.9453 5.04962 37.6726 4.92021 37.393C4.64777 36.8406 4.40938 36.2253 4.15056 35.582C3.67379 34.2814 3.23107 32.8131 2.92458 31.2398C2.62489 29.6596 2.48867 28.1353 2.4478 26.7439C2.4478 26.0447 2.43418 25.3874 2.48867 24.7721C2.5091 24.4644 2.51591 24.1638 2.54316 23.8771C2.57721 23.5904 2.60446 23.3177 2.63851 23.059C2.68619 22.5346 2.78154 22.0661 2.84965 21.6606C2.91095 21.248 2.99269 20.8984 3.06761 20.6117C3.13572 20.346 3.19021 20.1293 3.23107 19.9545C3.27194 19.8076 3.29237 19.7307 3.29918 19.7307C3.30599 19.7307 3.29237 19.8146 3.26513 19.9684C3.23107 20.1432 3.19021 20.36 3.13572 20.6327C3.07442 20.9194 3.00631 21.269 2.95182 21.6815C2.89733 22.0941 2.80198 22.5556 2.76792 23.08C2.74068 23.3387 2.71343 23.6114 2.68619 23.8981C2.65895 24.1847 2.65895 24.4784 2.63851 24.7861C2.59765 25.4014 2.61127 26.0586 2.61808 26.7509C2.66576 28.1283 2.80879 29.6456 3.10847 31.2119C3.41497 32.7781 3.85088 34.2325 4.31403 35.526C4.56604 36.1693 4.7908 36.7776 5.06324 37.33C5.19265 37.6097 5.30844 37.8824 5.43785 38.1341C5.56726 38.3858 5.69667 38.6236 5.81245 38.8543C6.04403 39.3228 6.29604 39.7144 6.50037 40.078C6.7047 40.4346 6.89541 40.7352 7.05887 40.973C7.20872 41.2037 7.33132 41.3925 7.42667 41.5323C7.5084 41.6512 7.54927 41.7211 7.54246 41.7281Z"
        fill="white" />
    <path
        d="M21.2506 24.6407C21.2438 24.6617 20.9578 24.5288 20.6104 24.1652C20.263 23.8086 19.8816 23.1793 19.7863 22.3962C19.6977 21.6131 19.9225 20.9069 20.1745 20.4733C20.4265 20.0328 20.6785 19.8371 20.6853 19.851C20.7126 19.872 20.5014 20.1028 20.2903 20.5363C20.0791 20.9698 19.8884 21.634 19.9702 22.3682C20.0587 23.1024 20.3993 23.7037 20.7058 24.0673C21.0123 24.4449 21.2643 24.6127 21.2506 24.6407Z"
        fill="white" />
    <path
        d="M24.3693 16.4312C24.3148 16.4382 24.2193 16.0816 24.1511 15.6411C24.0829 15.1936 24.0693 14.83 24.1238 14.816C24.1784 14.809 24.2739 15.1656 24.3421 15.6061C24.4034 16.0536 24.4171 16.4242 24.3693 16.4312Z"
        fill="white" />
    <path
        d="M25.2928 5.38402C25.2928 5.39801 25.0748 5.42598 24.673 5.46094C24.4755 5.47492 24.2303 5.4959 23.951 5.53785C23.6718 5.57981 23.3448 5.60777 22.9975 5.6777C22.6433 5.74063 22.2619 5.81055 21.8532 5.90844C21.4446 5.99234 21.0155 6.12519 20.5591 6.25805C19.6601 6.54473 18.6861 6.91531 17.6985 7.39078C16.7177 7.87324 15.8255 8.41863 15.0422 8.95703C14.6608 9.23672 14.2862 9.49543 13.966 9.76812C13.6323 10.0268 13.3326 10.2925 13.067 10.5303C12.7946 10.761 12.563 10.9987 12.3586 11.2015C12.1475 11.3973 11.9772 11.5791 11.841 11.7259C11.5618 12.0196 11.4051 12.1804 11.3915 12.1734C11.3847 12.1664 11.5209 11.9916 11.7865 11.677C11.9159 11.5162 12.0794 11.3274 12.2837 11.1246C12.4881 10.9148 12.706 10.6701 12.9785 10.4324C13.2441 10.1807 13.537 9.90796 13.8707 9.64226C14.1908 9.36257 14.5654 9.09687 14.9468 8.81019C15.7301 8.25781 16.6292 7.70543 17.6236 7.21597C18.618 6.73351 19.6056 6.36992 20.5115 6.09024C20.9678 5.96438 21.4037 5.83851 21.8192 5.75461C22.2346 5.65672 22.6229 5.59379 22.9771 5.54484C23.3312 5.48191 23.6582 5.46094 23.9374 5.43297C24.2235 5.39801 24.4687 5.39102 24.6662 5.38402C25.068 5.37004 25.286 5.37004 25.2928 5.38402Z"
        fill="white" />
    <path
        d="M33.9202 50.1481C33.927 50.1621 33.7703 50.232 33.4911 50.3439C33.2118 50.4628 32.7963 50.6096 32.2787 50.7634C31.2434 51.0781 29.7654 51.3997 28.1104 51.4906C26.4553 51.5815 24.9568 51.4277 23.8875 51.2249C23.3563 51.127 22.9272 51.0222 22.6343 50.9382C22.3414 50.8543 22.1848 50.8054 22.1848 50.7914C22.1848 50.7774 22.355 50.8054 22.6479 50.8683C22.9408 50.9313 23.3699 51.0082 23.9011 51.0921C24.9637 51.2599 26.4485 51.3857 28.0899 51.3018C29.7314 51.2109 31.1889 50.9173 32.231 50.6376C32.7487 50.4977 33.171 50.3719 33.457 50.274C33.7567 50.1761 33.9202 50.1341 33.9202 50.1481Z"
        fill="white" />
    <path
        d="M1.94104 258.641C1.94104 258.767 10.6387 258.865 21.3661 258.865C32.0935 258.865 40.7912 258.767 40.7912 258.641C40.7912 258.515 32.0935 258.417 21.3661 258.417C10.6387 258.417 1.94104 258.515 1.94104 258.641Z"
        fill="#F5F5F5" />
    <g opacity="0.1">
        <path
            d="M23.2551 110.924C16.2874 117.098 15.5177 127.901 21.5319 135.047C21.5319 135.047 30.7404 127.601 29.7869 122.049C28.8333 116.497 23.2551 110.924 23.2551 110.924Z"
            fill="white" />
    </g>
    <path
        d="M28.5015 139.466C28.5015 139.473 28.4539 139.452 28.3585 139.417C28.2563 139.375 28.1201 139.319 27.9567 139.256C27.7796 139.186 27.5684 139.095 27.33 138.976C27.0917 138.857 26.8124 138.731 26.5263 138.557C26.3765 138.473 26.2267 138.382 26.07 138.291C25.9133 138.2 25.7567 138.088 25.5864 137.983C25.2459 137.773 24.9121 137.515 24.5511 137.249C23.8496 136.697 23.1072 136.039 22.4057 135.27C21.7109 134.501 21.1184 133.697 20.628 132.942C20.3964 132.557 20.1648 132.194 19.9877 131.83C19.8924 131.648 19.797 131.481 19.7221 131.313C19.6472 131.145 19.5723 130.977 19.4974 130.823C19.3475 130.516 19.2453 130.222 19.1432 129.97C19.041 129.718 18.9661 129.495 18.9116 129.313C18.8571 129.138 18.8162 128.998 18.7822 128.893C18.7549 128.796 18.7413 128.747 18.7481 128.747C18.7549 128.747 18.7754 128.796 18.8094 128.886C18.8503 128.991 18.898 129.131 18.9593 129.299C19.0206 129.481 19.1023 129.698 19.2113 129.949C19.3203 130.201 19.4224 130.488 19.5791 130.795C19.654 130.949 19.7289 131.11 19.8107 131.278C19.8924 131.446 19.9877 131.613 20.0831 131.788C20.267 132.145 20.4986 132.501 20.7301 132.886C21.2205 133.634 21.8131 134.424 22.501 135.193C23.1957 135.956 23.9245 136.606 24.6261 137.165C24.9802 137.431 25.314 137.69 25.6477 137.906C25.8112 138.011 25.9678 138.123 26.1245 138.221C26.2811 138.312 26.431 138.403 26.5808 138.487C26.8669 138.668 27.1393 138.794 27.3777 138.92C27.6093 139.046 27.8204 139.144 27.9907 139.221C28.1542 139.298 28.2836 139.354 28.3789 139.403C28.4607 139.438 28.5015 139.459 28.5015 139.466Z"
        fill="white" />
    <path
        d="M30.3746 125.111C30.3746 125.125 30.1703 125.153 29.857 125.076C29.5437 124.999 29.1214 124.79 28.8013 124.384C28.488 123.978 28.379 123.51 28.3722 123.181C28.3654 122.846 28.4335 122.65 28.4471 122.657C28.4675 122.664 28.4267 122.86 28.4607 123.174C28.488 123.489 28.6038 123.929 28.9034 124.307C29.1963 124.685 29.5914 124.894 29.8842 124.992C30.1771 125.083 30.3746 125.09 30.3746 125.111Z"
        fill="white" />
    <path
        d="M29.3479 119.441C29.3206 119.462 29.1501 119.301 28.9591 119.077C28.7682 118.854 28.6386 118.651 28.6659 118.63C28.6931 118.609 28.8636 118.77 29.0546 118.993C29.2387 119.217 29.3751 119.42 29.3479 119.441Z"
        fill="white" />
    <path
        d="M26.1432 112.979C26.1501 112.986 26.0343 113.077 25.8231 113.238C25.7141 113.315 25.5915 113.413 25.4485 113.539C25.3055 113.658 25.1352 113.791 24.9649 113.958C24.7878 114.119 24.5971 114.294 24.4064 114.497C24.2089 114.693 24.0114 114.916 23.8071 115.147C23.4052 115.622 22.9829 116.175 22.6015 116.79C22.2201 117.405 21.9068 118.028 21.6548 118.601C21.539 118.895 21.4164 119.168 21.3278 119.433C21.2257 119.699 21.1508 119.944 21.0826 120.174C21.0077 120.405 20.96 120.615 20.9124 120.797C20.8647 120.978 20.8306 121.139 20.8034 121.272C20.7489 121.538 20.7148 121.678 20.708 121.678C20.7012 121.678 20.7148 121.531 20.7557 121.265C20.7761 121.132 20.8034 120.972 20.8443 120.783C20.8851 120.594 20.926 120.384 20.9941 120.153C21.0554 119.923 21.1303 119.664 21.2257 119.398C21.3074 119.126 21.43 118.846 21.5458 118.552C21.7978 117.965 22.1111 117.343 22.4925 116.72C22.8808 116.098 23.3098 115.546 23.7185 115.07C23.9297 114.839 24.1272 114.616 24.3315 114.42C24.529 114.217 24.7265 114.049 24.9036 113.888C25.0807 113.728 25.251 113.602 25.4008 113.483C25.5507 113.364 25.6801 113.273 25.7891 113.196C26.0206 113.049 26.1432 112.972 26.1432 112.979Z"
        fill="white" />
    <path
        d="M405.04 137.408C427.664 136.112 444.978 116.233 443.712 93.0078C442.446 69.7824 423.079 52.0053 400.455 53.3017C377.831 54.598 360.517 74.4769 361.783 97.7023C363.049 120.928 382.416 138.705 405.04 137.408Z"
        fill="#27AE60" />
    <g opacity="0.1">
        <path
            d="M396.325 53.7546C373.944 57.3976 358.68 78.9824 362.229 101.959C362.229 101.959 390.903 98.6305 395.936 85.7369C400.97 72.8503 396.325 53.7546 396.325 53.7546Z"
            fill="white" />
    </g>
    <path
        d="M432.82 89.7855C435.517 107.252 423.918 123.656 406.904 126.432C389.89 129.2 373.911 117.293 371.207 99.8263C368.51 82.3598 380.109 65.9562 397.123 63.1803C414.144 60.4044 430.122 72.3191 432.82 89.7855Z"
        fill="#27AE60" />
    <g opacity="0.2">
        <path
            d="M432.82 89.7855C435.517 107.252 423.918 123.656 406.904 126.432C389.89 129.2 373.911 117.293 371.207 99.8263C368.51 82.3598 380.109 65.9562 397.123 63.1803C414.144 60.4044 430.122 72.3191 432.82 89.7855Z"
            fill="black" />
    </g>
    <path
        d="M433.897 90.9604C436.56 108.189 425.11 124.376 408.328 127.11C391.539 129.844 375.778 118.09 373.115 100.861C370.452 83.6326 381.901 67.4457 398.684 64.7118C415.466 61.9778 431.234 73.7317 433.897 90.9604Z"
        fill="#27AE60" />
    <g opacity="0.2">
        <path
            d="M433.897 90.9604C436.56 108.189 425.11 124.376 408.328 127.11C391.539 129.844 375.778 118.09 373.115 100.861C370.452 83.6326 381.901 67.4457 398.684 64.7118C415.466 61.9778 431.234 73.7317 433.897 90.9604Z"
            fill="white" />
    </g>
    <path
        d="M371.269 120.495C371.263 120.502 371.181 120.404 371.031 120.202C370.867 119.978 370.656 119.684 370.398 119.328C370.118 118.95 369.791 118.482 369.444 117.908C369.097 117.342 368.668 116.706 368.286 115.957C368.082 115.587 367.877 115.195 367.653 114.797C367.435 114.391 367.244 113.951 367.033 113.503C366.59 112.615 366.209 111.622 365.793 110.587C365.017 108.49 364.308 106.133 363.804 103.595C363.321 101.05 363.096 98.5958 363.028 96.3513C363.028 95.2325 363.008 94.1627 363.082 93.1698C363.117 92.6734 363.123 92.1909 363.171 91.7294C363.225 91.268 363.273 90.8275 363.321 90.4079C363.396 89.5619 363.552 88.8137 363.661 88.1495C363.764 87.4852 363.893 86.9188 364.009 86.4643C364.118 86.0308 364.199 85.6812 364.268 85.4085C364.329 85.1708 364.37 85.0449 364.377 85.0449C364.383 85.0449 364.37 85.1778 364.322 85.4225C364.268 85.7022 364.199 86.0518 364.118 86.4923C364.022 86.9538 363.907 87.5201 363.825 88.1844C363.73 88.8487 363.593 89.5968 363.532 90.4359C363.491 90.8554 363.45 91.2959 363.403 91.7504C363.362 92.2049 363.355 92.6874 363.328 93.1838C363.26 94.1697 363.294 95.2325 363.3 96.3443C363.382 98.5678 363.621 101.008 364.097 103.532C364.601 106.049 365.296 108.399 366.052 110.482C366.461 111.51 366.829 112.503 367.258 113.391C367.469 113.839 367.653 114.279 367.857 114.685C368.068 115.09 368.272 115.475 368.463 115.852C368.831 116.608 369.246 117.244 369.58 117.817C369.907 118.398 370.22 118.873 370.486 119.265C370.724 119.635 370.922 119.936 371.072 120.167C371.208 120.376 371.276 120.488 371.269 120.495Z"
        fill="white" />
    <path
        d="M443.276 88.7579C443.276 88.7579 443.221 88.5341 443.139 88.0866C443.044 87.6461 442.955 86.9749 442.744 86.1218C442.37 84.4018 441.695 81.8916 440.422 78.808C439.761 77.2837 438.985 75.5986 437.949 73.8646C436.928 72.1235 435.722 70.2846 434.224 68.4736C431.261 64.8446 427.249 61.1947 422.12 58.3559C419.566 56.9295 416.726 55.7408 413.668 54.8808C410.61 54.0138 407.327 53.4614 403.908 53.3845C400.495 53.3006 396.94 53.6222 393.398 54.4962C391.621 54.8948 389.863 55.4891 388.106 56.1534C386.362 56.8456 384.639 57.6707 382.95 58.6146C376.234 62.4254 370.227 68.4736 366.413 76.13C365.439 78.0319 364.642 80.0387 363.961 82.1083C363.28 84.171 362.762 86.3176 362.422 88.5062C361.7 92.8763 361.707 97.4282 362.381 101.924C363.096 106.413 364.465 110.748 366.467 114.678C366.951 115.671 367.51 116.615 368.054 117.559C368.64 118.482 369.219 119.398 369.866 120.272C371.14 122.02 372.502 123.677 374 125.18C379.94 131.249 387.473 135.095 395.013 136.584C396.899 136.948 398.786 137.186 400.659 137.284C402.525 137.354 404.378 137.361 406.196 137.179C409.827 136.885 413.3 136.06 416.522 134.892C419.75 133.739 422.706 132.158 425.349 130.368C427.998 128.571 430.341 126.544 432.337 124.376C436.362 120.048 439.073 115.307 440.796 110.909C441.675 108.714 442.267 106.581 442.71 104.602C443.173 102.623 443.398 100.777 443.568 99.1133C443.848 95.7781 443.732 93.177 443.568 91.4219C443.514 90.5409 443.391 89.8836 443.35 89.4291C443.296 88.9886 443.276 88.7579 443.276 88.7579C443.276 88.7579 443.439 89.6669 443.623 91.4219C443.807 93.177 443.943 95.785 443.677 99.1273C443.521 100.791 443.296 102.651 442.846 104.637C442.411 106.623 441.818 108.77 440.946 110.979C439.23 115.398 436.519 120.174 432.487 124.53C430.478 126.711 428.128 128.76 425.471 130.571C422.815 132.382 419.846 133.969 416.597 135.137C413.355 136.319 409.861 137.151 406.21 137.451C404.385 137.64 402.518 137.633 400.638 137.563C398.759 137.465 396.858 137.221 394.951 136.864C387.364 135.375 379.769 131.508 373.782 125.397C372.27 123.887 370.895 122.215 369.614 120.453C368.967 119.579 368.381 118.649 367.789 117.72C367.237 116.769 366.679 115.818 366.188 114.818C364.165 110.86 362.796 106.497 362.068 101.973C361.393 97.4422 361.386 92.8553 362.115 88.4502C362.463 86.2477 362.98 84.0871 363.668 82.0035C364.356 79.9198 365.16 77.899 366.141 75.9832C369.989 68.2708 376.044 62.1876 382.807 58.3559C384.51 57.405 386.24 56.5799 387.997 55.8807C389.768 55.2164 391.539 54.6221 393.33 54.2165C396.899 53.3425 400.468 53.0209 403.908 53.1118C407.347 53.1887 410.651 53.755 413.722 54.6361C416.801 55.5101 419.648 56.7127 422.216 58.1531C427.365 61.0129 431.383 64.6978 434.346 68.3547C435.845 70.1797 437.05 72.0256 438.065 73.7807C439.094 75.5287 439.863 77.2208 440.524 78.7521C441.777 81.8496 442.445 84.3738 442.792 86.1009C443.16 87.8349 443.276 88.7579 443.276 88.7579Z"
        fill="#263238" />
    <path
        d="M386.902 293.658C386.902 293.658 402.254 296.721 403.861 272.255C405.469 247.79 408.69 208.71 408.69 208.71H377.986L351.314 275.912L368.519 289.113L386.902 293.658Z"
        fill="#E0E0E0" />
    <path
        d="M257.863 82.6895C252.114 82.9552 246.795 92.7442 246.093 98.1002L223.079 273.898C221.676 284.631 230.741 294.042 242.272 293.811L359.627 293.818C365.723 293.818 370.824 289.469 371.41 283.778L390.719 94.8489C391.407 88.1084 385.556 82.3678 378.35 82.7035L257.863 82.6895Z"
        fill="white" />
    <path
        d="M372.267 272.255L361.955 293.658H387.184C387.184 293.658 370.135 290.966 372.267 272.255Z"
        fill="white" />
    <path d="M311.413 132.145H247.539L250.345 97.0164H313.81L311.413 132.145Z" fill="#27AE60" />
    <path
        d="M374.435 105.128C374.428 105.219 362.999 105.288 348.9 105.288C334.801 105.288 323.379 105.219 323.386 105.128C323.393 105.037 334.822 104.967 348.92 104.967C363.012 104.974 374.435 105.044 374.435 105.128Z"
        fill="#263238" />
    <path
        d="M374.074 111.434C374.067 111.525 362.624 111.595 348.512 111.595C334.399 111.595 322.964 111.525 322.97 111.434C322.977 111.343 334.42 111.273 348.532 111.273C362.638 111.273 374.074 111.343 374.074 111.434Z"
        fill="#263238" />
    <path
        d="M373.711 117.734C373.704 117.825 362.248 117.895 348.122 117.895C333.989 117.895 322.54 117.825 322.547 117.734C322.554 117.65 334.01 117.573 348.143 117.573C362.262 117.573 373.711 117.643 373.711 117.734Z"
        fill="#263238" />
    <path
        d="M352.966 124.034C352.959 124.125 346.053 124.194 337.539 124.194C329.018 124.194 322.119 124.125 322.126 124.034C322.132 123.95 329.039 123.873 337.559 123.873C346.073 123.873 352.973 123.943 352.966 124.034Z"
        fill="#263238" />
    <path
        d="M374.433 139.25C374.426 139.341 346.045 139.411 311.043 139.411C276.034 139.411 247.666 139.341 247.673 139.25C247.68 139.159 276.054 139.089 311.063 139.089C346.065 139.089 374.44 139.166 374.433 139.25Z"
        fill="#263238" />
    <path
        d="M374.212 143.129C374.205 143.22 346.117 143.29 311.476 143.29C276.821 143.29 248.746 143.22 248.753 143.129C248.76 143.038 276.848 142.969 311.496 142.969C346.13 142.975 374.219 143.045 374.212 143.129Z"
        fill="#263238" />
    <path d="M373.432 156.883H246.27L246.87 149.395H373.855L373.432 156.883Z" fill="#E0E0E0" />
    <path d="M368.133 225.574H239.405L240.004 218.079H368.563L368.133 225.574Z" fill="#E0E0E0" />
    <path d="M294.737 188.67H243.736L244.335 181.175H295.268L294.737 188.67Z" fill="#E0E0E0" />
    <path d="M370.246 188.67H306.481L306.992 181.175H370.675L370.246 188.67Z" fill="#E0E0E0" />
    <path
        d="M319.305 163.505C319.298 163.596 302.959 163.666 282.805 163.666C262.651 163.666 246.318 163.596 246.325 163.505C246.332 163.421 262.672 163.344 282.825 163.344C302.979 163.351 319.312 163.421 319.305 163.505Z"
        fill="#263238" />
    <path
        d="M372.011 169.406C372.004 169.497 343.725 169.567 308.859 169.567C273.98 169.567 245.714 169.497 245.721 169.406C245.728 169.322 274 169.245 308.88 169.245C343.745 169.245 372.018 169.315 372.011 169.406Z"
        fill="#263238" />
    <path
        d="M371.691 174.993C371.684 175.083 343.377 175.153 308.478 175.153C273.564 175.153 245.271 175.083 245.278 174.993C245.285 174.902 273.585 174.832 308.498 174.832C343.398 174.832 371.698 174.902 371.691 174.993Z"
        fill="#263238" />
    <path
        d="M293.977 193.236C293.97 193.327 282.548 193.397 268.463 193.397C254.377 193.397 242.962 193.327 242.969 193.236C242.976 193.152 254.398 193.075 268.483 193.075C282.568 193.082 293.984 193.152 293.977 193.236Z"
        fill="#263238" />
    <path
        d="M293.563 198.997C293.556 199.088 282.311 199.158 268.451 199.158C254.584 199.158 243.352 199.088 243.359 198.997C243.366 198.913 254.611 198.836 268.478 198.836C282.332 198.836 293.57 198.906 293.563 198.997Z"
        fill="#263238" />
    <path
        d="M292.943 204.842C292.936 204.933 281.582 205.003 267.585 205.003C253.582 205.003 242.241 204.933 242.248 204.842C242.255 204.751 253.609 204.681 267.606 204.681C281.602 204.688 292.943 204.758 292.943 204.842Z"
        fill="#263238" />
    <path
        d="M292.548 210.521C292.541 210.612 281.173 210.681 267.163 210.681C253.146 210.681 241.799 210.612 241.805 210.521C241.812 210.43 253.173 210.36 267.19 210.36C281.194 210.367 292.548 210.437 292.548 210.521Z"
        fill="#263238" />
    <path
        d="M368.923 194.585C368.916 194.676 357.085 194.746 342.496 194.746C327.9 194.746 316.076 194.676 316.083 194.585C316.089 194.501 327.92 194.424 342.516 194.424C357.106 194.431 368.929 194.501 368.923 194.585Z"
        fill="#263238" />
    <path
        d="M311.902 196.424C311.881 196.403 311.888 196.019 311.909 195.368C311.929 194.718 311.956 193.823 312.018 192.753L312.147 192.893C311.064 192.9 309.831 192.907 308.51 192.914C308.476 192.949 308.83 192.613 308.68 192.753V192.76V192.767V192.781V192.809L308.673 192.872L308.666 192.998L308.646 193.25C308.632 193.417 308.626 193.578 308.612 193.739C308.592 194.061 308.564 194.375 308.544 194.69C308.496 195.298 308.455 195.879 308.408 196.424L308.278 196.284C309.341 196.298 310.226 196.326 310.866 196.354C311.5 196.382 311.881 196.403 311.902 196.424C311.922 196.445 311.575 196.466 310.941 196.494C310.308 196.522 309.375 196.55 308.258 196.564H308.122L308.128 196.424C308.162 195.886 308.197 195.305 308.231 194.69C308.251 194.382 308.271 194.068 308.292 193.739C308.305 193.578 308.312 193.411 308.326 193.25L308.34 192.998L308.346 192.872L308.353 192.809V192.781V192.767V192.76V192.753C308.203 192.893 308.557 192.557 308.523 192.592C309.845 192.599 311.078 192.606 312.161 192.613H312.297L312.283 192.746C312.195 193.879 312.099 194.816 312.031 195.452C311.963 196.095 311.922 196.445 311.902 196.424Z"
        fill="#263238" />
    <path
        d="M368.519 201.64C368.512 201.731 356.668 201.801 342.058 201.801C327.449 201.801 315.611 201.731 315.611 201.64C315.618 201.549 327.462 201.479 342.072 201.479C356.682 201.479 368.519 201.549 368.519 201.64Z"
        fill="#263238" />
    <path
        d="M311.426 203.472C311.405 203.451 311.412 203.067 311.433 202.417C311.453 201.766 311.48 200.871 311.542 199.801L311.671 199.941C310.588 199.948 309.349 199.955 308.027 199.962C307.993 199.997 308.347 199.662 308.197 199.801V199.808V199.815V199.829V199.864L308.191 199.927L308.184 200.053L308.163 200.305C308.15 200.473 308.143 200.634 308.129 200.794C308.109 201.116 308.082 201.431 308.061 201.745C308.014 202.354 307.973 202.934 307.925 203.479L307.796 203.34C308.858 203.354 309.75 203.381 310.391 203.409C311.024 203.43 311.412 203.451 311.426 203.472C311.446 203.493 311.099 203.514 310.466 203.542C309.832 203.57 308.899 203.598 307.775 203.612H307.639L307.646 203.472C307.68 202.934 307.714 202.354 307.748 201.738C307.768 201.431 307.789 201.116 307.809 200.787C307.823 200.627 307.83 200.459 307.843 200.298L307.857 200.046L307.864 199.92L307.871 199.857V199.822V199.808V199.801V199.794C307.721 199.934 308.075 199.599 308.041 199.634C309.362 199.641 310.602 199.648 311.678 199.655H311.814L311.801 199.788C311.712 200.92 311.617 201.857 311.549 202.493C311.494 203.144 311.446 203.493 311.426 203.472Z"
        fill="#263238" />
    <path
        d="M368.111 208.688C368.104 208.779 356.239 208.849 341.616 208.849C326.986 208.849 315.134 208.779 315.141 208.688C315.148 208.597 327.006 208.527 341.636 208.527C356.266 208.527 368.117 208.604 368.111 208.688Z"
        fill="#263238" />
    <path
        d="M310.953 210.521C310.933 210.5 310.939 210.115 310.96 209.465C310.98 208.814 311.007 207.919 311.069 206.85L311.198 206.99C310.115 206.997 308.876 207.003 307.547 207.01C307.513 207.045 307.868 206.71 307.718 206.85V206.857V206.864V206.878V206.906L307.711 206.969L307.704 207.094L307.684 207.346C307.67 207.514 307.663 207.675 307.65 207.836C307.629 208.157 307.602 208.472 307.582 208.787C307.534 209.395 307.493 209.975 307.445 210.521L307.316 210.381C308.378 210.395 309.271 210.423 309.911 210.451C310.551 210.486 310.933 210.507 310.953 210.521C310.973 210.542 310.626 210.563 309.986 210.59C309.352 210.618 308.419 210.646 307.295 210.66H307.159L307.166 210.521C307.2 209.982 307.234 209.402 307.268 208.787C307.289 208.479 307.309 208.164 307.33 207.836C307.343 207.675 307.35 207.507 307.364 207.346L307.377 207.094L307.384 206.969L307.391 206.906V206.878V206.864V206.857V206.85C307.241 206.99 307.595 206.654 307.561 206.689C308.882 206.696 310.122 206.703 311.205 206.71H311.341L311.328 206.843C311.239 207.975 311.144 208.912 311.076 209.549C311.014 210.199 310.967 210.542 310.953 210.521Z"
        fill="#263238" />
    <path
        d="M366.261 240.999C366.254 241.09 337.879 241.16 302.884 241.16C267.876 241.16 239.514 241.09 239.521 240.999C239.528 240.916 267.903 240.839 302.905 240.839C337.9 240.846 366.268 240.916 366.261 240.999Z"
        fill="#263238" />
    <path
        d="M365.774 249.622C365.767 249.712 337.345 249.782 302.302 249.782C267.239 249.782 238.837 249.712 238.844 249.622C238.85 249.538 267.266 249.461 302.322 249.461C337.365 249.468 365.774 249.538 365.774 249.622Z"
        fill="#263238" />
    <path
        d="M365.268 258.34C365.262 258.431 336.798 258.501 301.694 258.501C266.583 258.501 238.127 258.431 238.14 258.34C238.147 258.249 266.611 258.179 301.721 258.179C336.819 258.179 365.275 258.249 365.268 258.34Z"
        fill="#263238" />
    <path
        d="M251.912 267.283C251.823 267.283 252.361 259.431 253.104 249.747C253.853 240.062 254.527 232.21 254.616 232.21C254.704 232.21 254.166 240.062 253.424 249.747C252.675 259.431 252 267.283 251.912 267.283Z"
        fill="#263238" />
    <path
        d="M295.16 266.227C295.071 266.227 295.521 258.732 296.168 249.481C296.815 240.23 297.407 232.735 297.489 232.735C297.578 232.735 297.128 240.23 296.481 249.481C295.841 258.732 295.248 266.227 295.16 266.227Z"
        fill="#263238" />
    <path
        d="M340.551 267.814C340.462 267.814 340.871 260.081 341.457 250.544C342.042 240.999 342.594 233.266 342.683 233.266C342.771 233.266 342.363 240.999 341.777 250.544C341.191 260.074 340.639 267.814 340.551 267.814Z"
        fill="#263238" />
    <path
        d="M336.804 274.766C336.797 274.856 314.471 274.926 286.934 274.926C259.39 274.926 237.077 274.856 237.084 274.766C237.091 274.675 259.417 274.605 286.961 274.605C314.485 274.605 336.804 274.675 336.804 274.766Z"
        fill="#263238" />
    <path
        d="M336.489 279.778C336.482 279.868 314.135 279.938 286.577 279.938C259.006 279.938 236.673 279.868 236.68 279.778C236.687 279.687 259.034 279.617 286.598 279.617C314.155 279.617 336.496 279.694 336.489 279.778Z"
        fill="#263238" />
    <path
        d="M281.735 284.798C281.728 284.889 271.545 284.959 258.993 284.959C246.44 284.959 236.264 284.889 236.278 284.798C236.285 284.707 246.467 284.637 259.02 284.637C271.573 284.637 281.742 284.707 281.735 284.798Z"
        fill="#263238" />
    <path
        d="M263.946 109.533H258.382L258.593 106.827H272.835L272.63 109.533H267.066L265.955 124.028H262.829L263.946 109.533Z"
        fill="white" />
    <path
        d="M284.256 120.05H275.844L273.89 124.028H270.668L279.522 106.827H282.594L288.922 124.028H285.652L284.256 120.05ZM283.411 117.546L280.796 110.03L277.091 117.546H283.411Z"
        fill="white" />
    <path
        d="M300.83 124.035L296.723 117.498L291.737 124.035H288.175L295.054 115.26L289.762 106.834H293.283L297.138 112.953L301.817 106.834H305.196L298.732 115.141L304.426 124.035H300.83Z"
        fill="white" />
    <path
        d="M330.366 82.5151L316.356 234.469C315.532 242.965 322.036 250.341 330.353 250.341C337.388 250.341 343.341 245.006 344.288 237.853L358.925 82.5361L330.366 82.5151Z"
        fill="#E0E0E0" />
    <path
        d="M198.476 22.5214C194.335 22.5214 190.854 25.7168 190.391 29.9401L170.156 226.609C168.753 238.356 176.279 250.767 187.81 250.515L315.919 250.522L339.716 31.7091C340.248 26.8705 336.706 22.5144 331.965 22.5144H198.476V22.5214Z"
        fill="white" />
    <path
        d="M317.67 231.344L315.926 250.055L330.182 250.517L333.335 250.055C333.342 250.055 315.538 250.055 317.67 231.344Z"
        fill="white" />
    <path
        d="M357.212 105.288C357.212 105.288 357.444 81.5145 377.571 82.5494L358.506 82.5144L357.212 105.288Z"
        fill="#E0E0E0" />
    <path
        d="M376.837 82.549C376.837 82.549 376.551 82.5629 376.006 82.5629C375.734 82.5699 375.386 82.556 374.985 82.5769C374.576 82.6049 374.106 82.6399 373.568 82.6818C372.505 82.8286 371.177 83.0034 369.692 83.5209C368.208 84.0173 366.546 84.8074 364.918 86.066C363.311 87.3386 361.771 89.0936 360.525 91.2892C359.285 93.4847 358.325 96.1068 357.753 99.0155C357.61 99.7427 357.494 100.491 357.405 101.253C357.337 102.015 357.262 102.798 357.187 103.588C357.031 105.169 356.874 106.805 356.711 108.483C356.384 111.846 356.036 115.391 355.675 119.125C352.747 148.961 348.694 190.166 344.226 235.678C344.063 237.097 344.008 238.524 343.702 239.936C343.409 241.341 342.884 242.698 342.162 243.922C340.705 246.383 338.443 248.229 335.951 249.389C333.451 250.564 330.686 251.012 328.009 250.928C325.339 250.928 322.689 250.928 320.06 250.928C309.551 250.921 299.416 250.921 289.765 250.914C270.456 250.9 253.067 250.886 238.464 250.872C223.868 250.844 212.051 250.83 203.878 250.816C199.798 250.802 196.631 250.788 194.479 250.781C193.409 250.774 192.592 250.767 192.033 250.76C191.482 250.753 191.202 250.739 191.202 250.739C191.202 250.739 191.482 250.725 192.033 250.718C192.592 250.711 193.409 250.711 194.479 250.697C196.638 250.69 199.805 250.676 203.878 250.662C212.051 250.648 223.861 250.627 238.464 250.606C253.067 250.592 270.456 250.585 289.765 250.564C299.416 250.564 309.551 250.557 320.06 250.55C322.689 250.55 325.339 250.55 328.009 250.55C330.665 250.627 333.356 250.193 335.801 249.04C338.232 247.9 340.439 246.096 341.856 243.712C342.564 242.523 343.068 241.209 343.354 239.838C343.647 238.475 343.708 237.034 343.872 235.615C348.381 190.11 352.467 148.912 355.423 119.083C355.798 115.356 356.152 111.804 356.486 108.448C356.656 106.77 356.82 105.141 356.976 103.553C357.051 102.763 357.126 101.98 357.201 101.211C357.29 100.442 357.412 99.6938 357.555 98.9596C358.141 96.0299 359.115 93.4008 360.375 91.1913C361.642 88.9818 363.202 87.2197 364.829 85.9402C366.478 84.6746 368.153 83.8915 369.652 83.402C371.15 82.8916 372.485 82.7308 373.554 82.5909C374.092 82.5559 374.562 82.528 374.971 82.507C375.38 82.493 375.72 82.514 375.999 82.514C376.558 82.535 376.837 82.549 376.837 82.549Z"
        fill="#263238" />
    <path
        d="M190.305 29.3527L189.134 41.0226L338.616 41.3512L339.712 31.2545C340.318 26.374 336.613 22.0598 331.825 22.0598H198.376C194.276 22.0598 190.823 25.1783 190.305 29.3527Z"
        fill="#E0E0E0" />
    <path
        d="M203.108 35.3728C205.327 35.3728 207.126 33.5258 207.126 31.2475C207.126 28.9691 205.327 27.1221 203.108 27.1221C200.889 27.1221 199.089 28.9691 199.089 31.2475C199.089 33.5258 200.889 35.3728 203.108 35.3728Z"
        fill="white" />
    <path
        d="M214.905 35.3741C217.124 35.3741 218.923 33.5271 218.923 31.2487C218.923 28.9703 217.124 27.1233 214.905 27.1233C212.685 27.1233 210.886 28.9703 210.886 31.2487C210.886 33.5271 212.685 35.3741 214.905 35.3741Z"
        fill="white" />
    <path
        d="M226.703 35.3741C228.923 35.3741 230.722 33.5271 230.722 31.2487C230.722 28.9703 228.923 27.1233 226.703 27.1233C224.484 27.1233 222.685 28.9703 222.685 31.2487C222.685 33.5271 224.484 35.3741 226.703 35.3741Z"
        fill="white" />
    <path d="M258.176 82.4662H194.302L197.108 47.3445H260.58L258.176 82.4662Z" fill="#27AE60" />
    <path
        d="M321.198 55.4555C321.191 55.5464 309.762 55.6163 295.663 55.6163C281.564 55.6163 270.142 55.5464 270.149 55.4555C270.156 55.3646 281.585 55.2947 295.684 55.2947C309.783 55.2947 321.205 55.3646 321.198 55.4555Z"
        fill="#263238" />
    <path
        d="M320.841 61.7563C320.834 61.8472 309.391 61.9171 295.279 61.9171C281.166 61.9171 269.731 61.8472 269.738 61.7563C269.744 61.6654 281.187 61.5955 295.299 61.5955C309.412 61.5955 320.848 61.6654 320.841 61.7563Z"
        fill="#263238" />
    <path
        d="M320.476 68.0556C320.47 68.1465 309.013 68.2164 294.887 68.2164C280.754 68.2164 269.305 68.1465 269.312 68.0556C269.319 67.9717 280.775 67.8948 294.908 67.8948C309.034 67.8948 320.483 67.9647 320.476 68.0556Z"
        fill="#263238" />
    <path
        d="M299.739 74.3552C299.732 74.4461 292.826 74.516 284.312 74.516C275.791 74.516 268.892 74.4461 268.899 74.3552C268.905 74.2643 275.812 74.1943 284.332 74.1943C292.839 74.1943 299.739 74.2643 299.739 74.3552Z"
        fill="#263238" />
    <path
        d="M321.206 89.5707C321.199 89.6616 292.818 89.7316 257.816 89.7316C222.807 89.7316 194.439 89.6616 194.446 89.5707C194.453 89.4868 222.827 89.4099 257.836 89.4099C292.838 89.4169 321.213 89.4868 321.206 89.5707Z"
        fill="#263238" />
    <path
        d="M320.98 93.4509C320.974 93.5418 292.885 93.6117 258.244 93.6117C223.589 93.6117 195.514 93.5418 195.521 93.4509C195.528 93.367 223.617 93.29 258.264 93.29C292.905 93.297 320.987 93.367 320.98 93.4509Z"
        fill="#263238" />
    <path d="M320.196 107.212H193.041L193.634 99.7161H320.625L320.196 107.212Z" fill="#E0E0E0" />
    <path d="M314.906 175.896H186.178L186.777 168.407H315.335L314.906 175.896Z" fill="#E0E0E0" />
    <path d="M241.511 138.991H190.51L191.103 131.495H242.043L241.511 138.991Z" fill="#E0E0E0" />
    <path d="M317.018 138.991H253.247L253.764 131.495H317.441L317.018 138.991Z" fill="#E0E0E0" />
    <path
        d="M266.072 113.833C266.065 113.924 249.725 113.994 229.572 113.994C209.418 113.994 193.085 113.924 193.092 113.833C193.098 113.749 209.438 113.672 229.592 113.672C249.746 113.672 266.079 113.742 266.072 113.833Z"
        fill="#263238" />
    <path
        d="M318.772 119.728C318.765 119.819 290.486 119.889 255.62 119.889C220.741 119.889 192.475 119.819 192.482 119.728C192.489 119.645 220.761 119.568 255.64 119.568C290.513 119.568 318.779 119.638 318.772 119.728Z"
        fill="#263238" />
    <path
        d="M318.461 125.315C318.455 125.406 290.148 125.476 255.248 125.476C220.335 125.476 192.042 125.406 192.049 125.315C192.055 125.231 220.355 125.155 255.269 125.155C290.168 125.155 318.461 125.224 318.461 125.315Z"
        fill="#263238" />
    <path
        d="M240.742 143.564C240.735 143.655 229.313 143.725 215.228 143.725C201.142 143.725 189.727 143.655 189.734 143.564C189.741 143.48 201.163 143.404 215.248 143.404C229.34 143.404 240.749 143.473 240.742 143.564Z"
        fill="#263238" />
    <path
        d="M240.34 149.319C240.333 149.41 229.088 149.48 215.228 149.48C201.36 149.48 190.129 149.41 190.136 149.319C190.143 149.235 201.388 149.158 215.255 149.158C229.109 149.158 240.34 149.228 240.34 149.319Z"
        fill="#263238" />
    <path
        d="M239.714 155.165C239.707 155.256 228.353 155.326 214.356 155.326C200.353 155.326 189.013 155.256 189.019 155.165C189.026 155.074 200.38 155.004 214.377 155.004C228.38 155.011 239.721 155.081 239.714 155.165Z"
        fill="#263238" />
    <path
        d="M239.309 160.849C239.302 160.939 227.934 161.009 213.924 161.009C199.907 161.009 188.56 160.939 188.566 160.849C188.573 160.758 199.934 160.688 213.951 160.688C227.961 160.688 239.315 160.758 239.309 160.849Z"
        fill="#263238" />
    <path
        d="M315.696 144.914C315.689 145.005 303.858 145.075 289.269 145.075C274.673 145.075 262.849 145.005 262.856 144.914C262.862 144.823 274.693 144.753 289.289 144.753C303.872 144.753 315.696 144.823 315.696 144.914Z"
        fill="#263238" />
    <path
        d="M258.671 146.746C258.65 146.725 258.657 146.341 258.677 145.691C258.698 145.04 258.725 144.145 258.786 143.075L258.916 143.215C257.833 143.222 256.6 143.229 255.279 143.236C255.245 143.271 255.599 142.936 255.449 143.075V143.082V143.089V143.103V143.131L255.442 143.194L255.435 143.32L255.415 143.572C255.401 143.74 255.395 143.901 255.381 144.061C255.36 144.383 255.333 144.698 255.313 145.012C255.265 145.621 255.224 146.201 255.177 146.746L255.047 146.607C256.11 146.621 256.995 146.649 257.635 146.676C258.269 146.704 258.65 146.725 258.671 146.746C258.691 146.767 258.344 146.788 257.71 146.816C257.077 146.844 256.144 146.872 255.027 146.886H254.891L254.897 146.746C254.931 146.208 254.965 145.628 255 145.012C255.02 144.705 255.04 144.39 255.061 144.061C255.074 143.901 255.081 143.733 255.095 143.572L255.108 143.32L255.115 143.194L255.122 143.131V143.103V143.089V143.082V143.075C254.972 143.215 255.326 142.88 255.292 142.915C256.614 142.922 257.847 142.929 258.929 142.936H259.066L259.052 143.069C258.964 144.201 258.868 145.138 258.8 145.774C258.732 146.418 258.691 146.767 258.671 146.746Z"
        fill="#263238" />
    <path
        d="M315.284 151.962C315.278 152.053 303.433 152.123 288.824 152.123C274.214 152.123 262.376 152.053 262.376 151.962C262.383 151.871 274.228 151.802 288.837 151.802C303.454 151.802 315.291 151.871 315.284 151.962Z"
        fill="#263238" />
    <path
        d="M258.197 153.793C258.176 153.772 258.183 153.388 258.203 152.738C258.224 152.087 258.251 151.192 258.312 150.123L258.442 150.262C257.359 150.269 256.119 150.276 254.798 150.283C254.764 150.318 255.118 149.983 254.968 150.123V150.13V150.137V150.15V150.185L254.961 150.248L254.954 150.374L254.934 150.626C254.92 150.794 254.914 150.955 254.9 151.115C254.88 151.437 254.852 151.752 254.832 152.066C254.784 152.675 254.743 153.255 254.696 153.8L254.566 153.661C255.629 153.675 256.521 153.703 257.161 153.731C257.795 153.758 258.176 153.772 258.197 153.793C258.217 153.814 257.87 153.835 257.236 153.863C256.603 153.891 255.67 153.919 254.546 153.933H254.41L254.416 153.793C254.45 153.255 254.485 152.675 254.519 152.059C254.539 151.752 254.559 151.437 254.58 151.108C254.594 150.948 254.6 150.78 254.614 150.619L254.628 150.367L254.634 150.241L254.641 150.178V150.144V150.13V150.123V150.116C254.491 150.255 254.846 149.92 254.811 149.955C256.133 149.962 257.372 149.969 258.449 149.976H258.585L258.571 150.109C258.483 151.241 258.387 152.178 258.319 152.815C258.258 153.472 258.217 153.814 258.197 153.793Z"
        fill="#263238" />
    <path
        d="M314.884 159.01C314.877 159.101 303.012 159.171 288.389 159.171C273.759 159.171 261.907 159.101 261.914 159.01C261.921 158.926 273.779 158.849 288.409 158.849C303.032 158.856 314.89 158.926 314.884 159.01Z"
        fill="#263238" />
    <path
        d="M257.72 160.849C257.699 160.828 257.706 160.443 257.726 159.793C257.747 159.143 257.774 158.248 257.835 157.178L257.965 157.318C256.882 157.325 255.642 157.332 254.314 157.339C254.28 157.374 254.634 157.038 254.484 157.178V157.185V157.192V157.206V157.234L254.478 157.297L254.471 157.423L254.45 157.674C254.437 157.842 254.43 158.003 254.416 158.164C254.396 158.485 254.369 158.8 254.348 159.115C254.3 159.723 254.26 160.303 254.212 160.849L254.083 160.709C255.145 160.723 256.037 160.751 256.678 160.779C257.318 160.807 257.699 160.828 257.72 160.849C257.74 160.87 257.393 160.891 256.752 160.919C256.119 160.947 255.186 160.975 254.062 160.989H253.926L253.933 160.849C253.967 160.31 254.001 159.73 254.035 159.115C254.055 158.807 254.076 158.492 254.096 158.164C254.11 158.003 254.117 157.835 254.13 157.674L254.144 157.423L254.151 157.297L254.157 157.234V157.206V157.192V157.185V157.178C254.008 157.318 254.362 156.982 254.328 157.017C255.649 157.024 256.889 157.031 257.972 157.038H258.108L258.094 157.171C258.006 158.304 257.91 159.24 257.842 159.877C257.781 160.52 257.74 160.87 257.72 160.849Z"
        fill="#263238" />
    <path
        d="M311.543 217.303C311.543 217.303 311.549 217.101 311.57 216.702C311.59 216.304 311.617 215.716 311.658 214.947C311.74 213.402 311.863 211.115 312.026 208.144C312.353 202.207 312.83 193.544 313.436 182.587L313.525 182.685C284.475 182.699 238.392 182.72 186.621 182.748H186.615L186.785 182.587C185.831 194.53 184.898 206.172 184.013 217.303L183.87 217.15C220.377 217.178 252.273 217.206 275.049 217.22C286.444 217.24 295.557 217.254 301.83 217.261C304.963 217.268 307.388 217.275 309.029 217.282C309.847 217.289 310.473 217.289 310.895 217.289C311.325 217.296 311.543 217.303 311.543 217.303C311.543 217.303 311.338 217.31 310.923 217.31C310.5 217.31 309.881 217.317 309.07 217.317C307.429 217.324 305.018 217.331 301.898 217.338C295.632 217.345 286.532 217.366 275.144 217.38C252.334 217.401 220.397 217.422 183.842 217.45H183.686L183.699 217.296C184.585 206.165 185.518 194.523 186.465 182.58L186.478 182.419H186.635H186.642C238.399 182.447 284.482 182.468 313.531 182.482H313.627L313.62 182.58C312.966 193.565 312.448 202.249 312.094 208.2C311.917 211.157 311.774 213.437 311.679 214.975C311.631 215.737 311.597 216.318 311.57 216.716C311.563 217.108 311.543 217.303 311.543 217.303Z"
        fill="#263238" />
    <path
        d="M313.032 191.328C313.025 191.419 284.65 191.489 249.655 191.489C214.647 191.489 186.285 191.419 186.292 191.328C186.299 191.244 214.674 191.167 249.676 191.167C284.664 191.167 313.039 191.237 313.032 191.328Z"
        fill="#263238" />
    <path
        d="M312.535 199.942C312.529 200.032 284.106 200.102 249.063 200.102C214 200.102 185.598 200.032 185.605 199.942C185.612 199.858 214.027 199.781 249.084 199.781C284.127 199.788 312.542 199.858 312.535 199.942Z"
        fill="#263238" />
    <path
        d="M312.043 208.661C312.037 208.751 283.573 208.821 248.469 208.821C213.358 208.821 184.902 208.751 184.916 208.661C184.922 208.577 213.386 208.5 248.497 208.5C283.594 208.5 312.05 208.57 312.043 208.661Z"
        fill="#263238" />
    <path
        d="M198.677 217.604C198.589 217.604 199.127 209.752 199.869 200.068C200.618 190.384 201.293 182.531 201.381 182.531C201.47 182.531 200.932 190.384 200.189 200.068C199.447 209.752 198.766 217.604 198.677 217.604Z"
        fill="#263238" />
    <path
        d="M241.935 216.548C241.846 216.548 242.296 209.052 242.943 199.802C243.59 190.551 244.182 183.055 244.264 183.055C244.353 183.055 243.903 190.551 243.256 199.802C242.616 209.052 242.023 216.548 241.935 216.548Z"
        fill="#263238" />
    <path
        d="M287.322 218.136C287.234 218.136 287.643 210.402 288.228 200.865C288.814 191.321 289.366 183.587 289.454 183.587C289.543 183.587 289.134 191.321 288.548 200.865C287.956 210.402 287.411 218.136 287.322 218.136Z"
        fill="#263238" />
    <path
        d="M283.569 225.086C283.562 225.177 261.236 225.247 233.699 225.247C206.155 225.247 183.842 225.177 183.849 225.086C183.856 224.995 206.182 224.925 233.726 224.925C261.256 224.925 283.576 224.995 283.569 225.086Z"
        fill="#263238" />
    <path
        d="M283.252 230.1C283.245 230.191 260.898 230.261 233.341 230.261C205.77 230.261 183.436 230.191 183.443 230.1C183.45 230.009 205.797 229.939 233.361 229.939C260.919 229.946 283.259 230.016 283.252 230.1Z"
        fill="#263238" />
    <path
        d="M228.509 235.12C228.502 235.21 218.319 235.28 205.767 235.28C193.214 235.28 183.038 235.21 183.045 235.12C183.052 235.029 193.234 234.959 205.787 234.959C218.34 234.959 228.516 235.029 228.509 235.12Z"
        fill="#263238" />
    <path
        d="M210.717 59.8534H205.152L205.363 57.1475H219.605L219.401 59.8534H213.836L212.726 74.3482H209.6L210.717 59.8534Z"
        fill="white" />
    <path
        d="M231.026 70.3768H222.615L220.66 74.3553H217.438L226.293 57.1545H229.365L235.692 74.3553H232.423L231.026 70.3768ZM230.175 67.8666L227.56 60.35L223.854 67.8666H230.175Z"
        fill="white" />
    <path
        d="M247.59 74.3553L243.483 67.8176L238.498 74.3553H234.936L241.815 65.5801L236.522 57.1545H240.044L243.899 63.2727L248.578 57.1545H251.956L245.493 65.4613L251.187 74.3553H247.59Z"
        fill="white" />
    <path
        d="M235.025 104.372C235.025 104.47 226.709 104.554 216.458 104.554C206.201 104.554 197.891 104.47 197.891 104.372C197.891 104.274 206.201 104.19 216.458 104.19C226.716 104.19 235.025 104.274 235.025 104.372Z"
        fill="#263238" />
    <path
        d="M187.817 250.047C187.817 250.047 187.313 250.033 186.333 249.998C186.087 249.977 185.808 250.005 185.508 249.935C185.209 249.879 184.875 249.823 184.521 249.753C183.792 249.67 182.995 249.376 182.082 249.075C180.298 248.376 178.173 247.173 176.184 245.125C174.209 243.09 172.349 240.265 171.171 236.713C170.919 235.811 170.599 234.902 170.442 233.93C170.354 233.448 170.224 232.958 170.17 232.455C170.115 231.951 170.061 231.441 170 230.924C169.925 230.406 169.959 229.882 169.932 229.35C169.918 228.819 169.897 228.281 169.952 227.735C169.993 227.19 170.034 226.644 170.068 226.085C170.122 225.533 170.184 224.973 170.238 224.407C170.701 219.89 171.198 214.981 171.736 209.709C172.813 199.165 174.039 187.153 175.394 173.874C178.118 147.325 181.354 115.706 184.95 80.6057C185.849 71.8305 186.775 62.8385 187.715 53.6508C188.185 49.0569 188.662 44.4141 189.145 39.7294C189.384 37.387 189.629 35.0306 189.874 32.6673C190.004 31.4856 190.099 30.3039 190.256 29.1083C190.44 27.9056 190.862 26.7309 191.529 25.7101C192.19 24.6892 193.069 23.8152 194.083 23.1579C195.105 22.5076 196.263 22.0951 197.462 21.9483C198.061 21.8713 198.667 21.8783 199.253 21.8783H201.031C202.216 21.8783 203.401 21.8783 204.593 21.8783C209.347 21.8783 214.142 21.8783 218.978 21.8783C228.636 21.8783 238.444 21.8783 248.361 21.8783C268.208 21.8783 287.579 21.8783 306.295 21.8853C310.975 21.8853 315.613 21.8853 320.203 21.8853C322.499 21.8853 324.787 21.8853 327.055 21.8853C328.193 21.8853 329.323 21.8853 330.454 21.8853C331.571 21.8993 332.736 21.8224 333.86 22.1301C336.107 22.6894 338.014 24.3396 339.022 26.4233C339.533 27.4651 339.833 28.6118 339.901 29.7655C339.976 30.9332 339.772 32.059 339.663 33.1777C339.172 37.6667 338.689 42.1067 338.212 46.4978C334.391 81.5776 330.951 113.175 328.063 139.704C325.162 166.232 322.812 187.698 321.191 202.535C320.374 209.947 319.734 215.709 319.304 219.617C319.086 221.568 318.916 223.05 318.807 224.057C318.691 225.057 318.623 225.568 318.623 225.568C318.623 225.568 318.664 225.05 318.766 224.05C318.869 223.043 319.025 221.554 319.229 219.603C319.645 215.695 320.258 209.933 321.048 202.514C322.642 187.67 324.951 166.197 327.811 139.669C330.679 113.133 334.091 81.5356 337.885 46.4489C338.362 42.0648 338.838 37.6247 339.329 33.1288C339.431 32.003 339.635 30.8773 339.56 29.7725C339.492 28.6608 339.206 27.563 338.716 26.5631C337.749 24.5633 335.917 22.9831 333.771 22.4517C332.709 22.158 331.585 22.2279 330.447 22.221C329.317 22.221 328.179 22.221 327.049 22.221C324.774 22.221 322.492 22.221 320.197 22.221C315.606 22.221 310.968 22.221 306.289 22.221C287.579 22.221 268.201 22.221 248.354 22.2279C238.437 22.2279 228.636 22.2279 218.971 22.2279C214.142 22.2279 209.347 22.2279 204.586 22.2279C203.394 22.2279 202.209 22.2279 201.024 22.2279H199.246C198.654 22.2279 198.068 22.221 197.496 22.2909C196.352 22.4377 195.241 22.8293 194.261 23.4516C193.287 24.0809 192.449 24.9199 191.815 25.8918C191.182 26.8708 190.773 27.9965 190.596 29.1502C190.44 30.3179 190.344 31.5206 190.215 32.6952C189.97 35.0586 189.731 37.415 189.486 39.7573C189.002 44.4421 188.526 49.0849 188.049 53.6788C187.102 62.8665 186.176 71.8584 185.27 80.6336C181.647 115.734 178.377 147.346 175.632 173.895C174.257 187.167 173.01 199.179 171.92 209.723C171.375 214.995 170.865 219.904 170.395 224.421C170.333 224.987 170.279 225.547 170.218 226.099C170.177 226.651 170.136 227.197 170.095 227.735C170.034 228.274 170.061 228.812 170.068 229.336C170.095 229.861 170.054 230.392 170.129 230.903C170.184 231.413 170.238 231.923 170.293 232.42C170.34 232.923 170.47 233.406 170.558 233.888C170.715 234.86 171.028 235.762 171.273 236.657C172.431 240.188 174.27 243.006 176.225 245.041C178.193 247.082 180.305 248.285 182.076 248.998C182.981 249.306 183.778 249.6 184.5 249.691C184.855 249.76 185.188 249.823 185.481 249.879C185.781 249.949 186.06 249.921 186.298 249.949C187.313 250.012 187.817 250.047 187.817 250.047Z"
        fill="#263238" />
    <path
        d="M381.133 208.85C381.133 208.85 381.296 208.836 381.616 208.829C381.943 208.822 382.42 208.815 383.04 208.808C384.3 208.794 386.146 208.773 388.53 208.745C393.325 208.71 400.279 208.654 408.969 208.591H409.099L409.092 208.724C408.486 218.478 407.703 230.47 406.722 243.972C406.225 250.719 405.687 257.851 405.033 265.263C404.699 268.969 404.365 272.744 403.841 276.569C403.732 277.527 403.514 278.478 403.344 279.436C403.105 280.38 402.887 281.338 402.567 282.261C401.961 284.128 401.144 285.946 400.067 287.61C399.012 289.218 397.738 290.672 396.206 291.63L396.233 291.616C394.809 292.714 393.12 293.385 391.411 293.7C389.694 294.015 387.937 293.98 386.255 293.686C382.863 293.12 379.757 291.434 377.366 289.085C375.01 286.68 373.47 283.61 372.721 280.45C371.965 277.282 371.924 274.059 372.135 270.989C372.244 269.444 372.428 267.941 372.592 266.444C372.755 264.955 372.919 263.487 373.075 262.039C373.395 259.145 373.702 256.334 374.002 253.621C374.601 248.195 375.159 243.146 375.663 238.546C376.685 229.351 377.516 221.932 378.088 216.8C378.381 214.248 378.606 212.262 378.763 210.905C378.844 210.241 378.906 209.731 378.946 209.374C378.987 209.032 379.021 208.857 379.021 208.857C379.021 208.857 379.015 209.032 378.98 209.381C378.946 209.738 378.899 210.248 378.831 210.912C378.688 212.269 378.483 214.255 378.218 216.814C377.673 221.953 376.883 229.372 375.902 238.574C375.405 243.174 374.867 248.223 374.281 253.656C373.988 256.369 373.688 259.179 373.375 262.074C373.218 263.522 373.062 264.99 372.898 266.479C372.742 267.969 372.558 269.479 372.456 271.01C372.251 274.066 372.292 277.247 373.041 280.366C373.777 283.477 375.296 286.484 377.598 288.833C379.934 291.127 382.985 292.784 386.309 293.336C387.957 293.623 389.674 293.658 391.343 293.35C393.011 293.05 394.646 292.392 396.022 291.33H396.029L396.049 291.316C397.479 290.421 398.76 288.98 399.781 287.414C400.837 285.778 401.641 283.988 402.24 282.149C402.56 281.233 402.771 280.289 403.01 279.359C403.18 278.408 403.398 277.471 403.507 276.52C404.031 272.716 404.365 268.934 404.699 265.235C405.36 257.83 405.905 250.705 406.409 243.958C407.41 230.463 408.22 218.471 408.867 208.724L408.99 208.857C400.299 208.878 393.345 208.892 388.55 208.906C386.166 208.906 384.32 208.899 383.06 208.899C382.441 208.892 381.971 208.892 381.637 208.892C381.296 208.857 381.133 208.85 381.133 208.85Z"
        fill="#263238" />
    <path
        d="M226.049 251.243C226.049 251.243 226.036 251.425 226.002 251.768C225.961 252.124 225.899 252.642 225.818 253.313C225.647 254.683 225.395 256.676 225.075 259.242C224.748 261.822 224.346 264.969 223.877 268.626C223.659 270.451 223.359 272.408 223.155 274.485C222.916 276.548 223.141 278.785 223.829 280.974C225.171 285.365 228.624 289.525 233.446 291.77C235.844 292.903 238.548 293.56 241.36 293.623C244.18 293.679 247.102 293.637 250.092 293.644C262.052 293.637 275.198 293.637 288.997 293.63C316.602 293.651 341.592 293.672 359.689 293.686C368.727 293.714 376.042 293.728 381.109 293.742C383.629 293.756 385.591 293.77 386.933 293.777C387.593 293.784 388.097 293.791 388.445 293.798C388.785 293.805 388.962 293.819 388.962 293.819C388.962 293.819 388.785 293.833 388.445 293.84C388.091 293.847 387.587 293.847 386.933 293.86C385.591 293.867 383.629 293.881 381.109 293.895C376.042 293.909 368.727 293.93 359.689 293.951C341.592 293.965 316.602 293.979 289.004 294C275.204 293.993 262.059 293.986 250.099 293.986C247.109 293.972 244.201 294.014 241.354 293.951C238.507 293.881 235.755 293.21 233.323 292.057C228.433 289.763 224.939 285.526 223.59 281.058C222.903 278.834 222.685 276.562 222.93 274.471C223.141 272.381 223.447 270.444 223.679 268.612C224.169 264.962 224.592 261.815 224.939 259.235C225.286 256.669 225.559 254.676 225.75 253.313C225.845 252.642 225.92 252.131 225.968 251.775C226.008 251.425 226.049 251.243 226.049 251.243Z"
        fill="#263238" />
    <path
        d="M221.413 113.825C221.672 112.762 221.1 111.608 220.051 111.335C219.785 111.265 219.526 111.265 219.315 111.384C218.484 111.867 216.775 114.496 214.99 115.202C213.206 115.908 209.95 116.489 208.765 118.88C207.58 121.264 206.551 132.298 206.721 134.549C206.892 136.794 211.333 155.435 211.333 155.435L221.413 113.825Z"
        fill="#FFBF9D" />
    <path
        d="M228.169 108.63C228.115 108.777 210.181 126.509 202.301 134.291C200.544 136.025 201.068 138.99 203.302 140.011C204.685 140.647 206.32 140.311 207.341 139.186L232.563 112.294L233.686 107.399L228.169 108.63Z"
        fill="#263238" />
    <path
        d="M212.567 136.9L217.546 129.18L221.769 112.385C221.769 112.385 224.65 108.749 227.068 109.448C229.486 110.148 230.691 111.553 230.46 113.721C230.46 113.721 235.99 113.056 236.978 114.665C237.966 116.273 238.381 120.944 238.381 120.944C238.381 120.944 240.302 123.929 240.2 125.929C240.097 127.929 240.71 129.397 240.71 129.397C240.71 129.397 245.485 132.299 245.574 137.061C245.669 141.822 243.094 153.506 240.785 157.142C238.483 160.778 233.504 165.966 233.504 165.966L232.592 175.895L210.878 166.868L212.567 136.9Z"
        fill="#FFBF9D" />
    <path
        d="M221.678 113.069C221.698 113.076 221.644 113.391 221.528 113.943C221.385 114.573 221.201 115.363 220.99 116.3C220.52 118.286 219.846 121.02 219.083 124.04C218.695 125.543 218.327 126.977 217.986 128.291C217.809 128.949 217.598 129.571 217.305 130.109C217.019 130.655 216.658 131.102 216.311 131.473C215.596 132.214 214.921 132.676 214.458 132.997C213.988 133.312 213.722 133.466 213.709 133.452C213.695 133.431 213.934 133.235 214.376 132.885C214.812 132.529 215.459 132.039 216.127 131.298C217.618 129.879 217.884 126.921 218.735 123.949C219.498 120.929 220.207 118.209 220.738 116.237C220.997 115.307 221.215 114.531 221.385 113.909C221.555 113.363 221.657 113.062 221.678 113.069Z"
        fill="#FF9A6C" />
    <path
        d="M228.751 126.229C228.655 126.215 228.989 123.411 229.5 119.971C230.011 116.53 230.501 113.748 230.596 113.762C230.692 113.776 230.358 116.579 229.847 120.02C229.343 123.467 228.853 126.243 228.751 126.229Z"
        fill="#FF9A6C" />
    <path
        d="M233.884 133.809C233.83 133.83 233.7 133.536 233.38 133.165C233.067 132.795 232.522 132.354 231.821 132.166C231.119 131.977 230.431 132.089 229.975 132.249C229.512 132.41 229.253 132.592 229.219 132.543C229.192 132.515 229.403 132.242 229.879 132.012C230.349 131.774 231.105 131.606 231.909 131.816C232.706 132.033 233.285 132.564 233.578 133.012C233.878 133.459 233.925 133.802 233.884 133.809Z"
        fill="#FF9A6C" />
    <path
        d="M242.356 133.474C242.336 133.523 242.016 133.425 241.512 133.25C241.008 133.082 240.32 132.844 239.536 132.781C238.76 132.718 238.045 132.886 237.629 133.159C237.193 133.425 237.132 133.781 237.084 133.767C237.037 133.781 237.016 133.334 237.486 132.949C237.936 132.572 238.726 132.348 239.564 132.418C240.408 132.488 241.117 132.781 241.607 133.012C242.091 133.25 242.37 133.432 242.356 133.474Z"
        fill="#FF9A6C" />
    <path
        d="M236.915 127.516C236.82 127.495 237.051 126.012 237.433 124.208C237.814 122.404 238.202 120.957 238.298 120.978C238.393 120.999 238.162 122.481 237.78 124.285C237.399 126.089 237.011 127.537 236.915 127.516Z"
        fill="#FF9A6C" />
    <path
        d="M224.064 133.047C224.009 133.061 223.914 132.774 223.642 132.403C223.376 132.033 222.892 131.585 222.239 131.396C221.585 131.208 220.944 131.326 220.529 131.487C220.1 131.648 219.868 131.837 219.834 131.795C219.807 131.767 219.984 131.494 220.427 131.25C220.856 131.005 221.585 130.823 222.341 131.04C223.097 131.257 223.621 131.809 223.86 132.256C224.098 132.711 224.105 133.04 224.064 133.047Z"
        fill="#FF9A6C" />
    <path
        d="M206.203 139.703C206.149 139.675 206.387 139.284 206.476 138.592C206.564 137.92 206.442 136.885 205.767 136.095C205.086 135.312 204.119 135.025 203.458 135.005C202.777 134.977 202.362 135.137 202.341 135.081C202.321 135.053 202.716 134.788 203.458 134.746C204.174 134.697 205.263 134.963 206.04 135.851C206.809 136.753 206.891 137.913 206.728 138.626C206.557 139.382 206.231 139.731 206.203 139.703Z"
        fill="#455A64" />
    <path
        d="M68.1996 41.0016C68.5946 33.8486 72.8788 29.4505 78.8793 25.8006C84.8798 22.1507 92.6648 21.7871 98.965 24.8636C103.181 26.9263 106.866 30.4434 111.497 31.0517C119.119 32.0586 126.332 24.8077 133.817 26.6187C138.244 27.6885 141.616 32.2404 141.445 36.9042C141.275 41.568 137.577 45.8472 133.088 46.5744C138.081 47.3155 140.907 53.7973 139.062 58.6149C137.216 63.4325 131.978 66.2294 126.938 66.3413C121.898 66.4531 117.048 64.3415 112.689 61.7404C108.33 59.1393 104.257 56.0138 99.7075 53.7833C95.1577 51.5458 89.9268 50.2453 85.0501 51.5738C78.4502 53.3778 73.7778 59.7756 72.0546 66.558C70.3315 73.3404 71.0738 80.5074 72.1023 87.4367C73.1308 94.3659 74.4249 101.358 73.7846 108.336C73.7097 109.154 73.5326 110.091 72.8311 110.49C71.8163 111.063 70.6584 110.084 69.9092 109.175C61.4771 98.9178 55.0407 86.9332 51.0698 74.1445C48.7677 66.7119 47.494 59.4819 50.2593 52.224C53.0246 44.9592 62.3353 38.0509 68.1996 41.0016Z"
        fill="#263238" />
    <path
        d="M61.7658 75.5648L72.9223 146.221C75.0065 159.415 83.3568 172.162 103.531 167.834C120.756 162.722 119.476 150.004 117.228 134.32C117.228 134.32 136.176 129.258 134.48 109.477C133.663 99.9186 130.407 80.3685 127.268 62.7202C123.896 43.7644 106.889 30.6611 88.2131 32.5909L86.3537 32.7797C66.4518 36.045 58.0334 55.2246 61.7658 75.5648Z"
        fill="#FFBF9D" />
    <path
        d="M117.223 134.319C117.223 134.319 105.167 136.305 91.4223 129.299C91.4223 129.299 98.9758 143.997 118.006 140.235L117.223 134.319Z"
        fill="#FF9A6C" />
    <path
        d="M123.502 82.5065C123.699 83.9888 122.637 85.3872 121.131 85.625C119.626 85.8627 118.244 84.8558 118.046 83.3735C117.848 81.8911 118.911 80.4927 120.416 80.255C121.928 80.0172 123.311 81.0241 123.502 82.5065Z"
        fill="#263238" />
    <path
        d="M124.064 72.8436C123.757 73.2492 121.523 71.8787 118.567 72.1934C115.611 72.4661 113.595 74.2491 113.234 73.9134C113.057 73.7666 113.343 73.0674 114.215 72.2633C115.073 71.4662 116.599 70.6131 118.438 70.4313C120.284 70.2495 121.898 70.7879 122.858 71.4102C123.839 72.0255 124.214 72.6618 124.064 72.8436Z"
        fill="#263238" />
    <path
        d="M97.3979 85.2281C97.5954 86.7105 96.5329 88.1089 95.0276 88.3467C93.5224 88.5844 92.1466 87.5775 91.949 86.0952C91.7515 84.6128 92.814 83.2144 94.3193 82.9767C95.8177 82.7389 97.2004 83.7458 97.3979 85.2281Z"
        fill="#263238" />
    <path
        d="M95.0671 76.4114C94.7606 76.817 92.5197 75.4465 89.5706 75.7611C86.6146 76.0338 84.5985 77.8168 84.2375 77.4742C84.0672 77.3274 84.3397 76.6282 85.2251 75.8241C86.0833 75.027 87.609 74.1739 89.448 73.9921C91.2938 73.8103 92.908 74.3487 93.8683 74.971C94.8423 75.5933 95.2169 76.2296 95.0671 76.4114Z"
        fill="#263238" />
    <path
        d="M107.999 97.8193C107.965 97.6515 109.777 97.1341 112.712 96.4349C113.462 96.2741 114.156 96.0503 114.238 95.5049C114.361 94.9246 113.966 94.1205 113.509 93.2605C112.617 91.4565 111.677 89.5686 110.696 87.5898C106.773 79.5068 103.851 72.8293 104.171 72.6685C104.492 72.5077 107.931 78.9335 111.854 87.0164C112.801 89.0092 113.714 90.9111 114.579 92.736C114.953 93.5891 115.539 94.533 115.267 95.7357C115.117 96.337 114.606 96.8125 114.136 96.9943C113.666 97.197 113.244 97.246 112.869 97.3089C109.886 97.7844 108.026 97.9872 107.999 97.8193Z"
        fill="#263238" />
    <path
        d="M94.689 64.4315C94.4779 65.2846 91.4878 65.2007 88.0619 65.9908C84.6155 66.704 81.9251 68.0395 81.3871 67.3473C81.1487 67.0116 81.5573 66.1866 82.6131 65.2706C83.6551 64.3546 85.3715 63.4107 87.4285 62.9632C89.4854 62.5157 91.4265 62.6555 92.7411 63.0541C94.0692 63.4456 94.7776 64.026 94.689 64.4315Z"
        fill="#263238" />
    <path
        d="M122.141 64.1676C121.692 64.9087 119.58 64.4053 117.128 64.622C114.67 64.7549 112.647 65.552 112.102 64.8808C111.857 64.5521 112.115 63.8249 112.96 63.0838C113.791 62.3426 115.235 61.6574 116.917 61.5315C118.606 61.4126 120.125 61.8881 121.045 62.5034C121.985 63.1257 122.332 63.811 122.141 64.1676Z"
        fill="#263238" />
    <path
        d="M64.7775 90.0311C64.437 89.9192 51.1623 87.3811 52.9059 100.841C54.6495 114.308 67.4543 109.728 67.427 109.344C67.3998 108.952 64.7775 90.0311 64.7775 90.0311Z"
        fill="#FFBF9D" />
    <path
        d="M62.7645 104.791C62.7032 104.756 62.5602 104.987 62.1924 105.218C61.8382 105.448 61.2048 105.658 60.4896 105.483C59.0389 105.148 57.5745 103.05 57.1999 100.631C57.0092 99.4072 57.1045 98.2115 57.4042 97.1837C57.6767 96.1419 58.2079 95.3727 58.889 95.149C59.5633 94.8903 60.1082 95.2539 60.3193 95.6105C60.5441 95.9601 60.4964 96.2398 60.5645 96.2537C60.6054 96.2817 60.8165 95.988 60.6395 95.4496C60.5509 95.1909 60.3534 94.8903 60.0128 94.6735C59.6655 94.4567 59.1819 94.3798 58.7051 94.5057C57.7039 94.7155 56.9138 95.7923 56.5869 96.918C56.2055 98.0577 56.0624 99.4072 56.2804 100.778C56.7163 103.477 58.3986 105.833 60.367 106.134C61.3206 106.253 62.0562 105.861 62.4103 105.49C62.7849 105.12 62.819 104.805 62.7645 104.791Z"
        fill="#FF9A6C" />
    <path
        d="M125.704 44.2951C123.613 40.5893 120.255 37.7994 116.686 35.5759C109.003 30.7792 99.8901 28.2341 90.9268 29.0172C81.9634 29.8003 73.2181 34.0306 67.3742 41.0438C62.695 46.6585 59.9842 53.8464 59.1192 61.1812C58.2542 68.516 59.1669 75.9977 61.1353 83.1017C62.0003 86.2202 63.165 89.4296 65.5693 91.5413C67.0677 92.8558 69.4924 93.576 70.9296 92.1916C71.7741 91.3735 71.9853 90.1009 72.1556 88.9192C73.6676 78.2352 75.0639 66.768 70.3643 57.1118C72.5506 53.4828 75.1728 50.0497 78.592 47.6234C82.0111 45.1971 86.3089 43.8686 90.3819 44.7077C96.4301 45.9593 100.612 51.4411 105.693 55.0351C112.954 60.1674 122.693 61.391 130.942 58.1956L125.704 44.2951Z"
        fill="#263238" />
    <path
        d="M110.62 106.022C110.409 107.288 110.191 108.574 109.639 109.735C109.088 110.889 108.141 111.91 106.929 112.238C105.634 112.581 104.218 112.057 103.257 111.106C102.304 110.148 101.773 108.812 101.555 107.463C101.364 106.239 101.609 104.68 102.753 104.281C103.23 104.113 103.748 104.204 104.245 104.302C106.472 104.715 108.706 105.127 110.933 105.547"
        fill="#FF9A6C" />
    <path
        d="M109.216 111.756C109.141 111.567 107.909 112.42 105.845 112.042C104.844 111.86 103.686 111.322 102.889 110.259C102.092 109.21 101.663 107.644 101.962 106.134C102.031 105.756 102.167 105.4 102.31 105.071C102.501 104.756 102.46 104.777 102.732 104.763C102.998 104.777 103.44 104.889 103.801 104.952C104.176 105.022 104.544 105.092 104.898 105.155C106.328 105.421 107.622 105.644 108.712 105.812C110.892 106.155 112.254 106.288 112.281 106.127C112.308 105.973 111.008 105.554 108.869 105.008C107.8 104.735 106.526 104.428 105.102 104.106C104.748 104.029 104.38 103.945 104.013 103.861C103.624 103.785 103.311 103.68 102.787 103.624C102.535 103.603 102.18 103.638 101.874 103.847C101.574 104.05 101.418 104.323 101.309 104.547C101.111 104.98 100.948 105.421 100.859 105.896C100.484 107.784 101.05 109.658 102.078 110.924C103.127 112.21 104.578 112.748 105.736 112.846C106.914 112.958 107.854 112.672 108.426 112.378C109.012 112.091 109.25 111.819 109.216 111.756Z"
        fill="#263238" />
    <path
        d="M138.209 29.3671C138.236 29.3601 138.325 29.6607 138.468 30.2551C138.556 30.8494 138.692 31.7514 138.556 32.9121C138.345 35.1915 137.044 38.5897 133.795 41.1838C130.567 43.8129 125.465 44.8687 120.207 44.0436C114.881 43.2955 109.562 40.6664 103.99 38.3171C98.4528 35.9607 92.7179 34.3805 87.596 35.3384C82.4809 36.2264 78.5101 39.254 75.9015 42.2047C73.252 45.1904 71.7672 48.162 70.9022 50.2387C70.0644 52.3364 69.7715 53.567 69.683 53.546C69.6557 53.539 69.7102 53.2244 69.8464 52.644C69.9622 52.0497 70.2279 51.2036 70.5889 50.1129C71.3721 47.9733 72.7888 44.9037 75.4451 41.7922C78.0537 38.7156 82.1131 35.5202 87.453 34.5413C92.8065 33.4925 98.7184 35.1286 104.303 37.499C109.916 39.8763 115.153 42.4774 120.309 43.2396C125.411 44.0856 130.308 43.1207 133.414 40.6874C136.561 38.2751 137.902 35.0517 138.209 32.8701C138.556 30.6257 138.1 29.381 138.209 29.3671Z"
        fill="#455A64" />
    <path
        d="M52.097 70.3824C52.0084 70.3754 52.0084 68.914 52.6078 66.6626C53.1867 64.4111 54.4332 61.3765 56.5854 58.5586C57.648 57.1392 58.8399 55.9436 59.9978 54.9507C61.1556 53.9578 62.4157 53.2306 63.594 53.0138C64.7655 52.7831 65.7531 53.0278 66.332 53.3285C66.9246 53.6431 67.1426 53.9508 67.1085 53.9927C67.0744 54.1256 65.8553 53.0628 63.7302 53.6221C61.6665 54.1675 59.3507 56.44 57.2665 59.104C55.196 61.824 53.9019 64.7048 53.1935 66.8514C52.458 68.991 52.24 70.4034 52.097 70.3824Z"
        fill="#455A64" />
    <path
        d="M55.5722 82.0389C55.4836 82.0249 55.5994 80.5635 56.3146 78.333C57.0229 76.1025 58.4396 73.1379 60.6873 70.362C62.9485 67.6 65.5435 65.6422 67.5528 64.5305C69.5688 63.4117 70.9447 63.0342 70.9719 63.125C71.0264 63.2649 69.7459 63.8383 67.8593 65.0689C65.9726 66.2925 63.5275 68.2573 61.3411 70.9283C59.1684 73.6063 57.7108 76.4242 56.8731 78.5498C56.0421 80.6754 55.7152 82.0669 55.5722 82.0389Z"
        fill="#455A64" />
    <path
        d="M31.6215 183.007C31.6215 183.007 18.4013 258.501 19.0415 265.557C19.6817 272.619 23.1962 283.848 31.172 285.771C39.1477 287.694 46.49 285.771 46.49 285.771L36.9137 193.048L31.6215 183.007Z"
        fill="#27AE60" />
    <path
        d="M158.23 217.709L141.55 149.94L128.8 146.339L123.746 139.557C123.746 139.557 115.838 133.453 94.7989 133.18C88.3285 133.096 74.6247 135.802 69.5096 139.739L68.1746 147.934C68.1746 147.934 60.1853 153.513 54.0281 158.366C38.2537 170.784 36.3398 177.713 34.6371 182.356C32.9343 186.999 44.7923 293.818 44.7923 293.818L158.482 293.637L158.23 217.709Z"
        fill="#27AE60" />
    <g opacity="0.3">
        <path d="M40.8139 286.561C31.04 263.542 31.5849 236.874 32.9063 211.884L40.8139 286.561Z"
            fill="black" />
    </g>
    <path
        d="M106.811 187.111C106.811 187.125 106.566 187.139 106.096 187.146C105.579 187.153 104.897 187.153 104.046 187.16C102.268 187.153 99.687 187.181 96.5062 187.251C90.1447 187.398 81.3585 187.866 71.7141 189.013C62.0696 190.174 53.4196 191.789 47.2011 193.152C44.0885 193.83 41.582 194.411 39.852 194.837C39.0211 195.033 38.3604 195.187 37.8564 195.306C37.4001 195.411 37.1549 195.453 37.1549 195.439C37.1481 195.425 37.3864 195.348 37.836 195.208C38.3332 195.068 38.987 194.879 39.8112 194.649C41.5276 194.166 44.0272 193.53 47.133 192.81C53.3379 191.362 62.0015 189.684 71.6596 188.523C81.3176 187.377 90.1311 186.957 96.4994 186.901C99.687 186.873 102.262 186.901 104.046 186.964C104.897 186.999 105.579 187.02 106.096 187.041C106.566 187.076 106.811 187.097 106.811 187.111Z"
        fill="#263238" />
    <path
        d="M139.21 293.664C139.094 293.664 138.739 288.357 138.739 266.038C138.739 243.712 138.835 225.616 138.95 225.616C139.066 225.616 139.162 243.712 139.162 266.038C139.162 288.357 139.326 293.664 139.21 293.664Z"
        fill="#263238" />
    <path
        d="M138.538 150.166C145.887 152.354 152.889 159.815 157.452 166.01C170.121 183.225 189.968 206.949 189.968 206.949L211.259 160.011L237.08 170.093L232.796 183.539C233.232 191.175 224.282 228.233 221.946 236.044C214.91 259.558 199.054 270.634 176.489 258.642C158.958 249.329 124.984 211.55 124.984 211.55"
        fill="#27AE60" />
    <path
        d="M124.984 211.55C124.984 211.55 125.202 211.774 125.611 212.214C126.026 212.662 126.639 213.319 127.436 214.179C129.043 215.906 131.427 218.444 134.533 221.675C137.632 224.912 141.474 228.828 146.016 233.275C150.566 237.715 155.804 242.721 161.893 247.888C163.439 249.147 164.972 250.51 166.64 251.755C167.464 252.391 168.302 253.034 169.147 253.692C170.005 254.314 170.897 254.915 171.789 255.545C172.239 255.852 172.682 256.167 173.138 256.475C173.608 256.754 174.078 257.034 174.555 257.314C175.508 257.866 176.441 258.488 177.463 258.957C179.466 259.985 181.57 260.887 183.777 261.614C188.163 263.075 193.04 263.837 197.91 262.963C200.335 262.537 202.725 261.705 204.959 260.488C207.186 259.25 209.243 257.642 211.082 255.754C214.781 251.986 217.56 247.182 219.657 242.022C221.796 236.862 223.063 231.254 224.507 225.611C225.903 219.954 227.252 214.172 228.539 208.291C229.813 202.404 231.059 196.419 232.013 190.315C232.156 189.175 232.353 188.049 232.449 186.909L232.605 185.21L232.626 183.525V183.483L232.632 183.455C234.076 178.924 235.507 174.442 236.917 170.009L237.019 170.233C228.164 166.772 219.535 163.402 211.198 160.143L211.416 160.052C203.706 177.022 196.534 192.818 190.104 206.977L190.009 207.187L189.859 207.012C182.381 198.02 175.665 189.699 169.807 182.274C166.879 178.561 164.175 175.065 161.702 171.806C160.47 170.177 159.291 168.611 158.181 167.108C157.071 165.597 156.008 164.171 154.932 162.877C150.655 157.654 146.541 154.256 143.483 152.424C141.964 151.48 140.704 150.956 139.859 150.599C138.994 150.298 138.552 150.124 138.552 150.124C138.552 150.124 139.001 150.263 139.873 150.55C140.724 150.893 141.998 151.403 143.53 152.34C146.616 154.151 150.757 157.535 155.062 162.758C156.151 164.052 157.221 165.485 158.331 166.982C159.448 168.485 160.626 170.044 161.866 171.666C164.345 174.911 167.056 178.4 169.991 182.106C175.862 189.517 182.599 197.824 190.084 206.802L189.839 206.837C196.255 192.671 203.413 176.869 211.11 159.892L211.178 159.745L211.328 159.801C219.664 163.052 228.294 166.422 237.155 169.883L237.312 169.946L237.257 170.107C235.847 174.533 234.417 179.022 232.973 183.553L232.98 183.483L232.959 185.217L232.803 186.93C232.707 188.077 232.51 189.21 232.367 190.35C231.413 196.475 230.167 202.46 228.886 208.347C227.599 214.235 226.244 220.01 224.847 225.674C223.403 231.317 222.13 236.938 219.978 242.134C217.859 247.322 215.06 252.16 211.321 255.971C209.461 257.873 207.37 259.502 205.116 260.754C202.848 261.984 200.423 262.823 197.964 263.25C193.033 264.124 188.109 263.348 183.688 261.873C181.468 261.138 179.35 260.222 177.34 259.188C176.312 258.712 175.379 258.083 174.419 257.53C173.942 257.244 173.465 256.964 172.995 256.677C172.545 256.363 172.096 256.048 171.646 255.74C170.754 255.111 169.862 254.51 168.997 253.88C168.152 253.223 167.315 252.58 166.49 251.937C164.815 250.685 163.289 249.315 161.743 248.049C155.654 242.861 150.43 237.84 145.887 233.379C141.358 228.911 137.53 224.982 134.445 221.73C131.352 218.486 128.989 215.927 127.395 214.186C126.605 213.312 126.006 212.648 125.59 212.193C125.182 211.788 124.984 211.55 124.984 211.55Z"
        fill="#263238" />
    <path
        d="M125.789 146.514C125.789 146.521 125.735 146.514 125.633 146.507C125.51 146.493 125.36 146.472 125.176 146.444C124.775 146.381 124.182 146.283 123.419 146.144C122.656 146.004 121.73 145.801 120.647 145.64C119.564 145.486 118.318 145.395 116.935 145.318C111.411 145.032 103.783 144.465 95.3509 144.388C91.1349 144.354 87.1164 144.472 83.4725 144.752C79.8286 145.011 76.5729 145.507 73.8485 145.997C72.4931 146.276 71.2603 146.493 70.1978 146.78C69.1353 147.053 68.209 147.248 67.4666 147.486C66.7446 147.696 66.1725 147.864 65.757 147.982C65.5799 148.031 65.4301 148.073 65.3075 148.101C65.2053 148.129 65.1508 148.136 65.1508 148.129C65.1508 148.129 68.3588 146.843 73.8008 145.738C76.5252 145.214 79.7877 144.689 83.4453 144.416C87.096 144.116 91.1281 143.983 95.3509 144.018C103.803 144.102 111.425 144.703 116.949 145.06C118.331 145.151 119.585 145.263 120.674 145.437C121.764 145.619 122.684 145.843 123.44 146.004C124.175 146.158 124.754 146.283 125.183 146.367C125.367 146.409 125.517 146.437 125.64 146.465C125.742 146.493 125.789 146.507 125.789 146.514Z"
        fill="#263238" />
    <path
        d="M133.717 152.303C133.717 152.317 133.574 152.345 133.295 152.394C133.015 152.45 132.6 152.492 132.076 152.604C131.02 152.8 129.508 153.17 127.71 153.842C125.912 154.513 123.841 155.527 121.764 157.009C119.679 158.47 117.609 160.428 115.865 162.82C114.128 165.225 112.916 167.826 112.16 170.301C111.411 172.776 111.07 175.112 111.002 177.07C110.927 179.034 111.063 180.622 111.213 181.712C111.363 182.803 111.486 183.398 111.452 183.405C111.438 183.405 111.397 183.258 111.329 182.978C111.268 182.691 111.152 182.279 111.07 181.733C110.873 180.643 110.702 179.041 110.743 177.063C110.777 175.084 111.091 172.721 111.84 170.203C112.589 167.693 113.815 165.05 115.572 162.61C117.343 160.184 119.455 158.212 121.573 156.743C123.684 155.261 125.796 154.254 127.614 153.611C129.44 152.961 130.972 152.632 132.041 152.478C132.573 152.38 132.995 152.366 133.274 152.331C133.567 152.296 133.717 152.289 133.717 152.303Z"
        fill="#263238" />
    <path opacity="0.3"
        d="M124.986 211.548C131.069 230.028 155.343 257.655 155.343 257.655V242.293C154.996 242.698 124.53 212.093 124.986 211.548Z"
        fill="black" />
    <path
        d="M196.81 228.708C196.783 228.708 196.769 228.386 196.756 227.813C196.749 227.24 196.715 226.401 196.64 225.38C196.572 224.352 196.422 223.135 196.197 221.8C195.952 220.464 195.625 219.01 195.169 217.507C194.249 214.514 193.023 211.948 192.008 210.179C191.504 209.291 191.069 208.585 190.755 208.109C190.442 207.627 190.285 207.354 190.299 207.34C190.319 207.326 190.517 207.571 190.864 208.025C191.218 208.48 191.682 209.165 192.22 210.046C193.296 211.801 194.576 214.374 195.509 217.402C195.966 218.919 196.293 220.387 196.517 221.744C196.729 223.1 196.851 224.331 196.892 225.366C196.94 226.401 196.933 227.24 196.892 227.82C196.865 228.386 196.838 228.708 196.81 228.708Z"
        fill="#263238" />
    <path
        d="M205.299 173.029C205.333 172.931 211.47 175.126 219.003 177.93C226.543 180.734 232.625 183.077 232.591 183.174C232.557 183.272 226.42 181.077 218.887 178.273C211.347 175.469 205.265 173.127 205.299 173.029Z"
        fill="#263238" />
    <path
        d="M214.634 168.428C214.634 169.386 213.864 170.162 212.911 170.162C211.957 170.162 211.188 169.386 211.188 168.428C211.188 167.47 211.957 166.694 212.911 166.694C213.864 166.694 214.634 167.47 214.634 168.428Z"
        fill="#E0E0E0" />
    <path
        d="M214.635 168.428C214.608 168.428 214.595 168.274 214.513 168.016C214.431 167.764 214.247 167.407 213.873 167.142C213.512 166.876 212.933 166.736 212.381 166.946C211.836 167.142 211.353 167.729 211.359 168.421C211.353 169.113 211.829 169.701 212.381 169.897C212.933 170.106 213.512 169.967 213.873 169.701C214.247 169.435 214.431 169.079 214.513 168.827C214.601 168.589 214.608 168.428 214.635 168.428C214.656 168.428 214.697 168.582 214.649 168.876C214.601 169.155 214.438 169.582 214.022 169.918C213.621 170.253 212.946 170.456 212.272 170.218C211.605 170.008 210.998 169.288 211.005 168.428C210.998 167.568 211.605 166.848 212.272 166.638C212.946 166.401 213.621 166.603 214.022 166.939C214.438 167.275 214.601 167.701 214.649 167.981C214.697 168.274 214.656 168.428 214.635 168.428Z"
        fill="#263238" />
    <path
        d="M41.7781 293.818C41.7713 293.818 41.7577 293.741 41.7372 293.581C41.7168 293.406 41.6828 293.168 41.6487 292.874C41.5738 292.231 41.4716 291.322 41.3422 290.161C41.0834 287.777 40.7156 284.372 40.2593 280.17C39.3398 271.709 38.0797 260.067 36.6766 247.201C35.3076 234.322 34.1906 222.645 33.4891 214.184C33.1417 209.954 32.8693 206.528 32.7126 204.158C32.6377 202.99 32.5764 202.074 32.5355 201.431C32.5219 201.137 32.5083 200.899 32.4947 200.717C32.4879 200.557 32.4879 200.473 32.4947 200.473C32.5015 200.473 32.5151 200.557 32.5287 200.71C32.5492 200.885 32.5696 201.123 32.6037 201.417C32.6649 202.06 32.7467 202.976 32.8488 204.137C33.06 206.521 33.3665 209.94 33.7343 214.149C34.4971 222.603 35.655 234.273 37.024 247.152C38.393 260.032 39.6531 271.688 40.4976 280.135C40.9063 284.344 41.2332 287.756 41.4648 290.14C41.567 291.308 41.6487 292.217 41.7032 292.86C41.7236 293.154 41.7441 293.392 41.7577 293.567C41.7849 293.734 41.7849 293.818 41.7781 293.818Z"
        fill="#263238" />
    <path
        d="M32.24 197.452C32.2468 197.452 32.2604 197.536 32.274 197.696C32.2945 197.878 32.3149 198.123 32.3421 198.431C32.3966 199.095 32.4784 200.039 32.5737 201.241C32.7576 203.682 33.0709 207.22 33.4455 211.583C34.2152 220.309 35.373 232.357 36.7352 245.656C38.1315 258.948 39.3916 270.974 40.311 279.708C40.7742 284.05 41.1488 287.567 41.4076 290.028C41.5302 291.231 41.6256 292.175 41.6937 292.832C41.7209 293.14 41.7414 293.377 41.7618 293.566C41.7754 293.734 41.7754 293.818 41.7754 293.818C41.7686 293.818 41.755 293.734 41.7277 293.573C41.7005 293.391 41.6664 293.154 41.6256 292.846C41.5438 292.182 41.4281 291.245 41.2714 290.049C40.9853 287.595 40.5699 284.078 40.0658 279.743C39.0714 271.037 37.7433 259.004 36.3879 245.698C35.0257 232.399 33.9087 220.344 33.2003 211.604C32.8598 207.234 32.5805 203.703 32.4375 201.255C32.3626 200.046 32.3081 199.102 32.2672 198.438C32.2536 198.13 32.24 197.885 32.2332 197.703C32.24 197.536 32.24 197.452 32.24 197.452Z"
        fill="#263238" />
</svg>