<svg width="572" height="262" viewBox="0 33 622 292" fill="none" xmlns="http://www.w3.org/2000/svg">
    <path
        d="M-29.0664 475.258V44.5132H-34.4237V475.347L-78.7332 478.667H-34.4237H-29.0664H15.2542L-29.0664 475.258Z"
        fill="#EBEBEB" />
    <path
        d="M-46.2897 147.159L-44.8053 144.727C-32.2826 124.199 -9.63675 111.82 14.2368 113.318C17.3061 113.507 20.3642 113.929 23.3777 114.562C45.086 119.181 63.9705 135.512 71.8056 156.43C76.4151 168.731 77.6986 182.887 86.4377 192.646C97.8109 205.347 117.12 205.747 134.084 205.225C151.06 204.703 170.38 205.147 181.686 217.904C188.774 225.887 191.028 237.256 190.459 247.948C188.941 276.27 169.108 301.595 143.873 314.185C118.637 326.776 88.9378 327.897 61.3142 322.368C22.6299 314.607 -14.157 293.313 -36.2782 260.405C-58.3883 227.497 -63.98 182.665 -46.2897 147.159Z"
        fill="#EBEBEB" />
    <path
        d="M428.011 283.642C432.11 266.139 421.169 248.644 403.574 244.566C385.979 240.488 368.392 251.372 364.292 268.875C360.193 286.378 371.133 303.873 388.729 307.951C406.324 312.028 423.911 301.145 428.011 283.642Z"
        fill="#EBEBEB" />
    <path
        d="M107.133 245.074C107.211 231.906 115.861 223.49 115.861 223.49C118.518 234.326 107.133 245.074 107.133 245.074Z"
        fill="#455A64" />
    <path
        d="M119.825 238.967C131.991 233.782 143.208 238.323 143.208 238.323C134.268 245.051 119.825 238.967 119.825 238.967Z"
        fill="#455A64" />
    <path
        d="M121.264 231.95C119.154 221.78 124.445 213.875 124.445 213.875C128.273 221.813 121.264 231.95 121.264 231.95Z"
        fill="#455A64" />
    <path
        d="M72.2351 206.636C90.7736 211.543 100.718 227.575 100.718 227.575C84.8694 227.586 72.2351 206.636 72.2351 206.636Z"
        fill="#455A64" />
    <path
        d="M101.834 214.197C100.874 194.323 120.395 171.829 120.395 171.829C117.448 196.499 101.834 214.197 101.834 214.197Z"
        fill="#455A64" />
    <path
        d="M101.743 157.596C102.569 173.717 94.7225 186.063 94.7225 186.063C91.9545 173.273 101.743 157.596 101.743 157.596Z"
        fill="#455A64" />
    <path
        d="M94.2104 197.965C79.6006 196.411 71.6539 181.955 71.6539 181.955C89.3219 186.874 94.2104 197.965 94.2104 197.965Z"
        fill="#455A64" />
    <path
        d="M62.7028 258.729C73.8638 251.657 85.6722 254.333 85.6722 254.333C77.9599 262.404 62.7028 258.729 62.7028 258.729Z"
        fill="#455A64" />
    <path
        d="M100.559 265.247C97.7907 272.841 90.7481 276.249 90.7481 276.249C91.362 269.544 100.559 265.247 100.559 265.247Z"
        fill="#455A64" />
    <path
        d="M98.6737 263.115C90.3699 268.2 81.2066 266.213 81.2066 266.213C86.8318 260.384 98.6737 263.115 98.6737 263.115Z"
        fill="#455A64" />
    <path
        d="M106.145 289.86C106.134 289.86 106.123 289.76 106.112 289.56C106.112 289.327 106.1 289.038 106.089 288.694C106.089 287.873 106.089 286.762 106.078 285.363C106.089 283.92 106.089 282.144 106.045 280.101C106.011 278.047 106.011 275.715 105.9 273.128C105.777 267.966 105.408 261.815 104.873 255.009C104.281 248.203 103.444 240.731 102.306 232.937C99.9954 217.327 96.8479 203.382 94.3032 193.357C93.0308 188.349 91.9482 184.297 91.167 181.521C90.7986 180.167 90.5085 179.09 90.2964 178.302C90.2071 177.969 90.1401 177.691 90.0843 177.458C90.0397 177.269 90.0285 177.169 90.0285 177.169C90.0285 177.169 90.0732 177.258 90.1401 177.447C90.2183 177.669 90.3076 177.935 90.4192 178.268C90.6647 179.046 90.9884 180.111 91.4125 181.455C92.2719 184.219 93.4215 188.249 94.7608 193.246C97.4172 203.249 100.643 217.205 102.953 232.848C104.103 240.665 104.917 248.148 105.475 254.965C105.978 261.793 106.29 267.943 106.357 273.128C106.435 275.715 106.413 278.058 106.413 280.112C106.424 282.166 106.379 283.942 106.335 285.386C106.29 286.784 106.246 287.895 106.223 288.716C106.201 289.061 106.19 289.349 106.179 289.582C106.167 289.76 106.156 289.86 106.145 289.86Z"
        fill="#263238" />
    <path
        d="M79.3318 247.793C79.4322 247.648 85.3364 251.49 92.513 256.386C99.6896 261.282 105.426 265.368 105.326 265.523C105.225 265.668 99.3213 261.826 92.1447 256.93C84.9681 252.034 79.2313 247.948 79.3318 247.793Z"
        fill="#263238" />
    <path
        d="M105.335 249.913C105.302 249.88 105.625 249.536 106.239 248.925C106.965 248.226 107.835 247.393 108.873 246.405C111.239 244.196 114.286 241.353 117.657 238.211C121.028 235.069 124.075 232.227 126.441 230.018C127.479 229.052 128.372 228.219 129.097 227.531C129.733 226.953 130.102 226.642 130.124 226.676C130.157 226.709 129.856 227.075 129.276 227.708C128.695 228.352 127.836 229.24 126.753 230.34C124.588 232.527 121.53 235.48 118.092 238.678C114.655 241.875 111.496 244.706 109.174 246.738C108.014 247.748 107.065 248.559 106.407 249.103C105.748 249.658 105.369 249.947 105.335 249.913Z"
        fill="#263238" />
    <path
        d="M60.5791 238.377C60.5791 238.377 75.6689 238.088 82.0642 249.913C82.0642 249.913 69.1843 250.335 60.5791 238.377Z"
        fill="#455A64" />
    <path
        d="M81.1988 232.349C81.1988 232.349 93.4872 241.065 91.534 254.343C91.534 254.343 80.9421 247.049 81.1988 232.349Z"
        fill="#455A64" />
    <path
        d="M145.942 210.866C145.942 210.866 141.087 227.675 125.685 230.695C125.685 230.695 129.613 216.295 145.942 210.866Z"
        fill="#455A64" />
    <path
        d="M74.5016 148.37C74.5016 148.37 93.7656 160.872 91.6227 181.189C91.6227 181.2 75.0373 170.753 74.5016 148.37Z"
        fill="#455A64" />
    <path
        d="M138.601 259.528C138.623 259.562 138.177 259.917 137.351 260.528C136.514 261.127 135.33 262.015 133.891 263.159C131.011 265.424 127.205 268.766 123.466 272.907C119.727 277.059 116.792 281.178 114.839 284.265C113.857 285.808 113.098 287.074 112.584 287.962C112.071 288.85 111.758 289.328 111.725 289.305C111.691 289.283 111.915 288.761 112.361 287.84C112.807 286.907 113.511 285.608 114.448 284.021C116.312 280.856 119.214 276.648 122.986 272.463C126.759 268.288 130.654 264.969 133.623 262.781C135.107 261.682 136.335 260.85 137.217 260.306C138.076 259.773 138.567 259.495 138.601 259.528Z"
        fill="#263238" />
    <path
        d="M121.834 272.007C119.378 259.073 126.254 249.158 126.254 249.158C128.329 263.414 121.834 272.007 121.834 272.007Z"
        fill="#455A64" />
    <path
        d="M134.793 264.979C143.097 260.128 151.602 262.393 151.602 262.393C142.305 267.3 134.793 264.979 134.793 264.979Z"
        fill="#455A64" />
    <path d="M78.0601 291.425L85.2925 338.666H127.269L137.013 292.113L78.0601 291.425Z"
        fill="#27AE60" />
    <path
        d="M73.2518 282.077V290.915C73.2518 292.835 74.8144 294.39 76.7452 294.39H137.54C139.47 294.39 141.033 292.835 141.033 290.915V282.077H73.2518Z"
        fill="#27AE60" />
    <path
        d="M135.787 294.557C135.787 294.712 122.494 294.845 106.099 294.845C89.6918 294.845 76.4101 294.712 76.4101 294.557C76.4101 294.401 89.703 294.268 106.099 294.268C122.494 294.268 135.787 294.401 135.787 294.557Z"
        fill="#263238" />
    <path d="M513.859 205.213H350.893V49.3938H513.859V205.213Z" fill="white" />
    <path d="M513.859 49.3938H350.893V61.0665H513.859V49.3938Z" fill="#F5F5F5" />
    <path d="M513.86 180.445H350.933V205.213H359.437V228.316L380.813 205.213H513.86V180.445Z"
        fill="#EBEBEB" />
    <path
        d="M513.878 180.688C513.878 180.688 513.898 181.665 513.908 183.553C513.917 185.45 513.927 188.247 513.937 191.905C513.947 195.564 513.956 200.084 513.966 205.398V205.456C513.762 205.649 513.888 205.504 513.84 205.553H513.81H513.684H513.431H512.925C512.584 205.553 512.244 205.553 511.894 205.553C511.203 205.553 510.492 205.553 509.782 205.553C508.342 205.553 506.863 205.553 505.326 205.562C502.261 205.562 499.001 205.572 495.557 205.572C467.983 205.591 428.509 205.62 380.832 205.659L380.988 205.591C374.255 212.87 367.045 220.661 359.611 228.704L359.212 229.13V228.55C359.212 221.329 359.203 213.46 359.203 205.446L359.436 205.678C356.799 205.678 353.851 205.678 350.893 205.678H350.777L350.699 205.582L350.65 205.524V205.436C350.65 170.109 350.64 131.393 350.631 91.0133C350.631 76.9596 350.631 63.1189 350.631 49.6169V49.3652H350.884C412.153 49.3846 468.119 49.4039 513.849 49.4136H514.054V49.6169C514.015 89.6485 513.985 122.402 513.966 145.166C513.947 156.539 513.927 165.414 513.908 171.454C513.898 174.464 513.888 176.768 513.878 178.326C513.898 179.894 513.878 180.688 513.878 180.688C513.878 180.688 513.859 179.894 513.849 178.336C513.84 176.777 513.83 174.474 513.82 171.464C513.81 165.424 513.791 156.549 513.762 145.176C513.742 122.411 513.713 89.6582 513.674 49.6266L513.878 49.8298C468.148 49.8395 412.182 49.8589 350.913 49.8782L351.166 49.6266C351.166 63.1285 351.166 76.9693 351.166 91.0229C351.156 131.413 351.156 170.118 351.146 205.446L351.098 205.301L350.903 205.204C353.861 205.204 356.809 205.204 359.446 205.204H359.68V205.436C359.68 213.451 359.67 221.31 359.67 228.54L359.271 228.385C366.714 220.352 373.924 212.57 380.667 205.291L380.735 205.224H380.832C428.499 205.262 467.983 205.291 495.557 205.311C499.001 205.32 502.261 205.32 505.326 205.32C506.863 205.32 508.342 205.32 509.782 205.33C510.502 205.33 511.203 205.33 511.894 205.33C512.244 205.33 512.584 205.33 512.925 205.33H513.431H513.684H513.81H513.84C513.81 205.369 513.956 205.233 513.771 205.427V205.369C513.781 200.055 513.791 195.535 513.801 191.876C513.81 188.218 513.83 185.421 513.83 183.524C513.859 181.656 513.878 180.688 513.878 180.688Z"
        fill="#263238" />
    <path
        d="M373.944 55.6558C373.944 56.856 372.961 57.8336 371.755 57.8336C370.548 57.8336 369.566 56.856 369.566 55.6558C369.566 54.4557 370.548 53.4781 371.755 53.4781C372.961 53.4684 373.944 54.446 373.944 55.6558Z"
        fill="white" />
    <path
        d="M360.654 55.6566C360.654 56.8567 359.671 57.8343 358.465 57.8343C357.258 57.8343 356.275 56.8567 356.275 55.6566C356.275 54.4564 357.258 53.4788 358.465 53.4788C359.671 53.4692 360.654 54.4467 360.654 55.6566Z"
        fill="white" />
    <path
        d="M367.299 55.6566C367.299 56.8567 366.316 57.8343 365.11 57.8343C363.903 57.8343 362.921 56.8567 362.921 55.6566C362.921 54.4564 363.903 53.4788 365.11 53.4788C366.316 53.4692 367.299 54.4467 367.299 55.6566Z"
        fill="white" />
    <path
        d="M498.02 88.3025C492.318 88.3025 487.687 83.705 487.687 78.0236C487.687 72.3518 492.308 67.7446 498.02 67.7446C503.721 67.7446 508.353 72.3421 508.353 78.0236C508.353 83.6954 503.731 88.3025 498.02 88.3025Z"
        fill="#EBEBEB" />
    <path
        d="M497.66 78.1007C498.331 77.8974 498.817 77.2683 498.817 76.5327C498.817 75.6326 498.078 74.897 497.173 74.897C496.268 74.897 495.529 75.6326 495.529 76.5327C495.529 77.2586 496.006 77.8684 496.657 78.091C495.295 78.3136 494.254 79.4847 494.254 80.9075H500.005C500.005 79.5041 498.993 78.3426 497.66 78.1007Z"
        fill="#263238" />
    <path
        d="M500.889 78.5843C500.762 78.5843 500.655 78.4778 500.655 78.352V75.7194C500.655 75.5935 500.762 75.4871 500.889 75.4871C501.015 75.4871 501.122 75.5935 501.122 75.7194V78.352C501.122 78.4778 501.015 78.5843 500.889 78.5843Z"
        fill="#263238" />
    <path
        d="M502.204 77.2688H499.557C499.431 77.2688 499.324 77.1623 499.324 77.0365C499.324 76.9107 499.431 76.8042 499.557 76.8042H502.204C502.33 76.8042 502.437 76.9107 502.437 77.0365C502.437 77.1623 502.34 77.2688 502.204 77.2688Z"
        fill="#263238" />
    <path
        d="M469.043 193.428C469.729 189.234 466.867 185.28 462.651 184.598C458.434 183.915 454.46 186.762 453.774 190.957C453.088 195.151 455.95 199.105 460.166 199.787C464.383 200.47 468.357 197.623 469.043 193.428Z"
        fill="#27AE60" />
    <path
        d="M461.241 194.268H459.879C459.188 194.268 458.633 193.716 458.633 193.029V191.674C458.633 190.987 459.188 190.435 459.879 190.435H461.241C461.932 190.435 462.486 190.987 462.486 191.674V193.029C462.486 193.716 461.932 194.268 461.241 194.268Z"
        fill="white" />
    <path
        d="M462.845 193.039V191.742L463.818 190.706C463.945 190.571 464.178 190.658 464.178 190.851V193.813C464.178 193.997 463.964 194.094 463.828 193.968L462.845 193.039Z"
        fill="white" />
    <path
        d="M432.715 197.655C429.737 194.693 429.737 189.882 432.715 186.921C435.692 183.959 440.528 183.959 443.505 186.921C446.483 189.882 446.483 194.693 443.505 197.655C440.528 200.616 435.692 200.616 432.715 197.655Z"
        fill="#27AE60" />
    <path
        d="M434.767 193.532L436.13 193.212C436.295 193.174 436.412 193.029 436.412 192.854V192.574C436.412 192.574 436.353 192.099 436.801 192.07C437.122 192.051 439.165 192.07 439.165 192.07C439.165 192.07 439.701 192.061 439.691 192.487V192.893C439.691 193.029 439.778 193.154 439.915 193.193L441.394 193.638C441.549 193.687 441.715 193.609 441.783 193.454L441.968 192.999C442.007 192.912 442.016 192.825 442.016 192.738C442.007 192.564 441.938 192.283 441.763 192.061C441.471 191.683 440.09 190.802 437.463 190.928C434.962 191.044 434.408 192.099 434.271 192.351C434.184 192.506 434.155 192.893 434.223 193.048C434.252 193.106 434.291 193.212 434.33 193.309C434.408 193.483 434.592 193.58 434.767 193.532Z"
        fill="white" />
    <path
        d="M422.261 193.981C423.237 189.882 420.688 185.772 416.568 184.801C412.447 183.83 408.316 186.366 407.34 190.465C406.364 194.564 408.913 198.674 413.033 199.644C417.154 200.615 421.285 198.08 422.261 193.981Z"
        fill="#27AE60" />
    <path
        d="M412.379 192.999C411.961 192.999 411.62 192.66 411.62 192.244C411.62 191.828 411.961 191.489 412.379 191.489C412.797 191.489 413.138 191.828 413.138 192.244C413.128 192.66 412.788 192.999 412.379 192.999Z"
        fill="white" />
    <path
        d="M414.725 192.999C414.306 192.999 413.966 192.66 413.966 192.244C413.966 191.828 414.306 191.489 414.725 191.489C415.143 191.489 415.483 191.828 415.483 192.244C415.483 192.66 415.143 192.999 414.725 192.999Z"
        fill="white" />
    <path
        d="M417.244 192.999C416.825 192.999 416.485 192.66 416.485 192.244C416.485 191.828 416.825 191.489 417.244 191.489C417.662 191.489 418.003 191.828 418.003 192.244C418.003 192.66 417.662 192.999 417.244 192.999Z"
        fill="white" />
    <path
        d="M363.425 82.3407C366.166 82.3407 368.387 80.1307 368.387 77.4045C368.387 74.6783 366.166 72.4683 363.425 72.4683C360.685 72.4683 358.463 74.6783 358.463 77.4045C358.463 80.1307 360.685 82.3407 363.425 82.3407Z"
        fill="#455A64" />
    <path
        d="M390.795 76.6008C390.795 76.7363 386.67 76.8524 381.581 76.8524C376.493 76.8524 372.367 76.7363 372.367 76.6008C372.367 76.4653 376.493 76.3491 381.581 76.3491C386.66 76.3491 390.795 76.4556 390.795 76.6008Z"
        fill="#455A64" />
    <path
        d="M401.326 92.5234C402.814 90.6554 404.653 88.8552 405.033 86.5032C405.383 84.3351 404.429 81.9638 405.402 79.999C406.599 77.5793 410.053 77.1051 411.552 74.8596C412.272 73.7659 412.447 72.3915 413.167 71.2978C414.383 69.4297 416.884 68.8296 419.121 68.9555C421.359 69.0813 423.539 69.7782 425.777 69.8169C428.842 69.8846 431.955 68.7329 434.932 69.4685C438.221 70.2718 440.342 73.0303 442.59 75.6919L445.499 78.7601C446.093 79.2828 446.725 79.7571 447.406 80.1539C448.603 80.8411 449.946 81.296 450.987 82.1961C453.215 84.1222 453.225 88.0325 451.006 89.9779C453.4 90.607 455.21 92.9783 455.19 95.4368C455.18 96.7918 454.674 98.0888 454.334 99.3954C453.993 100.702 453.818 102.154 454.421 103.373C455.025 104.593 456.659 105.358 457.817 104.641C457.486 106.413 456.299 108.01 454.694 108.842C455.365 109.461 456.28 109.82 457.194 109.81C454.995 115.724 448.389 119.092 442.055 119.431C435.721 119.769 429.542 117.659 423.558 115.588L406.297 111.988C404.78 111.717 404.069 109.936 404.021 108.406C403.972 106.877 404.283 105.27 403.67 103.867C402.824 101.941 400.489 101.012 399.603 99.1051C398.591 96.9176 399.837 94.3915 401.326 92.5234Z"
        fill="#263238" />
    <path
        d="M442.414 106.093C443.465 102.202 444.506 98.2821 444.866 94.2654C445.226 90.2487 444.895 86.1061 443.29 82.3992C443.047 81.8378 441.023 78.0921 440.42 78.1889C439.982 78.2566 441.295 81.7797 441.091 82.1669C439.174 85.8739 438.824 90.2293 439.378 94.3525C439.923 98.4854 440.984 102.173 442.414 106.093Z"
        fill="#263238" />
    <path
        d="M442.018 90.7136C441.824 80.6089 435.752 72.2948 425.604 72.7691L424.67 72.8659C415.261 73.8531 408.178 81.8672 408.411 91.275C408.625 100.034 408.976 109.704 409.53 114.359C410.669 123.989 420.525 124.473 420.525 124.473C420.545 124.473 421.06 132.275 421.06 132.275L444.451 130.629L442.018 90.7136Z"
        fill="#B28F83" />
    <path
        d="M420.541 124.473C420.541 124.473 426.69 124.193 432.771 119.44C432.771 119.44 430.485 126.777 420.716 126.922L420.541 124.473Z"
        fill="#826A63" />
    <path
        d="M412.104 99.5297C412.152 100.256 412.814 100.817 413.583 100.778C414.351 100.74 414.925 100.12 414.877 99.3845C414.828 98.6586 414.166 98.0972 413.398 98.1359C412.629 98.1746 412.055 98.8038 412.104 99.5297Z"
        fill="#263238" />
    <path
        d="M410.916 95.0563C411.111 95.2209 412.074 94.3401 413.563 94.1852C415.052 94.011 416.219 94.6595 416.365 94.4562C416.433 94.3691 416.229 94.0594 415.713 93.769C415.207 93.4787 414.371 93.227 413.446 93.3238C412.522 93.4303 411.773 93.8465 411.364 94.2433C410.946 94.6498 410.819 94.9886 410.916 95.0563Z"
        fill="#263238" />
    <path
        d="M425.544 98.7479C425.592 99.4739 426.254 100.035 427.023 99.9965C427.791 99.9578 428.365 99.3383 428.317 98.6028C428.268 97.8768 427.606 97.3155 426.838 97.3542C426.069 97.4026 425.485 98.022 425.544 98.7479Z"
        fill="#263238" />
    <path
        d="M425.552 94.1309C425.746 94.2954 426.71 93.4146 428.198 93.2598C429.687 93.0856 430.855 93.7341 431.001 93.5405C431.069 93.4534 430.864 93.1436 430.349 92.8533C429.843 92.5629 429.006 92.3113 428.082 92.408C427.157 92.5145 426.408 92.9307 425.999 93.3275C425.581 93.7244 425.464 94.0631 425.552 94.1309Z"
        fill="#263238" />
    <path
        d="M421.428 106.082C421.428 105.995 420.485 105.937 418.967 105.899C418.577 105.899 418.217 105.86 418.12 105.608C418.003 105.347 418.12 104.921 418.256 104.456C418.519 103.508 418.792 102.501 419.074 101.456C420.202 97.1876 420.971 93.6936 420.806 93.6549C420.63 93.6162 419.58 97.0328 418.451 101.301C418.179 102.356 417.926 103.353 417.682 104.311C417.585 104.756 417.39 105.269 417.643 105.821C417.78 106.092 418.081 106.266 418.324 106.305C418.577 106.354 418.792 106.334 418.976 106.324C420.494 106.257 421.428 106.17 421.428 106.082Z"
        fill="#263238" />
    <path
        d="M425.92 106.644C425.676 106.654 425.842 108.261 424.577 109.548C423.312 110.835 421.57 110.835 421.58 111.067C421.57 111.174 421.998 111.339 422.728 111.28C423.448 111.232 424.46 110.893 425.239 110.109C426.007 109.316 426.27 108.348 426.26 107.68C426.25 107.002 426.027 106.625 425.92 106.644Z"
        fill="#263238" />
    <path
        d="M425.011 88.1101C425.196 88.4973 426.665 88.1488 428.436 88.1779C430.207 88.1682 431.666 88.5263 431.861 88.1488C431.948 87.9649 431.656 87.6068 431.053 87.2777C430.45 86.9487 429.506 86.668 428.446 86.668C427.385 86.668 426.441 86.9293 425.828 87.2584C425.215 87.5778 424.933 87.9262 425.011 88.1101Z"
        fill="#263238" />
    <path
        d="M411.005 90.0755C411.307 90.3853 412.29 89.9304 413.525 89.7852C414.751 89.6013 415.831 89.7755 416.036 89.398C416.123 89.2141 415.919 88.8947 415.432 88.6237C414.946 88.3527 414.168 88.1688 413.321 88.285C412.475 88.4011 411.774 88.7786 411.385 89.1754C410.986 89.5529 410.879 89.9207 411.005 90.0755Z"
        fill="#263238" />
    <path
        d="M441.99 97.934C442.146 97.8469 448.441 95.2723 448.927 101.893C449.414 108.513 442.632 107.632 442.613 107.439C442.584 107.255 441.99 97.934 441.99 97.934Z"
        fill="#B28F83" />
    <path
        d="M444.459 104.787C444.488 104.768 444.585 104.855 444.78 104.932C444.975 105.01 445.315 105.039 445.646 104.884C446.327 104.574 446.843 103.423 446.784 102.232C446.755 101.632 446.59 101.061 446.337 100.606C446.094 100.141 445.763 99.8221 445.403 99.7833C445.043 99.7253 444.809 99.9576 444.741 100.151C444.663 100.345 444.722 100.471 444.683 100.49C444.663 100.509 444.537 100.393 444.566 100.112C444.585 99.9769 444.653 99.8124 444.799 99.6769C444.945 99.5317 445.179 99.4543 445.432 99.4639C445.948 99.4639 446.444 99.8995 446.716 100.403C447.018 100.906 447.222 101.545 447.251 102.222C447.31 103.558 446.716 104.855 445.772 105.203C445.315 105.358 444.916 105.242 444.702 105.107C444.478 104.952 444.439 104.807 444.459 104.787Z"
        fill="#826A63" />
    <path
        d="M412.012 80.0383C410.893 79.5157 413.909 75.8377 416.478 74.473C420.36 72.4114 426.402 70.9112 430.158 71.7146C434.682 72.6824 438.516 74.6472 440.997 78.5188C443.488 82.4 444.626 87.0265 444.792 91.6239C444.84 93.0273 444.792 94.4985 444.12 95.7277C443.283 97.2473 441.561 98.283 441.766 100.296C441.843 101.032 441.678 101.787 441.201 102.358C440.063 103.722 438.496 102.609 437.737 101.438C436.103 98.9411 435.743 95.8536 435.422 92.8918C435.198 90.7819 434.964 88.6332 435.431 86.5716C435.684 85.4488 436.142 84.3745 436.336 83.2324C436.531 82.0903 436.414 80.8223 435.655 79.9609C435.529 79.8157 435.334 79.6415 435.081 79.4479C433.087 77.9284 430.421 77.5993 428.115 78.5865C424.456 80.1448 418.18 82.5258 416.429 81.3644C413.909 79.6996 413.257 78.5478 413.257 78.5478L412.012 80.0383Z"
        fill="#263238" />
    <path
        d="M429.737 70.8329C426 69.8457 421.846 70.1844 418.537 72.1686C416.786 73.2236 415.239 74.8303 414.811 76.8241C414.383 78.818 415.385 81.1796 417.331 81.8281L417.467 81.9055C420.367 82.6701 422.186 82.1765 424.959 81.0247C427.285 80.0569 429.308 78.4502 431.644 77.492C434.125 76.466 436.917 76.2144 439.544 76.7564C436.8 74.0269 433.473 71.8202 429.737 70.8329Z"
        fill="#263238" />
    <path
        d="M454.656 113.169C454.646 113.14 454.422 113.207 453.975 113.188C453.537 113.169 452.885 113.033 452.194 112.559C451.523 112.094 450.803 111.291 450.501 110.149C450.18 109.016 450.238 107.642 450.579 106.19C450.91 104.729 451.552 103.19 451.922 101.428C452.107 100.548 452.194 99.5893 452.068 98.6214C451.941 97.6535 451.601 96.6566 450.919 95.8436C450.229 95.0306 449.236 94.537 448.244 94.1595C447.251 93.7723 446.22 93.4723 445.335 92.9206C443.496 91.8269 442.367 89.775 441.657 87.6359C440.927 85.4776 440.645 83.2321 440.051 81.1124C439.477 79.0121 438.592 76.9699 437.084 75.5277C435.575 74.0953 433.571 73.4661 431.761 73.4274C429.932 73.379 428.249 73.8243 426.867 74.5018C424.094 75.9052 422.489 77.899 421.467 79.2347C420.961 79.9219 420.611 80.4736 420.377 80.8608C420.154 81.2479 420.037 81.4512 420.056 81.4609C420.076 81.4705 420.212 81.277 420.465 80.9092C420.718 80.5414 421.097 80.009 421.623 79.3412C422.674 78.0539 424.308 76.1181 427.023 74.8018C428.366 74.163 430 73.7565 431.752 73.8146C433.493 73.863 435.371 74.4824 436.782 75.8374C438.193 77.1925 439.049 79.1573 439.604 81.2286C440.187 83.2998 440.47 85.555 441.209 87.7811C441.929 89.9685 443.116 92.1366 445.101 93.3174C446.064 93.9175 447.125 94.2176 448.098 94.5854C449.061 94.9531 449.976 95.4081 450.598 96.1243C451.211 96.8502 451.542 97.76 451.669 98.6698C451.795 99.5796 451.717 100.48 451.552 101.341C451.211 103.064 450.589 104.613 450.277 106.113C449.947 107.603 449.908 109.036 450.277 110.226C450.618 111.427 451.406 112.249 452.126 112.714C452.865 113.188 453.556 113.295 454.014 113.285C454.442 113.275 454.656 113.169 454.656 113.169Z"
        fill="#455A64" />
    <path
        d="M422.74 70.7653C422.74 70.7169 421.933 70.6685 420.726 71.0654C419.529 71.4525 417.924 72.3914 416.805 74.0174C415.686 75.6434 415.394 77.4824 415.472 78.731C415.54 79.9989 415.881 80.7248 415.929 80.7152C416.007 80.6958 415.793 79.9505 415.812 78.731C415.822 77.5308 416.163 75.8177 417.204 74.2884C418.255 72.7688 419.724 71.83 420.853 71.3848C421.971 70.9202 422.75 70.8427 422.74 70.7653Z"
        fill="#455A64" />
    <path
        d="M409.334 77.4047C409.217 77.3563 408.74 78.4209 408.828 79.8244C408.906 81.2278 409.519 82.2247 409.626 82.1667C409.752 82.1086 409.382 81.0923 409.314 79.7953C409.217 78.4887 409.47 77.4434 409.334 77.4047Z"
        fill="#455A64" />
    <path
        d="M466.914 134.926L442.686 127.299L420.94 131.49L395.224 145.485L407.027 180.445H466.671L465.435 146.231L466.914 134.926Z"
        fill="#27AE60" />
    <path
        d="M420.532 132.613V128.848L444.701 125.324L444.448 132.613L420.065 135.216L420.532 132.613Z"
        fill="#27AE60" />
    <path
        d="M480.265 143.288C476.801 134.926 465.563 134.267 464.823 134.267L463.208 140.83L466.205 174.26L467.635 180.455H493.721C489.635 167.204 482.512 148.708 480.265 143.288Z"
        fill="#27AE60" />
    <path
        d="M395.225 145.486C395.225 145.486 392.063 148.806 391.596 157.817C391.129 166.828 390.078 180.446 390.078 180.446H409.158L410.413 167.05L395.225 145.486Z"
        fill="#27AE60" />
    <path
        d="M407.582 180.107C407.446 180.156 405.821 175.945 403.953 170.719C402.075 165.483 400.664 161.205 400.8 161.156C400.936 161.108 402.561 165.308 404.429 170.545C406.307 175.781 407.718 180.059 407.582 180.107Z"
        fill="#263238" />
    <path
        d="M465.523 147.277C465.659 147.267 466.049 154.623 466.379 163.692C466.71 172.761 466.876 180.127 466.73 180.127C466.593 180.137 466.204 172.781 465.873 163.712C465.543 154.642 465.377 147.287 465.523 147.277Z"
        fill="#263238" />
    <path
        d="M277.751 113.682C282.294 118.19 284.381 125.006 283.142 131.257C282.54 134.299 281.278 137.697 283.008 140.272C284.716 142.826 288.622 143.215 290.252 145.824C292.16 148.899 289.794 152.852 290.174 156.449C290.542 159.824 293.734 162.644 297.138 162.611C292.83 165.342 287.741 166.863 282.629 166.952C281.535 165.153 280.441 163.366 279.347 161.567C280.609 163.466 279.894 166.175 278.265 167.773C276.635 169.372 274.336 170.083 272.093 170.505C261.367 172.559 249.737 169.25 241.712 161.867"
        fill="#263238" />
    <path
        d="M216.565 134C217.614 131.735 219.165 129.714 219.98 127.349C221.71 122.276 219.857 116.125 222.949 111.739C225.148 108.619 229.188 107.443 232.96 106.754C236.733 106.066 240.74 105.577 243.764 103.246C245.985 101.536 247.436 98.9825 249.646 97.2616C252.805 94.8079 257.08 94.3527 261.075 94.5748C265.182 94.8079 269.346 95.685 272.806 97.9055C276.265 100.126 278.911 103.845 279.089 107.931C279.178 109.918 278.687 111.939 279.089 113.904C279.524 116.058 280.964 117.857 281.746 119.911C283.386 124.252 281.589 129.614 277.649 132.09L245.405 164.776C239.266 166.297 225.337 161.956 221.308 157.104C217.268 152.241 213.909 139.718 216.565 134Z"
        fill="#263238" />
    <path
        d="M277.452 127.416C277.263 119.112 272.162 108.742 263.836 109.275L237.674 114.737C235.141 114.904 233.165 116.958 233.11 119.489L233.355 181.708C233.288 181.719 233.232 181.73 233.176 181.741C233.176 181.741 238.322 199.505 255.666 194.886C259.104 193.965 260.811 190.346 261.648 186.571L261.827 186.604C261.849 186.149 261.872 185.738 261.905 185.305C262.653 180.942 262.374 176.778 262.374 176.778C262.642 171.771 262.72 169.706 262.72 169.761C262.72 169.761 273.423 168.429 276.191 154.729C277.542 147.912 277.653 136.643 277.452 127.416Z"
        fill="#FFBE9D" />
    <path
        d="M256.195 138.827C256.195 139.76 255.391 140.526 254.409 140.548C253.427 140.559 252.634 139.815 252.646 138.883C252.646 137.95 253.449 137.173 254.431 137.162C255.402 137.14 256.195 137.895 256.195 138.827Z"
        fill="#263238" />
    <path
        d="M274.335 138.829C274.335 139.761 273.531 140.527 272.549 140.55C271.567 140.561 270.774 139.817 270.785 138.884C270.785 137.952 271.589 137.174 272.571 137.163C273.542 137.141 274.335 137.896 274.335 138.829Z"
        fill="#263238" />
    <path
        d="M275.472 133.444C275.237 133.744 273.72 132.523 271.632 132.578C269.545 132.6 268.061 133.877 267.827 133.589C267.715 133.455 267.938 132.922 268.586 132.345C269.222 131.768 270.315 131.201 271.621 131.168C272.927 131.146 274.043 131.668 274.691 132.223C275.349 132.778 275.583 133.311 275.472 133.444Z"
        fill="#263238" />
    <path
        d="M256.147 133.4C255.868 133.666 254.394 132.312 252.173 132.145C249.952 131.945 248.245 133.033 248.022 132.734C247.91 132.6 248.211 132.101 248.959 131.601C249.696 131.101 250.923 130.668 252.307 130.78C253.691 130.891 254.819 131.523 255.444 132.134C256.091 132.745 256.281 133.278 256.147 133.4Z"
        fill="#263238" />
    <path
        d="M262.287 147.179C262.287 147.068 263.482 146.913 265.424 146.746C265.915 146.713 266.383 146.635 266.473 146.313C266.607 145.969 266.417 145.436 266.205 144.859C265.792 143.66 265.368 142.416 264.91 141.095C263.113 135.744 261.841 131.347 262.053 131.28C262.265 131.214 263.906 135.488 265.691 140.84C266.127 142.161 266.529 143.415 266.919 144.626C267.087 145.181 267.377 145.825 267.098 146.546C266.953 146.902 266.584 147.157 266.261 147.224C265.948 147.301 265.669 147.301 265.424 147.301C263.504 147.323 262.298 147.279 262.287 147.179Z"
        fill="#263238" />
    <path
        d="M262.7 169.759C262.7 169.759 253.347 169.981 244.329 164.086C244.329 164.086 248.447 173.745 262.387 173.012L262.7 169.759Z"
        fill="#EFB698" />
    <path
        d="M261.3 151.73C260.653 150.798 259.458 150.254 258.264 150.332C257.427 150.387 256.579 150.753 256.043 151.409C255.507 152.064 255.362 153.007 255.797 153.673C256.289 154.417 257.36 154.628 258.286 154.406C259.213 154.184 260.016 153.618 260.798 153.052C261.01 152.896 261.233 152.73 261.367 152.508C261.501 152.286 261.545 151.997 261.389 151.797"
        fill="#EF7954" />
    <path
        d="M256.589 148.264C256.902 148.264 256.824 150.329 258.542 151.861C260.261 153.405 262.482 153.26 262.482 153.549C262.505 153.682 261.969 153.926 261.031 153.915C260.116 153.904 258.788 153.56 257.739 152.616C256.69 151.673 256.277 150.451 256.232 149.608C256.187 148.753 256.444 148.242 256.589 148.264Z"
        fill="#263238" />
    <path
        d="M256.741 126.938C256.529 127.448 254.631 127.126 252.377 127.304C250.111 127.437 248.281 128.015 248.002 127.537C247.879 127.315 248.214 126.838 248.962 126.36C249.709 125.894 250.881 125.461 252.243 125.361C253.593 125.272 254.821 125.528 255.625 125.894C256.439 126.271 256.83 126.704 256.741 126.938Z"
        fill="#263238" />
    <path
        d="M274.259 127.637C273.857 128.059 272.373 127.548 270.554 127.448C268.746 127.304 267.194 127.604 266.859 127.137C266.714 126.915 266.971 126.493 267.663 126.105C268.344 125.727 269.46 125.439 270.699 125.516C271.938 125.605 273.009 126.038 273.623 126.505C274.248 126.971 274.438 127.426 274.259 127.637Z"
        fill="#263238" />
    <path
        d="M231.88 116.069C233.375 114.27 235.775 113.537 238.052 112.96C247.851 110.462 257.952 109.119 268.064 108.985C269.068 111.161 267.584 113.804 265.541 115.058C263.499 116.324 261.021 116.624 258.677 117.19C256.333 117.756 253.889 118.778 252.706 120.865C251.445 123.086 251.947 125.95 250.809 128.226C248.844 132.145 242.94 132.8 240.987 136.731C239.514 139.706 240.931 143.226 240.998 146.534C241.076 150.287 239.235 154.039 236.21 156.293C233.822 158.07 230.752 158.858 227.795 158.569C228.509 146.734 229.212 134.899 229.926 123.063C230.071 120.61 230.295 117.967 231.88 116.069Z"
        fill="#263238" />
    <path
        d="M204.558 142.97C206.623 141.526 209.134 140.361 210.161 138.062C211.657 134.72 209.335 130.324 211.512 127.371C213.498 124.684 218.32 125.394 220.195 122.63C221.657 120.476 220.53 118.278 221.222 116.312C221.914 114.347 225.005 112.915 227.037 113.392L240.419 138.551C240.999 146.534 242.015 150.864 239.783 155.227C238.566 157.625 237.07 159.923 236.39 162.521C235.709 165.119 236.044 168.195 238.03 170.015C228.298 169.638 219.849 163.554 212.058 157.725C209.313 155.671 206.567 153.606 203.822 151.552C202.962 150.908 202.069 150.231 201.634 149.254C200.607 146.978 202.493 144.413 204.558 142.97Z"
        fill="#263238" />
    <path
        d="M212.11 155.361C212.11 155.361 212.433 155.527 213.114 155.683C213.784 155.827 214.822 155.983 216.139 155.827C217.445 155.672 219.063 155.205 220.592 154.073C222.121 152.963 223.472 151.109 224.019 148.788C224.286 147.633 224.353 146.357 224.141 145.069C223.918 143.77 223.36 142.526 222.768 141.294C222.188 140.05 221.552 138.774 221.362 137.375C221.161 135.998 221.351 134.41 222.356 133.367C223.371 132.301 225.034 132.201 226.619 131.779C227.411 131.568 228.26 131.191 228.851 130.502C229.443 129.825 229.733 128.926 229.811 128.06C230.001 126.294 229.432 124.607 229.309 122.93C229.242 122.087 229.287 121.243 229.588 120.477C229.889 119.711 230.47 119.089 231.206 118.689C232.713 117.868 234.51 117.912 236.24 117.967C237.981 118.045 239.823 117.868 241.385 117.09C242.959 116.358 244.298 115.203 245.225 113.815C246.151 112.416 246.609 110.84 247.021 109.363C247.434 107.875 247.814 106.432 248.472 105.155C249.131 103.889 250.08 102.846 251.14 102.013C253.305 100.403 255.872 99.7038 258.171 99.7927C260.482 99.8704 262.491 100.714 263.997 101.736C265.527 102.757 266.62 103.945 267.379 104.989C268.897 107.109 269.21 108.575 269.288 108.53C269.299 108.53 269.277 108.442 269.221 108.275C269.165 108.108 269.098 107.853 268.975 107.531C268.73 106.887 268.306 105.955 267.558 104.867C266.81 103.79 265.727 102.557 264.176 101.48C262.636 100.414 260.582 99.5151 258.183 99.4041C255.805 99.2931 253.127 99.9814 250.85 101.658C249.734 102.513 248.729 103.612 248.015 104.933C247.312 106.265 246.921 107.742 246.497 109.23C246.073 110.706 245.615 112.216 244.745 113.526C243.863 114.825 242.613 115.914 241.117 116.591C239.633 117.312 237.948 117.479 236.218 117.401C234.51 117.357 232.59 117.279 230.894 118.19C230.057 118.623 229.353 119.378 229.019 120.255C228.673 121.132 228.639 122.075 228.706 122.953C228.851 124.729 229.398 126.361 229.22 127.982C229.141 128.781 228.896 129.547 228.394 130.114C227.891 130.68 227.177 131.024 226.418 131.224C225.659 131.446 224.867 131.557 224.074 131.79C223.293 132.012 222.501 132.367 221.92 132.978C220.748 134.222 220.592 135.954 220.804 137.419C221.027 138.929 221.697 140.228 222.289 141.46C222.88 142.693 223.427 143.892 223.65 145.113C223.873 146.334 223.818 147.556 223.572 148.666C223.07 150.898 221.797 152.696 220.347 153.795C218.884 154.906 217.322 155.394 216.05 155.583C213.527 155.938 212.121 155.261 212.11 155.361Z"
        fill="#455A64" />
    <path
        d="M201.196 137.308C201.196 137.308 200.973 137.519 200.784 138.052C200.594 138.574 200.504 139.473 200.917 140.483C201.129 140.972 201.475 141.505 202 141.916C202.525 142.327 203.217 142.626 203.998 142.704C205.527 142.904 207.447 142.193 208.54 140.528C209.087 139.717 209.445 138.74 209.578 137.686C209.701 136.631 209.556 135.521 209.277 134.433C208.752 132.268 207.603 130.08 207.86 127.649C207.971 126.472 208.395 125.229 209.366 124.485C210.326 123.719 211.677 123.663 213.005 123.807C214.333 123.919 215.75 124.252 217.235 123.863C217.96 123.663 218.652 123.23 219.121 122.62C219.601 122.02 219.902 121.309 220.081 120.588C220.438 119.111 220.248 117.657 220.237 116.28C220.181 114.903 220.427 113.571 220.929 112.35C221.934 109.907 223.887 107.986 226.108 107.009C228.351 105.999 230.784 106.143 232.983 106.277C235.193 106.421 237.325 106.532 239.2 106.032C241.075 105.577 242.626 104.744 243.843 103.834C245.071 102.935 245.941 101.947 246.566 101.092C247.805 99.3486 248.073 98.1828 248.073 98.1828C248.006 98.1495 247.66 99.2931 246.388 100.958C245.74 101.78 244.87 102.724 243.653 103.579C242.448 104.445 240.919 105.233 239.099 105.644C237.28 106.099 235.215 105.966 233.006 105.81C230.818 105.666 228.284 105.477 225.896 106.532C223.541 107.553 221.476 109.552 220.405 112.139C219.869 113.427 219.612 114.87 219.668 116.28C219.69 117.69 219.847 119.111 219.523 120.443C219.222 121.776 218.373 122.986 217.079 123.308C215.806 123.652 214.411 123.363 213.061 123.241C211.721 123.097 210.17 123.141 209.043 124.052C207.904 124.94 207.458 126.339 207.346 127.593C207.223 128.881 207.458 130.136 207.804 131.268C208.139 132.412 208.54 133.478 208.819 134.533C209.098 135.587 209.244 136.631 209.143 137.619C209.032 138.607 208.708 139.529 208.206 140.295C207.212 141.849 205.46 142.526 204.031 142.382C203.306 142.327 202.659 142.06 202.167 141.694C201.676 141.327 201.342 140.839 201.118 140.384C200.694 139.44 200.739 138.585 200.895 138.074C201.04 137.564 201.23 137.33 201.196 137.308Z"
        fill="#263238" />
    <path
        d="M302.218 154.95C302.128 154.939 302.631 155.927 301.894 157.459C301.526 158.17 300.789 159.014 299.651 159.247C298.535 159.48 297.084 159.025 296.224 157.87C295.789 157.304 295.588 156.549 295.633 155.761C295.677 154.972 295.923 154.162 296.291 153.373C296.994 151.808 298.256 150.165 298.345 148.022C298.468 145.957 297.675 143.725 296.068 142.127C295.276 141.327 294.316 140.672 293.244 140.195C292.184 139.706 291.012 139.495 289.862 139.295C288.713 139.107 287.586 138.94 286.57 138.563C285.554 138.196 284.672 137.552 284.159 136.653C283.657 135.765 283.512 134.71 283.556 133.7C283.601 132.678 283.847 131.712 284.159 130.769C284.784 128.892 285.577 127.105 285.688 125.251C285.811 123.419 285.298 121.72 284.516 120.388C283.735 119.033 282.619 118.134 281.681 117.379C280.733 116.624 279.94 115.98 279.371 115.358C278.21 114.126 278.099 113.116 278.032 113.149C278.021 113.149 278.032 113.205 278.054 113.327C278.087 113.438 278.099 113.615 278.188 113.815C278.333 114.237 278.646 114.848 279.204 115.503C279.762 116.158 280.554 116.846 281.48 117.623C282.396 118.4 283.445 119.289 284.17 120.588C284.896 121.864 285.353 123.497 285.219 125.217C285.097 126.949 284.315 128.693 283.668 130.602C283.344 131.557 283.076 132.59 283.021 133.666C282.965 134.743 283.11 135.898 283.679 136.92C284.248 137.941 285.275 138.685 286.369 139.085C287.474 139.495 288.635 139.662 289.773 139.851C290.912 140.039 292.016 140.25 293.021 140.705C294.025 141.15 294.93 141.76 295.677 142.504C297.184 143.992 297.932 146.057 297.831 147.978C297.776 149.932 296.604 151.519 295.878 153.163C295.51 153.995 295.242 154.85 295.209 155.727C295.175 156.593 295.421 157.459 295.912 158.092C296.905 159.369 298.501 159.835 299.729 159.535C300.99 159.236 301.749 158.303 302.106 157.537C302.474 156.738 302.486 156.038 302.43 155.594C302.34 155.161 302.218 154.95 302.218 154.95Z"
        fill="#263238" />
    <path
        d="M351.779 277.201L346.846 269.785L338.933 265.832L338.631 265.621C336.042 263.745 332.749 263.145 329.647 263.956C326.421 264.811 322.124 265.877 318.396 266.509L309.88 264.189V280.732L352.851 278.034L351.779 277.201Z"
        fill="#FFBE9D" />
    <path
        d="M351.487 276.746C351.531 276.69 350.839 276.057 349.667 275.091C348.507 274.125 346.877 272.815 345.058 271.405C344.466 270.95 343.897 270.506 343.35 270.095L343.306 270.062L343.25 270.051C341.486 269.718 339.957 269.451 338.864 269.285C337.77 269.118 337.111 269.052 337.1 269.107C337.089 269.163 337.725 269.351 338.797 269.607C339.868 269.862 341.386 270.195 343.149 270.55L343.038 270.506C343.574 270.928 344.143 271.372 344.734 271.838C346.554 273.259 348.217 274.514 349.444 275.402C350.661 276.29 351.442 276.812 351.487 276.746Z"
        fill="#EB996E" />
    <path
        d="M348.141 278.189C348.208 278.055 345.44 276.401 341.958 274.48C341.433 274.192 340.931 273.925 340.451 273.659L340.395 273.626H340.339C337.181 273.448 334.848 273.403 334.837 273.537C334.826 273.659 337.158 273.914 340.306 274.147L340.194 274.114C340.674 274.381 341.176 274.658 341.69 274.947C345.183 276.867 348.063 278.322 348.141 278.189Z"
        fill="#EB996E" />
    <path
        d="M401.804 230.403C400.364 229.604 398.545 229.982 397.563 231.303L362.953 277.933L308.185 278.666C305.998 278.799 303.341 283.196 305.306 285.317L367.149 284.473L402.853 235.122C404.003 233.568 403.512 231.358 401.804 230.403Z"
        fill="#E0E0E0" />
    <path
        d="M401.801 230.404C401.801 230.393 401.901 230.448 402.08 230.548C402.247 230.659 402.504 230.848 402.772 231.159C403.285 231.736 403.91 233.046 403.274 234.567C402.928 235.3 402.348 235.944 401.812 236.743C401.254 237.521 400.64 238.376 399.993 239.297C398.676 241.14 397.158 243.25 395.461 245.614C388.653 255.074 378.954 268.541 367.369 284.629L367.291 284.729H367.157C349.344 284.984 328.551 285.273 306.441 285.584C306.061 285.584 305.693 285.595 305.325 285.595H305.191L305.101 285.495C304.543 284.895 304.32 284.062 304.342 283.296C304.365 282.519 304.588 281.786 304.923 281.12C305.258 280.454 305.693 279.832 306.251 279.322C306.787 278.822 307.501 278.356 308.327 278.356C311.173 278.322 313.997 278.278 316.787 278.245C322.368 278.167 327.825 278.1 333.138 278.034C343.752 277.901 353.764 277.778 362.96 277.656L362.759 277.756C374.021 262.657 383.396 250.089 389.981 241.262C393.274 236.888 395.863 233.435 397.649 231.07C398.665 229.904 400.015 229.827 400.729 229.96C401.488 230.137 401.801 230.404 401.801 230.404C401.79 230.437 401.455 230.182 400.707 230.071C399.993 229.96 398.709 230.071 397.749 231.203C395.997 233.59 393.441 237.065 390.205 241.473C383.664 250.322 374.345 262.945 363.15 278.089L363.072 278.189H362.949C353.764 278.322 343.752 278.467 333.138 278.622C327.825 278.7 322.379 278.778 316.798 278.855C314.008 278.889 311.184 278.933 308.338 278.966C307.702 278.955 307.133 279.322 306.642 279.777C306.151 280.232 305.749 280.798 305.436 281.409C304.833 282.597 304.621 284.162 305.514 285.139L305.291 285.051C305.659 285.051 306.039 285.039 306.407 285.039C328.517 284.751 349.322 284.484 367.123 284.251L366.923 284.362C378.586 268.319 388.341 254.896 395.194 245.47C396.912 243.127 398.441 241.029 399.781 239.197C400.45 238.287 401.064 237.443 401.633 236.666C402.18 235.877 402.772 235.211 403.107 234.534C403.732 233.091 403.163 231.825 402.683 231.237C402.203 230.593 401.779 230.437 401.801 230.404Z"
        fill="#263238" />
    <path
        d="M235.918 176.411C232.96 176.733 228.853 178.632 226.71 180.686C223.228 184.039 220.705 188.635 219.344 192.688C217.513 198.139 218.339 219.667 218.339 225.907C218.339 232.146 219.935 255.561 220.717 259.458C221.509 263.355 220.203 269.151 218.395 272.915C215.136 279.676 220.214 283.14 220.214 283.14L287.415 282.641L287.147 280.142C286.69 275.801 288.308 271.371 286.645 267.33C284.904 263.1 282.951 256.405 283.553 248.6C284.413 237.464 287.761 229.859 285.707 223.397C282.571 213.538 272.225 191.133 259.724 181.552C259.724 181.552 249.869 179.454 247.637 178.676C242.548 176.922 239.869 175.967 235.918 176.411Z"
        fill="#27AE60" />
    <path
        d="M314.918 262.267L257.505 250.343L256.032 200.759C256.032 200.759 254.023 180.564 243.844 178.688L219.345 209.031C220.718 224.319 219.468 253.252 226.533 264.421C233.598 275.579 240.473 284.528 257.862 283.729C275.262 282.94 313.601 282.574 313.601 282.574L314.918 262.267Z"
        fill="#27AE60" />
    <path
        d="M257.626 250.543C257.76 250.654 256.387 252.442 255.226 254.929C254.054 257.416 253.552 259.614 253.385 259.581C253.239 259.57 253.485 257.26 254.702 254.685C255.896 252.109 257.514 250.432 257.626 250.543Z"
        fill="#263238" />
    <g opacity="0.3">
        <path
            d="M255.627 198.65C261.364 216.181 260.114 243.204 271.052 253.163L257.502 250.354C257.502 250.354 257.96 245.158 257.614 240.828C256.52 226.972 256.386 212.872 255.627 198.65Z"
            fill="black" />
    </g>
    <path
        d="M254.358 192.388C254.358 192.388 254.837 193.732 255.362 196.363C255.619 197.684 255.887 199.316 256.065 201.27C256.255 203.225 256.277 205.478 256.378 207.999C256.701 218.113 257.17 232.635 257.739 250.333L257.55 250.111C274.001 253.508 293.622 257.571 314.973 261.979L315.219 262.035L315.208 262.279C314.784 268.774 314.337 275.613 313.891 282.574L313.868 282.841H313.601C311.391 282.863 309.013 282.896 306.625 282.918C296.647 283.041 286.903 283.196 277.494 283.396C272.796 283.496 268.175 283.618 263.655 283.762C259.146 283.873 254.681 284.306 250.351 283.629C248.186 283.363 246.11 282.752 244.112 282.03C242.147 281.209 240.272 280.254 238.598 279.033C235.216 276.646 232.593 273.559 230.317 270.473C229.201 268.907 228.14 267.342 227.147 265.787L226.399 264.621C226.165 264.222 225.964 263.811 225.741 263.411C225.529 263.012 225.305 262.601 225.093 262.201C224.926 261.779 224.758 261.357 224.602 260.947C223.307 257.616 222.549 254.252 222.035 251.032C220.964 244.593 220.64 238.708 220.35 233.546C220.093 228.383 219.97 223.931 219.848 220.3C219.736 216.67 219.602 213.85 219.502 211.929C219.446 210.985 219.401 210.264 219.368 209.753C219.345 209.264 219.345 209.009 219.345 209.009C219.345 209.009 219.379 209.253 219.435 209.742C219.479 210.252 219.546 210.974 219.624 211.918C219.758 213.827 219.926 216.647 220.082 220.289C220.249 223.92 220.394 228.372 220.685 233.523C220.997 238.675 221.354 244.559 222.448 250.954C222.973 254.152 223.732 257.483 225.026 260.769C225.194 261.18 225.35 261.591 225.517 262.001C225.729 262.39 225.941 262.79 226.154 263.178C226.366 263.567 226.567 263.978 226.801 264.366L227.549 265.521C228.542 267.075 229.602 268.63 230.718 270.173C232.984 273.226 235.585 276.268 238.911 278.6C240.551 279.799 242.393 280.72 244.313 281.52C246.277 282.219 248.308 282.819 250.44 283.074C254.692 283.729 259.123 283.307 263.644 283.185C268.164 283.029 272.784 282.907 277.494 282.807C286.903 282.596 296.647 282.441 306.625 282.319C309.013 282.297 311.391 282.263 313.612 282.241L313.321 282.508C313.779 275.546 314.226 268.707 314.65 262.212L314.873 262.512C293.533 258.06 273.923 253.974 257.471 250.532L257.293 250.499V250.321C256.802 232.624 256.411 218.091 256.132 207.976C256.054 205.456 256.043 203.202 255.887 201.259C255.73 199.316 255.496 197.673 255.25 196.363C255.016 195.042 254.782 194.043 254.614 193.377C254.536 193.055 254.469 192.81 254.425 192.622C254.369 192.477 254.358 192.388 254.358 192.388Z"
        fill="#263238" />
    <path
        d="M278.902 287.98C278.902 287.98 374.016 278.987 381.07 285.415C388.124 291.844 393.994 305.877 391.651 310.552C389.296 315.226 384.016 331.014 384.016 331.014L340.209 321.077L278.902 287.98Z"
        fill="#263238" />
    <path
        d="M221.822 283.073C221.822 283.073 213.596 320.488 227.113 335.677C240.629 350.876 260.607 350.876 281.177 347.956C301.747 345.036 350.565 344.015 350.565 344.015C350.565 344.015 348.389 357.293 346.793 372.415C345.197 387.57 344.873 397.085 344.873 397.085L375.443 399.616C375.443 399.616 392.475 348.056 395.098 337.842C397.71 327.65 396.828 313.916 387.776 308.82C380.097 304.512 319.56 287.814 290.574 285.327L287.427 282.64L221.822 283.073Z"
        fill="#263238" />
    <path
        d="M361.884 300.46C361.75 300.382 362.386 298.928 363.491 297.318C364.596 295.697 365.723 294.576 365.846 294.676C365.969 294.776 365.053 296.052 363.971 297.64C362.888 299.228 362.029 300.538 361.884 300.46Z"
        fill="#455A64" />
    <path
        d="M396.371 323.487C396.36 323.487 396.326 323.387 396.282 323.198C396.226 322.976 396.159 322.688 396.069 322.332C395.891 321.577 395.601 320.456 395.154 319.046C394.697 317.636 394.038 315.937 392.978 314.128C391.917 312.351 390.4 310.364 388.045 309.187C383.212 307 377.196 304.924 370.432 302.959C363.669 300.949 356.224 298.817 348.345 296.741C332.608 292.578 318.154 289.602 307.629 287.87C302.372 286.982 298.098 286.382 295.14 285.972C293.7 285.772 292.562 285.627 291.736 285.516C291.379 285.461 291.088 285.417 290.854 285.383C290.653 285.35 290.553 285.328 290.553 285.317C290.553 285.306 290.653 285.306 290.854 285.328C291.088 285.35 291.379 285.372 291.747 285.405C292.573 285.494 293.711 285.605 295.162 285.761C298.131 286.105 302.417 286.649 307.696 287.482C318.254 289.114 332.73 292.034 348.49 296.197C356.37 298.273 363.825 300.416 370.578 302.459C377.352 304.457 383.357 306.578 388.223 308.832C390.679 310.086 392.197 312.151 393.246 313.972C394.295 315.826 394.92 317.558 395.355 318.979C395.779 320.412 396.025 321.544 396.17 322.31C396.237 322.666 396.281 322.954 396.326 323.187C396.371 323.387 396.382 323.487 396.371 323.487Z"
        fill="#455A64" />
</svg>